<?xml version="1.0" encoding="UTF-8"?>
<svg xmlns="http://www.w3.org/2000/svg" xmlns:xlink="http://www.w3.org/1999/xlink" height="800" width="800" viewBox="-10 -10 30 30" preserveAspectRatio="xMinYMin meet" zoomAndPan="disable" onload="if (parent.svgViewerNotifyOnLoad) parent.svgViewerNotifyOnLoad(evt);">
<defs>
	<pattern id="svgEditorGrid0" patternUnits="userSpaceOnUse" x="0" y="0" width="10" height="10" viewBox="0 0 10 10" >
		<defs>
			<marker id="svgEditorGridMkCircle" viewBox="0 0 2 2" refX="1" refY="1" markerUnits="strokeWidth" markerWidth="2" markerHeight="2" orient="0deg">
			   <circle cx="1" cy="1" r="1" style="fill:black;stroke:none;"/>
			</marker>
			<marker id="svgEditorGridMkSquare" viewBox="0 0 2 2" refX="1" refY="1" markerUnits="strokeWidth" markerWidth="2" markerHeight="2" orient="0deg">
			   <rect x="0" y="0" width="2"  height="2" style="fill:black;stroke:none;"/>
			</marker>
		</defs>
		<g marker-start='url(#svgEditorGridMkCircle)'  marker-end='url(#svgEditorGridMkCircle)' marker-mid='url(#svgEditorGridMkCircle)'  stroke="none">
			<path d="M0,0M10,0M10,10M0,10"  stroke-width="0.4"/>
			<path d="M5,0M0,5M5,5M10,5M5,10"  stroke-width="0.2"/>
			<g  stroke-width="0.125">
				<path d="M1,0M2,0M3,0M4,0M6,0M7,0M8,0M9,0" />
				<path d="M0,1M1,1M2,1M3,1M4,1M5,1M6,1M7,1M8,1M9,1M10,1"  />
				<path d="M0,2M1,2M2,2M3,2M4,2M5,2M6,2M7,2M8,2M9,2M10,2"  />
				<path d="M0,3M1,3M2,3M3,3M4,3M5,3M6,3M7,3M8,3M9,3M10,3"  />
				<path d="M0,4M1,4M2,4M3,4M4,4M5,4M6,4M7,4M8,4M9,4M10,4"  />
				<path d="M1,5M2,5M3,5M4,5M6,5M7,5M8,5M9,5"  />
				<path d="M0,6M1,6M2,6M3,6M4,6M5,6M6,6M7,6M8,6M9,6M10,6"  />
				<path d="M0,7M1,7M2,7M3,7M4,7M5,7M6,7M7,7M8,7M9,7M10,7"  />
				<path d="M0,8M1,8M2,8M3,8M4,8M5,8M6,8M7,8M8,8M9,8M10,8"  />
				<path d="M0,9M1,9M2,9M3,9M4,9M5,9M6,9M7,9M8,9M9,9M10,9"  />
				<path d="M1,10M2,10M3,10M4,10M6,10M7,10M8,10M9,10"  />
			</g>
		</g>
    </pattern>
 
	<pattern id="svgEditorGrid1" patternUnits="userSpaceOnUse" x="0" y="0" width="10" height="10" viewBox="0 0 10 10" >
		<g marker-start='url(#svgEditorGridMkSquare)'  marker-end='url(#svgEditorGridMkSquare)' marker-mid='url(#svgEditorGridMkSquare)'  stroke="none">
			<path d="M0,0M10,0M10,10M0,10"  stroke-width="0.4"/>
			<path d="M5,0M0,5M5,5M10,5M5,10"  stroke-width="0.2"/>
			<g  stroke-width="0.125">
				<path d="M1,0M2,0M3,0M4,0M6,0M7,0M8,0M9,0"  />
				<path d="M0,1M1,1M2,1M3,1M4,1M5,1M6,1M7,1M8,1M9,1M10,1"  />
				<path d="M0,2M1,2M2,2M3,2M4,2M5,2M6,2M7,2M8,2M9,2M10,2"  />
				<path d="M0,3M1,3M2,3M3,3M4,3M5,3M6,3M7,3M8,3M9,3M10,3"  />
				<path d="M0,4M1,4M2,4M3,4M4,4M5,4M6,4M7,4M8,4M9,4M10,4"  />
				<path d="M1,5M2,5M3,5M4,5M6,5M7,5M8,5M9,5"  />
				<path d="M0,6M1,6M2,6M3,6M4,6M5,6M6,6M7,6M8,6M9,6M10,6"  />
				<path d="M0,7M1,7M2,7M3,7M4,7M5,7M6,7M7,7M8,7M9,7M10,7"  />
				<path d="M0,8M1,8M2,8M3,8M4,8M5,8M6,8M7,8M8,8M9,8M10,8"  />
				<path d="M0,9M1,9M2,9M3,9M4,9M5,9M6,9M7,9M8,9M9,9M10,9"  />
				<path d="M1,10M2,10M3,10M4,10M6,10M7,10M8,10M9,10"  />
			</g>
		</g>
    </pattern> 
   
	<pattern id="svgEditorGrid3" patternUnits="userSpaceOnUse" x="0" y="0" width="10" height="10" viewBox="0 0 10 10" >
	 
	 <g style="fill:none;stroke:black;stroke-width:0.4" transform="scale(0.1)">
	    <!-- troisieme niveau 10 1 -->
	     <g style="stroke-dasharray:2 8;">
		<path d="M-1 0 h102 M-1 10 h102 M-1 20 h102 M-1 30 h102 M-1 40 h102 M-1 50 h102 M-1 60 h102 M-1 70 h102 M-1 80 h102 M-1 90 h102 M-1 100 h102"/>
		<path d="M0-1 v102 M10-1 v102 M20-1 v102 M30-1 v102 M40-1 v102 M50 -1 v102 M60-1 v102 M70-1 v102 M80-1 v102 M90-1 v102 M100-1 v102"/>
	     </g>
	     <!-- deuxieme niveau 50/3 -->
	     <g style="stroke-dasharray:6 44;">
		<path d="M-3 0 h106 M-3 50 h106 M-3 100 h106"/>
		<path d="M0-3 v106 M50-3 v106 M100-3 v106"/>
	     </g>
	     <!-- premier niveau 100/5 -->
	      <g style="stroke-dasharray:10 90;">
		<path d="M-5 0 h110 M-5 100 h110"/>
		<path d="M0-5 v119 M100-5 v110"/>
	     </g>
	 </g>
	</pattern> 
</defs>
  
<rect fill="url(#svgEditorGrid3)" style="vector-effect:non-scaling-stroke;stroke:black;stroke-width:1px" x="0" y="0" width="40" height="40"/>

<rect style="vector-effect:non-scaling-stroke;stroke:black;stroke-width:1px;fill:none;" x="2" y="2" width="40" height="40"/>
<rect style="vector-effect:non-scaling-stroke;stroke:black;stroke-width:1px;fill:none;" x="10" y="10" width="20" height="20"/>

  
</svg>