<?xml version="1.0" encoding="UTF-8" standalone="no"?><svg xmlns="http://www.w3.org/2000/svg" xmlns:xlink="http://www.w3.org/1999/xlink" height="500" viewBox="0 0 700 500" width="700"><defs id="patterns"><pattern height="10" id="hatch-black-45" patternTransform="rotate(45) scale(0.4)" patternUnits="userSpaceOnUse" viewBox="0 0 10 10" width="10" x="0" y="0"><line style="stroke:black;stroke-width:1px;" x1="0" x2="10" y1="5" y2="5"/></pattern><pattern height="10" id="hatch-black-dash-45" patternTransform="rotate(45) scale(0.4)" patternUnits="userSpaceOnUse" viewBox="0 0 24 10" width="24" x="0" y="0"><line style="stroke:black;stroke-width:1px;stroke-dasharray:4,4;" x1="0" x2="24" y1="5" y2="5"/></pattern><pattern height="10" id="hatch-black-120" patternTransform="rotate(120) scale(0.4)" patternUnits="userSpaceOnUse" viewBox="0 0 10 10" width="10" x="0" y="0"><line style="stroke:black;stroke-width:1px;" x1="0" x2="10" y1="5" y2="5"/></pattern><pattern height="10" id="hatch-black-dash-120" patternTransform="rotate(120) scale(0.4)" patternUnits="userSpaceOnUse" viewBox="0 0 24 10" width="24" x="0" y="0"><line style="stroke:black;stroke-width:1px;stroke-dasharray:4,4;" x1="0" x2="24" y1="5" y2="5"/></pattern><pattern height="10" id="hatch-blue-45" patternTransform="rotate(45) scale(0.4)" patternUnits="userSpaceOnUse" viewBox="0 0 10 10" width="10" x="0" y="0"><line style="stroke:blue;stroke-width:1px;" x1="0" x2="10" y1="5" y2="5"/></pattern><pattern height="10" id="hatch-blue-dash-45" patternTransform="rotate(45) scale(0.4)" patternUnits="userSpaceOnUse" viewBox="0 0 24 10" width="24" x="0" y="0"><line style="stroke:blue;stroke-width:1px;stroke-dasharray:4,4;" x1="0" x2="24" y1="5" y2="5"/></pattern><pattern height="10" id="hatch-blue-120" patternTransform="rotate(120) scale(0.4)" patternUnits="userSpaceOnUse" viewBox="0 0 10 10" width="10" x="0" y="0"><line style="stroke:blue;stroke-width:1px;" x1="0" x2="10" y1="5" y2="5"/></pattern><pattern height="10" id="hatch-blue-dash-120" patternTransform="rotate(120) scale(0.4)" patternUnits="userSpaceOnUse" viewBox="0 0 24 10" width="24" x="0" y="0"><line style="stroke:blue;stroke-width:1px;stroke-dasharray:4,4;" x1="0" x2="24" y1="5" y2="5"/></pattern><pattern height="10" id="hatch-green-45" patternTransform="rotate(45) scale(0.4)" patternUnits="userSpaceOnUse" viewBox="0 0 10 10" width="10" x="0" y="0"><line style="stroke:green;stroke-width:1px;" x1="0" x2="10" y1="5" y2="5"/></pattern><pattern height="10" id="hatch-green-dash-45" patternTransform="rotate(45) scale(0.4)" patternUnits="userSpaceOnUse" viewBox="0 0 24 10" width="24" x="0" y="0"><line style="stroke:green;stroke-width:1px;stroke-dasharray:4,4;" x1="0" x2="24" y1="5" y2="5"/></pattern><pattern height="10" id="hatch-green-120" patternTransform="rotate(120) scale(0.4)" patternUnits="userSpaceOnUse" viewBox="0 0 10 10" width="10" x="0" y="0"><line style="stroke:green;stroke-width:1px;" x1="0" x2="10" y1="5" y2="5"/></pattern><pattern height="10" id="hatch-green-dash-120" patternTransform="rotate(120) scale(0.4)" patternUnits="userSpaceOnUse" viewBox="0 0 24 10" width="24" x="0" y="0"><line style="stroke:green;stroke-width:1px;stroke-dasharray:4,4;" x1="0" x2="24" y1="5" y2="5"/></pattern><pattern height="10" id="hatch-red-45" patternTransform="rotate(45) scale(0.4)" patternUnits="userSpaceOnUse" viewBox="0 0 10 10" width="10" x="0" y="0"><line style="stroke:red;stroke-width:1px;" x1="0" x2="10" y1="5" y2="5"/></pattern><pattern height="10" id="hatch-red-dash-45" patternTransform="rotate(45) scale(0.4)" patternUnits="userSpaceOnUse" viewBox="0 0 24 10" width="24" x="0" y="0"><line style="stroke:red;stroke-width:1px;stroke-dasharray:4,4;" x1="0" x2="24" y1="5" y2="5"/></pattern><pattern height="10" id="hatch-red-120" patternTransform="rotate(120) scale(0.4)" patternUnits="userSpaceOnUse" viewBox="0 0 10 10" width="10" x="0" y="0"><line style="stroke:red;stroke-width:1px;" x1="0" x2="10" y1="5" y2="5"/></pattern><pattern height="10" id="hatch-red-dash-120" patternTransform="rotate(120) scale(0.4)" patternUnits="userSpaceOnUse" viewBox="0 0 24 10" width="24" x="0" y="0"><line style="stroke:red;stroke-width:1px;stroke-dasharray:4,4;" x1="0" x2="24" y1="5" y2="5"/></pattern><pattern height="20%" id="star-navy-obox" patternUnits="objectBoundingBox" viewBox="-20 -20 168 168" width="20%" x="0%" y="0%"><path d="M63.999 0l-20.001 40.020-44 8 32 28-8 44 40.001-20 39.999 20-7.999-44 32.001-28-44.002-7.946z" style="fill:navy;stroke:none;"/></pattern><pattern height="10" id="star-navy-usr" patternUnits="userSpaceOnUse" viewBox="-20 -20 168 168" width="10" x="0" y="0"><path d="M63.999 0l-20.001 40.020-44 8 32 28-8 44 40.001-20 39.999 20-7.999-44 32.001-28-44.002-7.946z" style="fill:navy;stroke:none;"/></pattern><pattern height="20%" id="sun-gold-obox" patternUnits="objectBoundingBox" viewBox="-20 -20 168 168" width="20%" x="0%" y="0%"><path d="M72 16.677v-8.677c0-4.419-3.581-8-8-8s-8 3.581-8 8v8.677c2.603-0.436 5.273-0.677 8-0.677s5.397 0.24 8 0.677z" style="fill:gold;stroke:none;"/><path d="M18.745 109.255c3.125 3.124 8.189 3.124 11.314 0l6.139-6.139c-4.373-3.114-8.199-6.941-11.314-11.314l-6.139 6.139c-3.123 3.123-3.123 8.189 0 11.314z" style="fill:gold;stroke:none;"/><path d="M56 111.323v8.677c0 4.419 3.581 8 8 8s8-3.581 8-8v-8.677c-2.603 0.436-5.273 0.677-8 0.677s-5.397-0.24-8-0.677z" style="fill:gold;stroke:none;"/><path d="M36.197 24.884l-6.139-6.139c-3.125-3.124-8.189-3.124-11.314 0s-3.124 8.189 0 11.314l6.139 6.139c3.115-4.374 6.941-8.2 11.314-11.314z" style="fill:gold;stroke:none;"/><path d="M8 72h8.677c-0.437-2.603-0.677-5.273-0.677-8s0.239-5.397 0.677-8h-8.677c-4.419 0-8 3.581-8 8s3.581 8 8 8z" style="fill:gold;stroke:none;"/><path d="M120 56h-8.677c0.437 2.603 0.677 5.273 0.677 8s-0.239 5.397-0.677 8h8.677c4.419 0 8-3.581 8-8s-3.581-8-8-8z" style="fill:gold;stroke:none;"/><path d="M109.255 18.745c-3.124-3.124-8.189-3.124-11.314 0l-6.139 6.139c4.373 3.114 8.199 6.941 11.314 11.314l6.139-6.139c3.123-3.123 3.123-8.189 0-11.314z" style="fill:gold;stroke:none;"/><path d="M109.255 109.255c3.124-3.124 3.124-8.189 0-11.314l-6.139-6.139c-3.114 4.373-6.941 8.2-11.314 11.314l6.139 6.139c3.123 3.123 8.189 3.123 11.314 0z" style="fill:gold;stroke:none;"/><path d="M104 64c0 22.091-17.909 40-40 40s-40-17.909-40-40c0-22.091 17.909-40 40-40s40 17.909 40 40z" style="fill:gold;stroke:none;"/></pattern><pattern height="10" id="sun-gold-usr" patternUnits="userSpaceOnUse" viewBox="-20 -20 168 168" width="10" x="0" y="0"><path d="M72 16.677v-8.677c0-4.419-3.581-8-8-8s-8 3.581-8 8v8.677c2.603-0.436 5.273-0.677 8-0.677s5.397 0.24 8 0.677z" style="fill:gold;stroke:none;"/><path d="M18.745 109.255c3.125 3.124 8.189 3.124 11.314 0l6.139-6.139c-4.373-3.114-8.199-6.941-11.314-11.314l-6.139 6.139c-3.123 3.123-3.123 8.189 0 11.314z" style="fill:gold;stroke:none;"/><path d="M56 111.323v8.677c0 4.419 3.581 8 8 8s8-3.581 8-8v-8.677c-2.603 0.436-5.273 0.677-8 0.677s-5.397-0.24-8-0.677z" style="fill:gold;stroke:none;"/><path d="M36.197 24.884l-6.139-6.139c-3.125-3.124-8.189-3.124-11.314 0s-3.124 8.189 0 11.314l6.139 6.139c3.115-4.374 6.941-8.2 11.314-11.314z" style="fill:gold;stroke:none;"/><path d="M8 72h8.677c-0.437-2.603-0.677-5.273-0.677-8s0.239-5.397 0.677-8h-8.677c-4.419 0-8 3.581-8 8s3.581 8 8 8z" style="fill:gold;stroke:none;"/><path d="M120 56h-8.677c0.437 2.603 0.677 5.273 0.677 8s-0.239 5.397-0.677 8h8.677c4.419 0 8-3.581 8-8s-3.581-8-8-8z" style="fill:gold;stroke:none;"/><path d="M109.255 18.745c-3.124-3.124-8.189-3.124-11.314 0l-6.139 6.139c4.373 3.114 8.199 6.941 11.314 11.314l6.139-6.139c3.123-3.123 3.123-8.189 0-11.314z" style="fill:gold;stroke:none;"/><path d="M109.255 109.255c3.124-3.124 3.124-8.189 0-11.314l-6.139-6.139c-3.114 4.373-6.941 8.2-11.314 11.314l6.139 6.139c3.123 3.123 8.189 3.123 11.314 0z" style="fill:gold;stroke:none;"/><path d="M104 64c0 22.091-17.909 40-40 40s-40-17.909-40-40c0-22.091 17.909-40 40-40s40 17.909 40 40z" style="fill:gold;stroke:none;"/></pattern><pattern height="20%" id="cloud-gray-obox" patternUnits="objectBoundingBox" viewBox="-20 -20 168 168" width="20%" x="0%" y="0%"><path d="M40 112v16l16-24h-16v-16l-16 24z" style="fill:black;stroke:none;"/><path d="M128 60c0-15.464-12.536-28-28-28-0.076 0-0.15 0.005-0.226 0.005-1.987-18.002-17.243-32.005-35.774-32.005s-33.787 14.004-35.774 32.005c-0.076 0-0.15-0.005-0.226-0.005-15.464 0-28 12.536-28 28s12.536 28 28 28h72c15.464 0 28-12.536 28-28z" style="fill:gray;stroke:none;"/><path d="M72 112h16v16l16-24h-16v-16z" style="fill:black;stroke:none;"/></pattern><pattern height="10" id="cloud-gray-usr" patternUnits="userSpaceOnUse" viewBox="-20 -20 168 168" width="10" x="0" y="0"><path d="M40 112v16l16-24h-16v-16l-16 24z" style="fill:black;stroke:none;"/><path d="M128 60c0-15.464-12.536-28-28-28-0.076 0-0.15 0.005-0.226 0.005-1.987-18.002-17.243-32.005-35.774-32.005s-33.787 14.004-35.774 32.005c-0.076 0-0.15-0.005-0.226-0.005-15.464 0-28 12.536-28 28s12.536 28 28 28h72c15.464 0 28-12.536 28-28z" style="fill:gray;stroke:none;"/><path d="M72 112h16v16l16-24h-16v-16z" style="fill:black;stroke:none;"/></pattern><pattern height="20%" id="wheel-darkblue-obox" patternUnits="objectBoundingBox" viewBox="-20 -20 168 168" width="20%" x="0%" y="0%"><path d="M3.798 80h12.338c1.539 0 2.919 0.931 3.505 2.354 0.006 0.016 0.013 0.031 0.020 0.047 0.586 1.418 0.266 3.045-0.819 4.131l-8.725 8.725c-1.483 1.484-1.483 3.888 0 5.371l17.256 17.256c1.483 1.484 3.888 1.484 5.371 0l8.724-8.725c1.085-1.085 2.713-1.404 4.131-0.819 0.016 0.006 0.031 0.013 0.047 0.019 1.422 0.586 2.354 1.966 2.354 3.505v12.338c0 2.098 1.7 3.798 3.798 3.798h24.404c2.098 0 3.798-1.701 3.798-3.798v-12.338c0-1.539 0.931-2.919 2.354-3.505 0.016-0.006 0.031-0.013 0.047-0.019 1.418-0.586 3.045-0.266 4.131 0.819l8.724 8.725c1.484 1.484 3.889 1.484 5.371 0l17.256-17.256c1.484-1.484 1.484-3.888 0-5.371l-8.725-8.725c-1.085-1.085-1.404-2.713-0.819-4.131 0.006-0.016 0.013-0.031 0.019-0.047 0.586-1.422 1.966-2.354 3.505-2.354h12.338c2.098 0 3.798-1.701 3.798-3.798v-24.404c0-2.098-1.701-3.798-3.798-3.798h-12.338c-1.539 0-2.919-0.931-3.505-2.354-0.006-0.016-0.013-0.031-0.019-0.047-0.586-1.418-0.266-3.045 0.819-4.131l8.725-8.724c1.484-1.483 1.484-3.888 0-5.372l-17.256-17.256c-1.483-1.483-3.888-1.483-5.371 0l-8.724 8.725c-1.085 1.084-2.713 1.404-4.131 0.819-0.016-0.006-0.031-0.013-0.047-0.020-1.422-0.584-2.354-1.965-2.354-3.504v-12.338c0-2.098-1.701-3.798-3.798-3.798h-24.404c-2.098 0-3.798 1.7-3.798 3.798v12.338c0 1.539-0.931 2.919-2.354 3.505-0.016 0.006-0.031 0.013-0.047 0.020-1.418 0.586-3.045 0.266-4.131-0.819l-8.724-8.725c-1.483-1.483-3.889-1.483-5.372 0l-17.256 17.256c-1.483 1.483-1.483 3.888 0 5.371l8.725 8.724c1.084 1.084 1.404 2.713 0.819 4.131-0.006 0.016-0.013 0.031-0.020 0.047-0.585 1.421-1.966 2.353-3.505 2.353h-12.338c-2.098 0-3.798 1.7-3.798 3.798v24.404c0 2.098 1.7 3.798 3.798 3.798zM64 32c17.673 0 32 14.327 32 32s-14.327 32-32 32-32-14.327-32-32 14.327-32 32-32z" style="fill:darkblue;stroke:none;"/><path d="M72 64c0 4.418-3.582 8-8 8s-8-3.582-8-8c0-4.418 3.582-8 8-8s8 3.582 8 8z" style="fill:darkblue;stroke:none;"/></pattern><pattern height="10" id="wheel-darkblue-usr" patternUnits="userSpaceOnUse" viewBox="-20 -20 168 168" width="10" x="0" y="0"><path d="M3.798 80h12.338c1.539 0 2.919 0.931 3.505 2.354 0.006 0.016 0.013 0.031 0.020 0.047 0.586 1.418 0.266 3.045-0.819 4.131l-8.725 8.725c-1.483 1.484-1.483 3.888 0 5.371l17.256 17.256c1.483 1.484 3.888 1.484 5.371 0l8.724-8.725c1.085-1.085 2.713-1.404 4.131-0.819 0.016 0.006 0.031 0.013 0.047 0.019 1.422 0.586 2.354 1.966 2.354 3.505v12.338c0 2.098 1.7 3.798 3.798 3.798h24.404c2.098 0 3.798-1.701 3.798-3.798v-12.338c0-1.539 0.931-2.919 2.354-3.505 0.016-0.006 0.031-0.013 0.047-0.019 1.418-0.586 3.045-0.266 4.131 0.819l8.724 8.725c1.484 1.484 3.889 1.484 5.371 0l17.256-17.256c1.484-1.484 1.484-3.888 0-5.371l-8.725-8.725c-1.085-1.085-1.404-2.713-0.819-4.131 0.006-0.016 0.013-0.031 0.019-0.047 0.586-1.422 1.966-2.354 3.505-2.354h12.338c2.098 0 3.798-1.701 3.798-3.798v-24.404c0-2.098-1.701-3.798-3.798-3.798h-12.338c-1.539 0-2.919-0.931-3.505-2.354-0.006-0.016-0.013-0.031-0.019-0.047-0.586-1.418-0.266-3.045 0.819-4.131l8.725-8.724c1.484-1.483 1.484-3.888 0-5.372l-17.256-17.256c-1.483-1.483-3.888-1.483-5.371 0l-8.724 8.725c-1.085 1.084-2.713 1.404-4.131 0.819-0.016-0.006-0.031-0.013-0.047-0.020-1.422-0.584-2.354-1.965-2.354-3.504v-12.338c0-2.098-1.701-3.798-3.798-3.798h-24.404c-2.098 0-3.798 1.7-3.798 3.798v12.338c0 1.539-0.931 2.919-2.354 3.505-0.016 0.006-0.031 0.013-0.047 0.020-1.418 0.586-3.045 0.266-4.131-0.819l-8.724-8.725c-1.483-1.483-3.889-1.483-5.372 0l-17.256 17.256c-1.483 1.483-1.483 3.888 0 5.371l8.725 8.724c1.084 1.084 1.404 2.713 0.819 4.131-0.006 0.016-0.013 0.031-0.020 0.047-0.585 1.421-1.966 2.353-3.505 2.353h-12.338c-2.098 0-3.798 1.7-3.798 3.798v24.404c0 2.098 1.7 3.798 3.798 3.798zM64 32c17.673 0 32 14.327 32 32s-14.327 32-32 32-32-14.327-32-32 14.327-32 32-32z" style="fill:darkblue;stroke:none;"/><path d="M72 64c0 4.418-3.582 8-8 8s-8-3.582-8-8c0-4.418 3.582-8 8-8s8 3.582 8 8z" style="fill:darkblue;stroke:none;"/></pattern><pattern height="20%" id="house-sienna-obox" patternUnits="objectBoundingBox" viewBox="-20 -20 168 168" width="20%" x="0%" y="0%"><path d="M9.778 128h108.445c5.4 0 9.778-4.378 9.778-9.778v-84.445c0-5.4-4.378-9.778-9.778-9.778h-46.222v-14.222c0-5.4-4.378-9.778-9.778-9.778h-52.444c-5.4 0-9.778 4.378-9.778 9.778v108.445c0 5.4 4.378 9.778 9.778 9.778zM104 40h8v16h-8v-16zM104 64h8v16h-8v-16zM88 40h8v16h-8v-16zM88 64h8v16h-8v-16zM72 40h8v16h-8v-16zM72 64h8v16h-8v-16zM48 16h8v16h-8v-16zM48 40h8v16h-8v-16zM48 64h8v16h-8v-16zM32 16h8v16h-8v-16zM32 40h8v16h-8v-16zM32 64h8v16h-8v-16zM16 16h8v16h-8v-16zM16 40h8v16h-8v-16zM16 64h8v16h-8v-16z" style="fill:sienna;stroke:none"/></pattern><pattern height="10" id="house-sienna-usr" patternUnits="userSpaceOnUse" viewBox="-20 -20 168 168" width="10" x="0" y="0"><path d="M9.778 128h108.445c5.4 0 9.778-4.378 9.778-9.778v-84.445c0-5.4-4.378-9.778-9.778-9.778h-46.222v-14.222c0-5.4-4.378-9.778-9.778-9.778h-52.444c-5.4 0-9.778 4.378-9.778 9.778v108.445c0 5.4 4.378 9.778 9.778 9.778zM104 40h8v16h-8v-16zM104 64h8v16h-8v-16zM88 40h8v16h-8v-16zM88 64h8v16h-8v-16zM72 40h8v16h-8v-16zM72 64h8v16h-8v-16zM48 16h8v16h-8v-16zM48 40h8v16h-8v-16zM48 64h8v16h-8v-16zM32 16h8v16h-8v-16zM32 40h8v16h-8v-16zM32 64h8v16h-8v-16zM16 16h8v16h-8v-16zM16 40h8v16h-8v-16zM16 64h8v16h-8v-16z" style="fill:sienna;stroke:none"/></pattern><pattern height="20%" id="mac-maroon-obox" patternUnits="objectBoundingBox" viewBox="-20 -20 168 168" width="20%" x="0%" y="0%"><path d="M120 72h-112c-4.419 0-8 3.581-8 8s3.581 8 8 8h112c4.419 0 8-3.581 8-8s-3.581-8-8-8z" style="fill:maroon;stroke:none;"/><path d="M17.778 120h92.445c5.4 0 9.778-4.378 9.778-9.778v-14.222h-112v14.222c0 5.4 4.378 9.778 9.778 9.778z" style="fill:maroon;stroke:none;"/><path d="M64 16c-30.928 0-56 21.491-56 48h112c0-26.509-25.072-48-56-48zM36 56c-2.209 0-4-1.791-4-4s1.791-4 4-4 4 1.791 4 4-1.791 4-4 4zM52 40c-2.209 0-4-1.791-4-4s1.791-4 4-4 4 1.791 4 4-1.791 4-4 4zM76 40c-2.209 0-4-1.791-4-4s1.791-4 4-4 4 1.791 4 4-1.791 4-4 4zM92 56c-2.209 0-4-1.791-4-4s1.791-4 4-4 4 1.791 4 4-1.791 4-4 4z" style="fill:maroon;stroke:none;"/></pattern><pattern height="10" id="mac-maroon-usr" patternUnits="userSpaceOnUse" viewBox="-20 -20 168 168" width="10" x="0" y="0"><path d="M120 72h-112c-4.419 0-8 3.581-8 8s3.581 8 8 8h112c4.419 0 8-3.581 8-8s-3.581-8-8-8z" style="fill:maroon;stroke:none;"/><path d="M17.778 120h92.445c5.4 0 9.778-4.378 9.778-9.778v-14.222h-112v14.222c0 5.4 4.378 9.778 9.778 9.778z" style="fill:darkgoldenrod;stroke:none;"/><path d="M64 16c-30.928 0-56 21.491-56 48h112c0-26.509-25.072-48-56-48zM36 56c-2.209 0-4-1.791-4-4s1.791-4 4-4 4 1.791 4 4-1.791 4-4 4zM52 40c-2.209 0-4-1.791-4-4s1.791-4 4-4 4 1.791 4 4-1.791 4-4 4zM76 40c-2.209 0-4-1.791-4-4s1.791-4 4-4 4 1.791 4 4-1.791 4-4 4zM92 56c-2.209 0-4-1.791-4-4s1.791-4 4-4 4 1.791 4 4-1.791 4-4 4z" style="fill:darkgoldenrod;stroke:none;"/></pattern><pattern height="20%" id="apple-green-obox" patternUnits="objectBoundingBox" viewBox="-20 -20 168 168" width="20%" x="0%" y="0%"><path d="M91.428 24c-8.764 0-16.798 3.091-23.094 8.232 2.173-12.878 14.362-25.253 14.494-25.387 1.563-1.562 1.563-4.094 0-5.657-1.561-1.562-4.095-1.562-5.656 0-0.657 0.657-15.123 15.301-16.976 31.486-6.373-5.405-14.613-8.675-23.625-8.675-20.198 0-36.572 16.373-36.572 36.572 0 5.373 1.175 10.466 3.257 15.061l14.745 35.809c1.3 3.18 3.226 6.166 5.808 8.749 10.414 10.414 27.299 10.414 37.712 0 0.907-0.907 1.729-1.864 2.477-2.861 0.749 0.996 1.571 1.954 2.477 2.861 10.414 10.414 27.299 10.414 37.712 0 2.583-2.583 4.508-5.568 5.808-8.749l0.002 0.004 14.743-35.813c2.084-4.595 3.259-9.688 3.259-15.060 0-20.198-16.373-36.572-36.572-36.572zM64 85.337c-0.078-0.105-0.161-0.207-0.241-0.311 0.082-0.091 0.16-0.186 0.241-0.278v0.589z" style="fill:green;stroke:none,"/></pattern><pattern height="10" id="apple-green-usr" patternUnits="userSpaceOnUse" viewBox="-20 -20 168 168" width="10" x="0" y="0"><path d="M91.428 24c-8.764 0-16.798 3.091-23.094 8.232 2.173-12.878 14.362-25.253 14.494-25.387 1.563-1.562 1.563-4.094 0-5.657-1.561-1.562-4.095-1.562-5.656 0-0.657 0.657-15.123 15.301-16.976 31.486-6.373-5.405-14.613-8.675-23.625-8.675-20.198 0-36.572 16.373-36.572 36.572 0 5.373 1.175 10.466 3.257 15.061l14.745 35.809c1.3 3.18 3.226 6.166 5.808 8.749 10.414 10.414 27.299 10.414 37.712 0 0.907-0.907 1.729-1.864 2.477-2.861 0.749 0.996 1.571 1.954 2.477 2.861 10.414 10.414 27.299 10.414 37.712 0 2.583-2.583 4.508-5.568 5.808-8.749l0.002 0.004 14.743-35.813c2.084-4.595 3.259-9.688 3.259-15.060 0-20.198-16.373-36.572-36.572-36.572zM64 85.337c-0.078-0.105-0.161-0.207-0.241-0.311 0.082-0.091 0.16-0.186 0.241-0.278v0.589z" style="fill:green;stroke:none,"/></pattern><pattern height="20%" id="meal-steelblue-obox" patternUnits="objectBoundingBox" viewBox="-20 -20 168 168" width="20%" x="0%" y="0%"><path d="M20 0c-2.209 0-4 1.791-4 4v48c0 2.209 1.791 4 4 4h32c2.209 0 4-1.791 4-4v-48c0-2.209-1.791-4-4-4s-4 1.791-4 4v44h-8v-44c0-2.209-1.791-4-4-4s-4 1.791-4 4v44h-8v-44c0-2.209-1.791-4-4-4z" style="fill:steelblue;stroke:none;"/><path d="M36 128c6.627 0 12-5.373 12-12v-52h-24v52c0 6.627 5.372 12 12 12z" style="fill:steelblue;stroke:none;"/><path d="M80 116c0 6.627 5.373 12 12 12s12-5.373 12-12v-36h-24v36z" style="fill:steelblue;stroke:none;"/><path d="M80 0v72h32c0-72-32-72-32-72z" style="fill:steelblue;stroke:none;"/></pattern><pattern height="10" id="meal-steelblue-usr" patternUnits="userSpaceOnUse" viewBox="-20 -20 168 168" width="10" x="0" y="0"><path d="M20 0c-2.209 0-4 1.791-4 4v48c0 2.209 1.791 4 4 4h32c2.209 0 4-1.791 4-4v-48c0-2.209-1.791-4-4-4s-4 1.791-4 4v44h-8v-44c0-2.209-1.791-4-4-4s-4 1.791-4 4v44h-8v-44c0-2.209-1.791-4-4-4z" style="fill:steelblue;stroke:none;"/><path d="M36 128c6.627 0 12-5.373 12-12v-52h-24v52c0 6.627 5.372 12 12 12z" style="fill:steelblue;stroke:none;"/><path d="M80 116c0 6.627 5.373 12 12 12s12-5.373 12-12v-36h-24v36z" style="fill:steelblue;stroke:none;"/><path d="M80 0v72h32c0-72-32-72-32-72z" style="fill:steelblue;stroke:none;"/></pattern><pattern height="100%" id="ellipse-center" patternContentUnits="objectBoundingBox" patternUnits="objectBoundingBox" preserveAspectRatio="xMinYMin meet" width="100%" x="0%" y="0%"><circle cx="0.5" cy="0.5" r="0.5" style="fill:navy;fill-opacity:0.1;stroke:none;"/><circle cx="0.5" cy="0.5" r="0.4" style="fill:navy;fill-opacity:0.2;stroke:none;"/><circle cx="0.5" cy="0.5" r="0.3" style="fill:navy;fill-opacity:0.4;stroke:none;"/><circle cx="0.5" cy="0.5" r="0.2" style="fill:navy;fill-opacity:0.6;stroke:none;"/><circle cx="0.5" cy="0.5" r="0.1" style="fill:navy;fill-opacity:1;stroke:none;"/></pattern><pattern height="20" id="square-p" patternContentUnits="userSpaceOnUse" patternUnits="userSpaceOnUse" preserveAspectRatio="xMinYMin meet" viewBox="0 0 20 20" width="20" x="0" y="0"><rect fill="#fff" height="20" width="20"/><rect fill="#ccc" height="10" width="10"/><rect fill="#ccc" height="10" width="10" x="10" y="10"/></pattern><pattern height="44" id="brick-p" patternContentUnits="userSpaceOnUse" patternUnits="userSpaceOnUse" preserveAspectRatio="xMinYMin meet" viewBox="0 0 42 44" width="42" x="0" y="0"><rect height="44" style="fill:#DFDBE5;stroke:none;" width="42" x="0" y="0"/><path d="M0,0H42V44H0V0ZM1,1H41V21H1V1ZM0,23H20V43H0V23ZM22,23H42V43H22V23Z" fill-rule="evenodd" style="fill:#9C92AC;fill-opacity: 0.4;stroke:none;"/></pattern><pattern height="16" id="screw-20-16" patternContentUnits="userSpaceOnUse" patternUnits="userSpaceOnUse" preserveAspectRatio="xMinYMin meet" viewBox="0 0 20 16" width="20" x="0" y="0"><rect height="16" style="fill:#DFDBE5;stroke:none;" width="20" x="0" y="0"/><path d="M0 .04C2.6.22 4.99 1.1 7 2.5A13.94 13.94 0 0 1 15 0h4c.34 0 .67.01 1 .04v2A12 12 0 0 0 7.17 12h5.12A7 7 0 0 1 20 7.07V14a5 5 0 0 0-3-4.58A5 5 0 0 0 14 14H0V7.07c.86.12 1.67.4 2.4.81.75-1.52 1.76-2.9 2.98-4.05C3.79 2.83 1.96 2.2 0 2.04v-2z" fill-rule="evenodd" style="fill:#9C92AC;fill-opacity:0.4;"/></pattern><pattern height="49" id="hexa-p" patternContentUnits="userSpaceOnUse" patternUnits="userSpaceOnUse" preserveAspectRatio="xMinYMin meet" viewBox="0 0 28 49" width="28" x="0" y="0"><rect height="49" style="fill:#DFDBE5;stroke:none;" width="28" x="0" y="0"/><path d="M13.99 9.25l13 7.5v15l-13 7.5L1 31.75v-15l12.99-7.5zM3 17.9v12.7l10.99 6.34 11-6.35V17.9l-11-6.34L3 17.9zM0 15l12.98-7.5V0h-2v6.35L0 12.69v2.3zm0 18.5L12.98 41v8h-2v-6.85L0 35.81v-2.3zM15 0v7.5L27.99 15H28v-2.31h-.01L17 6.35V0h-2zm0 49v-8l12.99-7.5H28v2.31h-.01L17 42.15V49h-2z" fill-rule="nonzero" style="fill:#9C92AC;fill-opacity:0.4;"/></pattern><pattern height="12" id="charlie-p" patternContentUnits="userSpaceOnUse" patternUnits="userSpaceOnUse" preserveAspectRatio="xMinYMin meet" viewBox="0 0 20 12" width="20" x="0" y="0"><rect height="12" style="fill:#DFDBE5;stroke:none;" width="20" x="0" y="0"/><path d="M9.8 12L0 2.2V.8l10 10 10-10v1.4L10.2 12h-.4zm-4 0L0 6.2V4.8L7.2 12H5.8zm8.4 0L20 6.2V4.8L12.8 12h1.4zM9.8 0l.2.2.2-.2h-.4zm-4 0L10 4.2 14.2 0h-1.4L10 2.8 7.2 0H5.8z" style="fill:#9C92AC;fill-opacity:0.4;"/></pattern><pattern height="24" id="leaf-p" patternContentUnits="userSpaceOnUse" patternUnits="userSpaceOnUse" preserveAspectRatio="xMinYMin meet" viewBox="0 0 88 24" width="88" x="0" y="0"><rect height="24" style="fill:#DFDBE5;stroke:none;" width="88" x="0" y="0"/><path d="M10 0l30 15 2 1V2.18A10 10 0 0 0 41.76 0H39.7a8 8 0 0 1 .3 2.18v10.58L14.47 0H10zm31.76 24a10 10 0 0 0-5.29-6.76L4 1 2 0v13.82a10 10 0 0 0 5.53 8.94L10 24h4.47l-6.05-3.02A8 8 0 0 1 4 13.82V3.24l31.58 15.78A8 8 0 0 1 39.7 24h2.06zM78 24l2.47-1.24A10 10 0 0 0 86 13.82V0l-2 1-32.47 16.24A10 10 0 0 0 46.24 24h2.06a8 8 0 0 1 4.12-4.98L84 3.24v10.58a8 8 0 0 1-4.42 7.16L73.53 24H78zm0-24L48 15l-2 1V2.18A10 10 0 0 1 46.24 0h2.06a8 8 0 0 0-.3 2.18v10.58L73.53 0H78z" style="fill:#9C92AC;fill-opacity:0.4;"/></pattern><pattern height="28" id="cloud-p" patternContentUnits="userSpaceOnUse" patternUnits="userSpaceOnUse" preserveAspectRatio="xMinYMin meet" viewBox="0 0 56 28" width="56" x="0" y="0"><rect height="28" style="fill:#DFDBE5;stroke:none;" width="56" x="0" y="0"/><path d="M56 26c-2.813 0-5.456.726-7.752 2H56v-2zm-26 2h4.087C38.707 20.783 46.795 16 56 16v-2c-.672 0-1.339.024-1.999.07L54 14a2 2 0 0 1 2-2v-2a4 4 0 0 0-3.98 3.602 28.087 28.087 0 0 0-2.793-3.862A7.994 7.994 0 0 1 56 6V4a9.988 9.988 0 0 0-8.17 4.232 28.156 28.156 0 0 0-3.03-2.634A13.979 13.979 0 0 1 56 0h-7.752a16.078 16.078 0 0 0-5.09 4.454 27.941 27.941 0 0 0-3.536-1.936c.63-.896 1.33-1.738 2.095-2.518H39.03c-.46.557-.893 1.137-1.297 1.737A27.787 27.787 0 0 0 33.723.585c.12-.196.24-.392.364-.585H30l-.001.07A28.406 28.406 0 0 0 26 .07L26 0h-4.087c.124.193.245.389.364.585a27.787 27.787 0 0 0-4.009 1.152c-.404-.6-.837-1.18-1.297-1.737h-2.688c.764.78 1.466 1.622 2.095 2.518-1.23.562-2.41 1.21-3.536 1.936A16.078 16.078 0 0 0 7.752 0H0c4.58 0 8.645 2.199 11.2 5.598a28.156 28.156 0 0 0-3.03 2.634A9.988 9.988 0 0 0 0 4v2a7.994 7.994 0 0 1 6.773 3.74 28.087 28.087 0 0 0-2.793 3.862A4 4 0 0 0 0 10v2a2 2 0 0 1 1.999 2.07C1.339 14.024.672 14 0 14v2c9.205 0 17.292 4.783 21.913 12H26a2 2 0 1 1 4 0zM7.752 28C5.456 26.726 2.812 26 0 26v2h7.752zM56 20c-6.832 0-12.936 3.114-16.971 8h2.688A19.94 19.94 0 0 1 56 22v-2zm-39.029 8C12.936 23.114 6.831 20 0 20v2a19.94 19.94 0 0 1 14.283 6h2.688zm15.01-.398a28.087 28.087 0 0 1 2.792-3.862A7.994 7.994 0 0 0 28 20a7.994 7.994 0 0 0-6.773 3.74 28.087 28.087 0 0 1 2.793 3.862 4 4 0 0 1 7.96 0zm14.287-11.865C42.318 9.864 35.61 6 28 6c-7.61 0-14.318 3.864-18.268 9.737a27.787 27.787 0 0 0-4.009-1.152C10.275 7.043 18.548 2 28 2c9.452 0 17.725 5.043 22.277 12.585a27.787 27.787 0 0 0-4.009 1.152zm-5.426 2.717a27.941 27.941 0 0 1 3.536-1.936C40.76 11.367 34.773 8 28 8s-12.76 3.367-16.378 8.518c1.23.562 2.41 1.21 3.536 1.936C18.075 14.537 22.741 12 28 12s9.925 2.537 12.842 6.454zm-4.672 3.778a28.156 28.156 0 0 1 3.03-2.634A13.979 13.979 0 0 0 28 14c-4.58 0-8.645 2.199-11.2 5.598a28.156 28.156 0 0 1 3.03 2.634A9.988 9.988 0 0 1 28 18a9.988 9.988 0 0 1 8.17 4.232z" fill-rule="evenodd" style="fill:#9C92AC;fill-opacity:0.4;"/></pattern><pattern height="40" id="parquet-p" patternContentUnits="userSpaceOnUse" patternUnits="userSpaceOnUse" preserveAspectRatio="xMinYMin meet" viewBox="0 0 40 40" width="40" x="0" y="0"><rect height="40" style="fill:#DFDBE5;stroke:none;" width="40" x="0" y="0"/><path d="M20 20.5V18H0v-2h20v-2H0v-2h20v-2H0V8h20V6H0V4h20V2H0V0h22v20h2V0h2v20h2V0h2v20h2V0h2v20h2V0h2v20h2v2H20v-1.5zM0 20h2v20H0V20zm4 0h2v20H4V20zm4 0h2v20H8V20zm4 0h2v20h-2V20zm4 0h2v20h-2V20zm4 4h20v2H20v-2zm0 4h20v2H20v-2zm0 4h20v2H20v-2zm0 4h20v2H20v-2z" fill-rule="evenodd" style="fill:#9C92AC;fill-opacity:0.4;"/></pattern><pattern height="64" id="aztek-p" patternContentUnits="userSpaceOnUse" patternUnits="userSpaceOnUse" preserveAspectRatio="xMinYMin meet" viewBox="0 0 32 64" width="32" x="0" y="0"><rect height="64" style="fill:#DFDBE5;stroke:none;" width="32" x="0" y="0"/><path d="M0 28h20V16h-4v8H4V4h28v28h-4V8H8v12h4v-8h12v20H0v-4zm12 8h20v4H16v24H0v-4h12V36zm16 12h-4v12h8v4H20V44h12v12h-4v-8zM0 36h8v20H0v-4h4V40H0v-4z" fill-rule="evenodd" style="fill:#9C92AC;fill-opacity:0.4;"/></pattern><pattern height="12" id="zigzag-p" patternContentUnits="userSpaceOnUse" patternUnits="userSpaceOnUse" preserveAspectRatio="xMinYMin meet" viewBox="0 0 40 12" width="40" x="0" y="0"><rect height="12" style="fill:#DFDBE5;stroke:none;" width="40" x="0" y="0"/><path d="M0 6.172L6.172 0h5.656L0 11.828V6.172zm40 5.656L28.172 0h5.656L40 6.172v5.656zM6.172 12l12-12h3.656l12 12h-5.656L20 3.828 11.828 12H6.172zm12 0L20 10.172 21.828 12h-3.656z" fill-rule="evenodd" style="fill:#9C92AC;fill-opacity:0.4;"/></pattern><pattern height="20" id="damier-p" patternContentUnits="userSpaceOnUse" patternUnits="userSpaceOnUse" preserveAspectRatio="xMinYMin meet" viewBox="0 0 20 20" width="20" x="0" y="0"><rect height="20" style="fill:#DFDBE5;stroke:none;" width="20" x="0" y="0"/><path d="M0 0h20L0 20z" fill-rule="evenodd" style="fill:#9C92AC;fill-opacity:0.4;"/></pattern><pattern height="16" id="dot-p" patternContentUnits="userSpaceOnUse" patternUnits="userSpaceOnUse" preserveAspectRatio="xMinYMin meet" viewBox="0 0 16 16" width="16" x="0" y="0"><rect height="16" style="fill:#DFDBE5;stroke:none;" width="16" x="0" y="0"/><path d="M0 0h16v2h-6v6h6v8H8v-6H2v6H0V0zm4 4h2v2H4V4zm8 8h2v2h-2v-2zm-8 0h2v2H4v-2zm8-8h2v2h-2V4z" fill-rule="evenodd" style="fill:#9C92AC;fill-opacity:0.4;"/></pattern></defs></svg>