<?xml version="1.0" encoding="UTF-8" standalone="no"?><svg xmlns="http://www.w3.org/2000/svg" xmlns:svg="http://www.w3.org/2000/svg" xmlns:xlink="http://www.w3.org/1999/xlink" height="153px" onload="init(evt)" preserveAspectRatio="xMidYMid meet" version="1.1" viewBox="0 0 84 24" width="537px"><script type="text/ecmascript"><![CDATA[
 var memoji = {
	tip : null,r : null,t : null,c : null,
	checkTypeOfMember : function(o,m) {try {return typeof(o[m])!='undefined';}catch(ex) {return false;}},
	callWindowParentFunction1 : function(m,a1) {if(memoji.checkTypeOfMember(window.parent, m)) window.parent[m](a1);},
	selectR : function(r) {
		if (memoji.c!=null) memoji.c.setAttribute('class','emoji');
		memoji.c=r;memoji.c.setAttribute('class','emojiS');
	},
	select : function(id) {
		var e = document.getElementById(id);
		if (e!=null) memoji.selectR(e.firstChild.nextSibling);
	},
	onEmojDown : function(evt) {
		try {
		memoji.selectR(evt.target);
		memoji.callWindowParentFunction1('onStartEmojTaskTool',evt.target.previousSibling);
		} catch(ex) {alert("onEmojDown "+ex);}
	},
	onEmojOver : function(evt,code,dx,dy) {
		var tr = evt.target.parentNode.getAttribute("transform");
		if (memoji.tip==null) {memoji.tip = document.getElementById("emoj-tip");memoji.r = memoji.tip.firstChild;memoji.t = memoji.tip.lastChild;}
		memoji.tip.setAttribute("transform",tr+ " translate("+dx+" "+dy+")");memoji.tip.setAttribute("visibility","visible");memoji.t.firstChild.data=code;
		var b = memoji.t.getBBox();
		memoji.r.x.baseVal.value=b.x-1;memoji.r.y.baseVal.value=b.y-1;memoji.r.width.baseVal.value=b.width+2;memoji.r.height.baseVal.value=b.height+2;
	},
	onEmojOut : function(evt) {if (memoji.tip!=null) memoji.tip.setAttribute("visibility","hidden");}	
 };
 window['memoji_select']=memoji.select;
 window['memoji_onEmojDown']=memoji.onEmojDown;
 window['memoji_onEmojOver']=memoji.onEmojOver;
 window['memoji_onEmojOut']=memoji.onEmojOut;
 try {
 window.parent['memoji_select'] = memoji.select ;
} catch (e) {
};
 ]]></script><style type="text/css"><![CDATA[
text.unselect {
	pointer-events:none;
	-moz-user-select: none;
	-webkit-user-select: none;
	-ms-user-select: none;
}
g.emoji {
	fill:white;stroke:none;
}
rect.emoji {
	fill:white;fill-opacity:0.1;stroke-width:0.2;stroke-dasharray: 1px, 1px;
}
rect.emoji:hover{
	stroke:gray;fill-opacity:0.001;
}
rect.emojiS {
	stroke:black;fill:white;fill-opacity:0.1;stroke-width:0.2;
}
text.emoj {
	font-size:2;
}
rect.emojtip {
	fill: black;
      }
text.emojtip {
	fill:white;font-weight:bold;text-anchor:middle;
      }
]]></style><defs><clipPath id="emojitip-clip"><rect height="4" width="10" x="-5" y="3"/></clipPath></defs><g transform="translate(2 2)"><g><g id="1f4a3" transform="translate(5 5)"><g transform="translate(-4 -4) scale(0.125)"><path d="m13.805 22.549c-4.364-4.432-5.766-8.101-4.163-10.905 3.149-5.517 18.02-5.485 30.411-2.653l-.429 1.826c-11.626-2.655-25.763-2.743-28.328 1.748-1.418 2.483 1.321 6.088 3.869 8.676l-1.36 1.308" fill="#d3976e"/><g fill="#ffce31"><path d="m41.25 11.293c-.981.966-1.961 1.935-2.94 2.901-.862.852.475 2.172 1.336 1.32.981-.968 1.961-1.935 2.939-2.902.865-.852-.475-2.171-1.335-1.319"/><path d="m46.762 8.487c.97-.957 1.94-1.916 2.91-2.874.862-.852-.475-2.171-1.337-1.319-.971.958-1.941 1.916-2.911 2.873-.864.853.473 2.172 1.338 1.32"/><path d="m45.4 12.612c.981.968 1.961 1.935 2.94 2.901.862.853 2.199-.468 1.337-1.319-.981-.967-1.958-1.935-2.94-2.901-.86-.852-2.2.467-1.337 1.319"/><path d="m38.31 5.613c.971.958 1.941 1.917 2.91 2.874.865.852 2.203-.467 1.34-1.319-.971-.958-1.941-1.917-2.914-2.874-.862-.853-2.199.468-1.336 1.319"/></g><g fill="#ed4c5c"><path d="m43.04 14.02c0 .962 0 1.926 0 2.889 0 1.203 1.893 1.203 1.893 0 0-.963 0-1.927 0-2.889 0-1.204-1.893-1.204-1.893 0"/><path d="m43.04 2.903c0 .949 0 1.899 0 2.848 0 1.204 1.893 1.204 1.893 0 0-.949 0-1.899 0-2.848 0-1.204-1.893-1.204-1.893 0"/><path d="m48.17 10.837c.969 0 1.936 0 2.905 0 1.22 0 1.22-1.867 0-1.867-.97 0-1.937 0-2.905 0-1.219.001-1.219 1.867 0 1.867"/></g><path d="m10.663 24.16l6.01-5.929 3.777 3.731c3.535-2.356 7.796-3.731 12.383-3.731 12.247 0 22.17 9.797 22.17 21.884 0 12.09-9.922 21.886-22.17 21.886-12.243 0-22.17-9.8-22.17-21.886 0-4.528 1.396-8.733 3.779-12.225l-3.779-3.73" fill="#3e4347"/></g><rect class="emoji" height="10" onmousedown="window.memoji_onEmojDown(evt)" onmouseout="window.memoji_onEmojOut(evt);" onmouseover="memoji.onEmojOver(evt,'bomb',5,0);" ontouchstart="window.memoji_onEmojDown(evt)" stroke-width="0.1" width="10" x="-5" y="-5"/><defs><text id="1f4a3-code">bomb</text></defs></g><g id="1f5e1" transform="translate(15 5)"><g transform="translate(-4 -4) scale(0.125)"><path d="m36.811 30.423c0 0 14.588 8.555 27.19 33.578l-30.383-30.383 3.194-3.195" fill="#94989b"/><path d="m30.422 36.813c0 0 8.555 14.587 33.578 27.19l-30.383-30.383-3.195 3.195" fill="#d0d0d0"/><path d="m3.621 13.703c-1.04-1.04-1.041-2.727 0-3.769l6.314-6.314c1.041-1.042 2.728-1.041 3.768-.001l22.602 25.12c1.041 1.039 1.041 2.727.001 3.768l-3.803 3.801c-1.041 1.041-2.728 1.041-3.768.001l-25.11-22.602" fill="#3e4347"/><g fill="#d3976e"><path d="m5.757 13.11l7.35-7.35c1.042-1.042 1.042-2.729.003-3.771l-.195-.192c-.806-.807-2-.988-2.984-.543-2.431-1.837-5.902-1.651-8.117.562-2.213 2.216-2.402 5.688-.56 8.117-.446.98-.266 2.178.54 2.986l.195.192c1.04 1.04 2.726 1.04 3.768-.001"/><path d="m44.24 8.7c-2.842-1.294-5.829-.421-7.622 2.232-2.01 2.98-1.278 5.742-.039 7.202 1.319 1.554 3.349 2.073 5.05 1.291.88-.406 1.263-1.441.859-2.321-.403-.878-1.441-1.264-2.32-.86-.252.115-.64-.042-.923-.375-.605-.714-.504-1.828.272-2.979 1.121-1.66 2.529-1.341 3.271-1 1.554.708 2.801 2.646 2.177 4.98-1.078 4.04-5.154 9.676-11.789 16.317-6.642 6.635-12.283 10.71-16.317 11.789-2.334.624-4.271-.624-4.979-2.177-.337-.74-.656-2.149 1-3.27 1.151-.777 2.265-.879 2.979-.273.333.283.49.672.375.923-.403.878-.019 1.917.86 2.321.879.402 1.915.02 2.32-.86.782-1.703.263-3.733-1.291-5.05-1.459-1.238-4.221-1.972-7.201.039-2.653 1.793-3.526 4.781-2.232 7.622 1.317 2.894 4.855 5.233 9.07 4.108 4.692-1.254 10.711-5.526 17.888-12.695 7.17-7.178 11.441-13.196 12.695-17.889 1.126-4.214-1.214-7.752-4.108-9.07"/></g></g><rect class="emoji" height="10" onmousedown="window.memoji_onEmojDown(evt)" onmouseout="window.memoji_onEmojOut(evt);" onmouseover="memoji.onEmojOver(evt,'dagger knife',0,0);" ontouchstart="window.memoji_onEmojDown(evt)" stroke-width="0.1" width="10" x="-5" y="-5"/><defs><text id="1f5e1-code">dagger knife</text></defs></g><g id="1f526" transform="translate(25 5)"><g transform="translate(-4 -4) scale(0.125)"><path d="m24.373 39.627c-7.556-7.557-16.722-10.663-20.613-7.03 5.217-5.04 12.546-6.609 19.08-4.705l25.896-25.895c3.048.891 5.923 2.536 8.327 4.94 2.402 2.404 4.05 5.278 4.94 8.327l-25.895 25.893c1.906 6.532.339 13.86-4.704 19.08 3.634-3.891.529-13.06-7.03-20.612" fill="#3e4347"/><path d="m24.373 39.626c-5.658-5.66-13.284-7.226-17.14-3.559 5.196-5.064 11.801-7.354 17.272-6.509l25.895-25.894c2.554.396 4.861 1.475 6.661 3.275s2.878 4.107 3.273 6.661l-25.894 25.894c.846 5.473-1.443 12.08-6.507 17.274 3.665-3.86 2.101-11.484-3.558-17.14" fill="#676e72"/><path d="m10.548 53.45c-7.61-7.608-10.71-16.853-6.952-20.697.053-.054.11-.104.165-.156 3.891-3.635 13.06-.53 20.612 7.03 7.557 7.556 10.662 16.721 7.03 20.612-.053.054-.103.109-.156.164-3.843 3.757-13.09.66-20.696-6.95" fill="#fef500"/><path d="m17.13 46.875c-3.662-3.662-5.154-8.111-3.345-9.962.026-.024.051-.049.079-.075 1.872-1.749 6.282-.254 9.921 3.384 3.634 3.636 5.13 8.05 3.382 9.918-.027.027-.051.054-.077.079-1.85 1.808-6.3.317-9.96-3.344" fill="#fff7ab"/><path d="m17.909 46.09c-1.714-1.715-2.413-3.799-1.567-4.665.013-.013.024-.023.037-.035.877-.819 2.942-.12 4.647 1.584 1.703 1.702 2.402 3.767 1.583 4.646-.013.012-.023.024-.035.037-.867.845-2.949.148-4.665-1.567" fill="#fff"/><path d="m28.539 14.864h8.52v2.541h-8.52z" fill="#3e4347" transform="matrix(-.7072.707-.707-.7072 67.4 4.355)"/><path d="m30.847 14.43h4.775v2.542h-4.775z" fill="#676e72" transform="matrix(-.7071.7072-.7072-.7071 67.836 3.3)"/></g><rect class="emoji" height="10" onmousedown="window.memoji_onEmojDown(evt)" onmouseout="window.memoji_onEmojOut(evt);" onmouseover="memoji.onEmojOver(evt,'flashlight',0,0);" ontouchstart="window.memoji_onEmojDown(evt)" stroke-width="0.1" width="10" x="-5" y="-5"/><defs><text id="1f526-code">flashlight</text></defs></g><g id="1f52b" transform="translate(35 5)"><g transform="translate(-4 -4) scale(0.125)"><path d="m53.43 24.688c0 0 1.042-5.113 3.896-1.218h.986c0 0-.286-3.03-2.086-3.226-3.65-.396-2.77 2.861-5.814.73-3.046-2.129 3.02 3.714 3.02 3.714" fill="#dff4f4"/><path d="m54.41 24.688c0 0 1.043-5.113 3.896-1.218l.576-1.065c0 0-1.318-2.465-3.102-2.13-1.782.335-1.344 2.83-4.389.699-3.043-2.129 3.02 3.714 3.02 3.714" fill="#87989b"/><path d="m54.35 28.645l.99-3.987-4.689-5.143-1.097 5.842z" fill="#abc2c6"/><path d="m6.344 7l.439-1.872.914-.731c1.219.37 4.832 1.5 5.927 2.603h-7.28" fill="#dff4f4"/><g fill="#5a6a6d"><path d="m7.698 7v-2.604c0 0 4.423-.274 7.281 2.603h-7.281"/><path d="m47.3 13.276v-1.552c0 0 1.594-.251 1.594 2.134-.001 2.385-1.594-.582-1.594-.582"/></g><g fill="#dff4f4"><path d="m46 12.05l1.3-.326v1.552l-1.424-.115z"/><path d="m9.813 24.17l4.066 3.987 10.734.121 3.113 2.588v2.859h6.302c0 0 5.221-4.488 9.269 1.883 2.099 3.302 9.306 0 8.554-4.971h2.803v-1.477c0 0-6.191-1-6.594-3.743-.403-2.738.256-10.315.256-10.315s-9.926-8.698-41.589-8.46l-3.105 1.096v1.946l6.191 14.486"/></g><path d="m54.784 30.3h-10.404v12.443c0 0 4.977.273 5.983 7.447.755 5.389-2.761 5.801-2.761 5.801v3.625h11.01c0 0 3.518-.977 3.518-5.803 0-3.26 0-8.855-6.109-15.554-1.913-2.095-1.233-7.959-1.233-7.959" fill="#87989b"/><path d="m56.659 29.28h-10.404v13.456c0 0 4.977.273 5.982 7.447.756 5.389-2.761 5.801-2.761 5.801v3.625h11.01c0 0 3.519-.977 3.519-5.803 0-3.26 0-8.855-6.109-15.554-1.913-2.095-1.233-8.972-1.233-8.972" fill="#293030"/><path d="m36.05 32.12l-.578 1.923c6.175 3.357 1.13 8.189 1.13 8.189 1.885 0 1.885 0 1.885 0s2.615-1.676 6.974-7.36c1.328-1.729-4.391-5.788-9.411-2.752" fill="#dff4f4"/><path d="m37.943 32.12l-.579 1.923c6.177 3.357 1.133 8.189 1.133 8.189 4.969 0 3.266-5.795 8.859-7.36 2.34-.653-4.392-5.788-9.413-2.752" fill="#475152"/><path d="m29.666 33.729c0 0-.127 2.986.838 6.451.962 3.449 3.72 4.645 7.212 4.645 4.152 0 7.43-4.149 8.06-6.29h-1.41c0 0-2.171 4.919-6.629 4.919-4.246 0-7.266-2.709-4.623-9.725h-3.451" fill="#dff4f4"/><path d="m31.15 33.726c0 0-.199 2.99.766 6.455.963 3.449 3.722 4.645 7.213 4.645 4.152 0 5.733-2.742 6.652-3.918v-2.372c0 0-2.172 4.919-6.629 4.919-4.246 0-7.267-2.709-4.623-9.725l-3.379-.004" fill="#475152"/><path d="m12.918 24.17l4.067 3.987 10.733.121 3.114 2.588v2.859h6.301c0 0 5.221-4.488 9.269 1.883 2.098 3.302 9.306 0 8.554-4.971h2.803v-1.477c0 0-6.191-1-6.594-3.743-.403-2.738.256-10.315.256-10.315s-10.844-9.252-44.694-8.46v3.042l6.191 14.486" fill="#87989b"/><path d="m50.561 16.974c-5.04-2.347-11.489-3.94-18.01-5.02 1.971.414 3.382 3.069 3.216 6.227-.155 2.964-3.528 11.529-3.528 11.529 6.577-.182 13.633 1.463 13.633 1.463 11.851-6.711 4.685-14.198 4.685-14.198" fill="#abc2c6"/><path d="m52.03 19.277c-5.04-1.249-8.711-2.1-15.227-2.675 0 0-.346 5.767-.512 7.448l11.832 2.543c2.107.625.772 2.539.772 2.539 6.319-4.882 3.135-9.855 3.135-9.855" fill="#5a6a6d"/><path d="m33.03 28.888l2.16-1.858 2.05-4.564.297-3.712-1.207-4.624-.454-1.839-3.322-.339-.314 17.756z" fill="#dff4f4"/><g fill="#293030"><path d="m35.69 24.458c-.434 1.165-1.495 1.925-2.371 1.7-.875-.227-1.234-1.352-.799-2.517.435-1.164 1.497-1.924 2.373-1.699s1.233 1.352.797 2.516"/><path d="m36.428 16.524c.091 1.215-.524 2.237-1.372 2.28-.848.044-1.609-.908-1.699-2.123-.09-1.216.523-2.238 1.372-2.281s1.609.908 1.699 2.124"/></g><g fill="#abc2c6"><path d="m32.554 11.952c-.038-.007-.077-.013-.114-.02-.108-.018-.217-.034-.328-.038.111.004.22.02.328.038-14.618-2.414-29.523-2.262-29.523-2.262l.582 2.957c6.701.071 18.921.324 31.352 1.212-.573-1-1.372-1.693-2.297-1.887"/><path d="m5.403 22.313l.646 3.289c0 0 25.523-1.59 26.23-1.525 1.042-.288 1.971-1.189 2.61-2.454-5.338-.167-18.715-.421-29.49.69"/></g><g fill="#87989b"><path d="m35.2 14.551c-.104-.253-.221-.489-.349-.712-12.431-.888-24.65-1.142-31.351-1.213l.241 1.229c6.814.042 19.05.189 31.459.696"/><path d="m4.82 19.349l.583 2.963c10.775-1.111 24.15-.856 29.49-.691.393-.777.671-1.691.804-2.683-4.743-.089-19.42-.292-30.877.411"/></g><path d="m35.2 14.551c-12.404-.507-24.645-.654-31.459-.696l1.08 5.494c11.457-.703 26.13-.5 30.876-.411.033-.249.061-.502.074-.76.071-1.345-.147-2.599-.571-3.627" fill="#5a6a6d"/><path d="m8.152 17.193c.832 4.423-.255 8.238-2.429 8.521-2.174.282-4.611-3.075-5.444-7.5-.832-4.423.256-8.238 2.43-8.521 2.173-.28 4.611 3.077 5.443 7.5" fill="#dff4f4"/><path d="m6.984 17.345c.585 3.111-.18 5.795-1.708 5.993-1.529.198-3.243-2.164-3.829-5.274-.585-3.111.18-5.794 1.708-5.993 1.53-.198 3.244 2.162 3.829 5.274" fill="#293030"/><path d="m33.03 28.888c-.33-.574-.297-2.62 2.16-1.857l9.436.812-2.02 1.978-9.581-.933" fill="#5a6a6d"/><path d="m37.24 22.466c-1.297-.017-1.773-3.435.294-3.712l9.691 1.822-.604 3.674-9.381-1.784" fill="#87989b"/><path d="m36.33 14.13c-1.436.657-.938-1.274-.452-1.838l9.03 2.42 1.466 1.892-10.04-2.474" fill="#5a6a6d"/><path d="m52.37 32.815c-.311 1.071-1.431 1.88-2.504 1.808-1.073-.071-1.693-.997-1.383-2.067s1.431-1.877 2.504-1.805c1.074.07 1.692.996 1.383 2.064" fill="#dff4f4"/><path d="m52.923 34.13l-.383.301-4.607-3.191.387-.298z" fill="#87989b"/></g><rect class="emoji" height="10" onmousedown="window.memoji_onEmojDown(evt)" onmouseout="window.memoji_onEmojOut(evt);" onmouseover="memoji.onEmojOver(evt,'gun',0,0);" ontouchstart="window.memoji_onEmojDown(evt)" stroke-width="0.1" width="10" x="-5" y="-5"/><defs><text id="1f52b-code">gun</text></defs></g><g id="1f528" transform="translate(45 5)"><g transform="translate(-4 -4) scale(0.125)"><path d="m28.792 21.93l-5.582 5.755-5.548-5.723 5.578-5.755z" fill="#3e4347"/><g fill="#94989b"><path d="m16.716 5.068l-9.853 10.163c-.361.372-.361.975 0 1.347l3.664 3.78.043.046 3.666 3.78c.359.372.945.372 1.305 0l9.855-10.165c.359-.371.359-.974 0-1.346l-7.375-7.605c-.361-.372-.943-.372-1.305 0"/><path d="m.271 22.03c-.361.372-.361.975 0 1.347l7.375 7.606c.357.372.943.372 1.305 0 0 0 2.033-2.122 2.076-2.177l-8.647-8.919c-.052.046-2.109 2.143-2.109 2.143"/></g><g fill="#3e4347"><path d="m10.527 20.358l-3.664-3.78c0 0 1.205 2.11-1.959 2.49-1.273.153-2.07.441-2.523.819l8.646 8.919c.367-.468.646-1.289.793-2.604.371-3.265 2.416-2.02 2.416-2.02l-3.666-3.78-.043-.045"/><path d="m39.573 4.288c-10.06-10.295-21.16 1.183-21.16 1.183l6.543 6.746c0 0 6.289-8.465 14.242-6.124.924.272 1.746.74 1.98.501.316-.326-.895-1.579-1.604-2.306"/></g><path d="m26 24.807l-3.607 3.724c0 0 1.863 3 5.063 6.297 3.529 3.642 8.193 5.684 12.851 10.488 7.01 7.227 12.836 14.985 14.949 17.898.797 1.099.924.996 1.898-.01l3.039-3.133-34.19-35.26" fill="#f2b200"/><path d="m26 24.807l3.611-3.723c0 0 2.908 1.923 6.105 5.222 3.531 3.64 5.512 8.452 10.17 13.256 7.01 7.227 14.529 13.238 17.354 15.417 1.064.823.965.953-.01 1.96l-3.037 3.133-34.19-35.27" fill="#ffce31"/></g><rect class="emoji" height="10" onmousedown="window.memoji_onEmojDown(evt)" onmouseout="window.memoji_onEmojOut(evt);" onmouseover="memoji.onEmojOver(evt,'hammer',0,0);" ontouchstart="window.memoji_onEmojDown(evt)" stroke-width="0.1" width="10" x="-5" y="-5"/><defs><text id="1f528-code">hammer</text></defs></g><g id="1f52a" transform="translate(55 5)"><g transform="translate(-4 -4) scale(0.125)"><path d="m30.556 24.272c0 0 24 21.852 31.444 37.726 0 0-20.09.633-43.28-22.467 0 0 7.645-8.097 6.145-9.59l5.692-5.669" fill="#d6dfe3"/><path d="m20.927 37.04c-1.205 1.423-2.208 2.487-2.208 2.487 23.19 23.1 43.28 22.467 43.28 22.467-.469-1-1.01-2.026-1.596-3.067-6.677-.891-22.19-4.815-39.477-21.887" fill="#aebabf"/><path d="m30.81 23.514l-21.599-21.514-6.962 6.934c0 0-.493.47-.092.87.896.894 1.546.545 2.354.724 1.107.246 2.362 1.494 2.362 1.494l17.989 17.92 5.945-5.922c.144-.14.144-.368.003-.506" fill="#333"/><path d="m9.104 8.07c-.345.341-.9.34-1.241-.001-.341-.34-.344-.894 0-1.235.342-.342.897-.342 1.241-.001.343.342.342.895 0 1.237" fill="#d0d0d0"/></g><rect class="emoji" height="10" onmousedown="window.memoji_onEmojDown(evt)" onmouseout="window.memoji_onEmojOut(evt);" onmouseover="memoji.onEmojOver(evt,'knife',0,0);" ontouchstart="window.memoji_onEmojDown(evt)" stroke-width="0.1" width="10" x="-5" y="-5"/><defs><text id="1f52a-code">knife</text></defs></g><g id="1f52c" transform="translate(65 5)"><g transform="translate(-4 -4) scale(0.125)"><g fill="#94989b"><path d="m24.646 54.32c-1.046-1.046-2.571-2.569-4.795-4.789-6.094-6.088-2.166-10.355-2.166-10.355l-4.583-4.578c0 0-7.605 8.783 1.068 17.445l6.378 6.37 4.098-4.093"/><path d="m33.664 43.984h7.198c4.828-10.917-1.59-24.591-1.729-24.867l-5.767 2.916c.03.055 4.723 13.667.298 21.951"/></g><g fill="#333"><path d="m44.583 46.974l-.007-.021c-1.478-4.68-5.865-8.08-11.06-8.113-5.189.037-9.58 3.434-11.06 8.113l-.006.021-5.228 15.03h32.584l-5.228-15.03"/><path d="M19.18 27.06 43.753 6.177 50.09 13.53 25.511 34.407z"/></g><g fill="#94989b"><path d="m24.347 33.06l-4.01-4.657-1.914 2.475 3.17 3.676z"/><path d="m51.38 10.09l-4.01-4.653-2.456 2.088 4.01 4.656z"/></g><path d="M52.54 11.441 46.21 4.087 48.669 2 55 9.352z" fill="#333"/><g fill="#d0d0d0"><path d="m43.34 25.806c-1.187 3.352-4.885 5.102-8.261 3.911-3.378-1.192-5.153-4.874-3.968-8.225 1.185-3.349 4.881-5.103 8.26-3.91 3.376 1.19 5.152 4.876 3.969 8.224"/><ellipse cx="33.52" cy="50.42" rx="6.484" ry="6.434"/></g><g fill="#333"><path d="m36.15 26.687c1.688.594 3.54-.284 4.133-1.959.594-1.675-.298-3.516-1.985-4.112-1.688-.595-3.538.279-4.132 1.955-.591 1.674.297 3.518 1.984 4.116"/><ellipse cx="33.521" cy="50.42" rx="3.244" ry="3.218"/><path d="m7.19 36.06h16.278v1.61h-16.278z" transform="matrix(.7076.7067-.7067.7076 30.534-.051)"/></g><path d="m8.329 34.923h16.278v1.61h-16.278z" fill="#29abe2" transform="matrix(.7076.7067-.7067.7076 30.06-1.189)"/></g><rect class="emoji" height="10" onmousedown="window.memoji_onEmojDown(evt)" onmouseout="window.memoji_onEmojOut(evt);" onmouseover="memoji.onEmojOver(evt,'microscope',0,0);" ontouchstart="window.memoji_onEmojDown(evt)" stroke-width="0.1" width="10" x="-5" y="-5"/><defs><text id="1f52c-code">microscope</text></defs></g><g id="1f529" transform="translate(75 5)"><g transform="translate(-4 -4) scale(0.125)"><g fill="#b6c0c6"><path d="m58.737 63.999h5.263v-3.36z"/><path d="m63.54 54.19l-45.13-45.1-9.34 9.339 44.44 44.41-1.37-1.371z"/></g><g fill="#7a8891"><path d="m64 54.638l-.45-.448h-.01l.46.463z"/><path d="m53.51 62.841l1.161 1.159z"/><path d="m58.737 63.999l5.263-3.359v-5.987l-.46-.463-11.4 7.28 1.37 1.371 1.161 1.159z"/><path d="m55.3 45.968l-11.399 7.282 4.109 4.11 11.41-7.28z"/><path d="m47.07 37.746l-11.412 7.284 4.118 4.11 11.404-7.282z"/><path d="m30.614 21.278l-11.414 7.28 4.122 4.114 11.406-7.282z"/><path d="m38.836 29.51l-11.405 7.285 4.115 4.114 11.409-7.282z"/><path d="m22.384 13.04l-11.406 7.284 4.112 4.114 11.415-7.278z"/></g><path d="m7.05 17.863l-7.05 7.05 10.974 10.965 7.05-7.04z" fill="#4f585b"/><path d="M17.88 7.04 7.05 17.863 18.02 28.831 28.851 18.01z" fill="#8b979e"/><path d="m24.925 0l-7.05 7.04 10.971 10.97 7.05-7.05z" fill="#cedae0"/><path d="m28.329 39.13l-7.05 7.05 10.979 10.97 7.04-7.05z" fill="#4f585b"/><path d="M39.16 28.313 28.329 39.13 39.3 50.1 50.13 39.28z" fill="#8b979e"/><path d="m46.21 21.269l-7.05 7.04 10.97 10.967 7.05-7.04z" fill="#cedae0"/></g><rect class="emoji" height="10" onmousedown="window.memoji_onEmojDown(evt)" onmouseout="window.memoji_onEmojOut(evt);" onmouseover="memoji.onEmojOver(evt,'nut and bolt',-5,0);" ontouchstart="window.memoji_onEmojDown(evt)" stroke-width="0.1" width="10" x="-5" y="-5"/><defs><text id="1f529-code">nut and bolt</text></defs></g><g id="1f52d" transform="translate(5 15)"><g transform="translate(-4 -4) scale(0.125)"><g fill="#333"><path d="m16.764 62h1.818l.938-2.219h-1.917z"/><path d="m44.488 59.781l.932 2.219h1.81l-.83-2.219z"/></g><g fill="#cad5dd"><path d="m35.602 30.18l-7.156.062-10.843 29.541h1.917l11.426-27.878c.338.086.691.13 1.055.13.386 0 .758-.051 1.115-.145l11.373 27.893h1.911l-10.798-29.603"/><path d="m33.553 24.287h-3.03l.693 35.494h1.646z"/></g><g fill="#333"><path d="m31.22 59.781l.04 2.219h1.565l.041-2.219z"/><ellipse cx="31.999" cy="27.625" rx="5.143" ry="5.137"/></g><circle cx="31.999" cy="27.625" fill="#fff" r="3.789"/><g fill="#333"><path d="m26.15 5.47c-.351-.128-.71.062-.801.424l-1.278 5.148c-.09.362.136.722.5.799l10.09 2.15c.364.078.737-.155.827-.516l.877-3.533c.09-.361-.123-.763-.473-.892l-9.737-3.58"/><path d="m26 18.71c-.45-.165-.912.08-1.029.546l-1.644 6.621c-.115.466.174.928.643 1.028l12.97 2.766c.469.1.947-.199 1.063-.664l1.128-4.544c.116-.465-.158-.98-.607-1.146l-12.524-4.607"/></g><path d="m43.09 16.335l-2.78 11.201 18.624 4.474 2.366-9.507z" fill="#dfe9ef"/><path d="m57.5 16.942c-.504-.114-1.016.202-1.137.702l-1.098 4.475c-.121.5-.636.827-1.141.726l-3.166-.632c-.506-.101-1.053.216-1.215.706l-.48 1.444c-.163.489.116.98.62 1.092l6.571 1.458c.504.112 1.01-.208 1.125-.71l1.803-7.874c.114-.502-.203-1.01-.706-1.12l-1.176-.267" fill="#333"/><path d="m11.07 2.887l-4.724 19.02 33.582 7.16 3.542-14.268z" fill="#dfe9ef"/><g fill="#333"><path d="m43.47 14.802l-2.164-.795c1.218.352 1.371 3.99.393 7.929-.979 3.94-2.799 7.01-4.02 6.655l2.244.479c1.218.351 2.996-2.557 3.975-6.497.978-3.941.785-7.419-.432-7.771"/><path d="m11.07 2.887l-2.937-.848c-1.623-.469-3.996 3.408-5.301 8.66-1.305 5.254-1.047 9.892.576 10.361l2.938.85c1.623.468 3.996-3.409 5.301-8.662 1.303-5.252 1.046-9.891-.577-10.361"/></g><path d="m8.711 12.384c1.093-4.401 1.085-8.361.101-9.808-1.551.558-3.479 4.069-4.609 8.616-1.094 4.402-1.086 8.361-.103 9.809 1.552-.559 3.481-4.07 4.611-8.617" fill="#29abe2"/><g fill="#333"><path d="m61.3 22.503l-1.703-.577c.811.234 1.057 2.672.404 5.298-.652 2.627-1.996 4.605-2.807 4.37l1.744.42c.811.234 1.998-1.705 2.65-4.33.653-2.627.524-4.947-.288-5.181"/><circle cx="46.791" cy="20.483" r=".86"/></g></g><rect class="emoji" height="10" onmousedown="window.memoji_onEmojDown(evt)" onmouseout="window.memoji_onEmojOut(evt);" onmouseover="memoji.onEmojOver(evt,'telescope',5,-14);" ontouchstart="window.memoji_onEmojDown(evt)" stroke-width="0.1" width="10" x="-5" y="-5"/><defs><text id="1f52d-code">telescope</text></defs></g><g id="1f527" transform="translate(15 15)"><g transform="translate(-4 -4) scale(0.125)"><path d="m47.35 47.35l7.478-2 8.807 8.811c1.027-4.229-.109-8.875-3.413-12.176-3.301-3.301-7.946-4.438-12.174-3.413l-22.619-22.614c1.026-4.231-.112-8.877-3.413-12.178-3.302-3.303-7.948-4.436-12.174-3.413l8.81 8.812-2 7.475-7.477 2-8.809-8.812c-1.026 4.229.11 8.875 3.414 12.175 3.301 3.301 7.946 4.439 12.174 3.413l22.618 22.614c-1.026 4.231.112 8.877 3.413 12.179 3.302 3.303 7.948 4.436 12.174 3.412l-8.81-8.811 2.01-7.474" fill="#94989b"/></g><rect class="emoji" height="10" onmousedown="window.memoji_onEmojDown(evt)" onmouseout="window.memoji_onEmojOut(evt);" onmouseover="memoji.onEmojOver(evt,'wrench',0,-14);" ontouchstart="window.memoji_onEmojDown(evt)" stroke-width="0.1" width="10" x="-5" y="-5"/><defs><text id="1f527-code">wrench</text></defs></g></g><g id="emoj-tip" visibility="hidden"><rect class="emojtip" rx="0.5"/><text class="emojtip unselect" font-size="2.5" x="0" y="8">aa</text></g></g></svg>