<?xml version="1.0" encoding="UTF-8" standalone="no"?><svg xmlns="http://www.w3.org/2000/svg" xmlns:svg="http://www.w3.org/2000/svg" xmlns:xlink="http://www.w3.org/1999/xlink" height="217px" onload="init(evt)" preserveAspectRatio="xMidYMid meet" version="1.1" viewBox="0 0 84 34" width="537px"><script type="text/ecmascript"><![CDATA[
 var memoji = {
	tip : null,r : null,t : null,c : null,
	checkTypeOfMember : function(o,m) {try {return typeof(o[m])!='undefined';}catch(ex) {return false;}},
	callWindowParentFunction1 : function(m,a1) {if(memoji.checkTypeOfMember(window.parent, m)) window.parent[m](a1);},
	selectR : function(r) {
		if (memoji.c!=null) memoji.c.setAttribute('class','emoji');
		memoji.c=r;memoji.c.setAttribute('class','emojiS');
	},
	select : function(id) {
		var e = document.getElementById(id);
		if (e!=null) memoji.selectR(e.firstChild.nextSibling);
	},
	onEmojDown : function(evt) {
		try {
		memoji.selectR(evt.target);
		memoji.callWindowParentFunction1('onStartEmojTaskTool',evt.target.previousSibling);
		} catch(ex) {alert("onEmojDown "+ex);}
	},
	onEmojOver : function(evt,code,dx,dy) {
		var tr = evt.target.parentNode.getAttribute("transform");
		if (memoji.tip==null) {memoji.tip = document.getElementById("emoj-tip");memoji.r = memoji.tip.firstChild;memoji.t = memoji.tip.lastChild;}
		memoji.tip.setAttribute("transform",tr+ " translate("+dx+" "+dy+")");memoji.tip.setAttribute("visibility","visible");memoji.t.firstChild.data=code;
		var b = memoji.t.getBBox();
		memoji.r.x.baseVal.value=b.x-1;memoji.r.y.baseVal.value=b.y-1;memoji.r.width.baseVal.value=b.width+2;memoji.r.height.baseVal.value=b.height+2;
	},
	onEmojOut : function(evt) {if (memoji.tip!=null) memoji.tip.setAttribute("visibility","hidden");}	
 };
 window['memoji_select']=memoji.select;
 window['memoji_onEmojDown']=memoji.onEmojDown;
 window['memoji_onEmojOver']=memoji.onEmojOver;
 window['memoji_onEmojOut']=memoji.onEmojOut;
 try {
 window.parent['memoji_select'] = memoji.select ;
} catch (e) {
};
 ]]></script><style type="text/css"><![CDATA[
text.unselect {
	pointer-events:none;
	-moz-user-select: none;
	-webkit-user-select: none;
	-ms-user-select: none;
}
g.emoji {
	fill:white;stroke:none;
}
rect.emoji {
	fill:white;fill-opacity:0.1;stroke-width:0.2;stroke-dasharray: 1px, 1px;
}
rect.emoji:hover{
	stroke:gray;fill-opacity:0.001;
}
rect.emojiS {
	stroke:black;fill:white;fill-opacity:0.1;stroke-width:0.2;
}
text.emoj {
	font-size:2;
}
rect.emojtip {
	fill: black;
      }
text.emojtip {
	fill:white;font-weight:bold;text-anchor:middle;
      }
]]></style><defs><clipPath id="emojitip-clip"><rect height="4" width="10" x="-5" y="3"/></clipPath></defs><g transform="translate(2 2)"><g><g id="1f319" transform="translate(5 5)"><g transform="translate(-4 -4) scale(0.125)"><path d="M43.137,2c3.234,4.797,5.123,10.559,5.123,16.756c0,16.701-13.688,30.24-30.571,30.24  c-5.737,0-11.102-1.565-15.689-4.285C7.208,54.962,17.929,62,30.316,62C47.814,62,62,47.969,62,30.659  C62,17.866,54.246,6.871,43.137,2z" fill="#ffe62e"/></g><rect class="emoji" height="10" onmousedown="window.memoji_onEmojDown(evt)" onmouseout="window.memoji_onEmojOut(evt);" onmouseover="memoji.onEmojOver(evt,'crescent moon',5,0);" ontouchstart="window.memoji_onEmojDown(evt)" stroke-width="0.1" width="10" x="-5" y="-5"/><defs><text id="1f319-code">crescent moon</text></defs></g><g id="1f313" transform="translate(15 5)"><g transform="translate(-4 -4) scale(0.125)"><path d="M32.001,2c-1.104,0-2,13.432-2,30s0.896,30,2,30C48.568,62,62,48.568,62,32S48.568,2,32.001,2z" fill="#ffe8a6"/><path d="m30 32c0-16.568.896-30 2-30-16.568 0-30 13.432-30 30s13.432 30 30 30c-1.105 0-2-13.432-2-30" fill="#3e4347"/><g fill="#f4dc9f"><circle cx="50" cy="35.25" r="7"/><path d="m30.15 43.34c.14 5.105.369 9.508.66 12.751 1.454-1.599 2.349-3.716 2.349-6.05 0-2.667-1.166-5.05-3.01-6.703"/><circle cx="37" cy="18.248" r="4"/><circle cx="39" cy="9.248" r="2"/><circle cx="52" cy="50.05" r="2"/><circle cx="46" cy="52.623" r="4"/><path d="m34.16 10.75c0-2.114-1.315-3.913-3.168-4.645-.268 2.353-.496 5.608-.666 9.491 2.196-.527 3.834-2.492 3.834-4.846"/></g><g fill="#464d51"><path d="m24.16 41.05c-.133 0-.262.015-.393.02.227-.631.355-1.309.355-2.02 0-3.314-2.687-6-6-6-3.314 0-6 2.688-6 6 0 2.854 1.995 5.237 4.666 5.844-1.023 1.461-1.629 3.235-1.629 5.154 0 4.971 4.03 9 9 9 2.639 0 5-1.143 6.651-2.952-.291-3.243-.521-7.646-.66-12.751-1.591-1.424-3.686-2.297-5.99-2.297"/><path d="m24 21.248c2.209 0 4-1.789 4-4 0-.645-.168-1.245-.438-1.784.505.171 1.036.284 1.599.284.403 0 .791-.061 1.166-.151.17-3.883.398-7.139.666-9.491-.569-.225-1.185-.357-1.832-.357-2.764 0-5 2.238-5 5 0 .961.285 1.851.756 2.612-.295-.068-.598-.114-.914-.114-2.209 0-4 1.791-4 4-.001 2.21 1.79 3.999 3.999 3.999"/><circle cx="12.12" cy="25.924" r="4"/><circle cx="8.121" cy="39.05" r="2"/><circle cx="25" cy="29.924" r="3"/><circle cx="15" cy="15.748" r="2"/></g></g><rect class="emoji" height="10" onmousedown="window.memoji_onEmojDown(evt)" onmouseout="window.memoji_onEmojOut(evt);" onmouseover="memoji.onEmojOver(evt,'first quarter moon symbol',0,0);" ontouchstart="window.memoji_onEmojDown(evt)" stroke-width="0.1" width="10" x="-5" y="-5"/><defs><text id="1f313-code">first quarter moon symbol</text></defs></g><g id="1f31b" transform="translate(25 5)"><g transform="translate(-4 -4) scale(0.125)"><path d="m22.402 2.154c5.04 2.469 9.391 6.371 12.356 11.522 1.563 2.715 2.625 5.575 3.213 8.479.803 3.943.119 9.505-6.827 7.61-3.719-1.015-7.316 5.671-.355 7.57 2.01.548-4.725 2.127.422 4.895 0 0-5.488 1.34-2.146 3.904 1.51 1.158-.205 3.136-1.068 3.853-1.422 1.181-2.977 2.248-4.658 3.182-4.861 2.694-10.154 3.913-15.339 3.807 9.316 6.075 21.762 6.891 32.25 1.073 14.818-8.217 20.12-26.542 11.838-40.93-6.121-10.635-17.949-16.13-29.688-14.965" fill="#ffe8a6"/><g fill="#f4dc9f"><path d="m42.895 47.48c-1.473-.401-2.996.445-3.404 1.888-.41 1.441.451 2.938 1.922 3.34s2.994-.444 3.402-1.888c.408-1.443-.452-2.939-1.92-3.34"/><path d="m46.908 15c-1.471-.401-2.994.443-3.404 1.888-.406 1.442.455 2.938 1.924 3.339 1.473.4 2.994-.443 3.402-1.886.41-1.445-.451-2.94-1.922-3.341"/><path d="m34.13 48.52c-2.434-.663-4.954.734-5.631 3.122-.676 2.39.748 4.864 3.182 5.528 2.434.664 4.956-.734 5.633-3.123.675-2.387-.75-4.862-3.184-5.527"/><path d="m51.12 31.1c-2.561-.698-5.213.771-5.926 3.285-.711 2.514.787 5.118 3.35 5.816 2.559.698 5.211-.772 5.924-3.286.711-2.514-.787-5.116-3.348-5.815"/><path d="m24.267 55.15c-1.166-.317-2.375.352-2.699 1.498-.324 1.145.357 2.329 1.525 2.647 1.166.318 2.373-.351 2.699-1.495.325-1.146-.359-2.33-1.525-2.65"/><path d="m38.506 7.395c-.912-.249-1.859.275-2.111 1.171-.254.896.279 1.825 1.193 2.074.912.249 1.857-.277 2.111-1.172.254-.897-.281-1.824-1.193-2.073"/></g><path d="m45.529 41.731c-.313.548-.878.944-1.448 1.224-.582.278-1.198.469-1.821.595-1.247.264-2.514.307-3.767.271-1.253-.056-2.497-.202-3.719-.463-1.22-.255-2.427-.603-3.564-1.127 2.478.246 4.894.502 7.321.591 1.21.054 2.42.054 3.614-.041.596-.055 1.19-.131 1.765-.284.581-.144 1.132-.362 1.619-.766" fill="#7f5629"/><path d="m37.438 46.811c-1.269.065-2.439-.087-3.605-.177-.581-.061-1.156-.098-1.729-.122-.577-.011-1.14-.01-1.761.128.412-.505 1.064-.771 1.685-.904.631-.142 1.271-.145 1.895-.098 1.242.131 2.449.475 3.515 1.173" fill="#b79918"/><path d="m34.533 37.501c-.326-.192-.56-.285-.788-.354l-.74-.176c-.537-.151-1.145-.36-1.617-.903.682-.223 1.25-.205 1.874-.063.302.093.643.218.915.495.27.264.421.656.356 1" fill="#7f5629"/><path d="m44.05 23.01c2.721.742 4.744 3.624 3.986 6.294-.756 2.669-4 4.113-6.723 3.371-2.721-.742-2.164-2.921-1.408-5.589.758-2.671 1.426-4.819 4.145-4.076" fill="#fff"/><path d="m42.756 24.612c1.699.463 3.135 2.313 2.662 3.981-.473 1.668-2.674 2.524-4.373 2.06-1.699-.463-1.338-1.82-.865-3.49.472-1.669.877-3.02 2.576-2.551" fill="#7f5629"/><path d="m37.13 35.23c.692.972 1.726 1.496 2.731 2.042l3.138 1.542c1.043.55 2.104 1.123 3.037 1.927.465.398.896.865 1.199 1.423.298.558.415 1.228.236 1.804-.087-1.227-.994-1.988-1.909-2.606-.944-.613-1.979-1.13-3.02-1.657-1.033-.543-2.092-1.08-3.082-1.766-.958-.674-2-1.517-2.33-2.709" fill="#b79918"/></g><rect class="emoji" height="10" onmousedown="window.memoji_onEmojDown(evt)" onmouseout="window.memoji_onEmojOut(evt);" onmouseover="memoji.onEmojOver(evt,'first quarter moon with face',0,0);" ontouchstart="window.memoji_onEmojDown(evt)" stroke-width="0.1" width="10" x="-5" y="-5"/><defs><text id="1f31b-code">first quarter moon with face</text></defs></g><g id="1f315" transform="translate(35 5)"><g transform="translate(-4 -4) scale(0.125)"><circle cx="32" cy="32" fill="#ffe8a6" r="30"/><g fill="#f4dc9f"><circle cx="49.999" cy="35.25" r="7"/><circle cx="18.12" cy="39.05" r="6"/><circle cx="24.16" cy="50.05" r="9"/><circle cx="23.998" cy="17.248" r="4"/><circle cx="36.998" cy="18.248" r="4"/><circle cx="12.12" cy="25.922" r="4"/><circle cx="38.998" cy="9.248" r="2"/><circle cx="8.12" cy="39.05" r="2"/><circle cx="51.999" cy="50.05" r="2"/><circle cx="24.998" cy="29.923" r="3"/><circle cx="14.998" cy="15.748" r="2"/><circle cx="45.999" cy="52.623" r="4"/><path d="m24.16 10.75c0 2.758 2.237 4.998 5 4.998 2.761 0 5-2.24 5-4.998 0-2.764-2.24-5-5-5-2.763 0-5 2.238-5 5"/></g></g><rect class="emoji" height="10" onmousedown="window.memoji_onEmojDown(evt)" onmouseout="window.memoji_onEmojOut(evt);" onmouseover="memoji.onEmojOver(evt,'full moon',0,0);" ontouchstart="window.memoji_onEmojDown(evt)" stroke-width="0.1" width="10" x="-5" y="-5"/><defs><text id="1f315-code">full moon</text></defs></g><g id="1f31d" transform="translate(45 5)"><g transform="translate(-4 -4) scale(0.125)"><circle cx="32" cy="31.998" fill="#ffe8a6" r="30"/><g fill="#f4dc9f"><circle cx="49.999" cy="35.25" r="7"/><circle cx="18.12" cy="39.05" r="6"/><circle cx="24.16" cy="50.05" r="9"/><circle cx="23.998" cy="17.246" r="4"/><circle cx="36.998" cy="18.246" r="4"/><circle cx="12.12" cy="25.92" r="4"/><circle cx="38.998" cy="9.246" r="2"/><circle cx="8.12" cy="39.04" r="2"/><circle cx="51.999" cy="50.04" r="2"/><circle cx="24.998" cy="29.921" r="3"/><circle cx="14.998" cy="15.746" r="2"/><circle cx="45.999" cy="52.621" r="4"/><path d="m24.16 10.748c0 2.758 2.237 4.998 5 4.998 2.761 0 5-2.24 5-4.998 0-2.764-2.24-5-5-5-2.763 0-5 2.238-5 5"/></g><g fill="#d3b475"><path d="m15.259 46.872c-.393-.71-.604-1.513-.629-2.349-.026-.824.172-1.771.854-2.475.703-.683 1.647-.882 2.473-.855.838.025 1.641.236 2.35.63-.805.012-1.574.034-2.301.149-.717.121-1.393.346-1.814.783-.438.422-.662 1.098-.784 1.814-.117.728-.138 1.497-.149 2.303"/><path d="m43.691 41.825c.711-.394 1.513-.603 2.35-.629.831-.021 1.755.157 2.488.868.652.674.873 1.641.841 2.457-.024.838-.236 1.641-.629 2.351-.013-.806-.035-1.575-.149-2.301-.129-.724-.33-1.378-.798-1.829-.394-.41-1.09-.654-1.801-.771-.725-.114-1.496-.136-2.302-.146"/></g><g fill="#7f5629"><ellipse cx="18.983" cy="26.574" rx="3.5" ry="4"/><ellipse cx="45.02" cy="26.414" rx="3.501" ry="4"/><path d="m46.683 42.768c-.296 1.434-1.229 2.709-2.292 3.756-1.079 1.042-2.378 1.87-3.699 2.508-2.738 1.293-5.715 1.872-8.691 1.88-2.971-.004-5.966-.591-8.677-1.874l-.518-.255-.464-.257c-.341-.192-.666-.387-.974-.596-.625-.417-1.216-.885-1.759-1.406-1.062-1.048-1.997-2.322-2.293-3.756.988 1.053 2.096 1.79 3.292 2.357.591.289 1.199.538 1.813.759l.913.303.499.149.456.124c2.517.662 5.117.94 7.713.953 2.591-.002 5.209-.289 7.701-.94 1.286-.339 2.504-.764 3.695-1.34 1.194-.57 2.302-1.309 3.285-2.365"/><path d="m35.396 39.2c-.854.828-2.134 1.268-3.404 1.223-1.263-.054-2.561-.466-3.6-1.373-.518-.446-.975-1.028-1.229-1.728-.264-.692-.323-1.473-.2-2.193.03-.158.079-.395.119-.515.064-.198.124-.358.191-.515.133-.314.281-.6.432-.874.302-.547.617-1.046.915-1.539 1.247-1.917 2.229-3.825 2.265-5.947.051-2.119-.832-4.283-1.946-6.357 1.751 1.552 3.225 3.691 3.505 6.281.16 1.279-.065 2.597-.467 3.796-.421 1.201-1.05 2.278-1.661 3.286-.626.98-1.308 1.952-1.5 2.757-.23.842.026 1.696.663 2.433 1.316 1.424 3.733 2.211 5.917 1.265"/></g></g><rect class="emoji" height="10" onmousedown="window.memoji_onEmojDown(evt)" onmouseout="window.memoji_onEmojOut(evt);" onmouseover="memoji.onEmojOver(evt,'full moon with face',0,0);" ontouchstart="window.memoji_onEmojDown(evt)" stroke-width="0.1" width="10" x="-5" y="-5"/><defs><text id="1f31d-code">full moon with face</text></defs></g><g id="1f31f" transform="translate(55 5)"><g transform="translate(-4 -4) scale(0.125)"><path d="M61.998,23.012H39.079L31.998,2l-7.081,21.012H1.998L20.539,36l-7.082,21.01l18.541-12.986L50.539,57.01   L43.457,36L61.998,23.012z" fill="#ffce31"/><g fill="#ffdf85"><path d="m46.23 20.344l3.93-11.487-10.441 7.213 1.461 4.274z"/><path d="m27.909 50.03l4.088 11.97 4.093-11.97-4.093-2.82z"/><path d="m50.678 34.31l-3.824 2.638 1.626 4.753h12.9z"/><path d="m24.275 16.07l-10.437-7.213 3.926 11.487h5.05z"/><path d="m13.318 34.31l-10.704 7.391h12.904l1.622-4.753z"/></g></g><rect class="emoji" height="10" onmousedown="window.memoji_onEmojDown(evt)" onmouseout="window.memoji_onEmojOut(evt);" onmouseover="memoji.onEmojOver(evt,'glowing star',0,0);" ontouchstart="window.memoji_onEmojDown(evt)" stroke-width="0.1" width="10" x="-5" y="-5"/><defs><text id="1f31f-code">glowing star</text></defs></g><g id="1f317" transform="translate(65 5)"><g transform="translate(-4 -4) scale(0.125)"><path d="m34 32c0-16.568-.895-30-2-30-16.568 0-30 13.432-30 30s13.431 30 30 30c1.105 0 2-13.432 2-30" fill="#ffe8a6"/><path d="M32,2c1.105,0,2,13.432,2,30s-0.895,30-2,30c16.568,0,30-13.432,30-30S48.568,2,32,2z" fill="#3e4347"/><g fill="#f4dc9f"><path d="m24.16 41.05c-.132 0-.261.014-.392.02.226-.632.355-1.31.355-2.02 0-3.313-2.688-6-6-6-3.314 0-6 2.688-6 6 0 2.855 1.994 5.238 4.665 5.846-1.022 1.461-1.628 3.235-1.628 5.154 0 4.969 4.03 9 8.999 9s9-4.03 9-9c.001-4.971-4.03-9-9-9"/><path d="m24 21.248c2.209 0 3.999-1.791 3.999-4 0-.645-.167-1.245-.438-1.785.504.172 1.035.285 1.598.285 1.91 0 3.552-1.085 4.394-2.659-.107-1.989-.232-3.767-.37-5.285-.911-1.241-2.368-2.056-4.02-2.056-2.764 0-5 2.238-5 5 0 .961.285 1.851.756 2.613-.295-.069-.598-.115-.914-.115-2.209 0-4 1.791-4 4s1.791 4 4 4"/><path d="m33.854 20.691c-.045-1.643-.1-3.21-.162-4.691-.436.641-.692 1.414-.692 2.248-.001.925.326 1.766.854 2.443"/><circle cx="12.12" cy="25.922" r="4"/><circle cx="8.121" cy="39.05" r="2"/><circle cx="24.999" cy="29.922" r="3"/><circle cx="14.999" cy="15.748" r="2"/></g><g fill="#464d51"><circle cx="49.999" cy="35.25" r="7"/><path d="m37 14.248c-1.375 0-2.588.695-3.309 1.752.063 1.481.117 3.049.162 4.691.731.94 1.862 1.557 3.146 1.557 2.209 0 3.999-1.791 3.999-4s-1.789-4-3.998-4"/><circle cx="38.999" cy="9.248" r="2"/><circle cx="52" cy="50.05" r="2"/><circle cx="46" cy="52.623" r="4"/><path d="m33.18 7.804c.138 1.519.263 3.296.37 5.285.375-.701.607-1.489.607-2.339 0-1.106-.37-2.119-.977-2.946"/></g></g><rect class="emoji" height="10" onmousedown="window.memoji_onEmojDown(evt)" onmouseout="window.memoji_onEmojOut(evt);" onmouseover="memoji.onEmojOver(evt,'last quarter moon symbol',0,0);" ontouchstart="window.memoji_onEmojDown(evt)" stroke-width="0.1" width="10" x="-5" y="-5"/><defs><text id="1f317-code">last quarter moon symbol</text></defs></g><g id="1f31c" transform="translate(75 5)"><g transform="translate(-4 -4) scale(0.125)"><path d="m41.598 2.154c-5.04 2.469-9.39 6.371-12.355 11.522-1.563 2.715-2.625 5.575-3.213 8.479-.803 3.943-.119 9.505 6.826 7.61 3.718-1.015 7.316 5.671.355 7.57-2.01.548 4.725 2.127-.421 4.895 0 0 5.488 1.34 2.146 3.904-1.51 1.158.205 3.136 1.068 3.853 1.422 1.181 2.977 2.248 4.658 3.182 4.859 2.693 10.152 3.912 15.338 3.806-9.316 6.075-21.762 6.891-32.25 1.073-14.819-8.216-20.12-26.541-11.838-40.929 6.121-10.635 17.949-16.13 29.687-14.965" fill="#ffe8a6"/><g fill="#f4dc9f"><path d="m21.11 47.48c1.473-.401 2.996.445 3.404 1.888.41 1.441-.451 2.938-1.922 3.34s-2.994-.444-3.402-1.888c-.408-1.443.451-2.939 1.92-3.34"/><path d="m17.09 15c1.471-.401 2.994.443 3.402 1.888.408 1.442-.453 2.938-1.922 3.339-1.473.4-2.996-.443-3.402-1.886-.41-1.445.452-2.94 1.922-3.341"/><path d="m29.872 48.52c2.434-.663 4.953.734 5.63 3.122.676 2.39-.748 4.864-3.181 5.528-2.434.664-4.955-.734-5.633-3.123-.676-2.387.75-4.862 3.184-5.527"/><path d="m12.885 31.1c2.561-.698 5.213.771 5.926 3.285.711 2.514-.787 5.118-3.348 5.816s-5.213-.772-5.926-3.286c-.71-2.514.788-5.116 3.348-5.815"/><path d="m39.732 55.15c1.166-.317 2.375.352 2.699 1.498.324 1.145-.357 2.329-1.525 2.647-1.166.318-2.373-.351-2.699-1.495-.324-1.146.359-2.33 1.525-2.65"/><path d="m25.495 7.395c.912-.249 1.859.275 2.111 1.171.254.896-.279 1.825-1.193 2.074-.912.249-1.857-.277-2.111-1.172-.255-.897.281-1.824 1.193-2.073"/></g><path d="m18.471 41.731c.487.403 1.038.621 1.62.766.574.153 1.168.229 1.764.284 1.194.095 2.404.095 3.614.041 2.426-.089 4.842-.345 7.32-.591-1.137.524-2.344.872-3.564 1.127-1.221.261-2.465.407-3.718.463-1.252.035-2.52-.008-3.767-.271-.623-.126-1.239-.316-1.821-.595-.57-.279-1.135-.676-1.448-1.224" fill="#7f5629"/><path d="m26.563 46.811c1.065-.697 2.272-1.042 3.517-1.173.624-.047 1.263-.044 1.894.098.621.133 1.273.399 1.685.904-.621-.138-1.185-.139-1.761-.128-.574.024-1.149.062-1.729.122-1.167.09-2.337.242-3.606.177" fill="#b79918"/><path d="m29.467 37.501c-.065-.345.085-.737.356-1 .272-.277.613-.402.915-.495.623-.143 1.192-.16 1.874.063-.472.543-1.08.752-1.616.903l-.741.176c-.229.069-.461.162-.788.354" fill="#7f5629"/><path d="m19.95 23.01c-2.721.742-4.744 3.624-3.986 6.294.756 2.669 4 4.113 6.723 3.371 2.721-.742 2.164-2.921 1.408-5.589-.759-2.671-1.427-4.819-4.145-4.076" fill="#fff"/><path d="m21.245 24.612c-1.699.463-3.135 2.313-2.662 3.981.473 1.668 2.674 2.524 4.373 2.06 1.699-.463 1.338-1.82.865-3.49-.473-1.669-.877-3.02-2.576-2.551" fill="#7f5629"/><path d="m26.875 35.23c-.326 1.191-1.372 2.034-2.331 2.708-.99.686-2.048 1.223-3.083 1.766-1.041.527-2.075 1.044-3.02 1.657-.916.618-1.822 1.38-1.909 2.606-.179-.576-.062-1.246.236-1.804.302-.558.734-1.024 1.199-1.423.934-.804 1.994-1.377 3.037-1.927l3.138-1.542c1.01-.545 2.041-1.069 2.732-2.041" fill="#b79918"/></g><rect class="emoji" height="10" onmousedown="window.memoji_onEmojDown(evt)" onmouseout="window.memoji_onEmojOut(evt);" onmouseover="memoji.onEmojOver(evt,'last quarter moon with face',-5,0);" ontouchstart="window.memoji_onEmojDown(evt)" stroke-width="0.1" width="10" x="-5" y="-5"/><defs><text id="1f31c-code">last quarter moon with face</text></defs></g><g id="1f30c" transform="translate(5 15)"><g transform="translate(-4 -4) scale(0.125)"><path d="m0 0h64v46h-64z" fill="#3f3261"/><path d="m0 46h64v10.02h-64z" fill="#42ade2"/><path d="m0 34h64v1.016h-64z" fill="#296d8f"/><path d="m0 37h64v2h-64z" fill="#3283ab"/><path d="m0 40.982h64v3.02h-64z" fill="#3b9ac9"/><path d="m0 55c0 0 5.775-3.779 8-4 2.836-.281 8.164 3.281 11 3 2.225-.221 5.789-3.668 8-4 1.504-.227 4.514 1.319 6 1 1.763-.378 4.197-3.974 6-4 2.358-.035 5.643 4.939 8 5 2.573.066 6.472-4.516 9-5 1.98-.379 8 1.036 8 1.036v15.964h-64v-9" fill="#3e4347"/><g fill="#fff"><path d="m7.439 22.439h2.121v2.121h-2.121z" transform="matrix(.7071-.7071.7071.7071-14.13 12.893)"/><path d="m12.439 17.439h2.121v2.121h-2.121z" transform="matrix(.7071-.7071.7071.7071-9.127 14.965)"/><path d="m18.439 20.439h2.121v2.121h-2.121z" transform="matrix(.7071-.7071.7071.7071-9.491 20.09)"/><path d="m20.439 12.45h2.121v2.121h-2.121z" transform="matrix(.7071-.7071.7071.7071-3.256 19.16)"/><path d="m24.439 17.439h2.121v2.121h-2.121z" transform="matrix(.7071-.7071.7071.7071-5.613 23.45)"/><path d="m28.439 11.439h2.121v2.121h-2.121z" transform="matrix(.7071-.7071.7071.7071-.199 24.521)"/><path d="m30.439 19.439h2.121v2.121h-2.121z" transform="matrix(.7071-.7071.7071.7071-5.27 28.28)"/><path d="m35.439 11.439h2.121v2.121h-2.121z" transform="matrix(.7071-.7071.7071.7071 1.852 29.471)"/><path d="m41.44 8.439h2.121v2.121h-2.121z" transform="matrix(.7071-.7071.7071.7071 5.73 32.835)"/><path d="m42.44 13.439h2.121v2.121h-2.121z" transform="matrix(.7071-.7071.7071.7071 2.488 35.01)"/><path d="m48.44 13.439h2.121v2.121h-2.121z" transform="matrix(.7071-.7071.7071.7071 4.245 39.25)"/><path d="m49.44 6.439h2.121v2.121h-2.121z" transform="matrix(.7071-.7071.7071.7071 9.488 37.906)"/><path d="m57.44 2.439h2.121v2.121h-2.121z" transform="matrix(.7071-.7071.7071.7071 14.659 42.39)"/></g><g fill="#d9d9ff"><path d="m36.793 16.793h1.414v1.414h-1.414z" transform="matrix(.7071-.7071.7071.7071-1.391 31.642)"/><path d="m45.877 10.606h1.414v1.414h-1.414z" transform="matrix(.7071-.7071.7071.7071 5.644 36.25)"/><path d="m60.54 7.04h1.414v1.414h-1.414z" transform="matrix(.7071-.7071.7071.7071 12.46 45.58)"/><path d="m26.04 26.04h1.414v1.414h-1.414z" transform="matrix(.7071-.7071.7071.7071-11.08 26.75)"/><path d="m3.043 23.04h1.414v1.414h-1.414z" transform="matrix(.7071-.7071.7071.7071-15.695 9.608)"/><path d="m4.293 14.793h1.414v1.414h-1.414z" transform="matrix(.7071-.7071.7071.7071-9.496 8.08)"/><path d="m19.04 5.04h1.414v1.414h-1.414z" transform="matrix(.7071-.7071.7071.7071 1.719 15.65)"/><path d="m48.543 20.543h1.414v1.414h-1.414z" transform="matrix(.7071-.7071.7071.7071-.601 41.05)"/></g><g fill="#efe8ff"><path d="m45.543 5.543h1.414v1.414h-1.414z" transform="matrix(.7071-.7071.7071.7071 9.127 34.534)"/><path d="m54.59 7.107h1.414v1.414h-1.414z" transform="matrix(.7071-.7071.7071.7071 10.669 41.39)"/><path d="m55.59 11.543h1.414v1.414h-1.414z" transform="matrix(.7071-.7071.7071.7071 7.826 43.39)"/><path d="m37.04 7.293h1.414v1.414h-1.414z" transform="matrix(.7071-.7071.7071.7071 5.4 29.04)"/><path d="m31.29 14.793h1.414v1.414h-1.414z" transform="matrix(.7071-.7071.7071.7071-1.588 27.17)"/><path d="m18.04 16.401h1.414v1.414h-1.414z" transform="matrix(.7071-.7071.7071.7071-6.606 18.269)"/><path d="m14.04 26.543h1.414v1.414h-1.414z" transform="matrix(.7071-.7071.7071.7071-14.949 18.411)"/><path d="m7.793 17.401h1.414v1.414h-1.414z" transform="matrix(.7071-.7071.7071.7071-10.315 11.314)"/><path d="m3.543 27.543h1.414v1.414h-1.414z" transform="matrix(.7071-.7071.7071.7071-18.731 11.279)"/><path d="m7.04 6.04h1.414v1.414h-1.414z" transform="matrix(.7071-.7071.7071.7071-2.503 7.457)"/><path d="m45.29 28.29h1.414v1.414h-1.414z" transform="matrix(.7071-.7071.7071.7071-7.03 41.02)"/><path d="m58.793 22.09h1.414v1.414h-1.414z" transform="matrix(.7071-.7071.7071.7071 1.308 48.75)"/><path d="m30.793 1.793h1.414v1.414h-1.414z" transform="matrix(.7071-.7071.7071.7071 7.458 23.01)"/></g><g fill="#ffb8f0"><path d="m54.44 16.15h.707v.707h-.707z" transform="matrix(.7071-.7071.7071.7071 4.381 43.577)"/><path d="m18.896 25.15h.707v.707h-.707z" transform="matrix(.7071-.7071.7071.7071-12.393 21.08)"/><path d="m14.396 8.396h.707v.707h-.707z" transform="matrix(.7071-.7071.7071.7071-1.867 12.993)"/><path d="m2.396 1.646h.707v.707h-.707z" transform="matrix(.7071-.7071.7071.7071-.609 2.53)"/><path d="m50.4 1.646h.707v.707h-.707z" transform="matrix(.7071-.7071.7071.7071 13.45 36.472)"/><path d="m31.646 24.896h.707v.707h-.707z" transform="matrix(.7071-.7071.7071.7071-8.482 30.02)"/><path d="m3.896 19.15h.707v.707h-.707z" transform="matrix(.7071-.7071.7071.7071-12.544 8.717)"/><path d="m43.854 18.896h.707v.707h-.707z" transform="matrix(.7071-.7071.7071.7071-.664 36.898)"/></g><g fill="#d9adff"><path d="m54.939 27.396h.707v.707h-.707z" transform="matrix(.7071-.7071.7071.7071-3.427 47.23)"/><path d="m60.65 16.755h.707v.707h-.707z" transform="matrix(.7071-.7071.7071.7071 5.769 48.14)"/><path d="m35.15 28.15h.707v.707h-.707z" transform="matrix(.7071-.7071.7071.7071-9.755 33.45)"/><path d="m33.15 9.986h.707v.707h-.707z" transform="matrix(.7071-.7071.7071.7071 2.501 26.717)"/><path d="m25.15 13.646h.707v.707h-.707z" transform="matrix(.7071-.7071.7071.7071-2.431 22.13)"/><path d="m26.396 22.15h.707v.707h-.707z" transform="matrix(.7071-.7071.7071.7071-8.07 25.505)"/><path d="m13.646 22.396h.707v.707h-.707z" transform="matrix(.7071-.7071.7071.7071-11.986 16.563)"/><path d="m10.708 14.15h.707v.707h-.707z" transform="matrix(.7071-.7071.7071.7071-7.01 12.07)"/><path d="m2.396 9.486h.707v.707h-.707z" transform="matrix(.7071-.7071.7071.7071-6.152 4.827)"/><path d="m14.646 1.646h.707v.707h-.707z" transform="matrix(.7071-.7071.7071.7071 2.979 11.192)"/><path d="m9.646 29.812h.707v.707h-.707z" transform="matrix(.7071-.7071.7071.7071-18.402 15.907)"/><path d="m52.15 10.646h.707v.707h-.707z" transform="matrix(.7071-.7071.7071.7071 7.599 40.34)"/><path d="m53.771 4.896h.707v.707h-.707z" transform="matrix(.7071-.7071.7071.7071 12.141 39.81)"/></g><g fill="#906eed"><path d="m39.4 23.442h.707v.707h-.707z" transform="matrix(.7071-.7071.7071.7071-5.184 35.08)"/><path d="m61.896 27.896h.707v.707h-.707z" transform="matrix(.7071-.7071.7071.7071-1.743 52.29)"/><path d="m28.854 17.479h.707v.707h-.707z" transform="matrix(.7071-.7071.7071.7071-4.055 25.876)"/><path d="m15.896 12.146h.707v.707h-.707z" transform="matrix(.7071-.7071.7071.7071-4.079 15.15)"/><path d="m26.646 6.146h.707v.707h-.707z" transform="matrix(.7071-.7071.7071.7071 3.312 20.996)"/><path d="m41.15 1.146h.707v.707h-.707z" transform="matrix(.7071-.7071.7071.7071 11.09 29.784)"/><path d="m22.396 29.646h.707v.707h-.707z" transform="matrix(.7071-.7071.7071.7071-14.55 24.874)"/><path d="m.937 25.896h.707v.707h-.707z" transform="matrix(.7071-.7071.7071.7071-18.18 8.601)"/><path d="m55.15 19.896h.707v.707h-.707z" transform="matrix(.7071-.7071.7071.7071 1.937 45.18)"/><path d="m59.65 10.896h.707v.707h-.707z" transform="matrix(.7071-.7071.7071.7071 9.619 45.722)"/><path d="m61.896 2.313h.707v.707h-.707z" transform="matrix(.7071-.7071.7071.7071 16.347 44.799)"/><path d="m39.4 13.813h.707v.707h-.707z" transform="matrix(.7071-.7071.7071.7071 1.625 32.26)"/></g></g><rect class="emoji" height="10" onmousedown="window.memoji_onEmojDown(evt)" onmouseout="window.memoji_onEmojOut(evt);" onmouseover="memoji.onEmojOver(evt,'milky way',5,0);" ontouchstart="window.memoji_onEmojDown(evt)" stroke-width="0.1" width="10" x="-5" y="-5"/><defs><text id="1f30c-code">milky way</text></defs></g><g id="1f311" transform="translate(15 15)"><g transform="translate(-4 -4) scale(0.125)"><circle cx="32" cy="32" fill="#3e4347" r="30"/><g fill="#464d51"><circle cx="50" cy="35.25" r="7"/><circle cx="18.12" cy="39.05" r="6"/><circle cx="24.16" cy="50.05" r="9"/><circle cx="23.998" cy="17.248" r="4"/><circle cx="36.998" cy="18.248" r="4"/><circle cx="12.12" cy="25.922" r="4"/><circle cx="38.998" cy="9.248" r="2"/><circle cx="8.121" cy="39.05" r="2"/><circle cx="52" cy="50.05" r="2"/><circle cx="24.998" cy="29.923" r="3"/><circle cx="14.998" cy="15.748" r="2"/><circle cx="46" cy="52.623" r="4"/><path d="m24.16 10.75c0 2.758 2.236 4.998 5 4.998 2.762 0 5-2.24 5-4.998 0-2.764-2.24-5-5-5-2.763 0-5 2.238-5 5"/></g></g><rect class="emoji" height="10" onmousedown="window.memoji_onEmojDown(evt)" onmouseout="window.memoji_onEmojOut(evt);" onmouseover="memoji.onEmojOver(evt,'new moon',0,0);" ontouchstart="window.memoji_onEmojDown(evt)" stroke-width="0.1" width="10" x="-5" y="-5"/><defs><text id="1f311-code">new moon</text></defs></g><g id="1f31a" transform="translate(25 15)"><g transform="translate(-4 -4) scale(0.125)"><circle cx="32" cy="32" fill="#3e4347" r="30"/><g fill="#464d51"><circle cx="25.941" cy="7.804" r="3.413"/><circle cx="46.869" cy="14.6" r="5.671"/><circle cx="34.743" cy="14.13" r="2.6"/><circle cx="57.49" cy="36.992" r="2.02"/><circle cx="55.47" cy="22.292" r="2.02"/><circle cx="22.528" cy="15.67" r="2.02"/><circle cx="14.411" cy="16.733" r="4.631"/><circle cx="51.946" cy="29.43" r="2.6"/></g><g fill="#fff" opacity=".7"><path d="m33.795 32.984c.095-.344.382-.633.677-.848.299-.221.629-.365.948-.51.649-.263 1.294-.413 1.916-.54 1.247-.24 2.419-.359 3.51-.521 1.093-.164 2.086-.35 3.038-.717.957-.359 1.892-.963 2.947-1.87.115 1.38-.521 2.827-1.639 3.833-1.117 1.012-2.565 1.531-3.913 1.722-1.362.196-2.673.102-3.899-.097-.615-.103-1.21-.229-1.792-.354-.594-.115-1.128-.274-1.793-.098"/><path d="m17.825 35.12c-1.096.267-1.599.803-2.344 1.284-.717.487-1.55 1-2.612 1.313-1.038.318-2.396.337-3.491-.211-1.094-.539-1.822-1.471-2.079-2.557 1.11.179 1.979.329 2.701.281.716-.035 1.297-.189 2.046-.397.74-.204 1.604-.499 2.646-.644.521-.063 1.095-.09 1.674.038.573.136 1.143.409 1.459.893"/><path d="m14.322 23.531c1.668-.143 3.444.148 5.04 1.073.781.475 1.487 1.106 2.072 1.836.576.736 1.01 1.569 1.348 2.418.683 1.708.901 3.5.965 5.238.043 1.745-.102 3.461-.362 5.141-.133.84-.282 1.674-.471 2.497-.154.708-.209 1.328-.145 1.938.131 1.181.83 2.127 2.088 2.712 1.242.554 2.799.747 4.333.592 1.546-.139 3.099-.597 4.531-1.461-1.021 1.348-2.573 2.289-4.236 2.843-1.674.52-3.54.722-5.411.16-.923-.284-1.873-.763-2.617-1.55-.753-.771-1.256-1.809-1.443-2.837-.204-1.017-.136-2.066.031-2.97.133-.792.271-1.579.383-2.367.438-3.137.725-6.321.084-9.206-.345-1.424-.971-2.752-2.053-3.775-1.057-1.061-2.548-1.745-4.134-2.282"/><path d="m19.06 53.37c2.734.033 5.348.229 7.919.136 2.566-.068 5.076-.335 7.489-.923 2.412-.588 4.764-1.501 7.08-2.617 2.327-1.099 4.561-2.468 6.977-3.75-1.576 2.217-3.519 4.17-5.771 5.777-2.252 1.594-4.819 2.839-7.574 3.504-2.754.669-5.605.739-8.338.355-2.736-.397-5.358-1.24-7.777-2.482"/></g></g><rect class="emoji" height="10" onmousedown="window.memoji_onEmojDown(evt)" onmouseout="window.memoji_onEmojOut(evt);" onmouseover="memoji.onEmojOver(evt,'new moon with face',0,0);" ontouchstart="window.memoji_onEmojDown(evt)" stroke-width="0.1" width="10" x="-5" y="-5"/><defs><text id="1f31a-code">new moon with face</text></defs></g><g id="1f320" transform="translate(35 15)"><g transform="translate(-4 -4) scale(0.125)"><path d="M7 30.982 21.05 41.25 14.204 62 32.14 49.18 50.07 62 57 2z" fill="#f5a300"/><path d="m38.869 39.859l10.888-7.779h-13.457l-4.16-12.6-4.16 12.6h-13.459l10.889 7.779-4.159 12.601 10.889-7.788 10.89 7.788z" fill="#fff" id="0"/><use xlink:href="#0"/><g fill="#ffce31"><path d="m38.99 28.432h3.5l14.51-26.432-19.244 22.693z"/><path d="m57 2l-22.441 13.01 1.831 5.549z"/><path d="M53.891 28.432 57 2 47.19 28.432z"/></g></g><rect class="emoji" height="10" onmousedown="window.memoji_onEmojDown(evt)" onmouseout="window.memoji_onEmojOut(evt);" onmouseover="memoji.onEmojOver(evt,'stars',0,0);" ontouchstart="window.memoji_onEmojDown(evt)" stroke-width="0.1" width="10" x="-5" y="-5"/><defs><text id="1f320-code">stars</text></defs></g><g id="1f31e" transform="translate(45 15)"><g transform="translate(-4 -4) scale(0.125)"><g fill="#ffe62e"><path d="m20.519 59.717l7.03-7.2c-2.498-.54-4.824-1.529-6.904-2.87l-.123 10.07"/><path d="m43.482 4.284l-7.03 7.199c2.498.541 4.824 1.529 6.904 2.871l.123-10.07"/><path d="m4.283 43.479l10.07-.122c-1.341-2.08-2.33-4.406-2.869-6.903l-7.201 7.02"/><path d="m59.717 20.52l-10.07.123c1.342 2.08 2.33 4.407 2.871 6.904l7.199-7.03"/><path d="m4.284 20.519l7.2 7.03c.54-2.498 1.529-4.824 2.87-6.904l-10.07-.123"/><path d="m59.717 43.48l-7.201-7.03c-.539 2.497-1.527 4.824-2.869 6.904l10.07.122"/><path d="m20.52 4.283l.122 10.07c2.08-1.342 4.407-2.33 6.904-2.87l-7.03-7.2"/><path d="m43.48 59.716l-.121-10.07c-2.08 1.341-4.408 2.33-6.904 2.87l7.02 7.199"/></g><g fill="#ffce31"><path d="m14.751 43.962l-3.965 9.251 9.252-3.965c-2.062-1.433-3.853-3.225-5.287-5.286"/><path d="m49.25 20.04l3.965-9.252-9.252 3.965c2.062 1.434 3.853 3.225 5.287 5.287"/><path d="m11.351 28.26l-9.351 3.74 9.352 3.74c-.22-1.215-.352-2.461-.352-3.739s.132-2.524.351-3.741"/><path d="m52.648 35.741l9.352-3.741-9.352-3.741c.219 1.217.352 2.463.352 3.741 0 1.279-.133 2.525-.352 3.741"/><path d="m20.04 14.751l-9.252-3.965 3.965 9.252c1.433-2.062 3.224-3.853 5.287-5.287"/><path d="m43.963 49.25l9.25 3.965-3.965-9.251c-1.432 2.062-3.223 3.853-5.285 5.286"/><path d="m35.742 11.352l-3.742-9.352-3.741 9.352c1.217-.219 2.462-.352 3.741-.352 1.279 0 2.525.133 3.742.352"/><path d="m28.26 52.648l3.741 9.352 3.742-9.352c-1.217.219-2.463.352-3.742.352-1.279 0-2.524-.133-3.741-.352"/><circle cx="32" cy="32" r="19"/></g><g fill="#664e27"><path d="m22.21 37.839c1.649.971 3.243 1.559 4.875 1.949 1.627.391 3.268.557 4.913.561 1.647-.007 3.288-.174 4.911-.564 1.633-.391 3.227-.978 4.879-1.945-.707 1.812-2.277 3.235-4.03 4.147-1.77.919-3.775 1.361-5.76 1.359-1.986-.002-3.99-.444-5.757-1.364-1.752-.911-3.323-2.334-4.03-4.143"/><circle cx="24.717" cy="28.575" r="2.85"/><circle cx="39.28" cy="28.575" r="2.85"/></g></g><rect class="emoji" height="10" onmousedown="window.memoji_onEmojDown(evt)" onmouseout="window.memoji_onEmojOut(evt);" onmouseover="memoji.onEmojOver(evt,'sun with face',0,0);" ontouchstart="window.memoji_onEmojDown(evt)" stroke-width="0.1" width="10" x="-5" y="-5"/><defs><text id="1f31e-code">sun with face</text></defs></g><g id="1f318" transform="translate(55 15)"><g transform="translate(-4 -4) scale(0.125)"><path d="M32,2c-9.389,0-17,13.432-17,30s7.611,30,17,30c16.568,0,30-13.432,30-30S48.568,2,32,2z" fill="#3e4347"/><path d="m15 32c0-16.568 7.611-30 17-30-16.568 0-30 13.432-30 30s13.432 30 30 30c-9.389 0-17-13.432-17-30" fill="#ffe8a6"/><g fill="#464d51"><circle cx="49.998" cy="35.25" r="7"/><path d="m24.16 41.05c-.132 0-.261.014-.392.02.227-.632.355-1.309.355-2.02 0-3.313-2.687-6-6-6-1.129 0-2.181.317-3.083.859.139 3.898.697 7.595 1.601 10.948.049.013.098.027.147.038-.033.047-.069.092-.102.14 1.669 6.097 4.473 11.05 7.927 13.991 4.759-.237 8.548-4.16 8.548-8.977.001-4.97-4.03-8.999-9-8.999"/><path d="m23.999 21.248c2.209 0 3.999-1.79 3.999-4 0-.645-.167-1.245-.438-1.785.504.172 1.035.285 1.598.285 2.762 0 5-2.24 5-4.998 0-2.764-2.24-5-5-5-2.764 0-5 2.238-5 5 0 .961.285 1.851.756 2.613-.295-.069-.598-.115-.914-.115-2.209 0-4 1.791-4 4 0 2.21 1.792 4 4 4"/><circle cx="37" cy="18.248" r="4"/><path d="m15.614 24.01c-.23 1.471-.398 2.986-.499 4.538.618-.704 1.01-1.616 1.01-2.628 0-.695-.193-1.34-.506-1.91"/><circle cx="38.998" cy="9.248" r="2"/><circle cx="52" cy="50.05" r="2"/><circle cx="24.998" cy="29.923" r="3"/><circle cx="46" cy="52.623" r="4"/></g><g fill="#f4dc9f"><path d="m15.04 33.906c-1.745 1.05-2.917 2.957-2.917 5.142 0 2.801 1.922 5.146 4.518 5.807-.904-3.354-1.462-7.05-1.601-10.949"/><path d="m16.684 45.03c-.963 1.433-1.526 3.158-1.526 5.02 0 4.97 4.03 9 8.999 9 .153 0 .303-.016.454-.023-3.455-2.947-6.258-7.895-7.927-13.992"/><path d="m12.12 29.923c1.198 0 2.261-.538 2.994-1.373.101-1.552.269-3.067.499-4.538-.68-1.239-1.98-2.089-3.493-2.089-2.209 0-4 1.791-4 3.999 0 2.21 1.792 4 4 4"/><circle cx="8.12" cy="39.05" r="2"/><circle cx="14.998" cy="15.748" r="2"/></g></g><rect class="emoji" height="10" onmousedown="window.memoji_onEmojDown(evt)" onmouseout="window.memoji_onEmojOut(evt);" onmouseover="memoji.onEmojOver(evt,'waning crescent moon',0,0);" ontouchstart="window.memoji_onEmojDown(evt)" stroke-width="0.1" width="10" x="-5" y="-5"/><defs><text id="1f318-code">waning crescent moon</text></defs></g><g id="1f316" transform="translate(65 15)"><g transform="translate(-4 -4) scale(0.125)"><path d="m49 32c0-16.568-7.611-30-17-30-16.568 0-30 13.432-30 30s13.432 30 30 30c9.389 0 17-13.432 17-30" fill="#ffe8a6"/><path d="M32,2c9.389,0,17,13.432,17,30s-7.611,30-17,30c16.568,0,30-13.432,30-30S48.568,2,32,2z" fill="#3e4347"/><g fill="#f4dc9f"><path d="m48.87 28.348c-3.328.54-5.871 3.42-5.871 6.901 0 3.184 2.127 5.866 5.04 6.715.622-3.118.964-6.47.964-9.964 0-1.237-.048-2.455-.13-3.652"/><path d="m24.16 41.05c-.133 0-.262.014-.393.02.227-.632.355-1.309.355-2.02 0-3.313-2.687-6-6-6-3.314 0-6 2.688-6 6 0 2.854 1.995 5.237 4.666 5.845-1.023 1.461-1.629 3.235-1.629 5.154 0 4.97 4.03 9 9 9s9-4.03 9-9c.001-4.971-4.03-9-8.999-9"/><path d="m23.999 21.248c2.209 0 4-1.79 4-4 0-.645-.168-1.245-.438-1.785.504.172 1.035.285 1.598.285 2.76 0 5-2.24 5-4.998 0-2.764-2.24-5-5-5-2.764 0-5 2.238-5 5 0 .961.285 1.851.756 2.613-.295-.069-.598-.115-.914-.115-2.209 0-4 1.791-4 4 0 2.21 1.791 4 4 4"/><circle cx="36.999" cy="18.248" r="4"/><circle cx="12.12" cy="25.923" r="4"/><circle cx="38.999" cy="9.248" r="2"/><circle cx="8.12" cy="39.05" r="2"/><circle cx="24.999" cy="29.923" r="3"/><circle cx="14.999" cy="15.748" r="2"/><path d="m41.999 52.623c0 .93.33 1.773.862 2.453 1.263-1.853 2.37-4.02 3.284-6.438-.049-.002-.096-.015-.145-.015-2.208 0-4 1.791-4 4"/></g><g fill="#464d51"><path d="m56.999 35.25c0-3.866-3.135-7-7-7-.386 0-.761.039-1.129.1.082 1.197.13 2.415.13 3.652 0 3.494-.342 6.846-.964 9.964.623.182 1.28.284 1.963.284 3.865 0 7-3.134 7-6.999"/><circle cx="51.999" cy="50.05" r="2"/><path d="m46 56.623c2.209 0 3.998-1.79 3.998-4 0-2.159-1.713-3.907-3.854-3.985-.914 2.417-2.02 4.586-3.284 6.438.734.936 1.86 1.547 3.14 1.547"/></g></g><rect class="emoji" height="10" onmousedown="window.memoji_onEmojDown(evt)" onmouseout="window.memoji_onEmojOut(evt);" onmouseover="memoji.onEmojOver(evt,'waning gibbous moon',0,0);" ontouchstart="window.memoji_onEmojDown(evt)" stroke-width="0.1" width="10" x="-5" y="-5"/><defs><text id="1f316-code">waning gibbous moon</text></defs></g><g id="1f312" transform="translate(75 15)"><g transform="translate(-4 -4) scale(0.125)"><path d="m49 32c0-16.568-7.611-30-17-30-16.568 0-30 13.432-30 30s13.432 30 30 30c9.389 0 17-13.432 17-30" fill="#3e4347"/><path d="M32,2c9.389,0,17,13.432,17,30s-7.611,30-17,30c16.568,0,30-13.432,30-30S48.568,2,32,2z" fill="#ffe8a6"/><g fill="#464d51"><path d="m48.869 28.348c-3.328.54-5.87 3.42-5.87 6.901 0 3.184 2.127 5.866 5.04 6.715.623-3.118.965-6.47.965-9.964 0-1.237-.048-2.455-.131-3.652"/><path d="m24.16 41.05c-.133 0-.261.014-.393.02.227-.632.356-1.309.356-2.02 0-3.313-2.687-6-6-6-3.313 0-5.999 2.688-5.999 6 0 2.854 1.995 5.237 4.665 5.845-1.023 1.461-1.628 3.235-1.628 5.154 0 4.97 4.03 9 8.999 9s9-4.03 9-9c.001-4.971-4.03-9-9-9"/><path d="m23.999 21.248c2.209 0 3.999-1.79 3.999-4 0-.645-.167-1.245-.438-1.785.504.172 1.035.285 1.598.285 2.761 0 5-2.24 5-4.998 0-2.764-2.24-5-5-5-2.764 0-5 2.238-5 5 0 .961.284 1.851.756 2.613-.295-.069-.599-.115-.914-.115-2.209 0-4 1.791-4 4 0 2.21 1.792 4 4 4"/><circle cx="36.999" cy="18.248" r="4"/><circle cx="12.12" cy="25.923" r="4"/><circle cx="38.998" cy="9.248" r="2"/><circle cx="8.12" cy="39.05" r="2"/><circle cx="24.998" cy="29.923" r="3"/><circle cx="14.998" cy="15.748" r="2"/><path d="m41.999 52.623c0 .93.33 1.773.862 2.453 1.262-1.853 2.369-4.02 3.284-6.438-.05-.002-.096-.015-.146-.015-2.208 0-4 1.791-4 4"/></g><g fill="#f4dc9f"><path d="m56.999 35.25c0-3.866-3.135-7-7-7-.385 0-.76.039-1.129.1.083 1.197.131 2.415.131 3.652 0 3.494-.342 6.846-.965 9.964.623.182 1.281.284 1.963.284 3.866 0 7-3.134 7-6.999"/><circle cx="51.999" cy="50.05" r="2"/><path d="m46 56.623c2.209 0 3.999-1.79 3.999-4 0-2.159-1.714-3.907-3.854-3.985-.915 2.417-2.02 4.586-3.284 6.438.733.936 1.86 1.547 3.139 1.547"/></g></g><rect class="emoji" height="10" onmousedown="window.memoji_onEmojDown(evt)" onmouseout="window.memoji_onEmojOut(evt);" onmouseover="memoji.onEmojOver(evt,'waxing crescent moon',-5,0);" ontouchstart="window.memoji_onEmojDown(evt)" stroke-width="0.1" width="10" x="-5" y="-5"/><defs><text id="1f312-code">waxing crescent moon</text></defs></g><g id="1f314" transform="translate(5 25)"><g transform="translate(-4 -4) scale(0.125)"><path d="M32,2c-9.389,0-17,13.432-17,30s7.611,30,17,30c16.568,0,30-13.432,30-30S48.568,2,32,2z" fill="#ffe8a6"/><path d="m15 32c0-16.568 7.611-30 17-30-16.568 0-30 13.432-30 30s13.432 30 30 30c-9.389 0-17-13.432-17-30" fill="#3e4347"/><g fill="#f4dc9f"><circle cx="49.998" cy="35.25" r="7"/><path d="m24.16 41.05c-.132 0-.261.014-.392.02.227-.632.355-1.309.355-2.02 0-3.313-2.687-6-6-6-1.129 0-2.181.317-3.083.859.139 3.898.697 7.595 1.601 10.948.049.013.098.027.147.038-.033.047-.069.092-.102.14 1.669 6.097 4.473 11.05 7.927 13.991 4.759-.237 8.548-4.16 8.548-8.977.001-4.97-4.03-8.999-9-8.999"/><path d="m23.999 21.248c2.209 0 3.999-1.79 3.999-4 0-.645-.167-1.245-.438-1.785.504.172 1.035.285 1.598.285 2.762 0 5-2.24 5-4.998 0-2.764-2.24-5-5-5-2.764 0-5 2.238-5 5 0 .961.285 1.851.756 2.613-.295-.069-.598-.115-.914-.115-2.209 0-4 1.791-4 4 0 2.21 1.792 4 4 4"/><circle cx="37" cy="18.248" r="4"/><path d="m15.614 24.01c-.23 1.471-.398 2.986-.499 4.538.618-.704 1.01-1.616 1.01-2.628 0-.695-.193-1.34-.506-1.91"/><circle cx="38.998" cy="9.248" r="2"/><circle cx="52" cy="50.05" r="2"/><circle cx="24.998" cy="29.923" r="3"/><circle cx="46" cy="52.623" r="4"/></g><g fill="#464d51"><path d="m15.04 33.906c-1.745 1.05-2.917 2.957-2.917 5.142 0 2.801 1.922 5.146 4.518 5.807-.904-3.354-1.462-7.05-1.601-10.949"/><path d="m16.684 45.03c-.963 1.433-1.526 3.158-1.526 5.02 0 4.97 4.03 9 8.999 9 .153 0 .303-.016.454-.023-3.455-2.947-6.258-7.895-7.927-13.992"/><path d="m12.12 29.923c1.198 0 2.261-.538 2.994-1.373.101-1.552.269-3.067.499-4.538-.68-1.239-1.98-2.089-3.493-2.089-2.209 0-4 1.791-4 3.999 0 2.21 1.792 4 4 4"/><circle cx="8.12" cy="39.05" r="2"/><circle cx="14.998" cy="15.748" r="2"/></g></g><rect class="emoji" height="10" onmousedown="window.memoji_onEmojDown(evt)" onmouseout="window.memoji_onEmojOut(evt);" onmouseover="memoji.onEmojOver(evt,'waxing gibbous moon',5,-14);" ontouchstart="window.memoji_onEmojDown(evt)" stroke-width="0.1" width="10" x="-5" y="-5"/><defs><text id="1f314-code">waxing gibbous moon</text></defs></g></g><g id="emoj-tip" visibility="hidden"><rect class="emojtip" rx="0.5"/><text class="emojtip unselect" font-size="2.5" x="0" y="8">aa</text></g></g></svg>