<svg xmlns="http://www.w3.org/2000/svg" xmlns:svg="http://www.w3.org/2000/svg" xmlns:xlink="http://www.w3.org/1999/xlink" width="100%" height="100%" viewBox="-82.1406 177.789 79.7723 41.422" preserveAspectRatio="xMidYMid meet" zoomAndPan="disable" onload="if (parent.svgViewerNotifyOnLoad) parent.svgViewerNotifyOnLoad(evt);"><defs id="svgEditorDefs"><line id="svgEditorLineDefs" style="stroke: rgb(0, 0, 0); fill: none; stroke-width: 1px;"></line><path id="svgEditorClosePathDefs" style="stroke: rgb(0, 0, 0); fill: rgb(240, 230, 140); vector-effect: non-scaling-stroke; stroke-width: 1px;"></path><polygon id="svgEditorPolygonDefs" style="stroke: rgb(0, 0, 0); fill: rgb(240, 230, 140); stroke-width: 1px;"></polygon><linearGradient id="grdid1" spreadMethod="pad" x1="0.45" x2="0.43" y1="0.13" y2="0.99">
	<stop offset="0.145" style="stop-color:peachpuff;  stop-opacity:0.1;"></stop>
	<stop offset="100%" style="stop-color:rgb(47, 79, 79);  stop-opacity:0.45;"></stop>
</linearGradient><linearGradient id="grdlut13" spreadMethod="pad" x1="0%" x2="100%" y1="0%" y2="0%">
	<stop offset="0%" style="stop-color:peachpuff;  stop-opacity:0.1;"></stop>
	<stop offset="100%" style="stop-color:sienna;  stop-opacity:0.1"></stop>
</linearGradient><linearGradient id="grdid2" spreadMethod="pad" x1="0.82" x2="0.17" y1="0.44" y2="0.41">
	<stop offset="0.275" style="stop-color:peachpuff;  stop-opacity:0.1;"></stop>
	<stop offset="0.88" style="stop-color:rgb(255, 215, 0);  stop-opacity:0.585;"></stop>
</linearGradient></defs><rect id="svgEditorBackground" x="-57.272" y="177.789" width="30.035" height="41.422" style="stroke: none; fill: none;" transform=""></rect><path d="M -46.2547 206.738 l -1.39278 -1.39275 l -6.4068 -7.89244 c -1.94989 -3.43558 -2.97126 -7.521 2.1356 -13.6492 c 4.27118 -5.66397 12.9065 -5.84967 18.4776 -0.928528 c 6.5925 7.1496 4.92117 11.6065 2.04275 15.7848 l -6.49965 8.07814 Z" stroke-width="0.2" id="e2_path" style="stroke: black;" transform="" fill="url(&quot;#grdid2&quot;)"></path><path d="M -45.7904 183.618 c -3.62075 0.910172 -5.95437 3.78477 -6.2211 8.63525 c 0.72168 5.12639 2.32577 7.07227 5.75684 10.028 c -2.61085 -4.24628 -3.04881 -5.95363 -3.43219 -10.028 c 0.256561 -3.18208 1.42187 -4.88615 3.89645 -8.63524 Z" stroke-width="1px" id="e4_area3" style="stroke: none; fill: rgb(255, 215, 0); vector-effect: non-scaling-stroke;" transform=""></path><rect x="-47.3897" y="206.789" stroke-width="0.1" id="e5_rectangle" width="9.98175" height="2.22235" transform="" rx="2" ry="2" style="stroke: black;" fill="url(&quot;#grdid1&quot;)"></rect><rect x="-47.3523" y="209.281" stroke-width="0.1" id="e6_rectangle" width="9.98175" height="2.22235" transform="" rx="2" ry="2" style="stroke: black;" fill="url(&quot;#grdid1&quot;)"></rect><rect x="-47.3523" y="211.669" stroke-width="0.1" id="e7_rectangle" width="9.98175" height="2.22235" transform="" rx="2" ry="2" style="stroke: black;" fill="url(&quot;#grdid1&quot;)"></rect><path d="M-46.673973083496094,214.17176818847656l0.451995849609375,0l8.023059844970703,0.0753326416015625a5.236731052398682,5.236731052398682,0,0,1,-8.437389373779297,0.0376739501953125Z" stroke-width="0.1" id="e8_path" style="stroke: black;" transform="" fill="url(&quot;#grdid1&quot;)"></path></svg>