<?xml version="1.0" encoding="UTF-8"?><svg xmlns="http://www.w3.org/2000/svg" xmlns:xlink="http://www.w3.org/1999/xlink" height="40px" width="40px" viewBox="72 66 69 69" preserveAspectRatio="xMidYMid meet" zoomAndPan="disable"><defs id="svgEditorDefs"><linearGradient id="grdid1" x1="0.88" y1="1" x2="0.1" y2="0.22" spreadMethod="pad" gradientUnits="objectBoundingBox">
	 <stop offset="0%" style="stop-color:rgb(255,255,255);stop-opacity:0"/>
	 <stop offset="0.51" style="stop-color:#F5DE8C;stop-opacity:1"/>
	</linearGradient><linearGradient id="grdlut2" spreadMethod="repeat" grdlutTransform="" grdlutUnits="objectBoundingBox" x1="0%" y1="0%" x2="20%" y2="0%">
<stop id="c1" offset="10%" stop-color="#bfba7f" stop-opacity="1"/>
<stop id="c2" offset="55%" stop-color="#cfba7f" stop-opacity="0.5"/>
<stop id="c3" offset="100%" stop-color="#b2ba7f" stop-opacity="1"/>
</linearGradient></defs>
<rect x="72" y="66" width="69" height="69" style="fill: ghostwhite; stroke: none; "/>
	
 <path d="M122.0054931640625,75.9913558959961C121.40058898925781,76.35446166992188,120.27561950683594,78.26445007324219,118.23223114013672,78.82130432128906C116.1888427734375,79.37815856933594,109.10087585449219,80.50700378417969,105.9691162109375,80.8022689819336C102.83735656738281,81.0975341796875,95.93037414550781,82.48960876464844,93.30509948730469,82.50023651123047C90.67982482910156,82.5108642578125,84.7362060546875,83.52197265625,84.69733428955078,85.04718780517578C84.65846252441406,86.57240295410156,84.53377532958984,92.16885375976562,83.25877380371094,92.40505981445312C81.98377227783203,92.64126586914062,80.58738708496094,92.23057556152344,79.86283874511719,92.40505981445312C79.13829040527344,92.57954406738281,78.03297424316406,92.85350036621094,77.598876953125,93.6313705444336C77.16477966308594,94.40924072265625,77.10670471191406,96.98239135742188,76.93856048583984,98.25361633300781C76.77041625976562,99.52484130859375,78.15252685546875,103.09651947021484,79.10818481445312,103.6305160522461C80.0638427734375,104.16451263427734,81.50450134277344,104.35257720947266,82.03246307373047,104.10218048095703C82.5604248046875,103.8517837524414,83.32791900634766,102.58159637451172,83.73043823242188,103.25318908691406C84.1329574584961,103.9247817993164,84.8558120727539,107.36222839355469,85.6170654296875,108.72442626953125C86.3783187866211,110.08662414550781,88.4912109375,113.26336669921875,89.10733795166016,114.47865295410156C89.72346496582031,115.69393920898438,89.92166137695312,116.51536560058594,91.08830261230469,118.16754913330078C92.25494384765625,119.81973266601562,98.05850219726562,124.4414291381836,100.167724609375,126.00703430175781C102.27694702148438,127.57263946533203,107.66584777832031,129.084716796875,109.12922668457031,128.74266052246094C110.59260559082031,128.40060424804688,110.97035217285156,128.13865661621094,111.58184814453125,127.70500183105469C112.19334411621094,127.27134704589844,113.52250671386719,125.75680541992188,113.4920654296875,124.96939086914062C113.46162414550781,124.18197631835938,112.62709045410156,122.7825698852539,113.11473846435547,121.76211547851562C113.60238647460938,120.74166107177734,113.01325225830078,119.44086456298828,110.94512939453125,118.27181243896484C115.66886901855469,116.06512451171875,111.2952880859375,113.33782958984375,113.20914459228516,110.3480224609375C118.70745849609375,107.92415618896484,122.22274017333984,112.44332885742188,123.04314422607422,109.40467071533203C123.8635482788086,106.36601257324219,122.53861999511719,93.35780334472656,123.79779815673828,89.87802124023438C125.05697631835938,86.39823913574219,124.80667114257812,77.82228088378906,123.32613372802734,76.74600982666016C121.84559631347656,75.66973876953125,122.61039733886719,75.62825012207031,122.0054931640625,75.9913558959961Z" style="stroke: none; stroke-width: 0.13340505989321064px; stroke-linecap: butt; stroke-linejoin: miter; fill-opacity: 0.3; " fill="url(&quot;#grdid1&quot;)"/><path d="M122.98153686523438,75.37369537353516C123.28077697753906,74.72438049316406,126.37409210205078,74.09330749511719,127.95088195800781,74.24430084228516C129.52767944335938,74.39529418945312,133.56228637695312,76.18899536132812,134.61431884765625,77.85836029052734C135.66635131835938,79.52772521972656,136.20648193359375,84.47916412353516,136.87310791015625,85.8770751953125C137.53973388671875,87.27498626708984,137.809326171875,90.6708755493164,136.87310791015625,91.18523406982422C135.9368896484375,91.69959259033203,133.91220092773438,92.4840087890625,133.5978546142578,91.29817199707031C133.28350830078125,90.11233520507812,132.78387451171875,84.95687103271484,132.01670837402344,82.94064331054688C131.24954223632812,80.9244155883789,127.65141296386719,76.5772705078125,126.25678253173828,76.27720642089844C124.86215209960938,75.97714233398438,122.68229675292969,76.02301025390625,122.98153686523438,75.37369537353516Z" style="stroke-width: 0.1597206676760871px; fill: #e9a34d; stroke-linecap: butt; stroke-linejoin: miter; fill-opacity: 0.3; "/><path d="M121.78207397460938,74.99675750732422C120.93553161621094,73.9649658203125,117.28411865234375,71.87877655029297,113.92372131347656,70.44718170166016C110.56332397460938,69.01558685302734,97.78668212890625,68.26950073242188,93.79529571533203,69.61998748779297C89.80390930175781,70.97047424316406,84.55184173583984,74.645751953125,82.4558334350586,77.06474304199219C80.35982513427734,79.48373413085938,77.46772766113281,84.06344604492188,76.76886749267578,87.680419921875C76.07000732421875,91.29739379882812,75.98394012451172,101.15463256835938,77.18246459960938,105.18938446044922C78.38098907470703,109.22413635253906,82.26492309570312,118.03848266601562,82.28350067138672,120.76823425292969C82.30207824707031,123.49798583984375,82.57945251464844,126.65730285644531,83.5242919921875,127.45396423339844C84.46913146972656,128.25062561035156,85.47666931152344,128.8784942626953,86.41947937011719,128.556884765625C87.36228942871094,128.2352752685547,89.87948608398438,127.4879150390625,90.14185333251953,125.11024475097656C90.40422058105469,122.73257446289062,87.57125854492188,113.25462341308594,87.10881042480469,110.63432312011719C86.6463623046875,108.01402282714844,85.29319763183594,104.21549224853516,83.9378890991211,104.01676177978516C82.58258056640625,103.81803131103516,80.50504302978516,104.43657684326172,79.38832092285156,103.74102783203125C78.27159881591797,103.04547882080078,76.53241729736328,99.70930480957031,76.49313354492188,98.50212860107422C76.45384979248047,97.29495239257812,77.08753967285156,95.72137451171875,77.32032775878906,94.91761016845703C77.55311584472656,94.11384582519531,78.55643463134766,92.37181091308594,79.25045013427734,92.43602752685547C79.94446563720703,92.500244140625,81.52069091796875,94.19792175292969,82.14563751220703,93.12535858154297C82.77058410644531,92.05279541015625,83.54366302490234,87.11673736572266,86.28160858154297,85.54273223876953C89.0195541381836,83.9687271118164,99.32366943359375,81.22136688232422,102.82551574707031,80.99315643310547C106.32736206054688,80.76494598388672,111.65152740478516,80.150146484375,113.88925170898438,80.0280990600586C116.1269760131836,79.90605163574219,120.06385803222656,78.4284896850586,120.78254699707031,77.40864562988281C121.50123596191406,76.38880157470703,122.62861633300781,76.02854919433594,121.78207397460938,74.99675750732422Z" style="stroke-width: 1px; fill: #e9a34d; stroke-linecap: round; stroke-linejoin: miter; fill-opacity: 0.3; "/>

<path d="M102.543,95.8305 C102.013,95.5597 99.7426,94.832 98.7133,94.6298 C97.6841,94.4276 95.2213,94.7802 94.3323,94.5649 C93.4434,94.3497 90.3998,95.2255 90.7915,95.9279 C91.1831,96.6302 93.7359,97.3787 94.3287,97.7127 C94.9215,98.0468 95.2797,98.3333 95.6917,98.3618 C96.1037,98.3903 96.8189,98.253 97.509,98.232 C98.1991,98.211 100.519,97.7803 101.18,97.7127 C101.841,97.6452 102.658,97.3423 102.867,97.0962 C103.076,96.85 103.227,96.4805 103.127,96.3173 C103.027,96.1542 103.073,96.1013 102.543,95.8305 z" style="stroke: black; stroke-width: 0.6px; fill: none; stroke-linecap: butt; stroke-linejoin: miter;"/><path d="M101.845,94.6298 C101.131,94.3145 99.5557,93.8458 98.8594,93.7212 C98.163,93.5965 97.0804,93.4876 96.3281,93.5264 C95.5758,93.5653 93.6236,93.9481 92.8882,94.1106 C92.1529,94.2731 91.0373,94.6352 90.4868,94.9543 C89.9362,95.2734 89.5776,95.5467 89.1238,95.9928" style="stroke: black; stroke-width: 0.8px; fill: none; stroke-linecap: round; stroke-linejoin: miter;"/><path d="M117.826,97.226 C117.713,96.9265 117.039,96.53 116.722,96.5769 S115.954,97.0789 115.879,97.3558 S116.072,98.5154 116.398,98.5889 S117.09,98.0381 117.371,98.0048 S117.62,98.0336 117.696,98.0048 S117.879,97.4159 117.826,97.226 z" style="stroke: #000000; stroke-width: 0.2px; fill: #000000; stroke-linecap: round; stroke-linejoin: miter; stroke-opacity: 0.5; fill-opacity: 0.8; "/><path d="M116.073,95.4087 C115.556,95.7093 114.852,96.9295 114.775,97.4207 C114.699,97.9118 114.873,98.6861 115.1,98.9784 C115.327,99.2706 115.829,99.5889 116.268,99.6923 C116.707,99.7957 118.052,99.3262 118.345,98.8486 C118.638,98.3709 118.602,97.2301 118.28,96.7716" style="stroke: #000000; stroke-width: 0.5px; fill: none; stroke-linecap: round; stroke-linejoin: miter; "/><path d="M121.81,97.7452 C121.296,98.2874 119.973,99.1954 119.344,99.4327 C118.715,99.67 117.602,99.8857 117.007,99.9519 C116.413,100.018 115.136,100.018 114.541,99.9519" style="stroke: black; stroke-width: 1px; fill: none; stroke-linecap: round; stroke-linejoin: miter;"/><path d="M114.411,94.5 C115.157,94.9781 116.719,95.8242 117.526,96.1875 C118.334,96.5508 120.82,97.4052 121.68,97.6154" style="stroke: black; stroke-width: 1px; fill: none; stroke-linecap: round; stroke-linejoin: miter;"/><path d="M111.945,80.0913 C112.387,80.3809 113.441,80.2274 113.502,81.5192 C113.564,82.8111 113.001,87.8944 112.983,90.2163 C112.965,92.5383 113.094,98.0859 113.113,100.082 C113.132,102.078 113.086,104.931 113.243,106.183 C113.4,107.434 113.717,109.451 113.502,110.207 C113.288,110.962 112.779,112.096 112.983,112.543 C113.187,112.99 114.113,113.873 113.632,114.231 C113.151,114.589 110.818,114.76 109.868,114.75 C108.918,114.74 107.275,114.497 106.363,114.231" style="stroke: black; stroke-width: 1px; fill: none; stroke-linecap: round; stroke-linejoin: miter;"/><path d="M123.238,90.2163 C122.342,89.8859 120.428,89.556 119.474,89.5673 C118.519,89.5786 116.192,90.0875 115.32,90.476" style="stroke: black; stroke-width: 1px; fill: none; stroke-linecap: round; stroke-linejoin: miter;"/><path d="M107.791,89.3077 C105.62,88.4285 100.652,87.5967 98.5745,87.6202 C96.4966,87.6437 93.131,88.2742 91.4351,88.9183 C89.7392,89.5624 90.0154,89.4302 88.4495,90.3462" style="stroke: black; stroke-width: 1px; fill: none; stroke-linecap: round; stroke-linejoin: miter;"/><polyline style="stroke: black; stroke-width: 1px; fill: none; stroke-linecap: butt; stroke-linejoin: miter;" points="122.589,109.558 113.502,110.596"/><path d="M123.757,76.7163 C123.946,78.3634 124.182,81.6309 124.147,83.3365 C124.111,85.0422 123.992,88.1469 123.757,90.3462 C123.522,92.5455 122.951,98.3216 122.849,100.99 C122.747,103.659 122.747,107.019 122.849,109.688" style="stroke: black; stroke-width: 1px; fill: none; stroke-linecap: round; stroke-linejoin: miter;"/><path d="M82.0889,86.8413 C82.5154,86.4216 83.4262,85.6409 83.9062,85.2837 S92.8158,82.5627 95.8486,81.9087 S107.59,80.6814 111.425,79.8317 S118.33,78.9659 119.993,77.4952 S121.966,75.9186 121.94,75.1587 S120.246,73.4344 119.603,72.9519 S113.536,70.5794 111.425,70.0962 S98.5924,68.7574 94.5505,69.9663 S80.0394,77.1131 78.5697,82.0385 S75.7921,91.5011 75.7139,94.7596 S76.7737,103.585 77.5312,106.442 S80.2547,113.614 81.0361,116.048 S83.4541,124.459 84.0216,126.952" style="stroke: black; stroke-width: 1px; fill: none; stroke-linecap: round; stroke-linejoin: miter;"/><path d="M94.9771,94.6077 C94.827,94.9432 94.7297,95.6579 94.606,96.0304 C94.4823,96.403 94.5108,97.5035 94.7915,97.7625 C95.0722,98.0215 95.7272,98.2061 96.0287,98.2573 C96.3302,98.3085 96.7662,98.3633 97.1422,98.1955 C97.5182,98.0277 98.4158,97.092 98.6268,96.5872 C98.8378,96.0823 98.9192,95.2681 98.8124,94.7314" style="stroke: black; stroke-width: 0.5px; fill: none; stroke-linecap: butt; stroke-linejoin: miter;"/><path d="M96.6473,96.4016 C96.825,96.4573 97.2309,96.3936 97.3896,96.3397 C97.5483,96.2858 97.8196,96.0615 97.8226,95.9067 C97.8256,95.7519 97.6772,95.4562 97.5133,95.35 C97.3494,95.2438 96.8436,95.1339 96.5854,95.2881 C96.3273,95.4423 95.9369,96.2765 95.9669,96.649 C95.9968,97.0215 95.9724,96.9401 96.1524,97.2676" style="stroke: #000000; stroke-width: 0.2px; fill: none; stroke-linecap: round; stroke-linejoin: miter; "/><path d="M115.282,108.959 C115.393,108.851 115.513,108.778 115.777,108.588 C116.041,108.398 117.452,108.26 117.757,108.402 C118.061,108.544 118.215,108.688 118.313,108.835 C118.411,108.982 118.378,108.916 118.437,109.083" style="stroke: black; stroke-width: 0.5px; fill: none; stroke-linecap: round; stroke-linejoin: miter;"/><polyline style="stroke: black; stroke-width: 0.5px; fill: none; stroke-linecap: round; stroke-linejoin: round;" points="110.395,110.196 111.633,110.32 111.818,110.815"/><path d="M116.705,75.9264 C115.236,76.4094 112.207,77.2916 110.767,77.6584 C109.326,78.0252 106.83,78.6393 105.199,78.8956 C103.569,79.1518 99.6287,79.8955 97.7762,80.009 C95.9238,80.1226 92.1763,80.6231 90.4769,81.3699 C88.7775,82.1167 89.1477,81.9075 87.6314,82.9783" style="stroke: black; stroke-width: 1px; fill: none; stroke-linecap: round; stroke-linejoin: miter;"/><path d="M116.581,74.1943 C115.196,74.503 112.8,75.0636 111.014,75.3078 C109.228,75.552 104.354,76.2348 102.354,76.545 C100.354,76.8551 96.8488,77.5315 95.0544,78.0296 C93.2601,78.5276 85.1784,81.8298 83.5487,82.7308" style="stroke: black; stroke-width: 1px; fill: none; stroke-linecap: round; stroke-linejoin: miter;"/><path d="M114.354,73.2046 C112.499,72.7434 108.71,72.1761 106.808,71.9674 C104.905,71.7588 101.414,71.6536 99.1371,71.9674 C96.8598,72.2812 91.0624,74.2909 88.9923,75.4315 C86.9222,76.5722 83.9035,78.9588 82.559,80.5039 C81.2146,82.049 79.1766,85.5074 78.4763,87.4321" style="stroke: black; stroke-width: 1px; fill: none; stroke-linecap: round; stroke-linejoin: miter;"/><path d="M120.664,75.0604 C120.297,74.8968 119.554,74.5874 119.179,74.4418 C118.805,74.2962 118.199,74.076 117.818,73.9469" style="stroke: black; stroke-width: 1px; fill: none; stroke-linecap: round; stroke-linejoin: miter;"/><path d="M78.8475,89.4116 C79.5092,89.3229 80.9441,88.9786 81.4455,88.793 C81.947,88.6073 82.56,88.3314 82.9302,88.1744 C83.3003,88.0174 83.4272,87.963 83.7962,87.8032" style="stroke: black; stroke-width: 0.5px; fill: none; stroke-linecap: round; stroke-linejoin: miter;"/><polyline style="stroke: black; stroke-width: 0.5px; fill: none; stroke-linecap: round; stroke-linejoin: miter;" points="79.0949,89.7827 83.7962,89.7209"/><path d="M78.9712,90.525 C79.6597,90.3453 81.2877,90.3371 81.8167,90.4632 C82.3457,90.5892 82.8917,90.8134 83.2394,90.958 C83.5872,91.1026 83.958,91.2771 84.291,91.4529" style="stroke: black; stroke-width: 0.5px; fill: none; stroke-linecap: round; stroke-linejoin: miter;"/><path d="M79.3424,91.391 C79.9328,91.2679 81.2923,91.2937 81.7548,91.391 C82.2174,91.4884 82.7431,91.6805 83.0539,91.824 C83.3646,91.9676 83.829,92.2408 84.1055,92.4426" style="stroke: black; stroke-width: 0.5px; fill: none; stroke-linecap: round; stroke-linejoin: miter;"/><path d="M82.7446,92.7519 C82.5415,92.6326 82.2815,92.4982 81.8786,92.3808 C81.4756,92.2634 80.0643,92.2095 79.4661,92.5045 C78.8679,92.7995 77.7432,93.9114 77.4247,94.6077 C77.1063,95.304 76.8191,96.908 76.868,97.7625 C76.9169,98.6169 77.575,100.528 77.7959,101.288 C78.0168,102.049 78.7299,103.305 79.2805,103.639 C79.8311,103.973 81.1325,104.059 81.6311,103.948 C82.1297,103.838 82.8985,103.305 83.0539,102.959 C83.2092,102.613 83.2349,101.981 83.1776,101.66 C83.1203,101.338 82.7286,100.59 82.4971,100.361" style="stroke: black; stroke-width: 0.8px; fill: none; stroke-linecap: round; stroke-linejoin: miter;"/><path d="M83.2394,96.8346 C83.2745,96.4906 83.1418,95.829 82.992,95.4737 C82.8422,95.1184 82.2251,94.3736 81.7548,94.2984 C81.2846,94.2231 80.2008,94.4007 79.7135,94.917 C79.2263,95.4332 78.5783,97.5633 78.5382,98.3192 C78.4981,99.0751 78.8188,100.254 79.0331,100.732 C79.2473,101.209 79.8485,101.835 80.2084,102.031 C80.5682,102.226 81.4402,102.255 81.7548,102.031 C82.0695,101.806 81.8394,102.036 82.0641,101.721" style="stroke: black; stroke-width: 0.5px; fill: none; stroke-linecap: round; stroke-linejoin: miter;"/><path d="M82.126,96.9583 C81.9008,96.7496 81.0498,96.5968 80.827,96.7727 C80.6042,96.9487 80.4279,97.3755 80.394,97.6388 C80.36,97.9021 80.5476,98.5132 80.7032,98.7522 C80.8589,98.9912 81.4584,99.3277 81.693,99.3089 C81.9276,99.2902 82.207,99.1624 82.3734,98.9996 C82.5399,98.8369 82.7802,98.231 82.7446,97.948 C82.709,97.6651 82.3512,97.1671 82.126,96.9583 z" style="stroke: black; stroke-width: 0.5px; fill: none; stroke-linecap: round; stroke-linejoin: miter;"/><path d="M78.9403,103.392 C79.346,104.699 80.1688,107.304 80.6723,108.588 C81.1758,109.872 82.294,112.544 82.6518,113.784 C83.0096,115.024 83.5695,117.339 84.0127,118.361 C84.4559,119.384 85.3004,121.208 85.621,122.197 C85.9417,123.186 86.641,126.605 86.7345,127.64" style="stroke: black; stroke-width: 1px; fill: none; stroke-linecap: round; stroke-linejoin: miter;"/><path d="M81.4146,104.134 C81.9801,105.416 83.0598,107.971 83.5178,109.33 C83.9758,110.689 84.963,113.845 85.3736,114.897 C85.7842,115.949 86.2166,116.876 86.487,117.867 C86.7575,118.857 87.2918,121.567 87.4768,122.815 C87.6617,124.063 87.7438,124.774 87.8479,126.032" style="stroke: black; stroke-width: 1px; fill: none; stroke-linecap: round; stroke-linejoin: miter;"/><path d="M83.425,102.031 C83.4836,103.042 83.8895,105.132 84.291,105.99 C84.6926,106.848 85.4214,107.999 86.0231,109.083 C86.6248,110.166 88.5021,113.396 89.116,114.65 C89.73,115.903 90.6027,117.754 91.4666,118.856 C92.3306,119.958 94.6874,122.209 96.0442,123.31 C97.4009,124.412 101.151,126.509 102.601,127.145 C104.051,127.782 106.31,128.125 107.55,128.382 C108.79,128.64 112.043,127.996 112.622,127.022 C113.202,126.047 113.275,123.956 113.241,123.186 C113.207,122.417 113.061,121.349 112.746,120.959 C112.431,120.57 111.834,119.943 111.633,119.475 C111.431,119.007 111.346,117.424 111.756,117.248 C112.167,117.072 113.42,116.748 113.612,116.258 C113.804,115.769 113.695,115.059 113.365,114.65" style="stroke: black; stroke-width: 1px; fill: none; stroke-linecap: round; stroke-linejoin: miter;"/><path d="M86.2705,109.701 C86.3784,111.04 86.7674,113.916 87.0128,115.021 C87.2583,116.126 87.7443,117.717 87.8788,118.609 C88.0134,119.5 88.318,121.241 88.6211,122.073 C88.9243,122.905 89.1629,123.412 89.6109,124.176" style="stroke: black; stroke-width: 1px; fill: none; stroke-linecap: round; stroke-linejoin: miter;"/><polyline style="stroke: black; stroke-width: 1px; fill: none; stroke-linecap: round; stroke-linejoin: miter;" points="117.849,75.4315 120.2,74.9366"/><polyline style="stroke: black; stroke-width: 1px; fill: none; stroke-linecap: round; stroke-linejoin: miter;" points="117.849,76.545 120.819,75.3078"/><path d="M124.28299713134766,77.28730010986328C124.8030014038086,77.87799835205078,125.97899627685547,79.0719985961914,126.51000213623047,79.51419830322266C127.04000091552734,79.956298828125,127.68599700927734,80.6708984375,128.36500549316406,80.9988021850586C129.0449981689453,81.32669830322266,131.0959930419922,82.41110229492188,131.21099853515625,83.47309875488281C131.3260040283203,84.53510284423828,130.71400451660156,86.79049682617188,130.46800231933594,88.54550170898438C130.22300720214844,90.30049896240234,129.37899780273438,95.40760040283203,128.86000061035156,97.45320129394531C128.3419952392578,99.49870300292969,126.91500091552734,103.26100158691406,126.75700378417969,105C126.5989990234375,106.73899841308594,125.65599822998047,110.38300323486328,125.0250015258789,111.18599700927734C124.39399719238281,111.98899841308594,124.09200286865234,112.1989974975586,123.78800201416016,112.4229965209961C123.48300170898438,112.64700317382812,123.302001953125,113.01499938964844,122.67400360107422,113.04199981689453C122.0459976196289,113.06900024414062,119.46099853515625,113.00900268554688,118.83899688720703,112.79399871826172C118.21700286865234,112.5790023803711,117.20500183105469,112.40399932861328,116.98300170898438,112.66999816894531C116.76200103759766,112.93699645996094,116.59300231933594,113.26100158691406,116.61199951171875,113.53600311279297C116.63099670410156,113.81199645996094,116.63500213623047,114.91600036621094,116.36499786376953,114.89700317382812C116.09400177001953,114.87799835205078,114.46600341796875,115.04399871826172,114.63300323486328,115.26799774169922C114.80000305175781,115.49299621582031,116.40399932861328,116.29499816894531,116.11699676513672,116.62899780273438C115.83000183105469,116.96399688720703,114.3030014038086,117.8740005493164,114.13800048828125,118.48500061035156C113.97200012207031,119.09700012207031,114.1240005493164,120.38200378417969,114.38500213623047,120.83599853515625C114.64600372314453,121.28900146484375,115.22100067138672,121.89199829101562,115.4990005493164,122.31999969482422C115.7770004272461,122.74800109863281,116.2770004272461,123.73999786376953,116.73600006103516,124.1760025024414C117.19499969482422,124.61199951171875,118.18299865722656,125.73799896240234,118.59200286865234,126.40299987792969C119,127.06800079345703,119.31900024414062,129.08599853515625,119.08699798583984,129.7429962158203C118.85399627685547,130.4010009765625,118.19100189208984,131.1820068359375,117.72599792480469,131.47500610351562C117.26000213623047,131.7689971923828,115.65950775146484,133.55892944335938,110.96536254882812,130.46267700195312" style="stroke: #808080; stroke-width: 1px; fill: none; stroke-linecap: round; stroke-linejoin: miter; " transform=""/><path d="M122.69,75.3833 C123.357,74.9938 124.739,74.498 125.597,74.3317 C126.456,74.1653 128.706,74.2672 129.494,74.5791 C130.283,74.891 131.13,75.4761 131.969,76.0637 C132.807,76.6514 135.002,79.0454 135.433,80.0845 C135.863,81.1237 136.193,82.7612 136.361,83.6723 C136.528,84.5834 136.76,90.0496 136.67,90.9716" style="stroke: black; stroke-width: 1px; fill: none; stroke-linecap: round; stroke-linejoin: miter;"/><path d="M122.937,75.3833 C124.253,75.16 127,75.4101 128.257,75.8163 C129.514,76.2225 131.8,77.5523 132.649,78.6618 C133.498,79.7713 134.657,82.7032 134.938,84.1672 C135.218,85.6311 135.265,87.4538 135.061,88.9303" style="stroke: black; stroke-width: 1px; fill: none; stroke-linecap: round; stroke-linejoin: miter;"/><path d="M124.113,76.6204 C124.709,76.4495 125.788,76.2922 126.587,76.4349 C127.385,76.5775 129.408,77.4782 130.175,78.2288 C130.941,78.9793 132.217,81.019 132.587,82.1259 C132.957,83.2327 133.299,85.6376 133.329,86.8271 C133.36,88.0166 133.199,89.8064 132.958,90.9716" style="stroke: black; stroke-width: 1px; fill: none; stroke-linecap: round; stroke-linejoin: miter;"/><path d="M101.395,99.8589 C101.126,99.716 101.044,99.9299 100.281,99.364 C98.1584,99.6023 95.8616,99.6163 93.8482,99.5496 C93.0102,100.534 92.5347,102.131 92.3017,103.261 C92.0688,104.391 91.902,107.088 91.745,108.457 C91.588,109.827 91.5498,113.067 91.6832,114.272 C91.8166,115.476 91.9276,116.717 92.611,118.045 C93.4801,118.94 94.0313,120.061 95.2091,121.076 C96.0776,122.091 98.1534,123.392 97.2504,122.932 C97.5228,122.039 97.1231,116.804 97.3741,115.138 C97.6252,113.472 98.2544,110.823 98.5495,109.571 C98.8445,108.318 99.3954,106.22 99.7248,105.117 C100.054,104.013 101.105,100.934 101.519,99.8589" style="stroke: black; stroke-width: 0.7; fill: none; stroke-linecap: round; stroke-linejoin: miter; stroke-opacity: 0.8;"/><circle cx="116.845" cy="97.5924" r="0.71928" style="fill: #96c030; stroke-width: 0.13340505989321064px; stroke-linecap: butt; stroke-linejoin: miter; " transform=""/><circle cx="96.9416" cy="95.8098" r="0.657853" style="fill: #8d7fff; stroke-width: 0.13340505989321064px; stroke-linecap: butt; stroke-linejoin: miter; " transform=""/></svg>