<?xml version="1.0" encoding="UTF-8" standalone="no"?><svg xmlns="http://www.w3.org/2000/svg" xmlns:drawsvg="http://www.drawsvg.org" xmlns:xlink="http://www.w3.org/1999/xlink" id="Layer_1" onload="test(evt)" preserveAspectRatio="xMinYMin meet" style="overflow: hidden; display: inline; width: 100%; height: 80%;" version="1.1" viewBox="0 0 373.333 551.166"><defs><script type="text/ecmascript">
<![CDATA[
	function test(evt) {
		// test la synchro avec le selector
		//window['wdrsvgml'].selectSystemLang("de");
	}
]]>
</script></defs><defs><style type="text/css">
		<![CDATA[
			.overlay:hover
			{
			opacity: 1;
			fill:#00ff00;
			}
			.text {
			 fill:#ED1C24;
			font-family: Arial,sans-serif;
			}
			.cursor:hover {
			cursor: pointer;
			fill:#ff0000;
			}
			/*@media screen and (min-width: 961px) {
			#smallscreen {
			display: none;
			}
			}*/
			@media screen and (orientation: landscape) {
			#smallscreen {
			display: none;
			}
			}
			/*@media screen and (orientation: landscape) and (device-aspect-ratio: 1280/800) {
			#smallscreen {
			display: block;
			}
			}*/
			@media screen and (orientation: landscape) {
			#bigscreen {
			width: 30%;
			height: 80%;
			}
			}
			/*@media screen and (max-width: 960px) {
			#bigscreen {
			display: none;
			}
			}*/
			@media screen and (orientation: portrait) {
			#bigscreen {
			display: none;
			}
			}
			@media screen and (orientation: portrait) {
			#smallscreen {
			width: 80%;
			}
			}
			]]>
		</style></defs><script type="text/javascript" xlink:actuate="onLoad">
		<![CDATA[
		  function foottoend() {
  var foottoend = window.open
  ("http://www.xmplar.biz/pdf.html","foottoend","resizable=yes,width=700,height=500,left=100,top=100,scrollbars=yes");
  foottoend.focus();
  return false;
  }

  ]]>
	</script><g id="svg-pan-zoom_viewport" xml:lang="en"><path d="M373.333,239.331c0,6.536-5.373,11.835-12,11.835H12c-6.628,0-12-5.299-12-11.835V11.835  C0,5.299,5.372,0,12,0h349.333c6.627,0,12,5.299,12,11.835V239.331z" fill="#E7E8E9"/><polyline fill="#74B74A" points="206.511,37.414 189.04,54.956 171.511,37.414 "/><polyline fill="#74B74A" points="296.511,213.955 313.981,196.413 331.511,213.955 "/><path d="M337.999,25.999c0,6.627-5.438,12-12.146,12H18.146  c-6.708,0-12.146-5.373-12.146-12v-8c0-6.627,5.438-12,12.146-12h307.707c6.708,0,12.146,5.373,12.146,12V25.999z" fill="#FFFFFF" stroke="#000000" stroke-width="1.0061"/><rect fill="#FFFFFF" height="116.866" stroke="#000000" width="87.238" x="19.169" y="66.835"/><line fill="none" stroke="#000000" stroke-width="4" x1="35.508" x2="95.615" y1="176.987" y2="176.987"/><text class="text" font-size="13" transform="matrix(1 0 0 1 26.6011 180.9795)">2</text><rect fill="#FFFFFF" height="116.866" stroke="#000000" width="87.238" x="8.085" y="46.373"/><line fill="none" stroke="#000000" stroke-width="4" x1="24.424" x2="84.531" y1="153.525" y2="153.525"/><text class="text" font-size="13" transform="matrix(1 0 0 1 13.6011 156.9795)">1</text><line fill="none" stroke="#939598" x1="50.999" x2="13.696" y1="145.104" y2="145.104"/><rect fill="#FFFFFF" height="116.866" stroke="#000000" width="87.238" x="144.169" y="56.835"/><line fill="none" stroke="#000000" stroke-width="4" x1="160.508" x2="220.615" y1="118.987" y2="118.987"/><text class="text" font-size="13" transform="matrix(1 0 0 1 151.6011 122.9795)">2</text><line fill="none" stroke="#000000" stroke-width="4" x1="160.424" x2="220.531" y1="107.525" y2="107.525"/><text class="text" font-size="13" transform="matrix(1 0 0 1 150.6011 110.9795)">1</text><g><g><line fill="none" stroke="#000000" stroke-width="7" x1="107.667" x2="138.438" y1="110.841" y2="110.841"/><polygon points="137.107,101.805 142.799,110.815 137.107,119.827 137.049,119.827 137.049,101.805   "/></g></g><line fill="none" stroke="#939598" x1="61.999" x2="24.696" y1="169.104" y2="169.104"/><line fill="none" stroke="#000000" stroke-width="2" x1="156.924" x2="217.031" y1="71.525" y2="71.525"/><line fill="none" stroke="#000000" stroke-width="2" x1="156.924" x2="217.031" y1="79.525" y2="79.525"/><line fill="none" stroke="#000000" stroke-width="2" x1="156.924" x2="217.031" y1="87.525" y2="87.525"/><rect fill="#FFFFFF" height="116.866" stroke="#000000" width="87.238" x="279.169" y="45.835"/><line fill="none" stroke="#000000" stroke-width="4" x1="295.508" x2="355.615" y1="71.987" y2="71.987"/><text class="text" font-size="13" transform="matrix(1 0 0 1 286.6016 75.9795)">2</text><line fill="none" stroke="#000000" stroke-width="4" x1="295.424" x2="355.531" y1="60.525" y2="60.525"/><text class="text" font-size="13" transform="matrix(1 0 0 1 285.6016 63.9795)">1</text><a target="_parent" xlink:href="http://www.xmplar.biz/epub.html"><rect class="overlay" fill="#FFFFFF" height="116.866" stroke="#ff0000" width="87.238" x="269.169" y="78.835"/></a><line fill="none" stroke="#000000" stroke-width="2" x1="281.924" x2="342.031" y1="93.525" y2="93.525"/><line fill="none" stroke="#000000" stroke-width="2" x1="281.924" x2="342.031" y1="101.525" y2="101.525"/><line fill="none" stroke="#000000" stroke-width="2" x1="281.924" x2="342.031" y1="109.525" y2="109.525"/><g><g><line fill="none" stroke="#000000" stroke-width="7" x1="232.667" x2="263.438" y1="110.841" y2="110.841"/><polygon points="262.107,101.805 267.799,110.815 262.107,119.827 262.049,119.827 262.049,101.805   "/></g></g><path d="M366.999,233.499c0,6.627-5.373,12-12,12h-280.5c-6.627,0-12-5.373-12-12v-7.5  c0-6.627,5.373-12,12-12h280.5c6.627,0,12,5.373,12,12V233.499z" fill="#FFFFFF" stroke="#000000"/><a xlink:href="http://www.xmplar.biz/pdf.html"><switch allowReorder="yes" class="overlay text" onclick="return foottoend('foottoend')" transform="matrix(1 0 0 1 9.6011 30.4795)"><text font-size="24" id="en-foot2end" systemLanguage="en" xml:lang="en">Convert footnotes to endnotes</text><text font-size="21" id="de-foot2end" systemLanguage="de" xml:lang="de">Konvertiere Fußnoten in Endnoten</text><text font-size="21" id="it-foot2end2" systemLanguage="it" xml:lang="it">Convertire note di note di chiusura</text><text font-size="24" id="af-foot2end" systemLanguage="af" xml:lang="af">Skakel voetnote te eindnote</text><text font-size="21" id="fr-foot2end" systemLanguage="fr" xml:lang="fr">Convertir les notes en notes de fin</text></switch></a><a target="_parent" xlink:href="http://www.xmplar.biz/web.html"><switch allowReorder="yes" class="overlay text" fill="#ED1C24" transform="matrix(1 0 0 1 67.6011 237.4795)"><text font-size="24" systemLanguage="en">Endnotes on separate page</text><text font-size="19" systemLanguage="de">Setze Endnoten auf separate Seite</text><text font-size="15" systemLanguage="it">Metti note di chiusura su una pagina separata</text><text font-size="20" systemLanguage="af">Sit eindnote op 'n aparte bladsy</text><text font-size="16" systemLanguage="fr">Mettez les notes sur une page séparée</text></switch></a></g><g id="drsvgml"><metadata><rdf:RDF xmlns:dc="http://purl.org/dc/elements/1.1/" xmlns:rdf="http://www.w3.org/1999/02/22-rdf-syntax-ns#" xmlns:rdfs="http://www.w3.org/2000/01/rdf-schema#"><rdf:Description about="http://www.drawsvg.org" dc:date="2016-08-25" dc:format="image/svg+xml" dc:hasVersion="v1-0" dc:title="drawsvg multi language addin"><dc:creator><rdf:Bag><rdf:li>Joseph LIARD</rdf:li></rdf:Bag></dc:creator></rdf:Description></rdf:RDF></metadata><defs id="JS"><script type="text/ecmascript"><![CDATA[var drsvgml={langs:"ab aa af ak sq am ar an hy as av ae ay az bm ba eu be bn bh bi bs br bg my ca ch ce ny zh zh-Hans zh-Hant cu cv kw co cr hr cs da dv nl dz en eo et ee fo fa fj fi fr fy ff gv gd gl lg ka de el kl gn gu ht ha he hz hi ho hu is io ig id ia iu ik ga it ja jv kn kr ks kk km ki rw rn kv kg ko ku kj ky la lv lo li ln lt lu lb mk mg ms ml mt mi mr mh mo mn na nv nd nr ng ne no nb nn ii ie oc oj om or os pi ps pl pt pa qu ro rm ru se sm sg sa sc sr sn sd si sk sl so st es su sw ss sv tl ty tg ta tt te th bo ti to ts tn tr tk tw uk ur ug uz ve vi vo wa cy wo xh yi yo za zu".split(" "),
swId:"drsvgml-sw",testAgentFireFox:/Firefox/i.test(navigator.userAgent),selectedLang:"",nsResolver:function(a){return"http://www.w3.org/2000/svg"},nsVersionResolver:function(a){return{svg:"http://www.w3.org/2000/svg",rdf:"http://www.w3.org/1999/02/22-rdf-syntax-ns#",rdfs:"http://www.w3.org/2000/01/rdf-schema#",dc:"http://purl.org/dc/elements/1.1/",xml:"http://www.w3.org/XML/1998/namespace"}[a]||null},visitTree:function(a,b){for(var c=a,d=null;null!=c;c=null==d?null:d.pop())for(c=c.firstChild;null!=
c;c=c.nextSibling)c.tagName&&(b(c),null==d&&(d=[]),d.push(c))},getSystemLang:function(){var a=document.getElementById(drsvgml.swId);if(null==a)throw"drsvgml.getSystemLang: element '"+drsvgml.swId+"' not found'";a=parseInt(a.getBBox().x,10);if(0<=a&&a<drsvgml.langs.length)return drsvgml.langs[a];throw"drsvgml.getSystemLang: unexpected value '"+a+"'";},findElements:function(){for(var a=[],b=document.getElementById(drsvgml.swId),c=b.ownerDocument.evaluate("//*/svg:*[@systemLanguage]",b.ownerSVGElement,
drsvgml.nsVersionResolver,XPathResult.UNORDERED_NODE_ITERATOR_TYPE,null),d=c.iterateNext();d;d=c.iterateNext())d.parentNode.id!=drsvgml.swId&&a.push(d);0==a.length&&drsvgml.testAgentFireFox&&drsvgml.visitTree(b.ownerSVGElement,function(b){b.hasAttribute("systemLanguage")&&b.parentNode.id!=drsvgml.swId&&a.push(b)});return a},version:function(){return document.evaluate("//svg:g[@id='drsvgml']/svg:metadata/rdf:RDF/rdf:Description/@dc:hasVersion",document,drsvgml.nsVersionResolver,XPathResult.STRING_TYPE,
null)},selectSystemLang:function(a){for(var b=drsvgml.findElements(),c=drsvgml.getSystemLang(),d=0,g=0;g<b.length;g++){var e=b[g],f;e.hasAttribute("xml:lang")?(f=e.getAttribute("xml:lang"),d++):f=e.getAttribute("systemLanguage");f==a?e.setAttribute("systemLanguage",c):e.setAttribute("systemLanguage","_"+f);e.hasAttribute("xml:lang")||e.setAttribute("xml:lang",f)}drsvgml.selectedLang=a;"undefined"!=typeof window.wdrsvgmlSelectors&&window.wdrsvgmlSelectors.highlight(a);return d},getSelectedLang:function(){return drsvgml.selectedLang},
reset:function(){for(var a=drsvgml.findElements(),b=0;b<a.length;b++){var c=a[b];c.hasAttribute("xml:lang")&&c.setAttribute("systemLanguage",c.getAttribute("xml:lang"))}drsvgml.selectedLang="";"undefined"!=typeof window.wdrsvgmlSelectors&&window.wdrsvgmlSelectors.highlight(drsvgml.getSystemLang())}};
try{window.wdrsvgml={version:drsvgml.version,getSystemLang:drsvgml.getSystemLang,selectSystemLang:drsvgml.selectSystemLang,getSelectedLang:drsvgml.getSelectedLang,reset:drsvgml.reset},window.parent.wdrsvgml=window.wdrsvgml}catch(ex){}
var drsvgmlSelectors={ondown:function(a){a.target.hasAttribute("id")?(a=a.target.getAttribute("id"),drsvgmlSelectors.select(a.substring(0,a.indexOf("_")))):drsvgml.reset()},highlight:function(a){var b=document.getElementById("drsvgml-selector-list");if(null!=b)for(a+="_selector",b=b.firstChild;null!=b;b=b.nextSibling)b.tagName&&"text"==b.tagName&&(b.getAttribute("id")==a?(b.removeAttribute("fill"),b.style.fill="black"):(b.removeAttribute("fill"),b.style.removeProperty("fill")))},select:function(a){drsvgml.selectSystemLang(a)}};
try{window.wdrsvgmlSelectors=drsvgmlSelectors,window.parent.wdrsvgmlSelectors=window.wdrsvgmlSelectors}catch(ex$$1){};
]]></script></defs><switch allowReorder="yes" id="drsvgml-sw" style="stroke:none;fill:none;"><path d="M0 0h10" systemLanguage="ab"/><path d="M1 0h10" systemLanguage="aa"/><path d="M2 0h10" systemLanguage="af"/><path d="M3 0h10" systemLanguage="ak"/><path d="M4 0h10" systemLanguage="sq"/><path d="M5 0h10" systemLanguage="am"/><path d="M6 0h10" systemLanguage="ar"/><path d="M7 0h10" systemLanguage="an"/><path d="M8 0h10" systemLanguage="hy"/><path d="M9 0h10" systemLanguage="as"/><path d="M10 0h10" systemLanguage="av"/><path d="M11 0h10" systemLanguage="ae"/><path d="M12 0h10" systemLanguage="ay"/><path d="M13 0h10" systemLanguage="az"/><path d="M14 0h10" systemLanguage="bm"/><path d="M15 0h10" systemLanguage="ba"/><path d="M16 0h10" systemLanguage="eu"/><path d="M17 0h10" systemLanguage="be"/><path d="M18 0h10" systemLanguage="bn"/><path d="M19 0h10" systemLanguage="bh"/><path d="M20 0h10" systemLanguage="bi"/><path d="M21 0h10" systemLanguage="bs"/><path d="M22 0h10" systemLanguage="br"/><path d="M23 0h10" systemLanguage="bg"/><path d="M24 0h10" systemLanguage="my"/><path d="M25 0h10" systemLanguage="ca"/><path d="M26 0h10" systemLanguage="ch"/><path d="M27 0h10" systemLanguage="ce"/><path d="M28 0h10" systemLanguage="ny"/><path d="M29 0h10" systemLanguage="zh"/><path d="M30 0h10" systemLanguage="zh-Hans"/><path d="M31 0h10" systemLanguage="zh-Hant"/><path d="M32 0h10" systemLanguage="cu"/><path d="M33 0h10" systemLanguage="cv"/><path d="M34 0h10" systemLanguage="kw"/><path d="M35 0h10" systemLanguage="co"/><path d="M36 0h10" systemLanguage="cr"/><path d="M37 0h10" systemLanguage="hr"/><path d="M38 0h10" systemLanguage="cs"/><path d="M39 0h10" systemLanguage="da"/><path d="M40 0h10" systemLanguage="dv"/><path d="M41 0h10" systemLanguage="nl"/><path d="M42 0h10" systemLanguage="dz"/><path d="M43 0h10" systemLanguage="en"/><path d="M44 0h10" systemLanguage="eo"/><path d="M45 0h10" systemLanguage="et"/><path d="M46 0h10" systemLanguage="ee"/><path d="M47 0h10" systemLanguage="fo"/><path d="M48 0h10" systemLanguage="fa"/><path d="M49 0h10" systemLanguage="fj"/><path d="M50 0h10" systemLanguage="fi"/><path d="M51 0h10" systemLanguage="fr"/><path d="M52 0h10" systemLanguage="fy"/><path d="M53 0h10" systemLanguage="ff"/><path d="M54 0h10" systemLanguage="gv"/><path d="M55 0h10" systemLanguage="gd"/><path d="M56 0h10" systemLanguage="gl"/><path d="M57 0h10" systemLanguage="lg"/><path d="M58 0h10" systemLanguage="ka"/><path d="M59 0h10" systemLanguage="de"/><path d="M60 0h10" systemLanguage="el"/><path d="M61 0h10" systemLanguage="kl"/><path d="M62 0h10" systemLanguage="gn"/><path d="M63 0h10" systemLanguage="gu"/><path d="M64 0h10" systemLanguage="ht"/><path d="M65 0h10" systemLanguage="ha"/><path d="M66 0h10" systemLanguage="he"/><path d="M67 0h10" systemLanguage="hz"/><path d="M68 0h10" systemLanguage="hi"/><path d="M69 0h10" systemLanguage="ho"/><path d="M70 0h10" systemLanguage="hu"/><path d="M71 0h10" systemLanguage="is"/><path d="M72 0h10" systemLanguage="io"/><path d="M73 0h10" systemLanguage="ig"/><path d="M74 0h10" systemLanguage="id"/><path d="M75 0h10" systemLanguage="ia"/><path d="M76 0h10" systemLanguage="iu"/><path d="M77 0h10" systemLanguage="ik"/><path d="M78 0h10" systemLanguage="ga"/><path d="M79 0h10" systemLanguage="it"/><path d="M80 0h10" systemLanguage="ja"/><path d="M81 0h10" systemLanguage="jv"/><path d="M82 0h10" systemLanguage="kn"/><path d="M83 0h10" systemLanguage="kr"/><path d="M84 0h10" systemLanguage="ks"/><path d="M85 0h10" systemLanguage="kk"/><path d="M86 0h10" systemLanguage="km"/><path d="M87 0h10" systemLanguage="ki"/><path d="M88 0h10" systemLanguage="rw"/><path d="M89 0h10" systemLanguage="rn"/><path d="M90 0h10" systemLanguage="kv"/><path d="M91 0h10" systemLanguage="kg"/><path d="M92 0h10" systemLanguage="ko"/><path d="M93 0h10" systemLanguage="ku"/><path d="M94 0h10" systemLanguage="kj"/><path d="M95 0h10" systemLanguage="ky"/><path d="M96 0h10" systemLanguage="la"/><path d="M97 0h10" systemLanguage="lv"/><path d="M98 0h10" systemLanguage="lo"/><path d="M99 0h10" systemLanguage="li"/><path d="M100 0h10" systemLanguage="ln"/><path d="M101 0h10" systemLanguage="lt"/><path d="M102 0h10" systemLanguage="lu"/><path d="M103 0h10" systemLanguage="lb"/><path d="M104 0h10" systemLanguage="mk"/><path d="M105 0h10" systemLanguage="mg"/><path d="M106 0h10" systemLanguage="ms"/><path d="M107 0h10" systemLanguage="ml"/><path d="M108 0h10" systemLanguage="mt"/><path d="M109 0h10" systemLanguage="mi"/><path d="M110 0h10" systemLanguage="mr"/><path d="M111 0h10" systemLanguage="mh"/><path d="M112 0h10" systemLanguage="mo"/><path d="M113 0h10" systemLanguage="mn"/><path d="M114 0h10" systemLanguage="na"/><path d="M115 0h10" systemLanguage="nv"/><path d="M116 0h10" systemLanguage="nd"/><path d="M117 0h10" systemLanguage="nr"/><path d="M118 0h10" systemLanguage="ng"/><path d="M119 0h10" systemLanguage="ne"/><path d="M120 0h10" systemLanguage="no"/><path d="M121 0h10" systemLanguage="nb"/><path d="M122 0h10" systemLanguage="nn"/><path d="M123 0h10" systemLanguage="ii"/><path d="M124 0h10" systemLanguage="ie"/><path d="M125 0h10" systemLanguage="oc"/><path d="M126 0h10" systemLanguage="oj"/><path d="M127 0h10" systemLanguage="om"/><path d="M128 0h10" systemLanguage="or"/><path d="M129 0h10" systemLanguage="os"/><path d="M130 0h10" systemLanguage="pi"/><path d="M131 0h10" systemLanguage="ps"/><path d="M132 0h10" systemLanguage="pl"/><path d="M133 0h10" systemLanguage="pt"/><path d="M134 0h10" systemLanguage="pa"/><path d="M135 0h10" systemLanguage="qu"/><path d="M136 0h10" systemLanguage="ro"/><path d="M137 0h10" systemLanguage="rm"/><path d="M138 0h10" systemLanguage="ru"/><path d="M139 0h10" systemLanguage="se"/><path d="M140 0h10" systemLanguage="sm"/><path d="M141 0h10" systemLanguage="sg"/><path d="M142 0h10" systemLanguage="sa"/><path d="M143 0h10" systemLanguage="sc"/><path d="M144 0h10" systemLanguage="sr"/><path d="M145 0h10" systemLanguage="sn"/><path d="M146 0h10" systemLanguage="sd"/><path d="M147 0h10" systemLanguage="si"/><path d="M148 0h10" systemLanguage="sk"/><path d="M149 0h10" systemLanguage="sl"/><path d="M150 0h10" systemLanguage="so"/><path d="M151 0h10" systemLanguage="st"/><path d="M152 0h10" systemLanguage="es"/><path d="M153 0h10" systemLanguage="su"/><path d="M154 0h10" systemLanguage="sw"/><path d="M155 0h10" systemLanguage="ss"/><path d="M156 0h10" systemLanguage="sv"/><path d="M157 0h10" systemLanguage="tl"/><path d="M158 0h10" systemLanguage="ty"/><path d="M159 0h10" systemLanguage="tg"/><path d="M160 0h10" systemLanguage="ta"/><path d="M161 0h10" systemLanguage="tt"/><path d="M162 0h10" systemLanguage="te"/><path d="M163 0h10" systemLanguage="th"/><path d="M164 0h10" systemLanguage="bo"/><path d="M165 0h10" systemLanguage="ti"/><path d="M166 0h10" systemLanguage="to"/><path d="M167 0h10" systemLanguage="ts"/><path d="M168 0h10" systemLanguage="tn"/><path d="M169 0h10" systemLanguage="tr"/><path d="M170 0h10" systemLanguage="tk"/><path d="M171 0h10" systemLanguage="tw"/><path d="M172 0h10" systemLanguage="uk"/><path d="M173 0h10" systemLanguage="ur"/><path d="M174 0h10" systemLanguage="ug"/><path d="M175 0h10" systemLanguage="uz"/><path d="M176 0h10" systemLanguage="ve"/><path d="M177 0h10" systemLanguage="vi"/><path d="M178 0h10" systemLanguage="vo"/><path d="M179 0h10" systemLanguage="wa"/><path d="M180 0h10" systemLanguage="cy"/><path d="M181 0h10" systemLanguage="wo"/><path d="M182 0h10" systemLanguage="xh"/><path d="M183 0h10" systemLanguage="yi"/><path d="M184 0h10" systemLanguage="yo"/><path d="M185 0h10" systemLanguage="za"/><path d="M186 0h10" systemLanguage="zu"/></switch></g><g id="smallscreen0"><g id="drsvgml-selector" transform="translate(10,300)"><g id="drsvgml-selector-list" onmousedown="drsvgmlSelectors.ondown(evt);" style="font-size:12pt;cursor:pointer;font-family:Arial,sans-serif;fill:#b8b8b8;"><text id="de_selector" x="0">Deutsch</text><text id="en_selector" x="75">English</text><text id="fr_selector" x="145">Français</text><text id="it_selector" x="225">Italiano</text><text id="af_selector" x="295">Afrikaans</text><text x="0" y="20">Default</text></g><defs><script type="text/javascript" xlink:actuate="onLoad"><![CDATA[
// highlight current language
drsvgmlSelectors.highlight(drsvgml.getSystemLang());
]]></script></defs></g></g></svg>