<svg xmlns="http://www.w3.org/2000/svg" xmlns:xlink="http://www.w3.org/1999/xlink" width="509px" height="460px" viewBox="190 100 220 200" preserveAspectRatio="xMidYMid meet"  ><rect id="svgEditorBackground" x="190" y="100" width="220" height="200" style="fill:none; stroke: none;"/><defs id="svgEditorDefs"><polygon id="svgEditorShapeDefs" style="fill:khaki;stroke:black;vector-effect:non-scaling-stroke;stroke-width:1px;"/></defs><g stroke="none" transform="matrix(4.7619 0 0 4.7619 185.714 75.1905)" id="e1_shape"><g fill="#37474F"><rect height="36" width="2" x="23" y="5"/><rect height="14.2" transform="matrix(.707 .707 -.707 .707 33.523 -3.921)" width="2" x="20.5" y="31.4"/><rect height="14.2" transform="matrix(-.707 .707 -.707 -.707 72.487 46.995)" width="2" x="25.5" y="31.4"/></g><rect fill="#CFD8DC" height="28" width="40" x="4" y="8"/><g fill="#607D8B"><rect height="4" width="42" x="3" y="7"/><rect height="2" width="42" x="3" y="35"/><circle cx="31.5" cy="43.5" r="1.5"/><circle cx="16.5" cy="43.5" r="1.5"/></g><g fill="#C51162"/></g><g stroke="none" transform="matrix(2.75 0 0 2.75 235 120.75)" id="e2_shape"><path d="M40,41H8c-2.2,0-4-1.8-4-4V11c0-2.2,1.8-4,4-4h32c2.2,0,4,1.8,4,4v26C44,39.2,42.2,41,40,41z" fill="#F57C00"/><circle cx="35" cy="16" fill="#FFF9C4" r="3"/><polygon fill="#942A09" points="20,16 9,32 31,32"/><polygon fill="#BF360C" points="31,22 23,32 39,32"/></g></svg>