<svg xmlns="http://www.w3.org/2000/svg" xmlns:xlink="http://www.w3.org/1999/xlink" preserveAspectRatio="xMidYMid meet" zoomAndPan="disable" version="1.1" contentScriptType="text/ecmascript" contentStyleType="text/css" onload="if (parent.svgViewerNotifyOnLoad) parent.svgViewerNotifyOnLoad(evt);" width="100%" height="100%" viewBox="0 0 415 300">
<path style="stroke-width:1;fill:rgb(246,127,0);stroke:none" d="M204.3,139.8c-8-6.5,2.3-7,2.3-7.3c-14.3-35.5-37.2-51.2-39-52c-5.5-2.6-8.1-2.3-7.1-3.6c1-1.3,7.3,2.8,8.1,3.4c25.3,18,39,52,39,52c0,0,1.8,1,2,0.3c10-29.5,30-45,36.8-51.3c6.8-6.3,10.3-6.9,1,0.3c-28.8,22-37,50.6-36.5,50.8c11.5,2.5,0.5,8,1,7.5c3-3,3,6,3,6c0,0,17-35,83.5-79.5c4.1-2.7,147.5-81,97.5,14.5c-2.6,5-20,25-20,25c0,0,1.5,8.5-4.5,15.5c-1,1.2-3.5,13-9.5,19.5c-1.7,1.8,0-1.6,0,0c0.5,30-24.1,29.3-22.5,29.5c9.5,1,10.9,13.3,11,13.5c5.5,6.5,3.5,8,5.5,11c10.8,16.2-0.6,15.2,1,18c4,7-0.8,9.9,0.5,12c3.5,5.5-2.6,9-2.5,10.5c0.5,8.5-5.2,5.4-5,9c0.5,11-3.5,6.5-6,10.5c-7.5,12-10.4,7.5-11,9c-3,7-7,5.3-8.5,7c-3.5,4-7,4-8.5,5.5c-7,7-11,2.1-12,2.5c-16,7-23.5,1.3-26,1.5c-7.5,0.5-6.3-0.7-8.5-2.5c-31.5-27-50-66-53.5-71c-1.4-2-4.5-13.7-3.5-11c2,5.5,1,54.5-4.5,54.5c-5.5,0-6-46-2.5-54.5c1.1-2.7-0.9,7.9-3.5,11c-5.5,6.5-22.3,44-54.2,71c-2.2,1.8-1,3-8.6,2.5c-2.5-0.2-10.1,5.5-26.3-1.5c-1-0.4-5.1,4.5-12.2-2.5c-1.5-1.5-5.1-1.5-8.6-5.5c-1.5-1.7-5.6,0-8.6-7c-0.6-1.4-3.5,3-11.1-9c-2.5-4-6.6,0.5-6.1-10.5c0.2-3.6-5.6-0.5-5.1-9c0.1-1.5-6.1-5-2.5-10.5c1.4-2.1-3.5-5,0.5-12c1.6-2.8-9.9-1.8,1-18c2-3,0-4.5,5.6-11c0.1-0.2,1.5-12.5,11.1-13.5c1.6-0.2-23.3,0.5-22.8-29.5c0-1.6,1.7,1.8,0,0c-6.1-6.5-8.6-18.3-9.6-19.5c-6.1-7-4.6-15.5-4.6-15.5c0,0-17.6-20-20.3-25c-50.7-95.5,94.6-17.2,98.8-14.5c67.4,44.5,83.8,79.5,83.8,79.5c0,0,0.4-2.6,1-4c0.6-1.4,1.6-1.8,1.3-2Z"/>	<path style="stroke-width:1;fill:rgb(0,0,0);stroke:none" d="M203.6,139.6c-8-6.5,2.3-7,2.3-7.3c-14.3-35.5-37.2-51.2-39-52c-5.5-2.6-8.1-2.3-7.1-3.6c1-1.3,7.3,2.8,8.1,3.4c25.3,18,39,52,39,52c0,0,1.8,1,2,0.3c10-29.5,30-45,36.8-51.3c6.8-6.3,10.3-6.9,1,0.3c-28.8,22-37,50.6-36.5,50.8c11.5,2.5,0.5,8,1,7.5c3-3,3,6,3,6c0,0,17-35,83.5-79.5c4.1-2.7,147.5-81,97.5,14.5c-2.6,4.9-20,25-20,25c0,0,1.5,8.5-4.5,15.5c-1,1.2-3.5,13-9.5,19.5c-1.7,1.8,0-1.6,0,0c0.5,30-24.1,29.3-22.5,29.5c9.5,1,10.9,13.3,11,13.5c5.5,6.5,3.5,8,5.5,11c10.8,16.2-0.6,15.2,1,18c4,7-0.8,9.9,0.5,12c3.5,5.5-2.6,9-2.5,10.5c0.5,8.5-5.2,5.4-5,9c0.5,11-3.5,6.5-6,10.5c-7.5,12-10.4,7.6-11,9c-3,7-7,5.3-8.5,7c-3.5,4-7,4-8.5,5.5c-7,7-11,2.1-12,2.5c-16,7-23.5,1.3-26,1.5c-7.5,0.5-6.4-0.7-8.5-2.5c-31.5-27-50-66-53.5-71c-1.4-2.1-4.5-13.7-3.5-11c2,5.5,1,54.5-4.5,54.5c-5.5,0-6-46-2.5-54.5c1.1-2.7-0.9,7.9-3.5,11c-5.5,6.5-22.3,44-54.2,71c-2.2,1.8-1,3-8.6,2.5c-2.5-0.2-10.1,5.5-26.3-1.5c-1-0.4-5.1,4.5-12.2-2.5c-1.5-1.5-5.1-1.5-8.6-5.5c-1.5-1.7-5.6,0-8.6-7c-0.6-1.4-3.5,3-11.1-9c-2.5-4-6.6,0.5-6.1-10.5c0.2-3.6-5.6-0.5-5.1-9c0.1-1.5-6.1-5-2.5-10.5c1.4-2.1-3.5-5,0.5-12c1.6-2.8-9.9-1.8,1-18c2-3,0-4.5,5.6-11c0.2-0.2,1.5-12.5,11.2-13.5c1.6-0.2-23.3,0.5-22.8-29.5c0-1.6,1.7,1.8,0,0c-6.1-6.5-8.6-18.3-9.6-19.5c-6.1-7-4.6-15.5-4.6-15.5c0,0-17.6-20.1-20.3-25c-50.6-95.5,94.6-17.2,98.8-14.5c67.4,44.5,83.8,79.5,83.8,79.5c0,0,0.4-2.6,1-4c0.6-1.4,1.6-1.8,1.3-2ZM242.1,153.1c3-0.1,9.2,3,13,2c25.4-7.1,73.3-0.6,76.5,0.5c12,4,20-24.5-5.5-24.5c-31.5,0-25-2-46-5c-1.8-0.3-27.5,9.3-51.5,23c-3.5,2-1.5,4.5,13.5,4ZM223.1,148.1c2.5,0.3,15-8.5,54-24c2.4-0.9,2.5-6,23.5-15.5c1.4-0.6-0.5-4,14-16c7.2-5.9-17.5-5-23-4c-5.5,1-19,12-19,12c0,0,15.2-12.1,10-10.5c-11.5,3.5-41.5,36.5-51.5,50.5c-10,14,16.5-24,23-30c6.5-6-49.5,35.5-31,37.5ZM335.6,128.6c14.5,2.9,13-18.5,5.5-19.5c-11.6-1.5-33.6-0.8-40,1.5c-16.5,6-20.8,12-19.5,12.5c28.5,10,49,4.5,54,5.5ZM335.1,106.6c5.9,0.7,16,3,16.5-5c0.3-4,14,3,17,3.5c2.5,0.4-10.5-4.8-15-8c-3.5-2.5-4.1-5.4-4.5-5.5c-32-11.5-45.5,15.5-45.5,15.5c0,0,27.5-1,31.5-0.5ZM400.6,62.6c-5-8-14-5.5-17-9c-14.5-16.5-48.1,4.7-20.5,2.5c32-2.5,38.1,7.5,37.5,6.5ZM376.6,66.6c13.5,0,19.5,6,18.5,5c-7-7-13-5.5-14.5-7.5c-8.9-11.9-35.5,0.5-33.5,3.5c2,3,26-1,29.5-1ZM330.1,76.1c-21,5-12,12.5-9.5,12c19.4-3.9,13.9-13,9.5-12ZM340.6,52.1c-9.5,1-10.1,18.3-5.5,15c7-5,15-16,5.5-15ZM315.6,75.6c14-5.5,3.5-8-1-7.5c-4.5,0.5-7.8,7.3-6.5,10c3,6,4.8-1.4,7.5-2.5ZM359.6,121.1c4.5-2.5-1-8.5-5-6c-4,2.5,0.5,8.5,5,6ZM350.1,78.6c11.8,11.8,16.5,5.5,19,4.5c8.1-3.3,17,5.5,15.5,4c-7.3-7.3-12-6-13-7.5c-7.6-11.4-19-4.2-21.5-4c-7,0.5-15.7,5.4-12.5,4.5c3.5-1,11-3,12.5-1.5ZM383.6,44.1c7-5-2.2-6.3-4-6c-6.5,1-3,11,4,6ZM224.6,181.1c5.5,6.5,67,104,57.5,71.5c-1.3-4.4,3.5,13.5,9,3.5c1.5-2.8,10.1-3.1-16.5-47.5c-1.5-2.5-22-10.5-42.5-33c-3.1-3.4-12.1,0.1-7.5,5.5ZM280.1,215.6c4.5,7,15.7,30.4,16.5,34c2.5,11,9.5-1.5,11-1c13.2,4.4,3.5-7.5,2.5-10.5c-9.2-27.5-30.5-25-30.5-25c0,0-4-4.5,0.5,2.5ZM253.6,256.1c12.6,18,17.5,11,20,9c7.7-6.2-41.3-69-44.5-73c-4-5-4,23.5,24.5,64ZM300.1,219.1c6.5,5,13.7,26.1,17.5,25.5c10-1.5,4-10,6.5-8.5c2.5,1.5,7.5-1.2,6-4c-12.5-23.5-32-16-32-16c0,0-4.5-2,2,3ZM235.6,168.6c-19.5,0,46.5,54,65.5,43.5c3.9-2.2-5-3.5-3.5-15c0.3-2.1-13.5-6-13.5-19c0-4.2-7.9-6-33-6c-4.5,0,4.9-3.5-15.5-3.5ZM307.6,213.6c18.3,2,22.6,16.2,25,14.5c28.5-20-22.7-28.2-32-27c-4,0.5,2.5,12,7,12.5ZM238.6,164.1c3.5,2.5,15.5,12.5,54,4c1.5-0.3-29-0.5-33-1.5c-4-1-23.4-4.2-21-2.5ZM305.1,198.6c37.5,9,27.6,2.7,29,2c8.5-4.5-0.8-5.4,0.5-7c4.2-5.3-7-8.5-30.5-11c-5.6-0.6-16.6-3.3-17-2.5c-3.5,7,13.2,17.3,18,18.5ZM311.1,182.1c32.5,5.5,12.1-4.7,12.5-5c11.5-9-26.5-9-26.5-9c0,0-16.3,3.9-16,4.5c4.5,8.5,26,8.8,30,9.5ZM249.6,253.6c0,0-29-46.5-23-65.5c1.2-3.8-13-22.5-6.5,9c0.1,0.5-1.2-6.7-3.5-10c-2.3-3.3-5.4-2.2-3.5,7.5c4.9,24.4,36.5,59,36.5,59ZM289.1,83.6c7.5-2,4-4.5-0.5-5.5c-4.5-1-7,7.5,0.5,5.5ZM187.4,149.1c-24.3-13.7-50.4-23.3-52.2-23c-21.3,3-14.6,5-46.6,5c-25.8,0-17.7,28.5-5.6,24.5c3.2-1.1,51.7-7.6,77.5-0.5c3.8,1,10.1-2.1,13.2-2c15.2,0.5,17.2-2,13.7-4ZM161.6,110.6c6.6,6,33.4,44,23.3,30c-10.1-14-40.5-47-52.2-50.5c-5.2-1.6,10.1,10.5,10.1,10.5c0,0-13.7-11-19.3-12c-5.6-1-30.6-1.9-23.3,4c14.7,12,12.8,15.4,14.2,16c21.3,9.5,21.4,14.6,23.8,15.5c39.5,15.5,52.1,24.3,54.7,24c18.7-2-38-43.5-31.4-37.5ZM133.7,123.1c1.4-0.5-3-6.5-19.8-12.5c-6.5-2.3-28.8-3-40.5-1.5c-7.6,1-9.1,22.4,5.6,19.5c5.1-1,25.8,4.5,54.7-5.5ZM111.4,107.1c0,0-13.7-27-46.1-15.5c-0.4,0.1-1,3-4.6,5.5c-4.6,3.2-17.7,8.4-15.2,8c3-0.5,17-7.5,17.2-3.5c0.5,8,10.7,5.7,16.7,5c4-0.5,31.9,0.5,31.9,0.5ZM51.2,56.1c27.9,2.2-6.1-19-20.8-2.5c-3.1,3.5-12.2,1-17.2,9c-0.6,1,5.6-9,38-6.5ZM67.4,67.6c2-3-24.9-15.4-33.9-3.5c-1.5,2-7.6,0.5-14.7,7.5c-1,1,5.1-5,18.7-5c3.6,0,27.9,4,29.9,1ZM84.6,76.1c21.3,5,12.1,12.5,9.6,12c-19.7-3.9-14.1-13-9.6-12ZM79.5,67.1c4.7,3.3,4-14-5.6-15c-9.6-1-1.5,10,5.6,15ZM106.9,78.1c1.3-2.7-2-9.5-6.6-10c-4.6-0.5-15.2,2-1,7.5c2.8,1.1,4.6,8.5,7.6,2.5ZM59.8,115.1c-4.1-2.5-9.6,3.5-5.1,6c4.6,2.5,9.1-3.5,5.1-6ZM77,80.1c3.2,0.9-5.6-4-12.7-4.5c-2.6-0.2-14.1-7.4-21.8,4c-1,1.5-5.8,0.2-13.2,7.5c-1.5,1.5,7.5-7.3,15.7-4c2.5,1,7.3,7.3,19.3-4.5c1.5-1.5,9.1,0.5,12.7,1.5ZM34.4,38.1c-1.8-0.3-11.1,1-4,6c7.1,5,10.6-5,4-6ZM183.9,175.6c-20.8,22.5-41.5,30.5-43.1,33c-27,44.4-18.3,44.7-16.7,47.5c5.6,10,10.4-7.9,9.1-3.5c-9.6,32.5,52.7-65,58.2-71.5c4.6-5.4-4.4-8.9-7.6-5.5ZM135.7,213.1c0,0-21.6-2.5-30.9,25c-1,3-10.8,14.9,2.5,10.5c1.5-0.5,8.6,12,11.1,1c0.8-3.6,12.2-27,16.7-34c4.6-7,0.5-2.5,0.5-2.5ZM186.9,192.1c-3.3,4-52.9,66.8-45.1,73c2.5,2,7.5,9,20.3-9c28.9-40.5,28.9-69,24.8-64ZM117,216.1c0,0-19.8-7.5-32.4,16c-1.5,2.8,3.5,5.5,6.1,4c2.5-1.5-3.5,7,6.6,8.5c3.8,0.6,11.1-20.5,17.7-25.5c6.6-5,2-3,2-3ZM164.6,172.1c-25.4,0-33.4,1.8-33.4,6c0,13-14,16.9-13.7,19c1.5,11.5-7.5,12.8-3.6,15c19.3,10.5,86.1-43.5,66.4-43.5c-20.7,0-11.1,3.5-15.7,3.5ZM114.5,201.1c-9.4-1.2-61.3,7-32.4,27c2.4,1.7,6.8-12.5,25.3-14.5c4.6-0.5,11.1-12,7.1-12.5ZM156,166.6c-4.1,1-34.9,1.2-33.4,1.5c39,8.5,51.2-1.5,54.7-4c2.4-1.7-17.2,1.5-21.3,2.5ZM128.1,180.1c-0.4-0.8-11.6,1.9-17.2,2.5c-23.8,2.5-35.2,5.7-30.9,11c1.3,1.6-8.1,2.5,0.5,7c1.4,0.7-8.6,7,29.4-2c4.9-1.2,21.8-11.5,18.2-18.5ZM134.2,172.6c0.3-0.6-16.2-4.5-16.2-4.5c0,0-38.5,0-26.8,9c0.4,0.3-20.3,10.5,12.7,5c4-0.7,25.8-1,30.4-9.5ZM203.1,194.6c2-9.7-1.3-10.8-3.5-7.5c-2.3,3.3-3.7,10.5-3.6,10c6.6-31.5-7.8-12.8-6.6-9c6.1,19-23.3,65.5-23.3,65.5c0,0,32-34.6,37-59ZM126.6,78.1c-4.6,1-8.1,3.5-0.5,5.5c7.6,2,5.1-6.5,0.5-5.5Z"/>	<path style="stroke-width:1;fill:rgb(255,246,227);stroke:none" d="M363.7,85.7c-4.5,0.6-8.5,1-9.5-4.5c-1-5.5,1.5-7.5,9-5.5c7.5,2,12.5,8.5,0.5,10ZM327.2,89.2c0,0-18.7,4.4-1.5-8.5c8-6,8.5-1,9,2c0.8,4.5-7.5,6.5-7.5,6.5ZM384.2,48.7c-8.4-1.7-8-6.5,1-8.5c1.5-0.3,4,9.5-1,8.5ZM389.2,48.7c2.5-0.5,6.5,0.5,7,4c0.5,3.5-3.5,5.5-6,3.5c-2.5-2-3.5-7-1-7.5ZM383.2,59.7c2.5-1,10,0.5,9.5,3.5c-0.5,3-6.5,3.5-9,2c-2.5-1.5-3-4.5-0.5-5.5ZM384.2,77.2c3-2.5,6.5,0,7.5,1.5c1,1.5-4,3.5-5.5,4c-1.5,0.5-5-3-2-5.5ZM395.7,40.2c0,0,4,0,3,1.5c-1,1.5-4,1.5-4,1.5ZM401.7,49.2c0,0,4,0,3,1.5c-1,1.5-4,1.5-4,1.5ZM369.2,97.2c0,0,5,2,4,3.5c-1,1.5-2.5,4-6,0.5c-3.5-3.5,2-4,2-4ZM355.7,116.7c3-2.5,6.5,0,7.5,1.5c1,1.5-4,3.5-5.5,4c-1.5,0.5-5-3-2-5.5ZM357.7,106.7c3-2.5,5.5,1,6.5,2.5c1,1.5-3,2.5-4.5,3c-1.5,0.5-5-3-2-5.5ZM340.7,73.2c-3.6,0.2-9.5-1.5-0.5-7.5c8.3-5.5,8-4,8.5-1c0.8,4.5-4.4,8.3-8,8.5ZM310.2,82.2c0,0-3.5-3,3.5-9c7.6-6.5,6.5-4,7-1c0.8,4.5-10.5,10-10.5,10ZM341.2,55.7c0,0,6-1,5,0.5c-1,1.5-3.5,7-7,3.5c-3.5-3.5,2-4,2-4ZM374.7,86.2c1.4,0,2.5,1.1,2.5,2.5c0,1.4-1.1,2.5-2.5,2.5c-1.4,0-2.5-1.1-2.5-2.5c0-1.4,1.1-2.5,2.5-2.5ZM369.7,110.7c1.4,0,2.5,1.1,2.5,2.5c0,1.4-1.1,2.5-2.5,2.5c-1.4,0-2.5-1.1-2.5-2.5c0-1.4,1.1-2.5,2.5-2.5ZM365.7,120.7c1.4,0,2.5,1.1,2.5,2.5c0,1.4-1.1,2.5-2.5,2.5c-1.4,0-2.5-1.1-2.5-2.5c0-1.4,1.1-2.5,2.5-2.5ZM349.7,127.2c1.4,0,2.5,1.1,2.5,2.5c0,1.4-1.1,2.5-2.5,2.5c-1.4,0-2.5-1.1-2.5-2.5c0-1.4,1.1-2.5,2.5-2.5ZM358.2,128.7c1.4,0,4,2.1,4,3.5c0,1.4-2.6,1.5-4,1.5c-1.4,0-2.5-1.1-2.5-2.5c0-1.4,1.1-2.5,2.5-2.5ZM382.2,89.7c1.4,0,2.5,1.1,2.5,2.5c0,1.4-1.1,2.5-2.5,2.5c-1.4,0-2.5-1.1-2.5-2.5c0-1.4,1.1-2.5,2.5-2.5ZM395.7,66.2c1.4,0,2.5,1.1,2.5,2.5c0,1.4-1.1,2.5-2.5,2.5c-1.4,0-2.5-1.1-2.5-2.5c0-1.4,1.1-2.5,2.5-2.5ZM300.7,74.2c2.3,0.9,13.5-6.5,10-7.5c-3.5-1-12.5,6.5-10,7.5ZM319.7,61.2c2.5,0.5,10-2.5,6.5-3.5c-3.5-1-9.1,3-6.5,3.5ZM271.7,91.7c5.5-3,21-10.5,13.5-9.5c-7.5,1-18.2,12.1-13.5,9.5ZM364.2,42.2c2.5,0.5,10-2.5,6.5-3.5c-3.5-1-9.1,3-6.5,3.5ZM292.2,78.7c2.5,0.5,7.5-2,4-3c-3.5-1-6.6,2.5-4,3ZM355.2,141.2c1.4,0,2.5,1.6,2.5,3c0,1.4-0.6,1.5-2,1.5c-1.4,0-2.5-1.1-2.5-2.5c0-1.4,0.6-2,2-2ZM347.7,140.7c1.4,0,3.5,0.6,3.5,2c0,1.4-2.6,1-4,1c-1.4,0-2.5-1.1-2.5-2.5c0-1.4,1.6-0.5,3-0.5ZM349.7,155.2c1.4,0,4,2.1,4,3.5c0,1.4-2.6,1.5-4,1.5c-1.4,0-2.5-1.1-2.5-2.5c0-1.4,1.1-2.5,2.5-2.5ZM337.7,175.7c4-1,4,1,5,4.5c1,3.5,8.1,14.9-3.5,1c-2.5-3-5.5-4.5-1.5-5.5ZM349.7,187.7c1.4,0,2.5,1.1,2.5,2.5c0,1.4-1.1,2.5-2.5,2.5c-1.4,0-2.5-1.1-2.5-2.5c0-1.4,1.1-2.5,2.5-2.5ZM352.2,196.7c1.4,0,2.5,1.1,2.5,2.5c0,1.4-1.1,2.5-2.5,2.5c-1.4,0-2.5-1.1-2.5-2.5c0-1.4,1.1-2.5,2.5-2.5ZM352.4,205.7c1.4,0,3.3,3.1,3.3,4.5c0,1.4-1.1,2.5-2.5,2.5c-1.4,0-4.2-1.6-4.2-3c0-1.4,1.9-4,3.3-4ZM353.7,221.7c1.4,0,1,0.1,1,1.5c0,1.4-0.1,0.5-1.5,0.5c-1.4,0-1,0.9-1-0.5c0-1.4,0.1-1.5,1.5-1.5ZM340.2,188.7c1.4,0,1,0.1,1,1.5c0,1.4-0.1,0.5-1.5,0.5c-1.4,0-1,0.9-1-0.5c0-1.4,0.1-1.5,1.5-1.5ZM343.2,201.2c1.4,0,1,0.1,1,1.5c0,1.4,0.2,5-1.2,5c-1.4,0-1.3-3.6-1.3-5c0-1.4,0.1-1.5,1.5-1.5ZM346.7,215.2c1.4,0,1,0.1,1,1.5c0,1.4-0.1,0.5-1.5,0.5c-1.4,0-1,0.9-1-0.5c0-1.4,0.1-1.5,1.5-1.5ZM340.6,228.7c1.4,0,1.2,0.1,1.2,1.5c0,1.4-0.3,0.5-1.7,0.5c-1.4,0-0.8,0.9-0.8-0.5c0-1.4,0-1.5,1.3-1.5ZM349.4,232.1c1.4,0,2.7,2,2.7,3.3c0,1.4-3,3.8-4.3,3.8c-1.4,0-1,0.9-1-0.5c0-1.4,1.3-6.7,2.7-6.7ZM343.7,246.4c1.4,0,3.7-0.4,3.7,1c0,1.4-3.3,3.8-4.7,3.8c-1.4,0-1,0.9-1-0.5c0-1.4,0.6-4.3,2-4.3ZM335.2,239.2c1.4,0,1,0.1,1,1.5c0,1.4-0.1,0.5-1.5,0.5c-1.4,0-1,0.9-1-0.5c0-1.4,0.1-1.5,1.5-1.5ZM332.7,258.4c1.4,0,2.7,1.6,2.7,3c0,1.4-2.3,0.8-3.7,0.8c-1.4,0-1,0.9-1-0.5c0-1.4,0.6-3.3,2-3.3ZM324.4,263.7c1.4,0,0.7,1.6,0.7,3c0,1.4-5,4.5-6.3,4.5c-1.4,0-1,0.9-1-0.5c0-1.4,5.3-7,6.7-7ZM325.2,247.7c1.4,0,1,0.1,1,1.5c0,1.4-0.1,0.5-1.5,0.5c-1.4,0-1,0.9-1-0.5c0-1.4,0.1-1.5,1.5-1.5ZM313.2,256.2c1.4,0,5.8,1.8,5.8,3.2c0,1.4-5.6,3.7-7,3.7c-1.4,0-2.3-2.3-2.3-3.7c0-1.4,2.1-3.2,3.5-3.2ZM300.2,260.7c1.4,0,1,0.1,1,1.5c0,1.4-0.1,0.5-1.5,0.5c-1.4,0-1,0.9-1-0.5c0-1.4,0.1-1.5,1.5-1.5ZM308.2,272.7c1.4,0,1,0.1,1,1.5c0,1.4-0.1,0.5-1.5,0.5c-1.4,0-1,0.9-1-0.5c0-1.4,0.1-1.5,1.5-1.5ZM305.2,273.7c1.4,0,1,0.1,1,1.5c0,1.4-0.1,0.5-1.5,0.5c-1.4,0-1,0.9-1-0.5c0-1.4,0.1-1.5,1.5-1.5ZM293.7,274.1c0.9,0,2,1.4,2,2.3c0,0.9-0.1,0.3-1,0.3c-0.9,0-3.3,1.3-3.3,0.3c0-0.9,1.4-3,2.3-3ZM296.7,276.7c0.9,0,0.7,0.1,0.7,1c0,0.9-0.1,0.3-1,0.3c-0.9,0-0.7,0.6-0.7-0.3c0-0.9,0.1-1,1-1ZM291.4,263.7c0.9,0,2.3,3.4,2.3,4.3c0,0.9-3.1,0.7-4,0.7c-0.9,0-2.3-2.8-2.3-3.7c0-0.9,3.1-1.3,4-1.3ZM280.1,274.7c1.4,0,1.2,0.1,1.2,1.5c0,1.4-0.3,0.5-1.7,0.5c-1.4,0-0.8,0.9-0.8-0.5c0-1.4,0-1.5,1.3-1.5ZM277.1,267.7c1.4,0-0.7,3.3-0.7,4.7c0,1.4-4.5,1.8-5.8,1.8c-1.4,0,1.2-1.8,1.2-3.2c0-1.4,4-3.3,5.3-3.3ZM52.2,84.9c4.5,0.6,8.5,1,9.5-4.5c1-5.5-1.5-7.5-9-5.5c-7.5,2-12.5,8.5-0.5,10ZM88.7,88.4c0,0,18.7,4.4,1.5-8.5c-8-6-8.5-1-9,2c-0.7,4.5,7.5,6.5,7.5,6.5ZM31.7,47.9c8.3-1.7,8-6.5-1-8.5c-1.5-0.3-4,9.5,1,8.5ZM26.7,47.9c-2.5-0.5-6.5,0.5-7,4c-0.5,3.5,3.5,5.5,6,3.5c2.5-2,3.5-7,1-7.5ZM32.7,58.9c-2.5-1-10,0.5-9.5,3.5c0.5,3,6.5,3.5,9,2c2.5-1.5,3-4.5,0.5-5.5ZM31.7,76.4c-3-2.5-6.5,0-7.5,1.5c-1,1.5,4,3.5,5.5,4c1.5,0.5,5-3,2-5.5ZM20.2,39.4c0,0-4,0-3,1.5c1,1.5,4,1.5,4,1.5ZM14.2,48.4c0,0-4,0-3,1.5c1,1.5,4,1.5,4,1.5ZM46.7,96.4c0,0-5,2-4,3.5c1,1.5,2.5,4,6,0.5c3.5-3.5-2-4-2-4ZM60.2,115.9c-3-2.5-6.5,0-7.5,1.5c-1,1.5,4,3.5,5.5,4c1.5,0.5,5-3,2-5.5ZM58.2,105.9c-3-2.5-5.5,1-6.5,2.5c-1,1.5,3,2.5,4.5,3c1.5,0.5,5-3,2-5.5ZM75.2,72.4c3.6,0.2,9.5-1.5,0.5-7.5c-8.3-5.6-8-4-8.5-1c-0.7,4.5,4.4,8.3,8,8.5ZM105.7,81.4c0,0,3.5-3-3.5-9c-7.6-6.5-6.5-4-7-1c-0.7,4.5,10.5,10,10.5,10ZM74.7,54.9c0,0-6-1-5,0.5c1,1.5,3.5,7,7,3.5c3.5-3.5-2-4-2-4ZM41.2,85.4c-1.4,0-2.5,1.1-2.5,2.5c0,1.4,1.1,2.5,2.5,2.5c1.4,0,2.5-1.1,2.5-2.5c0-1.4-1.1-2.5-2.5-2.5ZM46.2,109.9c-1.4,0-2.5,1.1-2.5,2.5c0,1.4,1.1,2.5,2.5,2.5c1.4,0,2.5-1.1,2.5-2.5c0-1.4-1.1-2.5-2.5-2.5ZM50.2,119.9c-1.4,0-2.5,1.1-2.5,2.5c0,1.4,1.1,2.5,2.5,2.5c1.4,0,2.5-1.1,2.5-2.5c0-1.4-1.1-2.5-2.5-2.5ZM66.2,126.4c-1.4,0-2.5,1.1-2.5,2.5c0,1.4,1.1,2.5,2.5,2.5c1.4,0,2.5-1.1,2.5-2.5c0-1.4-1.1-2.5-2.5-2.5ZM57.7,127.9c-1.4,0-4,2.1-4,3.5c0,1.4,2.6,1.5,4,1.5c1.4,0,2.5-1.1,2.5-2.5c0-1.4-1.1-2.5-2.5-2.5ZM33.7,88.9c-1.4,0-2.5,1.1-2.5,2.5c0,1.4,1.1,2.5,2.5,2.5c1.4,0,2.5-1.1,2.5-2.5c0-1.4-1.1-2.5-2.5-2.5ZM20.2,65.4c-1.4,0-2.5,1.1-2.5,2.5c0,1.4,1.1,2.5,2.5,2.5c1.4,0,2.5-1.1,2.5-2.5c0-1.4-1.1-2.5-2.5-2.5ZM115.2,73.4c-2.3,0.9-13.5-6.5-10-7.5c3.5-1,12.5,6.5,10,7.5ZM96.2,60.4c-2.5,0.5-10-2.5-6.5-3.5c3.5-1,9.1,3,6.5,3.5ZM144.2,90.9c-5.5-3-21-10.5-13.5-9.5c7.5,1,18.2,12.1,13.5,9.5ZM51.7,41.4c-2.5,0.5-10-2.5-6.5-3.5c3.5-1,9.1,3,6.5,3.5ZM123.7,77.9c-2.5,0.5-7.5-2-4-3c3.5-1,6.6,2.5,4,3ZM60.7,140.4c-1.4,0-2.5,1.6-2.5,3c0,1.4,0.6,1.5,2,1.5c1.4,0,2.5-1.1,2.5-2.5c0-1.4-0.6-2-2-2ZM68.2,139.9c-1.4,0-3.5,0.6-3.5,2c0,1.4,2.6,1,4,1c1.4,0,2.5-1.1,2.5-2.5c0-1.4-1.6-0.5-3-0.5ZM66.2,154.4c-1.4,0-4,2.1-4,3.5c0,1.4,2.6,1.5,4,1.5c1.4,0,2.5-1.1,2.5-2.5c0-1.4-1.1-2.5-2.5-2.5ZM78.2,174.9c-4-1-4,1-5,4.5c-1,3.5-8.1,14.9,3.5,1c2.5-3,5.5-4.5,1.5-5.5ZM66.2,186.9c-1.4,0-2.5,1.1-2.5,2.5c0,1.4,1.1,2.5,2.5,2.5c1.4,0,2.5-1.1,2.5-2.5c0-1.4-1.1-2.5-2.5-2.5ZM63.7,195.9c-1.4,0-2.5,1.1-2.5,2.5c0,1.4,1.1,2.5,2.5,2.5c1.4,0,2.5-1.1,2.5-2.5c0-1.4-1.1-2.5-2.5-2.5ZM63.6,204.9c-1.4,0-3.3,3.1-3.3,4.5c0,1.4,1.1,2.5,2.5,2.5c1.4,0,4.2-1.6,4.2-3c0-1.4-2-4-3.3-4ZM62.2,220.9c-1.4,0-1,0.1-1,1.5c0,1.4,0.1,0.5,1.5,0.5c1.4,0,1,0.9,1-0.5c0-1.4-0.1-1.5-1.5-1.5ZM75.7,187.9c-1.4,0-1,0.1-1,1.5c0,1.4,0.1,0.5,1.5,0.5c1.4,0,1,0.9,1-0.5c0-1.4-0.1-1.5-1.5-1.5ZM72.7,200.4c-1.4,0-1,0.1-1,1.5c0,1.4-0.2,5,1.2,5c1.4,0,1.3-3.6,1.3-5c0-1.4-0.1-1.5-1.5-1.5ZM69.2,214.4c-1.4,0-1,0.1-1,1.5c0,1.4,0.1,0.5,1.5,0.5c1.4,0,1,0.9,1-0.5c0-1.4-0.1-1.5-1.5-1.5ZM75.4,227.9c-1.4,0-1.2,0.1-1.2,1.5c0,1.4,0.3,0.5,1.7,0.5c1.4,0,0.8,0.9,0.8-0.5c0-1.4,0-1.5-1.3-1.5ZM66.6,231.2c-1.4,0-2.7,2-2.7,3.3c0,1.4,3,3.8,4.3,3.8c1.4,0,1,0.9,1-0.5c0-1.4-1.3-6.7-2.7-6.7ZM72.2,245.6c-1.4,0-3.7-0.4-3.7,1c0,1.4,3.3,3.8,4.7,3.8c1.4,0,1,0.9,1-0.5c0-1.4-0.6-4.3-2-4.3ZM80.7,238.4c-1.4,0-1,0.1-1,1.5c0,1.4,0.1,0.5,1.5,0.5c1.4,0,1,0.9,1-0.5c0-1.4-0.1-1.5-1.5-1.5ZM83.2,257.6c-1.4,0-2.7,1.6-2.7,3c0,1.4,2.3,0.8,3.7,0.8c1.4,0,1,0.9,1-0.5c0-1.4-0.6-3.3-2-3.3ZM91.6,262.9c-1.4,0-0.7,1.6-0.7,3c0,1.4,5,4.5,6.3,4.5c1.4,0,1,0.9,1-0.5c0-1.4-5.3-7-6.7-7ZM90.7,246.9c-1.4,0-1,0.1-1,1.5c0,1.4,0.1,0.5,1.5,0.5c1.4,0,1,0.9,1-0.5c0-1.4-0.1-1.5-1.5-1.5ZM102.7,255.4c-1.4,0-5.8,1.8-5.8,3.2c0,1.4,5.6,3.7,7,3.7c1.4,0,2.3-2.3,2.3-3.7c0-1.4-2.1-3.2-3.5-3.2ZM115.7,259.9c-1.4,0-1,0.1-1,1.5c0,1.4,0.1,0.5,1.5,0.5c1.4,0,1,0.9,1-0.5c0-1.4-0.1-1.5-1.5-1.5ZM107.7,271.9c-1.4,0-1,0.1-1,1.5c0,1.4,0.1,0.5,1.5,0.5c1.4,0,1,0.9,1-0.5c0-1.4-0.1-1.5-1.5-1.5ZM110.7,272.9c-1.4,0-1,0.1-1,1.5c0,1.4,0.1,0.5,1.5,0.5c1.4,0,1,0.9,1-0.5c0-1.4-0.1-1.5-1.5-1.5ZM122.2,273.2c-0.9,0-2,1.4-2,2.3c0,0.9,0.1,0.3,1,0.3c0.9,0,3.3,1.3,3.3,0.3c0-0.9-1.4-3-2.3-3ZM119.2,275.9c-0.9,0-0.7,0.1-0.7,1c0,0.9,0.1,0.3,1,0.3c0.9,0,0.7,0.6,0.7-0.3c0-0.9-0.1-1-1-1ZM124.6,262.9c-0.9,0-2.3,3.4-2.3,4.3c0,0.9,3.1,0.7,4,0.7c0.9,0,2.3-2.8,2.3-3.7c0-0.9-3.1-1.3-4-1.3ZM135.9,273.9c-1.4,0-1.2,0.1-1.2,1.5c0,1.4,0.3,0.5,1.7,0.5c1.4,0,0.8,0.9,0.8-0.5c0-1.4,0.1-1.5-1.3-1.5ZM138.9,266.9c-1.4,0,0.7,3.3,0.7,4.7c0,1.4,4.5,1.8,5.8,1.8c1.4,0-1.2-1.8-1.2-3.2c0-1.4-3.9-3.3-5.3-3.3ZM211,134.8c-1.4,0-1.2,0.1-1.2,1.5c0,1.4,0.3,0.5,1.7,0.5c1.4,0,0.8,0.9,0.8-0.5c0-1.4,0-1.5-1.3-1.5ZM205.5,134.8c-1.4,0-1.2,0.1-1.2,1.5c0,1.4,0.3,0.5,1.7,0.5c1.4,0,0.8,0.9,0.8-0.5c0-1.4,0-1.5-1.3-1.5ZM211,143.8c-1.4,0-1.2,0.1-1.2,1.5c0,1.4,0.3,0.5,1.7,0.5c1.4,0,0.8,0.9,0.8-0.5c0-1.4,0-1.5-1.3-1.5ZM204.9,143.7c-1.4,0-1.2,0.1-1.2,1.5c0,1.4,0.3,0.5,1.7,0.5c1.4,0,0.8,0.9,0.8-0.5c0-1.4,0.1-1.5-1.3-1.5ZM213,154.3c-1.4,0-1,1.1-1,2.5c0,1.4,0.4,4.5,1.8,4.5c1.4,0,0.5-4.1,0.5-5.5c0-1.4,0-1.5-1.3-1.5ZM204,154.3c-1.4,0-1.4,1.2-1.4,2.6c0,1.4-1,4.6,0.4,4.6c1.4,0,1.8-3.8,1.8-5.2c0-1.4,0.6-2-0.8-2Z"/><!-- Generated by Jasc WebDraw PR4(tm) on 06/07/01 12:18:39 --></svg>