<svg xmlns="http://www.w3.org/2000/svg" xmlns:xlink="http://www.w3.org/1999/xlink" height="100%" width="100%" viewBox="-63.1792 43.3667 198.427 105.809" preserveAspectRatio="xMidYMid meet" zoomAndPan="disable" onload="if (parent.svgViewerNotifyOnLoad) parent.svgViewerNotifyOnLoad(evt);" xmlns:svg="http://www.w3.org/2000/svg"><defs id="svgEditorDefs"><linearGradient id="grdid1" x1="0%" y1="0%" x2="0" y2="1" spreadMethod="pad" gradientUnits="objectBoundingBox"><stop offset="0.245" style="stop-color:#DEB83A;stop-opacity:0.3;"/><stop stop-color="rgb(123, 104, 238)" offset="0.66"/><stop offset="100%" style="stop-color:teal;stop-opacity:1"/></linearGradient></defs>

	
 <rect id="svgEditorBackground" x="0" y="0" width="210" height="297" style="stroke: rgb(255, 255, 255); fill: none;"/>

<polygon points="58.1466 111.698 64.0633 106.521 66.82 108.874 67.7613 111.9 67.1562 114.791 59.7602 115.463 57.7432 114.589" style="stroke: #000000; stroke-width: 0.5px; fill: #356880; stroke-linecap: butt; stroke-linejoin: round; "/><polygon points="64.0969 106.454 71.7618 98.6543 75.0564 98.5871 77.1407 99.999 77.5597 101.361 78.6871 101.949 80.1663 104.369 79.5612 106.319 81.3093 107.395 81.6455 109.547 80.2335 111.9 67.3915 114.724 67.669 111.631 66.6777 108.933" style="stroke-width: 0.5px; fill: #d9b362; stroke-linecap: butt; stroke-linejoin: round; stroke: #000000; " transform=""/><polygon points="71.761 98.4876 93.9376 87.2635 117.472 75.0085 120.006 75.3705 123.446 76.6378 123.989 77.905 99.5496 89.6722 77.4635 100.741 77.1014 100.107 75.3816 98.6586" style="stroke: #000000; stroke-width: 0.5px; fill: #f1907a; stroke-linecap: butt; stroke-linejoin: round; "/><polygon points="77.5404 101.643 77.7351 100.831 124.532 77.704 126.931 80.0574 128.017 82.954 128.017 84.7643 95.6121 99.9711 79.7491 106.443 80.1111 104.542 78.8439 102.189" style="stroke: #000000; stroke-width: 0.5px; fill: #48d1cc; stroke-linecap: butt; stroke-linejoin: round; " transform=""/><polygon points="80.1111 106.353 101.564 97.3009 128.198 84.9453 128.379 87.2988 128.198 89.8333 106.293 100.514 86.7415 109.204 80.3827 111.874 81.7404 109.883 81.2878 107.439" style="stroke: #000000; stroke-width: 0.5px; fill: #800080; stroke-linecap: butt; stroke-linejoin: round; "/><path d="M-17.701980590820312,84.90403747558594C-83.76164245605469,54.222232818603516,-52.288665771484375,160.78094482421875,-18.357656478881836,131.45372009277344C-4.430522918701172,57.73499298095703,-27.926061630249023,85.525634765625,-18.357585906982422,130.14244079589844C5.634696006774902,148.5341339111328,42.98081970214844,32.18851089477539,2.6225147247314453,55.40089797973633C13.403295516967773,216.2944793701172,23.761089324951172,105.38783264160156,51.139076232910156,111.78482055664062" style="stroke: url(#grdid1); stroke-width: 5px; fill: none; stroke-linecap: round; stroke-linejoin: round; "/></svg>