<svg xmlns="http://www.w3.org/2000/svg" xmlns:xlink="http://www.w3.org/1999/xlink" width="100%" height="100%" viewBox="0 0 240 380" preserveAspectRatio="xMidYMid meet" zoomAndPan="disable" version="1.1" contentScriptType="text/ecmascript" contentStyleType="text/css" onload="if (parent.svgViewerNotifyOnLoad) parent.svgViewerNotifyOnLoad(evt);"><g transform="translate(0,10)"><path fill="#f2cc99" d="M69,18l13-10l17-5l19,2l17,7l14,9l7-8l9-4l12,4l6,15l-3,22l-16,41l-9,16l-1,7l-3,7l-10,6l-2,9l16,70l2,45l-31,91l7,15l-5,19h-45l-8-8l-8-18h-6l-8,19h-49l-2-8l3-7l7-12l4-21l-12-64v-13l3-26l2-39l17-52l17-34l-11-16l-2-7l-6-3l-8-18l1-14l1-12l12-11l10-5h13l9,5Z"/><path fill="#e5b27f" d="M142,79l-6-5l2,8l-5-4v6l-6-6l1,7l-4-5l1,7l-6-5v8l6,9v-3l3,4v-6l3,4l1-5l3,4l1-4l2,4l1-3l2,4l2-4l1-9Z"/><path fill="#eb8080" d="M127,101l5-1l5-1l7,2l-1,4l-8,5Z"/><path fill="#f2cc99" d="M178,229l-21,19l-18,48l-13,53l11,7l21,1l25-15l29-10l23-44v-27l-7-9l-16-2l-24,1Z"/><g fill="#9c826b"><path d="M56,229l-8,12v9l9,31l6,44l8,13l10-23l-5,6l3-10l4-10l-8,7l5-10l-7,5l3-7l-5,2l3-6l-5,1l5-9l4-6h-7l3-4l-6-1l2-5l-4-1l2-6l-8,5l2-7l3-6l-8,5l2-7l-4,3v-6l5-11l-6,3l4-6l-4,2Z"/><path d="M74,363l5,5h2l4-6l4,1l3,7l4,3l5-1l7-11l2,10l3,2l3-2l4-13l2,5l1,8h3l3-4l3-10l3,4l-5,15l-3,1l-33,1l-10-2l-8-5Z"/><path d="M212,250l7,1l9,7l8,12l-1,17l-10,17l-20,28l-28,11l-6,9l-13,5l8-5l2-6v-7l-3-6l-10-6v-4l6-3l4-4h4l-2-4l4,1l-3-5l5,1l-3-3h7l-2,2l2,3h-3l2,5l-5-1l3,4l-6,1v3l7,4l4,5l4-6l1,6l5-9l1,5l4-8v5l5-9l2,4l3-7l2,3l2-6l3-5l8-7l7-10l3-9l-1-13l-4-7l-7-6Z"/><path d="M151,205v33l-2,14l-8,16l-13,14l-7,19l9-1l-4,13l-8,11l-2,13l4,9l13,6v-12l4-7l8-4l11-2l-3-8v-28l4-20l13-12l8,18l15-27l-19-34Z"/><path d="M78,127l12,15l5,13l13,9l17,3l14,8l11,31l2-15l-11-51l-20,8l-21-12Z"/><path d="M21,58l14,5l3,5l-6,1l10,5l-2,5l7,1l7,3l-9,11l-11-13l-2-8l-8-7Z"/><path d="M71,34h-4l-1-7l-7-3l-5-7h-6l-9,5l-9,4l-2,5l3,8l7,7l-9-1l7,9l5,7v9l9-1l4,2l1-13l12-6l9-9v-4l-8,5Z"/><path d="M139,74l2,9l2,6l1,15h4l7,2l-1-20l3-9l-2-5l-5,5h-6Z"/><path d="M105,44l-3,9l6,5l3,4l1-7Z"/><path d="M141,48v6l3,4l-5,4l-2,4l-1-7l1-7Z"/><path d="M98,135l6-5l1,4l3-2v3l4-1l1,3l3-1v3h3l5,2l4-1l5-2l7-5l-1,7l-13,6l-22-2Z"/><path d="M97,116l6,3v-3l8,2l5-1l6-3l5-7l8,4l7-4l-1,7l4,4l4,3l-4,4l-5-1l-13-3l-14,4l-13-1Z"/><path d="M147,33l5,2l5-1l-4-3h7l-4-3h5l-2-4l4,1v-4l2,1l5,1l-3-6l5,4l2-3l1,5l1-1l1,6v5l-3,4l2,2l-2,5l-3,5l-3,4l-4,4l-5,11l-3,2l-2-10l-4-9l-4-8l-2-8Z"/><path d="M85,72l4,2l4,1l7,1l5-1l-3,4h-8l-6-3Z"/><path d="M86,214l-7,7l-3,11l6-7l-4,14l4-5l-4,11l3-2l-2,12l5-5v17l3-13l3,17v-14l5,14l-2-15l2-7l-3,3l1-9l-4,10v-12l-3,9l1-14l-4,9l4-14h-5l8-12l-6,2Z"/></g><g fill="#ffcc7f"><path d="M93,68l3,4l4,1l6-1l2-6l-3-3l-5-1Z"/><path d="M144,64l-2,4v5l4,1l4-1l4-9l-5-2Z"/></g><g fill="#9c826b"><path d="M57,91l-15,20l10-6l-11,12l12-5l-7,8l7-4l-3,8l7-5l-2,8l6-5l-1,8l7-4l-1,8l5-5l1,7l5-6l-1,7l4-4l2,5l4-3h10l-2-6l-8-5l-3-7l-6,6l2-6l-6,3l2-8l-7,4l3-5l-6,3l4-7l-6,3l5-8l-7,5l5-9l-5,5l2-6l-6,2Z"/><path d="M83,79h-7l-9,3l8,1l-10,5l11-1l-11,5l11-1l-8,5l9-1l-7,4l10-1l-8,6l8-2l-4,6l9-5l7-2l-5-3l6-2l-7-2l5-1l-6-2l8-2h6l6,4l2-8l-5-3l-10-2Z"/><path d="M109,77l2,6l-2,6l4,5l4-4v-9l-3-3Z"/><path d="M122,128l5-2l7,1l2,2l-2,1l-4-2l-6,1Z"/><path d="M78,27l4,5l-2,1l2,3l-4,1l4,3l-4,2l3,4l-5,1l2,2l-4,1l8,2l5-2l-4-2l8-2l-5-1l5-3l-3-2l4-3l-6-3l4-3l-4-2l3-3Z"/><path d="M82,17l10,3l-13,1l11,4h-9l13,3l-1-2l8,4v-4l6,7l1-5l3,12l2-6l2,11l2-6l2,15l2-8l3,12l2-11l3,12l1-10l4,9l-1-14l4,4l-4-11l4,3l-4-8l-7-12l9,6l-3-7l6,4l-3-6l7,1l-10-7l-16-5h-22l-16,5l14,1l-12,2l10,2Z"/><path d="M142,234l-10-7l-8-4l-9-3l-5,5l8-1l9,5l8,7l-13-2l-7,3l-2,5l8-4l18,5l-18,2l-10,9h-16l7-10l2-9l6-6l-10,2l4-7l9-8l9-1l10,2l9,7l4,6l4,10Z"/><path d="M115,252l10-4l12,1l6,9l-9-3l-9-1Z"/><path d="M114,212l16,1l10,6l7,6l-3-11l-7-5l-9-2Z"/><path d="M102,263l6-5l9-1l14,1l-15,2l-7,5Z"/><path d="M51,241l-16-17l5,14l-17-14l8,18l-12-3l9,8l-11-1l8,4l12,4l2,9l5,8l3,23l1,23l3,11l9,23v-28l-7-61l-6-16Z"/><path d="M2,364l7,3l5-1l4-11l2,9l6,2l5-9l4,7h4l3-7l5,6l6-3l6-3l-5,12l-47,4Z"/><path d="M7,349l12-4l6-6l-7,2l5-8l5-7h-5l4-6l-4-4l2-5l-5-13l-5-21l-3-13l-3-15l1-26l-7,25l2,13l10,46l2,19l-6,17Z"/><path d="M11,226l4,5l10,5l-7-9Z"/><path d="M13,214l6,3l13,10l-9-13l-7-6l-1-18l9-42l7-27l-7,16l-10,33l-6,19Z"/><path d="M202,254l-7,4l4,2l-6,3h4l-7,5h6l-5,5l-3,9l12-10h-6l7-6l-4-1l7-3l-4-4l4-2Z"/></g><g fill="#845433"><path d="M151,213l14-1l14,13l10,21l-2,16l-8,13l-3-12l1-16l-6-14l-8-3l2,21l-8,13l-11,34l-1,23l-12,5l10-41l11-25l-1-20Z"/><path d="M91,132l4,13l2,9l7-6l3,7l2-5l2,8l4-6l3,7l2-6l5,8l1-6l7,9l-1-10l5,9v-11l5,11l5,23l5,6l-4-25l-7-24l-17,2l-19-2Z"/></g><g fill="#9c826b"><path d="M31,57l-8-5l3-1l-6-7l3-2l-2-6l1-7l3-6l-1,9l6,11l-4-2l4,9l-4-2Z"/><path d="M147,21l2,7l6-7l6-5l6-2l8,1l-2-4l-12-2Z"/><path d="M181,39l-6,12l-6,6l2,8l-6,3v7l-5,1l2,15l9-20l9-20Z"/><path d="M132,346l7,2l2-2l1-5l5,1l-4,13l-10-5Z"/><path d="M146,355l5-3l4-4l2-5l3,6l-9,7l-4,1Z"/><path d="M99,266l1,15l-6,24l-8,17l-8,10l-6,14l1-15l18-40Z"/><path d="M20,347l12-5l13-2l9,5l-9,5l-3,3l-4-3l-7,3l-2,3l-6-6l-4,3l-4-4Z"/><path d="M78,344h8l6,5l-4,9l-4-6Z"/><path d="M93,347l11-3l13,1l7,9l-3,3l-5-6h-4l-4,4l-6-4Z"/></g><g fill="#000000"><path d="M105,12l6,6l2,6v5l6,5l-3-11l-4-7Z"/><path d="M122,27l3,7l2,9l1-9l-3-5Z"/><path d="M115,13l7,6v-4l-9-5Z"/></g><g fill="#ffe5b2"><path d="M116,172l-9,10l-9,11v-10l-8,16l-1-10l-5,18l4-1l-1,9l8-9l-2,13l-2,11l7-14l-1,10l7-12l8-5l-8-1l9-6l13-2l13,7l-7-9l10,5l-8-11l8,3l-8-8l6-2l-10-4l6-4h-10l-1-6l-9,9Z"/><path d="M74,220l-7,10v-9l-8,14l4-2l-3,15l10-16l-5,17l6-6l-4,13l6-6l-4,12l4-3l-2,8l5-5l-4,9l6-1l-2,5l6-1l-4,16l8-11v10l6-15l-4,1l-1-11l-5,6v-12l-5-1l1-10l-5-1l4-13l-5,3Z"/><path d="M133,230l14,12l1,8l-3,4l-7-7l-9-1l13-1l-4-4l-10-4l9,1Z"/><path d="M133,261h-8l-9,2l-5,4l14-2Z"/><path d="M121,271l-12,2l-6,6l-4,26l-7,11l-7,11l-2,8l6,5l8,1l-3-5h7l-5-5l7-1l-6-3l11-2l-9-3l10-1l-9-3l10-1l-5-3l5-2l-3-2l6-2l-8-2l9-3l-9-2l10-3l-8-3l8-1l-7-1l9-2l-8-2l8-3h-8l9-3l-6-2l6-2l-4-1l5-2l-4-2Z"/><path d="M79,364l-5-5v-6l2-6l4,4l3,5l-1,4Z"/><path d="M91,363l2-7l4-3l6,2l2,5l-2,6l-4,5l-5-3Z"/><path d="M110,355l4-2l4,4l-1,6l-4,6l-2-7Z"/><path d="M126,354l-3,4l1,9l2,2l3-8v-4Z"/><path d="M30,154l-6,12l-4,16l3,12l6,14l8,10l4-8v13l5-9v13l6-11v11l9-11l-2,9l9-12l5,6l-3-12l7,5l-8-12l8,2l-7-8l8,3l-10-10l8-5h-12l-6-7v10l-5-8l-3,9l-4-15l-2,11l-5-15l-3,5v-10l-6,4Z"/><path d="M44,130l-3,7l4-1l-2,14l5-8v15l5-7l-1,14l8-8l1,13l3-4l2,10l4-8l4,9l3-8l3,15l5-11l5,10l3-8l5,7l1-8l5,2l1-6l9-1l-12-5l-7-6l-1,9l-4-12l-3,8l-5-13l-7,10l-3-11l-4,7l-1-12l-5,5v-10l-4,7l-2-12l-4,9v-14l-3,6l-2-9Z"/><path d="M13,216l6,3l17,12l-14-8l-6-1l6,5l-10-3l1-4h3Z"/><path d="M10,231l4,5l11,3l2-2l-8-3Z"/><path d="M9,245l5-3l11,3h-12Z"/><path d="M33,255l-7-2l-8,1l7,2l-7,2l9,2l-9,3l9,2l-8,2l10,3l-8,2l8,4l-8,2l9,3l-8,2l9,4l-7,1l8,4l-9,1l11,5l-8,1l11,4l-5,2l7,4h-6l6,5h-5l6,4l-6-1l6,4h-6l7,5h-8l7,4l-7,2l6,1l-6,4h9l12,4l-5-4l3-2l-5-5h3l-5-5h4l-4-4h3l-3-5l1-10l-1-20l-2-12l-7-13Z"/><path d="M7,358l2-7h5l3,8l-6,5Z"/><path d="M44,354l5-3l3,4l-3,6Z"/><path d="M32,357l5-4l3,5l-4,3Z"/><path d="M139,334l6-4h9l4,4l-4,7l-2,7l-7,2l4-10l-2-4l-6,3l-2,6l-3-3v-3Z"/><path d="M208,259h7l-3-4l8,4l4,4l1,11l-1,9l-4,9l-12,8l-2,8l-3-4l-4,11l-2-6l-2,9l-2-5l-3,9v-6l-5,9l-3-7l-2,7l-8-4l6-1l-2-7l10-1l-6-5h8l-4-4l7-1l-5-3l9-5l-8-4l10-2l-5-2l9-3l-7-3l9-3l-5-2l9-4l-7-2l9-4h-5l8-3Z"/><path d="M106,126v5l3,1l2,2l4-2v3l4-2l-1,4h5h5l5-3l3-4v-3l-4-3l-14,4h-6l-6-2v0v0Z"/><path d="M107,114l-6-4l-3-8l7-5l6,1l8,4l2,6l-3,4l-5,3Z"/><path d="M148,106l-3,4l1,6l4,2l2-7l-1-4Z"/><path d="M80,55l-10-3l5,6l-12-1l9,4h-15l10,5l-10,1l5,2l-8,2l7,2l-7,4l9,1l-10,7l7-1l-4,6l13-6l-6-2l12-6l-5-1l7-3l-5-1l6-2l-6-3l9,1l-3-3l4-1l-2-3l6,2Z"/><path d="M87,56l4-4l5-2l6,6h-4l-6,4Z"/><path d="M85,68l4,5l9,3l8-2l-10-1l-5-3Z"/><path d="M115,57l-1,7h-3l4,11l7,6v-7l4,5v-5l5,4l-1-6l3,5l-2-9l-5-7l-7-4Z"/><path d="M145,48l-2,5l4,6h4l-1-4Z"/><path d="M26,22l8-7l9-5h9l7,6l-12-1l-15,7Z"/><path d="M160,19l-8,7l-3,8l5-1l-2-3h5l-2-4l3,1l-1-4h4Z"/></g><g fill="#000000"><path d="M98,117l7,5h4l-4-5l8,3h8l9-8l-2-4l-5-5v-4l5,2l4,5l3,3l7-4v-4h3v-10l3,10l-3,4l-9,7l-1,4l8,8l5-4l2,2l-8,6l-9-6l-12,3l-9,1l-9-1l-3,4l-4-5Z"/><path d="M146,118h6v-3h-3Z"/><path d="M148,112l6-1v-2h-5Z"/><path d="M106,112l2,3l6,1l4-2Z"/><path d="M108,108l3,2h5l3-2Z"/><path d="M106,104l3,1l8,1l-2-2Z"/><path d="M50,25l-9,1l-7,7l5,10l10,15l-13-7l11,17l8,1l-1-10l7-2l13-11l-14,6l7-10l-10,6l4-8l-7,5l6-9l-1-7l-11,9l4-8l-5,2Z"/><path d="M147,34l5,7l3,8l6,4l-4-6h7l-6-4l10,1l-9-4l5-3h5l-5-4l5,1l-4-6l5,2v-5l3,4l2-2l1,5l-3,4l2,3l-3,3v4l-4,3l2,6l-8,2l-4,6l-3-5l-2-8l-4-4Z"/><path d="M155,71l4,9l-2,13v9l-2,6l-5-7l-1-8l5,8l-2-10l-1-8l4-4Z"/><path d="M112,78l3,3l-1,10l-2-4l1-5Z"/><path d="M78,28l-14-11l-6-6l-11-2l-11,1l-8,6l-7,10l-3,15l2,10l3,10l10,4l-5,3l9,6l-1,7l7,6l5,3l-5,10l-3-2l-1-8l-8-10l-1-8l-8-1l-5-10l-3-15l2-18l7-11l10-8l12-3h9l11,6Z"/><path d="M67,18l9-9l11-4l14-3l17,1l17,5l14,12v6l-5-7l-12-7l-11-3l-16-2l-16,1l-13,6l-6,6Z"/><path d="M56,98l-8,8l8-3l-9,9l9-2l-4,5l5-2l-5,8l10-6l-4,8l7-4l-2,6l6-4l-1,6l6-2v4l5-1l4,4l11,3l-1-6l-8-2l-4-5l-5,4l-1-5l-4,3v-7l-5,4v-4h-4l2-5l-4,1v-3l-3,1l4-6l-4,2l3-6l-5,1Z"/><path d="M101,132l2,6l3-4v5l6-3l-1,6l4-3l-1,4l5-1l6,3l6-3l4-4l5-4v-5l3,6l2,14l5,22l-1,13l-4-19l-4-15l-5-3l-4,4l-1-2l-5,3l-1-2l-4,2l-4-4l-6,4l-1-4l-5,1l-1-4l-6,5l-2-12l-2-6v-2l4,2Z"/><path d="M41,94l-9,16l-9,22l-11,31l-6,27l1,27l-2,19l-2,11l6-17l3-19v-26l6-25l8-26l9-24l8-11Z"/><path d="M32,246l9,4l9,7l2,10l1,28v28l6,27l-5,13l-3,2l-7,1l-2-6l-2,12h14l5-6l3-13l9-1l4-17l-2-5l-7-12l2-16l-4-8l3-6l-4-2v-7l-4-4l-1-8l-2-5l-6-15l-8-12l2,11l-12-10l3,8Z"/><path d="M134,324l12-4l13,2l14,5l6,10v12l-7,6l-14,2l12-7l4-7l-4-10l-7-5l-11-2l-18,3Z"/><path d="M173,339l10-5l1,4l7-9l3,3l5-9l3,2l4-7l3,2l4-11l8-6l7-7l4-7l2-10l-1-10l-3-7l-5-6l-6-3l-11-1h-10l12-3l13,1l9,7l5,8l1,12v14l-6,14l-11,18l-3,12l-6,7l-12,7l-22-1Z"/><path d="M165,296l-7,5l-2,9v13l6,1l-3-6l3-10v-4Z"/><path d="M99,252l6-8l2-10l8-6h6l10,7l-9-2l-9,2l-4,11l12-7l12,4h-12l-11,8Z"/><path d="M117,252l7-5l10,2l2,4l-10-1Z"/><path d="M117,218l15,6l12,9l-4-8l-8-6l-15-1v0v0Z"/><path d="M122,212l12,2l9,7l-2-8l-9-3Z"/><path d="M69,352l1,11l6,10l10,5l11,1h11l12-2l8,1l4-5l3-12l-2-3l-1,8l-5,9l-6-1v-12l-2,5l-2,7l-7,2v-14l-3-5l-1,14l-2,4l-7,1l-7-1v-7l-4-6l-3,2l3,5l-1,4l-7-3l-5-8l-2-11Z"/><path d="M100,360l-4,3l3,6l3-5Z"/><path d="M115,360l-3,3l2,6l3-5Z"/><path d="M127,362l-2,2l1,5l2-4Z"/><path d="M5,255l2,21l4,28l4,16l-2,14l-7,14l-4,5l-2,10l5,9l7,2l13-2h13l6-3l-2-2l-6,1l-5,1l-1-9l-3,8l-7,2l-4-9l-1,7l-5,1l-7-3v-7l3-7l5-4l6-17l2-15l-7-25l-3-17Z"/><path d="M10,358l-3,4l3,4l1-4Z"/><path d="M25,357l-3,3l2,6l3-6Z"/><path d="M37,357l-3,4l2,4l2-4Z"/><path d="M49,356l-3,3l1,5l3-4Z"/><path d="M130,101l2,1l3-1l4,1l4,1l-1-2l-5-1h-4Z"/><path d="M106,48l-1,4l3,4l1-4Z"/><path d="M139,52v4l1,4l2-2l-1-2Z"/><path d="M25,349l4,2l1,4l3-5l4-2l5,3l3-4l4-2l-5-2l-8,2Z"/><path d="M98,347l7,4l2,3l2-5h6l5,4l-2-4l-5-3h-9Z"/><path d="M83,348l4,4v5l2-6l-2-3Z"/><path d="M155,107h8h7l16,1l-11,1h-20Z"/><path d="M153,114l9-1l13-1l17,2h-19l-19,1Z"/><path d="M152,118l12,2l16,3l17,6l-28-6l-18-3Z"/><path d="M68,109l19-3h20l-1,2h-18Z"/><path d="M105,111l-10,1l-16,2l-8,2l14-1l17-2Z"/><path d="M108,101l-10-2h-11h-9l15,1l12,2Z"/><path d="M85,63h6l6-3h7l4,2l3,7l1,6l-2-1l-2-3l-5,2l3-4l-1-4l-2-1v3l-1,3h-3l-2-4l-3,1l3,5l-9-5l-4-1Z"/><path d="M140,74l1-8l3-5h6l6,1l-3,8l-3,3l2-8h-2l1,3l-2,3h-3l-2-5l-1,4v4Z"/><path d="M146,20l10-9l7-2h9l6,5l4,4l2,14l-2,10v10l-5,6l-1,9l-5,9l-6,14l-8,15l3-13l4-7l4-7l-1-5l6-7l-1-4l3-3l-1-4l3-2l3-7l1-17l-2-8l-6-8l-7-2l-7,2l-6,5l-5,5Z"/><path d="M150,187l-2,24l2,22l3,14l-5,20l-13,16l-10,16l11-7l-5,21l-9,15v17l7,7l4,7v8l4-8l11-3l-8-6l-9-3l-2-7l3-8l8-4l-3-6l3-18l14-39l3-21l-2-21l6-3l14,9l11,18l-1,13l-9,15l2,12l7-10l3-16l8-8l-7-17l-15-23Z"/><path d="M147,338l-5,3l1,4l-2,9l6-11Z"/><path d="M157,342l-1,7l-6,7l7-3l6-7l-1-4Z"/><path d="M99,265l-3,19l-4,15l-19,40v-6l14-33Z"/></g></g></svg>