<svg xmlns="http://www.w3.org/2000/svg" xmlns:xlink="http://www.w3.org/1999/xlink" height="100%" width="100%" viewBox="0 0 300 300" onload="if (parent.svgViewerNotifyOnLoad) parent.svgViewerNotifyOnLoad(evt);" preserveAspectRatio="xMidYMid meet" zoomAndPan="disable">
<g transform="matrix(0.5 0 0 0.5 100 100)" style="fill-opacity:1; fill:none;"> <g style="fill: #ffffff; stroke:#000000; stroke-width:0.172">  <path d="M-122.3,84.3c0,0,0.1,1.9-0.7,1.9c-0.8,0-17.3-48.1-37.8-45.9c0,0,17.8-7.4,38.5,44Z"/> </g> <g style="fill: #ffffff; stroke:#000000; stroke-width:0.172">  <path d="M-118.8,81.3c0,0-0.5,1.8-1.3,1.5c-0.8-0.3,0.1-51.1-20-56c0,0,19.2-0.9,21.3,54.5Z"/> </g> <g style="fill: #ffffff; stroke:#000000; stroke-width:0.172">  <path d="M-91.3,123.6c0,0,1.6,1,1.2,1.6c-0.5,0.7-49.6-12.1-59.1,6.2c0,0,3.7-18.9,57.9-7.9Z"/> </g> <g style="fill: #ffffff; stroke:#000000; stroke-width:0.172">  <path d="M-94.1,133.8c0,0,1.9,0.4,1.6,1.2c-0.2,0.8-50.9,4.1-54.1,24.5c0,0-2.5-19.1,52.5-25.7Z"/> </g> <g style="fill: #ffffff; stroke:#000000; stroke-width:0.172">  <path d="M-98.3,128.3c0,0,1.8,0.7,1.4,1.4c-0.3,0.7-51-3.3-57.1,16.4c0,0,0.4-19.2,55.7-17.8Z"/> </g> <g style="fill: #ffffff; stroke:#000000; stroke-width:0.172">  <path d="M-109,110.1c0,0,1.3,1.4,0.7,1.9c-0.6,0.5-44.4-25.3-58.5-10.3c0,0,8.7-17.1,57.9,8.4Z"/> </g> <g style="fill: #ffffff; stroke:#000000; stroke-width:0.172">  <path d="M-116.6,114.3c0,0,1.5,1.2,0.9,1.8c-0.6,0.6-47-20.1-59.3-3.6c0,0,6.7-18,58.4,1.8Z"/> </g> <g style="fill: #ffffff; stroke:#000000; stroke-width:0.172">  <path d="M-119.2,118.3c0,0,1.6,1,1.1,1.7c-0.5,0.7-49.3-13.6-59.3,4.5c0,0,4.2-18.8,58.1-6.2Z"/> </g> <g style="fill: #ffffff; stroke:#000000; stroke-width:0.172">  <path d="M-108.4,118.9c0,0,1.1,1.5,0.4,2c-0.7,0.4-40.8-30.8-56.7-17.7c0,0,10.9-15.9,56.3,15.7Z"/> </g> <g style="fill: #ffffff; stroke:#000000; stroke-width:0.172">  <path d="M-128.2,90c0,0,0.6,1.8-0.2,2c-0.8,0.2-29.4-41.8-48.6-34.2c0,0,15.2-11.8,48.8,32.2Z"/> </g> <g style="fill: #ffffff; stroke:#000000; stroke-width:0.172">  <path d="M-127.5,97c0,0,1,1.6,0.2,2c-0.7,0.4-37.7-34.5-54.8-22.9c0,0,12.3-14.8,54.6,20.9Z"/> </g> <g style="fill: #ffffff; stroke:#000000; stroke-width:0.172">  <path d="M-127.6,101.3c0,0,1.1,1.5,0.4,2c-0.7,0.4-40.8-30.8-56.7-17.7c0,0,10.9-15.9,56.3,15.7Z"/> </g> <g style="fill: #ffffff; stroke:#000000">  <path d="M-129.8,103.1c0.5,6,1.5,12.6,3.2,15.7c0,0-3.6,12.4,5.2,25.6c0,0-0.4,7.2,1.2,10.4c0,0,4,8.4,8.8,9.2c3.9,0.6,12.6,3.7,22.5,5.1c0,0,17.1,14.1,13.9,26.9c0,0-0.4,16.4-4,18c0,0,11.6-11.2,2,5.6l-4.4,18.8c0,0,25.6-21.6,10-3.2l-10,26c0,0,19.6-18.4,12.4-10l-3.2,8.8c0,0,43.2-27.2,12.4,2.4c0,0,8-3.6,12.4-0.8c0,0,6.8-1.2,6,0.4c0,0-20.8,10.4-24.4,28.8c0,0,8.4-10,5.2,0.8l0.4,11.6c0,0,4-21.6,3.6,16c0,0,19.2-18,7.6,2.8v16.8c0,0,15.2-16.4,8.8-3.6c0,0,10-8.8,6,6.4c0,0-0.8,10.4,3.6-0.8c0,0,16-30.6,10-4.4c0,0-0.8,19.2,4,4.4c0,0,0.4,10.4,9.6,17.6c0,0-1.2-50.8,11.6-14.8l4,16.4c0,0,2.8-9.2,2.4-14.4c0,0,14.8-16.4,8,8c0,0,15.2-22.8,12-9.6c0,0-7.6,16-6,20.8c0,0,16.8-34.8,18-36.4c0,0-2,42.4,8.8,6.4c0,0,5.6,12,2.8,16.4c0,0,8-8,7.2-11.2c0,0,4.6-8.2,7.4,5.4c0,0,1.8,9.4,3.4,6.2c0,0,4,24,5.2,1.2c0,0,1.6-13.6-5.6-25.2c0,0,0.8-3.2-2-7.2c0,0,13.6,21.6,6.4-7.2c0,0,11.2,8,12.4,8c0,0-13.6-23.2-4.8-18.4c0,0-5.2-10.4,12.8,1.6c0,0-16-16,1.6-6.4c0,0,8,6.4,0.4-3.6c0,0-14.4-16,7.6,2c0,0,11.6,16.4,12.4,19.2c0,0-10-29.2-14.4-32c0,0,8.4-36.4,49.6-20.8c0,0,6.8,17.2,11.2-1.2c0,0,12.8-6.4,24,21.2c0,0,4-13.6,3.2-16.4c0,0,6.8,1.2,6,0c0,0,13.2,4.4,14.4,3.6c0,0,6.8,6.8,7.2,3.2c0,0,9.2,2.8,7.2-0.8c0,0,8.8,15.6,9.2,19.2l2.4-14l2,2.8c0,0,1.6-7.6,0.8-8.8c-0.8-1.2,20,6.8,24.8,27.6l2,8.4c0,0,6-14.8,4.4-18.8c0,0,5.2,0.8,5.6,5.2c0,0,4-23.2-0.8-29.2c0,0,4.4-0.8,5.6,2.8v-7.2c0,0,7.2,0.8,7.2-1.6c0,0,4.4-4,6.4,0.8c0,0-12.4-35.2,6-16c0,0,7.2,10.8,3.6-8c-3.6-18.8-7.6-20.4-2.8-20.8c0,0,0.8-3.6-1.2-5.2c-2-1.6,1.2,0,1.2,0c0,0,4.8,4-0.4-18c0,0,6.4,1.6-5.6-27.6c0,0,2.8-2.4-1.2-10.8c0,0,8,4.4,10.8,2.8c0,0-0.4-1.6-3.6-5.6c0,0-21.6-54.8-1.2-32.8c0,0,11.9,13.6,5.4-9.3c0,0-9.1-24-8.3-28.3l-429.5,23Z"/> </g> <g style="fill: #cc7226; stroke:#000000">  <path d="M299.7,80.2c0.6,0.2,2.8,1.3,4.1,3c0,0,6.8,10.8,1.6-7.6c0,0-9.2-28.8-0.4-17.6c0,0,6,7.2,2.8-6.4c-3.9-16.4-6.4-22.8-6.4-22.8c0,0,11.6,4.8-15.2-34.8l8.8,3.6c0,0-19.6-39.6-41.2-44.8l-8-6c0,0,38.4-38,25.6-74.8c0,0-6.8-5.2-16.4,4c0,0-6.4,4.8-12.4,3.2c0,0-30.8,1.2-32.8,1.2c-2,0-36.8-37.2-102.4-19.6c0,0-5.2,2-9.6,0.8c0,0-18.4-16-67.2,6.8c0,0-10,2-11.6,2c-1.6,0-4.4,0-12.4,6.4c-8,6.4-8.4,7.2-10.4,8.8c0,0-16.4,11.2-21.2,12c0,0-11.6,6.4-16,16.4l-3.6,1.2c0,0-1.6,7.2-2,8.4c0,0-4.8,3.6-5.6,9.2c0,0-8.8,6-8.4,10.4c0,0-1.6,5.2-2.4,10c0,0-7.2,4.8-6.4,7.6c0,0-7.6,14-6.4,20.8c0,0-6.4-0.4-9.2,2c0,0-0.8,4.8-2.4,5.2c0,0-2.8,1.2-0.4,5.2c0,0-1.6,2.8-2,4.4c0,0,0.8,2.8-3.6,8.4c0,0-6.4,18.8-4.4,24c0,0,0.4,4.8-2.4,6.4c0,0-3.6-0.4,4.8,11.6c0,0,0.8,1.2-2.4,3.6c0,0-17.2,3.6-19.6,20c0,0-13.6,14.8-13.6,20c0,2.3,0.3,5.5,1,10.1c0,0-0.6,8.3,27,9.1c27.6,0.8,402.7-31.4,402.7-31.4Z"/> </g> <g style="fill: #cc7226">  <path d="M-115.6,102.6c-25-39.4-10.6,17-10.6,17c8.8,34.4,138.4-3.2,138.4-3.2c0,0,168.8-30.4,180-34.4c11.2-4,106.4,2.4,106.4,2.4l-5.6-16.8c-64.8-46.4-84-23.2-97.6-27.2c-13.6-4-11.2,5.6-14.4,6.4c-3.2,0.8-42.4-24-48.8-23.2c-6.4,0.8-31.7-23-16.8,8.8c16,34-58.4,39.2-75.2,28c-16.8-11.2,7.2,18.4,7.2,18.4c18.4,20-16,3.2-16,3.2c-34.4-12.8-58.4,12.8-61.6,13.6c-3.2,0.8-8,4-8.8-2.4c-0.8-6.4-8.3-23.1-40,3.2c-20,16.6-33.8-5.4-33.8-5.4l-2.8,11.6Z"/> </g> <g style="fill: #e87f3a">  <path d="M133.5,25.3c-6.4,0.8-31.8-22.9-16.8,8.8c16.6,35.2-58.4,39.2-75.2,28c-16.8-11.2,7.2,18.4,7.2,18.4c18.4,20-16,3.2-16,3.2c-34.4-12.8-58.4,12.8-61.6,13.6c-3.2,0.8-8,4-8.8-2.4c-0.8-6.4-8.2-22.9-40,3.2c-21.2,17.3-34.7-4.1-34.7-4.1l-3.2,10.1c-25-39.8-9.9,18.5-9.9,18.5c8.8,34.4,139.1-4.5,139.1-4.5c0,0,168.8-30.4,180-34.4c11.2-4,105.5,2.3,105.5,2.3l-5.5-17.3c-64.8-46.4-83.2-22.6-96.8-26.6c-13.6-4-11.2,5.6-14.4,6.4c-3.2,0.8-42.4-24-48.8-23.2Z"/> </g> <g style="fill: #ea8c4d">  <path d="M134.8,27.1c-6.4,0.8-31.1-23.2-16.8,8.8c16.2,36.2-58.4,39.2-75.2,28c-16.8-11.2,7.2,18.4,7.2,18.4c18.4,20-16,3.2-16,3.2c-34.4-12.8-58.4,12.8-61.6,13.6c-3.2,0.8-8,4-8.8-2.4c-0.8-6.4-8-22.8-40,3.2c-22.5,18.1-35.7-2.8-35.7-2.8l-3.6,8.6c-23.8-39-9.3,20-9.3,20c8.8,34.4,139.7-5.8,139.7-5.8c0,0,168.8-30.4,180-34.4c11.2-4,104.7,2.3,104.7,2.3l-5.5-17.8c-64.8-46.4-82.4-22-96-26c-13.6-4-11.2,5.6-14.4,6.4c-3.2,0.8-42.4-24-48.8-23.2Z"/> </g> <g style="fill: #ec9961">  <path d="M136.1,28.8c-6.4,0.8-31.1-23.2-16.8,8.8c16.8,37.6-58.9,38.8-75.2,28c-16.8-11.2,7.2,18.4,7.2,18.4c18.4,20-16,3.2-16,3.2c-34.4-12.8-58.4,12.8-61.6,13.6c-3.2,0.8-8,4-8.8-2.4c-0.8-6.4-7.9-22.6-40,3.2c-23.7,18.8-36.6-1.5-36.6-1.5l-4,7.1c-21.8-36.8-8.6,21.5-8.6,21.5c8.8,34.4,140.4-7.1,140.4-7.1c0,0,168.8-30.4,180-34.4c11.2-4,103.8,2.2,103.8,2.2l-5.4-18.3c-64.8-46.4-81.6-21.5-95.2-25.5c-13.6-4-11.2,5.6-14.4,6.4c-3.2,0.8-42.4-24-48.8-23.2Z"/> </g> <g style="fill: #eea575">  <path d="M137.4,30.6c-6.4,0.8-30.6-23.5-16.8,8.8c16.8,39.2-58.4,39.2-75.2,28c-16.8-11.2,7.2,18.4,7.2,18.4c18.4,20-16,3.2-16,3.2c-34.4-12.8-58.4,12.8-61.6,13.6c-3.2,0.8-8,4-8.8-2.4c-0.8-6.4-7.8-22.4-40,3.2c-24.9,19.6-37.5-0.2-37.5-0.2l-4.4,5.6c-19.8-34.8-7.9,23-7.9,23c8.8,34.4,141-8.4,141-8.4c0,0,168.8-30.4,180-34.4c11.2-4,102.9,2.1,102.9,2.1l-5.3-18.8c-64.8-46.4-80.8-20.9-94.4-24.9c-13.6-4-11.2,5.6-14.4,6.4c-3.2,0.8-42.4-24-48.8-23.2Z"/> </g> <g style="fill: #f1b288">  <path d="M138.7,32.3c-6.4,0.8-32.4-22.7-16.8,8.8c19.2,38.8-58.4,39.2-75.2,28c-16.8-11.2,7.2,18.4,7.2,18.4c18.4,20-16,3.2-16,3.2c-34.4-12.8-58.4,12.8-61.6,13.6c-3.2,0.8-8,4-8.8-2.4c-0.8-6.4-7.7-22.3-40,3.2c-26.2,20.3-38.4,1.1-38.4,1.1l-4.8,4.1c-18-33.2-7.2,24.5-7.2,24.5c8.8,34.4,141.7-9.7,141.7-9.7c0,0,168.8-30.4,180-34.4c11.2-4,102,2,102,2l-5.2-19.3c-64.8-46.4-80-20.3-93.6-24.3c-13.6-4-11.2,5.6-14.4,6.4c-3.2,0.8-42.4-24-48.8-23.2Z"/> </g> <g style="fill: #f3bf9c">  <path d="M140.1,34.1c-6.4,0.8-32.7-22.5-16.8,8.8c20.4,40-58.4,39.2-75.2,28c-16.8-11.2,7.2,18.4,7.2,18.4c18.4,20-16,3.2-16,3.2c-34.4-12.8-58.4,12.8-61.6,13.6c-3.2,0.8-8,4-8.8-2.4c-0.8-6.4-7.5-22.1-40,3.2c-27.4,21.1-39.4,2.3-39.4,2.3l-5.2,2.7c-16-30.2-6.6,26.1-6.6,26.1c8.8,34.4,142.3-11.1,142.3-11.1c0,0,168.8-30.4,180-34.4c11.2-4,101.2,2,101.2,2l-5.2-19.9c-64.8-46.4-79.2-19.7-92.8-23.7c-13.6-4-11.2,5.6-14.4,6.4c-3.2,0.8-42.4-24-48.8-23.2Z"/> </g> <g style="fill: #f5ccb0">  <path d="M141.4,35.8c-6.4,0.8-33.8-21.9-16.8,8.8c22,39.6-58.4,39.2-75.2,28c-16.8-11.2,7.2,18.4,7.2,18.4c18.4,20-16,3.2-16,3.2c-34.4-12.8-58.4,12.8-61.6,13.6c-3.2,0.8-8,4-8.8-2.4c-0.8-6.4-7.4-21.9-40,3.2c-28.7,21.8-40.3,3.6-40.3,3.6l-5.6,1.2c-14.4-28.4-5.9,27.6-5.9,27.6c8.8,34.4,143-12.4,143-12.4c0,0,168.8-30.4,180-34.4c11.2-4,100.3,1.9,100.3,1.9l-5.1-20.4c-64.8-46.4-78.4-19.1-92-23.1c-13.6-4-11.2,5.6-14.4,6.4c-3.2,0.8-42.4-24-48.8-23.2Z"/> </g> <g style="fill: #f8d8c4">  <path d="M142.7,37.6c-6.4,0.8-33.8-21.9-16.8,8.8c22,39.6-58.4,39.2-75.2,28c-16.8-11.2,7.2,18.4,7.2,18.4c18.4,20-16,3.2-16,3.2c-34.4-12.8-58.4,12.8-61.6,13.6c-3.2,0.8-8,4-8.8-2.4c-0.8-6.4-7.3-21.8-40,3.2c-29.9,22.6-41.2,4.9-41.2,4.9l-6-0.3c-13.6-26.4-5.2,29.1-5.2,29.1c8.8,34.4,143.6-13.7,143.6-13.7c0,0,168.8-30.4,180-34.4c11.2-4,99.4,1.8,99.4,1.8l-5-20.9c-64.8-46.4-77.6-18.5-91.2-22.5c-13.6-4-11.2,5.6-14.4,6.4c-3.2,0.8-42.4-24-48.8-23.2Z"/> </g> <g style="fill: #fae5d7">  <path d="M144,39.3c-6.4,0.8-33.5-22.1-16.8,8.8c22,40.8-58.4,39.2-75.2,28c-16.8-11.2,7.2,18.4,7.2,18.4c18.4,20-16,3.2-16,3.2c-34.4-12.8-58.4,12.8-61.6,13.6c-3.2,0.8-8,4-8.8-2.4c-0.8-6.4-7.1-21.6-40,3.2c-31.1,23.3-42.1,6.2-42.1,6.2l-6.4-1.8c-13-24-4.5,30.6-4.5,30.6c8.8,34.4,144.3-15,144.3-15c0,0,168.8-30.4,180-34.4c11.2-4,98.5,1.7,98.5,1.7l-4.9-21.4c-64.8-46.4-76.8-18-90.4-22c-13.6-4-11.2,5.6-14.4,6.4c-3.2,0.8-42.4-24-48.8-23.2Z"/> </g> <g style="fill: #fcf2eb">  <path d="M145.3,41.1c-6.4,0.8-32.4-22.6-16.8,8.8c21.2,42.8-58.4,39.2-75.2,28c-16.8-11.2,7.2,18.4,7.2,18.4c18.4,20-16,3.2-16,3.2c-34.4-12.8-58.4,12.8-61.6,13.6c-3.2,0.8-8,4-8.8-2.4c-0.8-6.4-7-21.4-40,3.2c-32.4,24.1-43.1,7.5-43.1,7.5l-6.8-3.3c-12.8-23.2-3.9,32.1-3.9,32.1c8.8,34.4,144.9-16.3,144.9-16.3c0,0,168.8-30.4,180-34.4c11.2-4,97.7,1.7,97.7,1.7l-4.9-21.9c-64.8-46.4-76-17.4-89.6-21.4c-13.6-4-11.2,5.6-14.4,6.4c-3.2,0.8-42.4-24-48.8-23.2Z"/> </g> <g style="fill: #ffffff">  <path d="M-115.8,119.6c-12.8-22-3.2,33.6-3.2,33.6c8.8,34.4,145.6-17.6,145.6-17.6c0,0,168.8-30.4,180-34.4c11.2-4,96.8,1.6,96.8,1.6l-4.8-22.4c-64.8-46.4-75.2-16.8-88.8-20.8c-13.6-4-11.2,5.6-14.4,6.4c-3.2,0.8-42.4-24-48.8-23.2c-6.4,0.8-31.6-23-16.8,8.8c22.2,47.7-60.8,37.6-75.2,28c-16.8-11.2,7.2,18.4,7.2,18.4c18.4,20-16,3.2-16,3.2c-34.4-12.8-58.4,12.8-61.6,13.6c-3.2,0.8-8,4-8.8-2.4c-0.8-6.4-6.9-21.3-40,3.2c-33.6,24.8-44,8.8-44,8.8l-7.2-4.8Z"/> </g> <g style="fill: #000000">  <path d="M-74.2,149.6c0,0-7.2,11.6,13.6,24.8c0,0,1.4,1.4-16.6-2.8c0,0-6.2-2-7.8-12.4c0,0-4.8-4.4-9.6-10c-4.8-5.6,20.4,0.4,20.4,0.4Z"/> </g> <g style="fill: #cccccc">  <path d="M65.8,102c0,0,17.7,26.8,17.1,31.6c-1.3,10.4-1.5,20,1.7,24c3.2,4,12,37.2,12,37.2c0,0-0.4,1.2,12-36.8c0,0,11.6-16-8.4-34.4c0,0-35.2-28.8-34.4-21.6Z"/> </g> <g style="fill: #000000">  <path d="M-54.2,176.4c0,0,11.2,7.2-3.2,38.4l6.4-2.4c0,0-0.8,11.2-4,13.6l7.2-3.2c0,0,4.8,8,0.8,12.8c0,0,16.8,8,16,14.4c0,0,6.4-8,2.4-14.4c-4-6.4-11.2-2.4-10.4-20.8l-8.8,3.2c0,0,5.6-8.8,5.6-15.2l-8,2.4c0,0,15.5-26.6,4.8-28c-6-0.8-8.8-0.8-8.8-0.8Z"/> </g> <g style="fill: #cccccc">  <path d="M-21.8,193.2c0,0,2.8-4.4,0-3.6c-2.8,0.8-34,15.6-40,25.2c0,0,34.4-24.4,40-21.6Z"/> </g> <g style="fill: #cccccc">  <path d="M-11.4,201.2c0,0,2.8-4.4,0-3.6c-2.8,0.8-34,15.6-40,25.2c0,0,34.4-24.4,40-21.6Z"/> </g> <g style="fill: #cccccc">  <path d="M1.8,186c0,0,2.8-4.4,0-3.6c-2.8,0.8-34,15.6-40,25.2c0,0,34.4-24.4,40-21.6Z"/> </g> <g style="fill: #cccccc">  <path d="M-21.4,229.6c0,0,0-6-2.8-5.2c-2.8,0.8-38.8,18.4-44.8,28c0,0,42-25.6,47.6-22.8Z"/> </g> <g style="fill: #cccccc">  <path d="M-20.2,218.8c0,0,1.2-4.8-1.6-4c-2,0-28.4,11.6-34.4,21.2c0,0,29.6-21.6,36-17.2Z"/> </g> <g style="fill: #cccccc">  <path d="M-34.6,266.4l-10,7.6c0,0,10.4-7.6,14-6.4c0,0-6.8,11.2-7.6,16.4c0,0,10.4-12.8,16-12.4c0,0,7.6,0.4,7.6,11.2c0,0,5.6-10.4,8.8-10c0,0,1.2,6.4,0,13.2c0,0,4-7.6,8-6c0,0,6.4-2,5.6,9.6c0,0,0,10.4-0.8,13.2c0,0,5.6-26.4,8-26.8c0,0,8-1.2,12.8,7.6c0,0-4-7.6,0.8-5.6c0,0,10.8,1.6,14,8.4c0,0-6.8-12-1.2-8.8c0,0,6.8,0,8,6.4c0,0,8.4,21.2,10.4,22.8c0,0-7.6-21.6-6-21.6c0,0-2-12,3.2,2.8c0,0-3.2-14,2.4-13.2c5.6,0.8,10,10.8,18.4,8.4c0,0,9.6,5.6,11.6-63.6l-124,46.8Z"/> </g> <g style="fill: #000000">  <path d="M-29.8,173.6c0,0,14.8-6,54.8,0c0,0,7.2,0.4,14-8.4c6.8-8.8,33.6-16,40-14l9.6,6.4l0.8,1.2c0,0,12.4,10.4,12.8,18c0.4,7.6-14.4,55.6-24,71.6c-9.6,16-19.2,28.4-38.4,26c0,0-20.8-4-46.4,0c0,0-29.2-1.6-32-9.6c-2.8-8,11.2-23.2,11.2-23.2c0,0,4.4-8.4,3.2-22.8c-1.2-14.4-0.8-42.4-5.6-45.2Z"/> </g> <g style="fill: #e5668c">  <path d="M-7.8,175.6c8.4,18.4-21.2,83.6-21.2,83.6c-2,1.6,12.7,7.6,22.8,5.2c10.9-2.6,51.2,1.6,51.2,1.6c23.6-15.6,36.4-60,36.4-60c0,0,10.4-24-7.2-27.2c-17.6-3.2-82-3.2-82-3.2Z"/> </g> <g style="fill: #b23259">  <path d="M-9.8,206.5c3.3-12.8,4.9-24.6,2-30.9c0,0,62.4,6.4,73.6-14.4c4.2-7.9,19,22.8,18.6,32.4c0,0-63,14.4-77.8,3.2l-16.4,9.7Z"/> </g> <g style="fill: #a5264c">  <path d="M-5.4,222.8c0,0,2,7.2-0.4,11.2c0,0-1.6,0.8-2.8,1.2c0,0,1.2,3.6,7.2,5.2c0,0,2,4.4,4.4,4.8c2.4,0.4,7.2,6,11.2,4.8c4-1.2,15.2-5.2,15.2-5.2c0,0,5.6-3.2,14.4,0.4c0,0,2.4-0.8,2.8-4.8c0.5-4.7,3.6-8.4,5.6-10.4c2-2,11.6-14.8,10.4-15.2c-1.2-0.4-68,8-68,8Z"/> </g> <g style="fill: #ff727f; stroke:#000000">  <path d="M-9.8,174.4c0,0-2.8,22.4,0.4,30.8c3.2,8.4,2.4,10.4,1.6,14.4c-0.8,4,3.6,14,9.2,20l12,1.6c0,0,15.2-3.6,24.4-0.8c0,0,9,1.3,12.4-13.6c0,0,4.8-6.4,12-9.2c7.2-2.8,14.4-44.4,10.4-52.4c-4-8-18.4-12.4-34.4,3.2c-16,15.6-18-1.2-48,6Z"/> </g> <g style="fill: #ffffcc; stroke:#000000; stroke-width:0.5">  <path d="M-8.2,249.2c0,0-0.8-2-5.2-2.4c0,0-22.4-3.6-30.8-16c0,0-6.8-5.6-2.4,6c0,0,10.4,20.4,17.2,23.2c0,0,16.4,4,21.2-10.8Z"/> </g> <g style="fill: #cc3f4c">  <path d="M71.7,185.2c0.7-7.9,2.6-16.5,0.9-20c-6.4-12.9-23.4-7.5-34.4,3.2c-16,15.6-18-1.2-48,6c0,0-1.7,14-0.9,24c0,0,37.3-11.6,38.1-6c0,0,1.6-3.2,10.8-3.2c9.2,0,31.9-1.2,33.5-4Z"/> </g> <g style="stroke:#a51926; stroke-width:2">  <path d="M28.6,175.2c0,0,4.8,4.8,1.2,14.4c0,0-14.4,16-12.4,30"/> </g> <g style="fill: #ffffcc; stroke:#000000; stroke-width:0.5">  <path d="M-19.4,260c0,0-4.4-12.8,4.4-6c0,0,4.8,2,3.6,3.6c-1.2,1.6-6.8,5.6-8,2.4Z"/> </g> <g style="fill: #ffffcc; stroke:#000000; stroke-width:0.5">  <path d="M-14.4,261.2c0,0-3.5-10.2,3.5-4.8c0,0,4.4,2.4,2.9,2.9c-4.6,1.3,0,3.8-6.4,1.9Z"/> </g> <g style="fill: #ffffcc; stroke:#000000; stroke-width:0.5">  <path d="M-9.6,261.2c0,0-3.5-10.2,3.5-4.8c0,0,4.4,2.3,2.9,2.9c-3.4,1.3,0,3.8-6.4,1.9Z"/> </g> <g style="fill: #ffffcc; stroke:#000000; stroke-width:0.5">  <path d="M-3,261.4c0,0-3.5-10.2,3.5-4.8c0,0,4.4,2.3,2.9,2.9c-3,1.1,0,3.8-6.4,1.9Z"/> </g> <g style="fill: #ffffcc; stroke:#000000; stroke-width:0.5">  <path d="M3.5,261.3c0,0-3.5-10.2,3.5-4.8c0,0,3.8,1.6,2.9,2.9c-1,1.3,0,3.8-6.4,1.9Z"/> </g> <g style="fill: #ffffcc; stroke:#000000; stroke-width:0.5">  <path d="M10.2,262c0,0-4.8-12.4,4.4-6c0,0,4.8,2,3.6,3.6c-1.2,1.6,0,4.8-8,2.4Z"/> </g> <g style="stroke:#a5264c; stroke-width:2">  <path d="M-18.2,244.8c0,0,13.2-2.8,19.2,0.4c0,0,6,1.2,7.2,0.8c1.2-0.4,4.4-0.8,4.4-0.8"/> </g> <g style="stroke:#a5264c; stroke-width:2">  <path d="M15.8,253.6c0,0,12-13.6,24-9.2c7,2.6,6-0.8,6.8-3.6c0.8-2.8,1-7,6-10"/> </g> <g style="fill: #ffffcc; stroke:#000000; stroke-width:0.5">  <path d="M33,237.6c0,0-4-10.8-6.8,2c-2.8,12.8-6,16.4-7.6,19.2c0,0,0,5.2,8.4,4.8c0,0,10.8-0.4,11.2-3.2c0.4-2.8-1.2-14.4-5.2-22.8Z"/> </g> <g style="stroke:#a5264c; stroke-width:2">  <path d="M47,244.8c0,0,3.6-2.4,6-1.2"/> </g> <g style="stroke:#a5264c; stroke-width:2">  <path d="M53.5,228.4c0,0,2.9-4.9,7.7-5.7"/> </g> <g style="fill: #b2b2b2">  <path d="M-25.8,265.2c0,0,18,3.2,22.4,1.6c0,0,8.8,0,0.4,2c0,0-12.8,0-20.8-1.2c0,0-11.6-5.6-2-2.4Z"/> </g> <g style="fill: #ffffcc; stroke:#000000; stroke-width:0.5">  <path d="M-11.8,172c0,0,17.6,0,19.6,0.8c0,0,7.2,30.8,3.6,38.4c0,0-1.2,2.8-4-2.8c0,0-18.4-32.8-21.6-34.8c-3.2-2,1.2-1.6,2.4-1.6Z"/> </g> <g style="fill: #ffffcc; stroke:#000000; stroke-width:0.5">  <path d="M-88.9,169.3c0,0,8.9,1.7,21.5,4.3c0,0,4.8,22.4,8,27.2c3.2,4.8-0.4,4.8-4,2c-3.6-2.8-18.4-16.8-20.4-21.2c-2-4.4-5.1-12.3-5.1-12.3Z"/> </g> <g style="fill: #ffffcc; stroke:#000000; stroke-width:0.5">  <path d="M-67,173.8c0,0,5.8,1.5,6.8,3.8c1,2.2-1.2,5.5-1.2,5.5c0,0-1,3.3-2.2,1.1c-1.2-2.2-4.1-9.8-3.4-10.4Z"/> </g> <g style="fill: #000000">  <path d="M-67,173.6c0,0,3.6,5.2,7.2,5.2c3.6,0,4-0.4,6.8,0.2c4.6,1,4.2-1,10.8,0.2c2.6,0.5,5.2-0.4,8,0.8c2.8,1.2,6,0.4,7.2-1.6c1.2-2,6-6.2,6-6.2c0,0-12.8,1.8-15.6,2.6c0,0-22.4,1.2-30.4-1.2Z"/> </g> <g style="fill: #ffffcc; stroke:#000000; stroke-width:0.5">  <path d="M-22.4,173.8c0,0-6.5,3.5-6.9,5.9c-0.4,2.4,5.3,6.1,5.3,6.1c0,0,2.8,4.6,3.4,2.2c0.6-2.4-1-13.8-1.8-14.2Z"/> </g> <g style="fill: #ffffcc; stroke:#000000; stroke-width:0.5">  <path d="M-59.9,179.3c0,0,7,11.2,7.2,0c0,0,0.6-1.3-1.2-1.3c-6.1-0.1-4.6-4.2-6,1.3Z"/> </g> <g style="fill: #ffffcc; stroke:#000000; stroke-width:0.5">  <path d="M-52.7,179.5c0,0,7.9,11.2,7.3-0.1c0,0,0-0.3-1.7-0.5c-4.7-0.4-4.4-4.9-5.5,0.6Z"/> </g> <g style="fill: #ffffcc; stroke:#000000; stroke-width:0.5">  <path d="M-45.5,179.5c0,0,8,10.6,7.3,1c0,0,0.1-1.2-1.5-1.5c-3.9-0.7-4.1-4-5.8,0.6Z"/> </g> <g style="fill: #ffffcc; stroke:#000000; stroke-width:0.5">  <path d="M-38.6,179.6c0,0,7.9,11.6,8.2,1.8c0,0,1.6-1.4-0.1-1.6c-5.8-0.7-5-5.2-8.1-0.2Z"/> </g> <g style="fill: #e5e5b2">  <path d="M-74.8,183.1l-7.7-1.5c-2.6-5-4.7-11.2-4.7-11.2c0,0,6.4,1,18.9,3.8c0,0,0.9,3.3,2.3,9.1l-8.8-0.2Z"/> </g> <g style="fill: #e5e5b2">  <path d="M-9.7,178.5c-1.7-2.5-3-4.3-3.6-4.7c-3-1.9,1.1-1.5,2.3-1.5c0,0,16.6,0,18.5,0.8c0,0,0.5,2.2,1.2,5.6c0,0-10.1-2-18.3-0.2Z"/> </g> <g style="fill: #cc7226">  <path d="M43.9,40.3c27.7,4,53.2-31.7,55-41.4c1.8-9.7-8.4-21.6-8.4-21.6c1.3-3.1-3.5-17.2-8.8-26.4c-5.3-9.2-21.2-8.3-38.7-9.2c-15.8-0.9-34.3,22.4-35.6,24.2c-1.3,1.8,4.8,40,6.2,45.8c1.3,5.7-1.3,32.1-1.3,32.1c34.2-9.1,4-7.5,31.7-3.5Z"/> </g> <g style="fill: #ea8e51">  <path d="M8.1,-33.4c-1.3,1.7,4.8,39.3,6,44.9c1.3,5.6-1.3,31.5-1.3,31.5c32.7-8.9,3.9-7.3,31.1-3.5c27.2,3.9,52.3-31.1,54-40.6c1.7-9.5-8.2-21.2-8.2-21.2c1.3-3-3.5-16.8-8.6-25.9c-5.2-9.1-20.8-8.1-38-9.1c-15.6-0.9-33.7,22-35,23.8Z"/> </g> <g style="fill: #efaa7c">  <path d="M8.8,-32.7c-1.3,1.7,4.7,38.6,5.9,44.1c1.3,5.5-1.3,31-1.3,31c31.4-9.2,3.8-7.2,30.5-3.4c26.7,3.8,51.3-30.5,53-39.9c1.7-9.3-8.1-20.8-8.1-20.8c1.3-3-3.4-16.5-8.5-25.4c-5.1-8.9-20.4-8-37.3-8.9c-15.3-0.8-33.1,21.6-34.3,23.3Z"/> </g> <g style="fill: #f4c6a8">  <path d="M9.5,-32.1c-1.2,1.7,4.6,37.9,5.8,43.3c1.2,5.4-1.2,30.4-1.2,30.4c29.4-9,3.7-7.1,30-3.3c26.2,3.7,50.3-30,52-39.1c1.7-9.2-7.9-20.4-7.9-20.4c1.2-2.9-3.3-16.2-8.3-25c-5-8.7-20-7.8-36.6-8.7c-15-0.8-32.4,21.2-33.7,22.9Z"/> </g> <g style="fill: #f9e2d3">  <path d="M10.3,-31.4c-1.2,1.6,4.5,37.1,5.7,42.4c1.2,5.3-1.2,29.8-1.2,29.8c27.9-8.9,3.7-6.9,29.4-3.3c25.7,3.7,49.4-29.4,51-38.4c1.6-9-7.8-20-7.8-20c1.2-2.9-3.3-15.9-8.2-24.5c-4.9-8.6-19.6-7.7-35.9-8.6c-14.7-0.8-31.8,20.8-33,22.4Z"/> </g> <g style="fill: #ffffff">  <path d="M44.2,36.8c25.2,3.6,48.4-28.8,50-37.6c1.6-8.8-7.6-19.6-7.6-19.6c1.2-2.8-3.2-15.6-8-24c-4.8-8.4-19.3-7.5-35.2-8.4c-14.4-0.8-31.2,20.4-32.4,22c-1.2,1.6,4.4,36.4,5.6,41.6c1.2,5.2-1.2,29.2-1.2,29.2c25.5-8.6,3.6-6.8,28.8-3.2Z"/> </g> <g style="fill: #cccccc">  <path d="M90.6,2.8c0,0-27.8,7.6-39.4,6c0,0-15.8-6.6-24.6,15.2c0,0-3.6,7.2-5.6,9.2c-2,2,69.6-30.4,69.6-30.4Z"/> </g> <g style="fill: #000000">  <path d="M94.4,0.6c0,0-29,12.2-39,11.8c0,0-16.4-4.6-24.8,10c0,0-8.4,9.2-11.6,10.8c0,0-0.4,1.6,6-2.4l10.4,5.2c0,0,14.8,9.6,24.4-6.4c0,0,4-11.2,4-13.2c0-2,21.2-7.6,22.8-8c1.6-0.4,8.2-4.6,7.8-7.8Z"/> </g> <g style="fill: #99cc32">  <path d="M47,36.5c-6.9,0-15.2-3.9-15.2-10.1c0-6.2,8.4-12.5,15.2-12.5c6.9,0,12.4,5.1,12.4,11.3c0,6.2-5.6,11.3-12.4,11.3Z"/> </g> <g style="fill: #659900">  <path d="M43.4,19.8c-4.8,0.7-9.9,2.2-9.9,2c1.5-4.6,7.9-8,13.5-8c4.3,0,8.1,2,10.3,5c0,0-5.3-0.3-13.9,1Z"/> </g> <g style="fill: #ffffff">  <path d="M55.4,19.6c0,0-4.4-3.2-4.4-1c0,0,3.6,4.4,4.4,1Z"/> </g> <g style="fill: #000000">  <path d="M45.4,27.7c-2.5,0-4.5-2-4.5-4.5c0-2.5,2-4.5,4.5-4.5c2.5,0,4.5,2,4.5,4.5c0,2.5-2,4.5-4.5,4.5Z"/> </g> <g style="fill: #cc7226">  <path d="M-58.6,14.4c0,0-3.2-21.2-0.8-25.6c0,0,10.8-10,10.4-13.6c0,0-0.4-18-1.6-18.8c-1.2-0.8-8.8-6.8-14.8-0.4c0,0-10.4,18-9.6,24.4v2c0,0-7.6-0.4-9.2,1.6c0,0-1.2,5.2-2.4,5.6c0,0-2.8,2.4-0.8,5.2c0,0-2,2.4-1.6,6.4l7.6,4c0,0,2,14.4,12.8,19.6c4.8,2.3,8-4.4,10-10.4Z"/> </g> <g style="fill: #ffffff">  <path d="M-59.6,12.6c0,0-2.9-19.1-0.7-23c0,0,9.7-9,9.4-12.2c0,0-0.4-16.2-1.4-16.9c-1.1-0.7-7.9-6.1-13.3-0.4c0,0-9.4,16.2-8.6,22v1.8c0,0-6.8-0.4-8.3,1.4c0,0-1.1,4.7-2.2,5c0,0-2.5,2.2-0.7,4.7c0,0-1.8,2.2-1.4,5.8l6.8,3.6c0,0,1.8,13,11.5,17.6c4.4,2.1,7.2-4,9-9.4Z"/> </g> <g style="fill: #eb955c">  <path d="M-51.1,-42.6c-1.1-0.9-8.6-6.6-14.4-0.4c0,0-10.1,17.6-9.4,23.8v1.9c0,0-7.4-0.4-9,1.6c0,0-1.2,5.1-2.3,5.5c0,0-2.7,2.3-0.8,5.1c0,0-1.9,2.3-1.6,6.2l7.4,3.9c0,0,2,14,12.5,19.1c4.7,2.3,7.8-4.3,9.7-10.1c0,0-3.1-20.7-0.8-25c0,0,10.5-9.8,10.1-13.3c0,0-0.4-17.5-1.6-18.3Z"/> </g> <g style="fill: #f2b892">  <path d="M-51.5,-41.6c-1-0.9-8.4-6.5-14.1-0.4c0,0-9.9,17.1-9.1,23.2v1.9c0,0-7.2-0.4-8.7,1.5c0,0-1.1,4.9-2.3,5.3c0,0-2.7,2.3-0.8,4.9c0,0-1.9,2.3-1.5,6.1l7.2,3.8c0,0,1.9,13.7,12.2,18.6c4.6,2.2,7.6-4.2,9.5-9.9c0,0-3-20.1-0.8-24.3c0,0,10.3-9.5,9.9-12.9c0,0-0.4-17.1-1.5-17.9Z"/> </g> <g style="fill: #f8dcc8">  <path d="M-52,-40.6c-0.9-1-8.1-6.3-13.7-0.4c0,0-9.6,16.7-8.9,22.6v1.9c0,0-7-0.4-8.5,1.5c0,0-1.1,4.8-2.2,5.2c0,0-2.6,2.2-0.7,4.8c0,0-1.9,2.2-1.5,5.9l7,3.7c0,0,1.8,13.3,11.8,18.1c4.5,2.2,7.4-4.1,9.2-9.6c0,0-3-19.6-0.7-23.7c0,0,10-9.3,9.6-12.6c0,0-0.4-16.7-1.5-17.4Z"/> </g> <g style="fill: #ffffff">  <path d="M-59.6,12.5c0,0-2.9-19-0.7-22.9c0,0,9.7-9,9.4-12.2c0,0-0.4-16.2-1.4-16.9c-0.8-1-7.9-6.1-13.3-0.4c0,0-9.4,16.2-8.6,22v1.8c0,0-6.8-0.4-8.3,1.4c0,0-1.1,4.7-2.2,5c0,0-2.5,2.2-0.7,4.7c0,0-1.8,2.2-1.4,5.8l6.8,3.6c0,0,1.8,13,11.5,17.6c4.4,2.1,7.2-4.1,9-9.5Z"/> </g> <g style="fill: #cccccc">  <path d="M-62.7,6.2c0,0-21.6-10.2-22.5-11c0,0,9.1,8.2,9.9,8.2c0.8,0,12.6,2.8,12.6,2.8Z"/> </g> <g style="fill: #000000">  <path d="M-79.8,0c0,0,18.4,3.6,18.4,8c0,2.9-0.2,16.3-5.6,14.8c-8.4-2.4-4.8-16.8-12.8-22.8Z"/> </g> <g style="fill: #99cc32">  <path d="M-71.4,3.8c0,0,9,1.5,10,4.2c0.6,1.6,1.3,9.9-4.2,11c-4.6,0.9-6.8-9.3-5.8-15.2Z"/> </g> <g style="fill: #000000">  <path d="M14.6,46.3c-0.5-1.7,0.8-1.6,2.6-2.1c2-0.6,14.2-4.4,15-7c0.8-2.6,14,1.8,14,1.8c1.8,0.8,6.2,3.4,6.2,3.4c4.8,1.2,11.4,1.6,11.4,1.6c2.4,1,5.8,3.8,5.8,3.8c14.6,10.2,27,3,27,3c20-6.6,14-23.8,14-23.8c-3-9,0.2-12.4,0.2-12.4c0.2-3.8,7.4,2.6,7.4,2.6c2.6,4.2,3.4,9.2,3.4,9.2c8,11.2,4.6-6.6,4.6-6.6c0.2-1-2.6-4.6-2.6-5.8c0-1.2-1.8-4.6-1.8-4.6c-3-3.4-0.6-10.4-0.6-10.4c1.8-13.8-0.4-12-0.4-12c-1.2-1.8-10.4,8.2-10.4,8.2c-2.2,3.4-8.2,5-8.2,5c-2.8,1.8-6.2,0.4-6.2,0.4c-2.6-0.4-8.2,6.6-8.2,6.6c2.8-0.2,5.2,4.2,7.6,4.4c2.4,0.2,4.2-2.4,5.8-3c1.6-0.6,4.4,5.2,4.4,5.2c0.4,2.6-5.2,7.4-5.2,7.4c-0.4,4.6-2,3-2,3c-3-0.6-4.2,3.2-5.2,7.8c-1,4.6-5.2,5-5.2,5c-1.6,7.4-2.8,4.4-2.8,4.4c-0.2-5.6-6.2,0.2-6.2,0.2c-1.2,2-5.8-0.2-5.8-0.2c-6.8-2-4.4-4-4.4-4c1.8-2.2,13,0,13,0c2.2-1.6-5.8-5.6-5.8-5.6c-0.6-1.8,0.4-6.2,0.4-6.2c1.2-3.2,8-8.8,8-8.8c9.4-1.2,6.6-2.8,6.6-2.8c-6.2-5.2-12,2.4-12,2.4c-2.2,6.2-19.6,21.2-19.6,21.2c-4.8,3.4-2.2-3.4-6.2,0c-4,3.4-24.6-5.6-24.6-5.6c-11.6-1.2-14.3,14.5-17.8,11.4c0,0,5.4,8.5,3.8,2.9Z"/> </g> <g style="fill: #000000">  <path d="M209.4,-120c0,0-25.6,8-28.4,26.8c0,0-2.4,22.8,18,40.4c0,0,0.4,6.4,2.4,9.6c0,0-1.6,4.8,17.2-2.8l27.2-8.4c0,0,6.4-2.4,11.6-11.2c5.2-8.8,20.4-27.6,16.8-52.8c0,0,1.2-11.2-4.8-11.6c0,0-8.4-1.6-15.6,6c0,0-6.8,3.2-9.2,2.8l-35.2,1.2Z"/> </g> <g style="fill: #000000">  <path d="M264,-121c0,0,2.1-8.9-2.7-4.1c0,0-7,5.7-14.5,5.7c0,0-14.5,2.2-18.9,15.4c0,0-4,26.8,4,32.6c0,0,4.8,7.5,11.9,0.9c7-6.6,22.5-36.8,20.3-50.5Z"/> </g> <g style="fill: #323232">  <path d="M263.6,-120.6c0,0,2.1-8.7-2.7-4c0,0-6.9,5.6-14.3,5.6c0,0-14.3,2.2-18.6,15.1c0,0-3.9,26.4,3.9,32c0,0,4.8,7.3,11.7,0.9c6.9-6.5,22.1-36.2,19.9-49.6Z"/> </g> <g style="fill: #666666">  <path d="M263.3,-120.3c0,0,2.1-8.6-2.6-3.9c0,0-6.8,5.5-14,5.5c0,0-14,2.1-18.2,14.8c0,0-3.8,25.9,3.8,31.4c0,0,4.7,7.2,11.4,0.8c6.8-6.4,21.7-35.5,19.5-48.7Z"/> </g> <g style="fill: #999999">  <path d="M262.9,-119.9c0,0,2.1-8.4-2.5-3.8c0,0-6.7,5.4-13.7,5.4c0,0-13.7,2.1-17.9,14.6c0,0-3.7,25.4,3.7,30.8c0,0,4.6,7.1,11.2,0.8c6.7-6.2,21.2-34.9,19.1-47.8Z"/> </g> <g style="fill: #cccccc">  <path d="M262.5,-119.6c0,0,2.1-8.2-2.4-3.7c0,0-6.5,5.3-13.5,5.3c0,0-13.5,2-17.5,14.3c0,0-3.7,24.9,3.7,30.2c0,0,4.5,6.9,11,0.8c6.5-6.1,20.8-34.2,18.7-46.9Z"/> </g> <g style="fill: #ffffff">  <path d="M262.2,-119.2c0,0,2.1-8-2.4-3.6c0,0-6.4,5.2-13.2,5.2c0,0-13.2,2-17.2,14c0,0-3.6,24.4,3.6,29.6c0,0,4.4,6.8,10.8,0.8c6.4-6,20.4-33.6,18.4-46Z"/> </g> <g style="fill: #992600">  <path d="M50.6,84c0,0-20.4-19.2-28.4-20c0,0-34.4-4-49.2,14c0,0,17.6-20.4,45.2-14.8c0,0-21.6-4.4-34-1.2c0,0-16.8,0-26.4,14l-2.8,4.8c0,0,4-14.8,22.4-20.8c0,0,22.8-4.8,33.6,0c0,0-21.6-6.8-31.6-4.8c0,0-30.4-2.4-43.2,24c0,0,4-14.4,18.8-21.6c0,0,13.6-8.8,34-6c0,0,14.4,3.2,19.6,5.6c5.2,2.4,4-0.4-4.4-5.2c0,0-5.6-10-19.6-9.6c0,0-42.8,3.6-53.2,15.6c0,0,13.6-11.2,24-14c0,0,22.4-8,30.8-7.2c0,0,24.8,1,32.4-3c0,0-11.2,5-8,8.2c3.2,3.2,10,10.8,10,12c0,1.2,24.2,23.3,27.8,27.7l2.2,2.3Z"/> </g> <g style="fill: #cccccc">  <path d="M189,278c0,0-15.5-36.5-28-46c0,0,26,16,29.5,34c0,0,0,10-1.5,12Z"/> </g> <g style="fill: #cccccc">  <path d="M236,285.5c0,0-26.5-55-45-79c0,0,43.5,37.5,48.5,64l0.5,5.5l-3-2.5c0,0-0.5,9-1,12Z"/> </g> <g style="fill: #cccccc">  <path d="M292.5,237c0,0-62.5-59.5-64-62c0,0,60.5,66,63.5,73.5c0,0-2-9,0.5-11.5Z"/> </g> <g style="fill: #cccccc">  <path d="M104,280.5c0,0,19.5-52,38.5-29.5c0,0,15,10,14.5,13c0,0-4-6.5-22-6c0,0-19-3-31,22.5Z"/> </g> <g style="fill: #cccccc">  <path d="M294.5,153c0,0-45-28.5-52.5-30c-11.8-2.4,49.5,29,54.5,39.5c0,0,2-2.5-2-9.5Z"/> </g> <g style="fill: #000000">  <path d="M143.8,259.6c0,0,20.4-2,27.2-8.8l4.4,3.6l17.6-38.4l3.6,5.2c0,0,14.4-14.8,13.6-22.8c-0.8-8,12.8,6,12.8,6c0,0-0.8-11.6,6.4-4.8c0,0-2.4-15.6,6-7.6c0,0-10.5-30.2,12-4.4c5.6,6.4,1.2-0.4,1.2-0.4c0,0-26-48-4.4-33.6c0,0,2-22.8,0.8-27.2c-1.2-4.4-3.2-26.8-8-32c-4.8-5.2,0.4-6.8,6-1.6c0,0-11.2-24,2-12c0,0-3.6-15.2-8-18c0,0-5.6-17.2,9.6-6.4c0,0-4.4-12.4-7.6-15.6c0,0-11.6-27.6-4.4-22.8l4.4,3.6c0,0-6.8-14-0.4-9.6c6.4,4.4,6.4,4,6.4,4c0,0-21.2-33.2-0.8-15.6c0,0-8.2-13.9-11.6-20.8c0,0-18.8-20.4-4.4-14l4.8,1.6c0,0-8.8-10-16.8-11.6c-8-1.6,2.4-8,8.8-6c6.4,2,22,9.6,22,9.6c0,0,12.8,18.8,16.8,19.2c0,0-20-7.6-14,0.4c0,0,14.4,14,7.2,13.6c0,0-6,7.2-1.2,16c0,0-18.5-18.4-3.6,7.2l6.8,16.4c0,0-24.4-24.8-13.2-2.8c0,0,17.2,23.6,19.2,24c2,0.4,6.4,9.2,6.4,9.2l-4.4-2l5.2,8.8c0,0-11.2-12-5.2,1.2l5.6,14.4c0,0-20.4-22-6.8,7.6c0,0-16.4-5.2-7.6,12c0,0-1.6,16-1.2,21.2c0.4,5.2,1.6,33.6-2.8,41.6c-4.4,8,6,27.2,8,31.2c2,4,5.6,14.8-3.2,5.6c-8.8-9.2-4.4-3.6-2.4,5.2c2,8.8,8,24.4,7.2,30c0,0-1.2,1.2-4.4-2.4c0,0-14.8-22.8-13.2-8.4c0,0-1.2,8-4.4,16.8c0,0-3.2,10.8-3.2,2c0,0-3.2-16.8-6-9.2c-2.8,7.6-6.4,13.6-9.2,16c-2.8,2.4-8-20.4-9.2-10c0,0-12-12.4-16.8,4l-11.6,16.4c0,0-0.4-12.4-1.6-6.4c0,0-30,6-40.4,1.6Z"/> </g> <g style="fill: #000000">  <path d="M109.4,-97.2c0,0-11.6-8-15.6-7.6c-4,0.4,27.6-8.8,68.8,18.8c0,0,4.8,2.8,8.4,2.4c0,0,3.2,2.4,0.4,6c0,0-8.8,9.6,2.4,20.8c0,0,18.4,6.8,12.8-2c0,0,10.8,4,13.2,8c2.4,4,1.2,0,1.2,0c0,0-6.4-7.2-12.4-12.4c0,0-5.2-2-8-10.4c-2.8-8.4-5.2-18.4-0.8-21.6c0,0-4,4.4-3.2,0.4c0.8-4,4.4-7.6,6-8c1.6-0.4,18-16.2,24.8-16.6c0,0-9.2,1.4-12.2,0.4c-3-1-29.6-12.4-35.6-13.6c0,0-16.8-6.6-4.8-4.6c0,0,35.8,3.8,54,17c0,0-7.2-8.4-25.6-15.4c0,0-22.2-12.6-57.4-7.6c0,0-17.8,3.2-25.6,5c0,0-2.6-0.6-3.2-1c-0.6-0.4-12.4-9.4-40-2.4c0,0-17,4.6-25.6,9.4c0,0-15.2,1.2-18.8,4.4c0,0-18.6,14.6-20.6,15.4c-2,0.8-13.4,8.4-14.2,8.8c0,0,24.6-6.6,27-9c2.4-2.4,19.8-5,22.2-3.6c2.4,1.4,10.8,0.8,1.2,1.4c0,0,75.6,14.8,76.4,16.8c0.8,2,4.8,0.8,4.8,0.8Z"/> </g> <g style="fill: #cc7226">  <path d="M180.8,-106.4c0,0-10.2-7.4-12.2-7.4c-2,0-14.4-10.2-18.6-9.8c-4.2,0.4-16.4-9.6-43.8-1.4c0,0-0.6-2,3-2.8c0,0,6.4-2.2,6.8-2.8c0,0,20.2-4.2,27.4-0.6c0,0,9.2,2.6,15.4,8.8c0,0,11.2,3.2,14.4,2.2c0,0,8.8,2.2,9.2,4c0,0,5.8,3,4,5.6c0,0,0.4,1.6-5.6,4.2Z"/> </g> <g style="fill: #cc7226">  <path d="M168.3,-108.5c0.8,0.6,1.8,0.7,2.4,1.5c0.2,0.3-0.1,0.6-0.4,0.7c-1,0.3-2.1-0.3-3.2,0.3c-0.4,0.2-1,0-1.6-0.1c-1.6-0.4-3.5-0.5-5.2,0.2c-2-1.1-4.3-0.5-6.4-1.5c-0.1,0-0.3,0.3-0.4,0.3c-3-1.1-6.8-0.9-9.2-3.1c-2.4-0.4-4.8-0.9-7.2-1.6c-1.8-0.5-3.2-1.5-4.8-2.3c-1.4-0.7-2.8-1.2-4.4-1.6c-1.9-0.5-3.7-0.3-5.6-0.9c-0.1,0-0.3,0.3-0.4,0.3c-0.3-0.1-0.6-0.7-0.8-0.6c-1.7,0.5-3.2-0.5-4.8-0.1c-1.2-1.2-2.9-1-4.5-1.4c-3-0.8-6.1,0.4-9.1-0.6c4.1-1.8,8.8-0.6,12.9-2.7c2.3-1.2,5-0.1,7.6-0.8c0.5-0.1,1.2-0.3,1.6,0.3c0.1-0.1,0.3-0.4,0.4-0.3c2.5,1.2,4.8,2.4,7.2,3.5c0.3,0.1,0.9-0.1,1.1,0.1c1.5,1.2,3.5,1.1,4.9,2.3c1.7-0.5,3.5-0.1,5.2-0.7c0.1,0,0.3,0.3,0.3,0.3c1.1-0.7,2.3-0.5,3.2-0.2c0.3,0.1,1,0.4,1.3,0.4c1.1,0.3,2,0.8,3.2,0.9c0.1,0,0.3-0.3,0.4-0.3c1.1,0.4,2.2,0.4,2.8,1.5c0.1-0.1,0.3-0.4,0.4-0.3c1,0.3,1.7,1.1,2.8,1.3c0.5,0.1,1.1,0.7,1.7,0.9c2.4,0.7,4.2,2.3,6.4,3.2c0.8,0.3,1.6,0.5,2.3,1Z"/> </g> <g style="fill: #cc7226">  <path d="M91.7,-122.7c-2.5-1.7-4.9-2.8-7.3-4.6c-0.2-0.1-0.5,0-0.7-0.1c-1-0.6-1.9-1.2-2.9-1.9c-0.5-0.4-1.4-0.4-1.9-0.6c-2.5-1.3-5.2-1.9-7.7-3c0.7-0.6,1.8-0.4,2.4-1.2c0.2,0.3,0.4,0.6,0.8,0.4c1.7-0.9,3.5-1.1,5.2-1c1.7,0.1,3.4,0.4,5.2,0.7c0.3,0,0.5,0.6,0.8,0.7c2.2,0.7,4.6,0.1,6.7,1c1.6,0.6,3.2,1.5,4.4,2.7c0.3,0.3-0.1,0.6-0.4,0.8c0.4-0.1,0.7,0.1,0.8,0.4c0.1,0.2,0.1,0.5,0,0.8c-0.1,0.3-0.4,0.4-0.8,0.5c-1.4,0.2,0.4-1.2-0.3-0.7c-1.3,0.8-0.5,2.2-1.3,3.5c-0.3-0.2-0.5-0.4-0.4-0.8c0.2,0.5-0.4,0.8-0.5,1.1c-0.4,0.7-1.3,2.1-2.2,1.5Z"/> </g> <g style="fill: #cc7226">  <path d="M59.2,-115.4c-3.2-0.8-6.2-0.7-9.2-2c-0.1,0-0.3,0.3-0.4,0.3c-1.4-0.6-2.3-1.6-3.4-2.6c-0.9-0.9-2.6-0.5-3.8-1c-0.3-0.1-0.5-0.6-0.8-0.7c-1.2-0.2-2.1-1.1-3.2-1.7c2.3-0.8,4.7-0.8,7.2-1.1c0.1,0,0.3,0.3,0.4,0.3c0.1,0,0.3-0.2,0.4-0.4c0.2,0.3,0.5,0.6,0.8,0.4c0.5-0.5,1.1-0.3,1.6-0.3c0.1,0,0.3,0.3,0.4,0.3c0.1,0,0.3-0.3,0.4-0.3c0.1,0,0.3,0.3,0.4,0.3c0.1,0,0.3-0.2,0.4-0.4c0.7,0.8,1.6,0.2,2.4,0.4c1,0.2,1.3,1.4,2.4,1.7c4.7,1.3,8.9,3.4,13.2,5.5c0.3,0.1,0.5,0.4,0.4,0.8c0.3,0,0.6-0.1,0.8,0c1.1,0.7,2.1,1.3,2.8,2.4c0.2,0.3-0.1,0.7-0.3,0.7c-4.4-1-8.4-1.6-12.8-2.7Z"/> </g> <g style="fill: #cc7226">  <path d="M45.3,-71.2c-1.6-1.2-2.2-3.3-3.3-5c-0.2-0.3,0.1-0.7,0.4-0.7c0.6-0.2,1.1,0.3,1.5,0.5c1.7,0.9,3.3,2.1,5.3,2.2c2,2.2,6.3,2.6,6.3,6c0,0.9-1.4-0.1-1.9,0.8c-2.5-1-4.8-0.9-7.2-2.4c-0.6-0.4-0.3-0.8-1-1.4Z"/> </g> <g style="fill: #cc7226">  <path d="M17.8,-123.8c0.1,0,7.2,0.2,7.1,0.3c0,0.3-7.8,1.4-8.1,1.2c-0.2-0.1-7.7,2.4-7.8,2.2c0.3-0.1,8.5-3.8,8.8-3.8Z"/> </g> <g style="fill: #000000">  <path d="M33.2,-114c0,0-14.8,1.8-19.2,3c-4.4,1.2-23,8.8-26,10.8c0,0-13.4,5.4-30.4,25.4c0,0,7.6-3.4,9.8-6.2c0,0,13.6-12.6,13.4-10c0,0,12.2-8.6,11.6-6.4c0,0,24.4-11.2,22.4-8c0,0,21.6-4.6,20.6-2.6c0,0,18.8,4.4,16,4.6c0,0-5.8,1.2,0.6,4.8c0,0-3.4,4.4-8.8,0.4c-5.4-4-2.4-1.8-7.4-0.8c0,0-2.6,0.8-7.2-3.2c0,0-5.6-4.6-14.4-1c0,0-30.6,12.6-32.6,13.2c0,0-3.6,2.8-6,6.4c0,0-5.8,4.4-8.8,5.8c0,0-12.8,11.6-14,13c0,0-3.4,5.2-4.2,5.6c0,0,6.4-3.8,8.4-5.8c0,0,14-10,19.4-10.8c0,0,4.4-3,5.2-4.4c0,0,14.4-9.2,18.6-9.2c0,0,9.2,5.2,11.6-1.8c0,0,5.8-1.8,11.4-0.6c0,0,3.2-2.6,2.4-4.8c0,0,1.6-1.8,2.6,2c0,0,3.4,3.6,8.2,1.6c0,0,4-0.2,2,2.2c0,0-4.4,3.8-16.2,4c0,0-12.4,0.6-28.8,8.2c0,0-29.8,10.4-39,20.8c0,0-6.4,8.8-11.8,10c0,0-5.8,0.8-11.8,8.2c0,0,9.8-5.8,18.8-5.8c0,0,4-2.4,0.2,1.2c0,0-3.6,7.6-2,13c0,0-0.6,5.2-1.4,6.8c0,0-7.8,12.8-7.8,15.2c0,2.4,1.2,12.2,1.6,12.8c0.4,0.6-1-1.6,2.8,0.8c3.8,2.4,6.6,4,7.4,6.8c0.8,2.8-2-5.4-2.2-7.2c-0.2-1.8-4.4-9-3.6-11.4c0,0,1,1,1.8,2.4c0,0-0.6-0.6,0-4.2c0,0,0.8-5.2,2.2-8.4c1.4-3.2,3.4-7,3.8-7.8c0.4-0.8,0.4-6.6,1.8-4l3.4,2.6c0,0-2.8-2.6-0.6-4.8c0,0-1-5.6,0.8-8.2c0,0,7-8.4,8.6-9.4c1.6-1,0.2-0.6,0.2-0.6c0,0,6-4.2,0.2-2.6c0,0-4,1.6-7,1.6c0,0-7.6,2-3.6-2.2c4-4.2,14-9.6,17.8-9.4l0.8,1.6l11.2-2.4l-1.2,0.8c0,0-0.2-0.2,4-0.6c4.2-0.4,10,1,11.4-0.8c1.4-1.8,4.8-2.8,4.4-1.4c-0.4,1.4-0.6,3.4-0.6,3.4c0,0,5-5.8,4.4-3.6c-0.6,2.2-8.8,7.4-10.2,13.6l10.4-8.2l3.6-3c0,0,3.6,2.2,3.8,0.6c0.2-1.6,4.8-7.4,6-7.2c1.2,0.2,3.2-2.6,3,0c-0.2,2.6,7.4,8,7.4,8c0,0,3.2-1.8,4.6-0.4c1.4,1.4,5.6-19.8,5.6-19.8l25-10.6l43.6-3.4l-17-6.8l-61-11.4Z"/> </g> <g style="stroke:#4c0000; stroke-width:2">  <path d="M51.4,85c0,0-15-16.8-23.4-19.4c0,0-13.4-6.8-38,1"/> </g> <g style="stroke:#4c0000; stroke-width:2">  <path d="M24.8,64.2c0,0-25.2-8-40.6-3.8c0,0-18.4,2-26.8,15.8"/> </g> <g style="stroke:#4c0000; stroke-width:2">  <path d="M21.2,63c0,0-17-7.2-31.8-9.4c0,0-16.6-2.6-33.2,4.6c0,0-12.2,6-17.6,16.2"/> </g> <g style="stroke:#4c0000; stroke-width:2">  <path d="M22.2,63.4c0,0-15.4-11-16.4-12.4c0,0-7-11-20-11.4c0,0-21.4,0.8-38.6,8.8"/> </g> <g style="fill: #000000">  <path d="M20.9,54.4c1.5,1.5,28.5,30.4,28.5,30.4c35.2,36.6,7.2,2.4,7.2,2.4c-7.6-4.8-16.8-23.6-16.8-23.6c-1.2-2.8,14,7.2,14,7.2c4,0.8,17.6,20,17.6,20c-6.8-2.4-2,4.8-2,4.8c2.8,2,23.2,17.6,23.2,17.6c3.6,4,7.6,5.6,7.6,5.6c14-5.2,7.6,8,7.6,8c2.4,6.8,8-4.8,8-4.8c11.2-16.8-5.2-14.4-5.2-14.4c-30,2.8-36.8-13.2-36.8-13.2c-2.4-2.4,6.4,0,6.4,0c8.4,2-7.2-12.4-7.2-12.4c2.4,0,11.6,6.8,11.6,6.8c10.4,9.2,12.4,7.2,12.4,7.2c18-8.8,28.4-1.2,28.4-1.2c2,1.6-3.6,8.4-2,13.6c1.6,5.2,6.4,17.6,6.4,17.6c-2.4,1.6-2,12.4-2,12.4c16.8,23.2,7.2,21.2,7.2,21.2c-15.6-0.4-0.8,7.2-0.8,7.2c3.2,2,12,9.2,12,9.2c-2.8-1.2-4.4,4-4.4,4c4.8,4,2,8.8,2,8.8c-6,1.2-7.2,5.2-7.2,5.2c6.8,8-3.2,8.4-3.2,8.4c3.6,4.4-1.2,16.4-1.2,16.4c-4.8,0-11.2,5.6-11.2,5.6c2.4,4.8-8,10.4-8,10.4c-8.4,1.6-5.6,8.4-5.6,8.4c-8,6-10.4,22-10.4,22c-0.8,10.4-3.2,13.6,2,11.6c5.2-2,4.4-14.4,4.4-14.4c-4.8-15.6,38-31.6,38-31.6c4-1.6,4.8-6.8,4.8-6.8c2,0.4,10.8,8,10.8,8c7.6,11.2,8,2,8,2c1.2-3.6-0.4-9.6-0.4-9.6c6-21.6-8-28-8-28c-10-33.6,4-25.2,4-25.2c2.8,5.6,13.6,10.8,13.6,10.8l3.6-2.4c-1.6-4.8,6.8-10.8,6.8-10.8c2.8,6.4,8.8-1.6,8.8-1.6c3.6-24.4,16-10,16-10c4,1.2,5.2-5.6,5.2-5.6c3.6-10.4,0-24,0-24c3.6-0.4,13.2,5.6,13.2,5.6c2.8-3.6-6.4-20.4-2.4-18c4,2.4,8.4,4,8.4,4c0.8-2-9.2-14.4-9.2-14.4c-4.4-2.8-9.6-23.2-9.6-23.2c7.2,3.6-2.8-11.6-2.8-11.6c0-3.2,6-14.4,6-14.4c-0.8-6.8,0-6.4,0-6.4c2.8,1.2,10.8,2.8,4-3.6c-6.8-6.4,0.8-11.2,0.8-11.2c4.4-2.8-9.2-2.4-9.2-2.4c-5.2-4.4-4.8-8.4-4.8-8.4c8,2-6.4-12.4-8.8-16c-2.4-3.6,7.2-8.8,7.2-8.8c13.2-3.6,1.6-6.8,1.6-6.8c-19.6,0.4-8.8-10.4-8.8-10.4c6,0.4,4.4-2,4.4-2c-5.2-1.2-14.8-7.6-14.8-7.6c-4-3.6-0.4-2.8-0.4-2.8c16.8,1.2-12-10-12-10c8,0-10-10.4-10-10.4c-2-1.6-5.2-9.2-5.2-9.2c-6-5.2-10.8-12-10.8-12c-0.4-4.4-5.2-9.2-5.2-9.2c-11.6-13.6-17.2-13.2-17.2-13.2c-14.8-3.6-20-2.8-20-2.8l-52.8,4.4c-26.4,12.8-18.6,33.8-18.6,33.8c6.4,8.4,15.6,4.6,15.6,4.6c4.6-6.2,16.2-4,16.2-4c20.4,3.2,17.8-0.4,17.8-0.4c-2.4-4.6-18.6-10.8-18.8-11.4c-0.2-0.6-9-4-9-4c-3-1.2-7.4-10.4-7.4-10.4c-3.2-3.4,12.6,2.4,12.6,2.4c-1.2,1,6.2,5,6.2,5c17.4-1,28,9.8,28,9.8c10.8,16.6,11,8.4,11,8.4c2.8-9.4-9-30.6-9-30.6c0.4-2,8.6,4.6,8.6,4.6c1.4-2,2.2,3.8,2.2,3.8c0.2,2.4,4,10.4,4,10.4c2.8,13,6.4,5.6,6.4,5.6l4.6,9.4c1.4,2.6-4.6,10.2-4.6,10.2c-0.2,2.8,0.6,2.6-5,10.2c-5.6,7.6-2.2,12-2.2,12c-1.4,6.6,7.4,6.2,7.4,6.2c2.6,2.2,6,2.2,6,2.2c1.8,2,4.2,1.4,4.2,1.4c1.6-3.8,7.8-1.8,7.8-1.8c1.4-2.4,9.6-2.8,9.6-2.8c1-2.6,1.4-4.2,4.8-4.8c3.4-0.6-21.2-43.6-21.2-43.6c6.4-0.8-1.8-13.2-1.8-13.2c-2.2-6.6,9.2,8,11.4,9.4c2.2,1.4,3.2,3.6,1.6,3.4c-1.6-0.2-3.4,2-2,2.2c1.4,0.2,14.4,15.2,17.8,25.4c3.4,10.2,9.4,14.2,15.6,20.2c6.2,6,5.4,30.2,5.4,30.2c-0.4,8.8,5.6,19.4,5.6,19.4c2,3.8-2.2,22-2.2,22c-2,2.2-0.6,3-0.6,3c1,1.2,7.8,14.4,7.8,14.4c-1.8-0.2,1.8,3.4,1.8,3.4c5.2,6-1.2,3-1.2,3c-6-1.6,1,8.2,1,8.2c1.2,1.8-7.8-2.8-7.8-2.8c-9.2-0.6,2.4,6.6,2.4,6.6c8.6,7.2-2.8,2.8-2.8,2.8c-4.6-1.8-1.4,5-1.4,5c3.2,1.6,20.4,8.6,20.4,8.6c0.4,3.8-2.6,8.8-2.6,8.8c0.4,4-1.8,7.4-1.8,7.4c-1.2,8.2-1.8,9-1.8,9c-4.2,0.2-11.6,14-11.6,14c-1.8,2.6-12,14.6-12,14.6c-2,7-20-0.2-20-0.2c-6.6,3.4-4.6,0-4.6,0c-0.4-2.2,4.4-8.2,4.4-8.2c7-2.6,4.4-13.4,4.4-13.4c4-1.4-7.2-4.2-7-5.4c0.2-1.2,6-2.6,6-2.6c8-2,3.6-4.4,3.6-4.4c-0.6-4,2.4-9.6,2.4-9.6c11.6-0.8,0-17,0-17c-10.8-7.6-11.8-13.4-11.8-13.4c12.6-8.2,4.4-20.6,4.6-24.2c0.2-3.6,1.4-25.2,1.4-25.2c-2-6.2-5-19.8-5-19.8c2.2-5.2,9.6-17.8,9.6-17.8c2.8-4.2,11.6-9,9.4-12c-2.2-3-10-1.2-10-1.2c-7.8-1.4-7.2,3.8-7.2,3.8c-1.6,1-2.4,6-2.4,6c-0.7,7.9-9.6,14.2-9.6,14.2c-11.2,6.2-2,10.2-2,10.2c6,6.6-3.8,6.8-3.8,6.8c-11-1.8-2.8,8.4-2.8,8.4c10.8,12.8,7.8,15.6,7.8,15.6c-10.2,1,2.4,10.2,2.4,10.2c0,0-0.8-2-0.6-0.2c0.2,1.8,3.2,6,4,8c0.8,2-3.2,2.2-3.2,2.2c0.6,9.6-14.8,5.4-14.8,5.4c0,0,0,0-1.6,0.2c-1.6,0.2-12.8-0.6-18.6-2.8c-5.8-2.2-12.6-2.2-12.6-2.2c0,0-4,1.8-11.6,1.6c-7.6-0.2-15.6,2.6-15.6,2.6c-4.4-0.4,4.2-4.8,4.4-4.6c0.2,0.2,5.8-5.4-2.2-4.8c-21.8,1.6-32.6-8.6-32.6-8.6c-2-1.4-4.6-4.2-4.6-4.2c-10-2,1.4,12.4,1.4,12.4c1.2,1.4-0.2,2.4-0.2,2.4c-0.8-1.6-8.6-7-8.6-7c-2.8-1-4.2-2.3-6.5-4.8Z"/> </g> <g style="fill: #4c0000">  <path d="M-3,42.8c0,0,11.6,5.6,14.2,8.4c2.6,2.8,16.6,14.2,16.6,14.2c0,0-5.4-2-8-3.8c-2.6-1.8-13.4-10-13.4-10c0,0-3.8-6-9.4-8.8Z"/> </g> <g style="fill: #99cc32">  <path d="M-61,11.6c0.3-0.1-0.2-2.9-0.4-3.4c-1-2.7-10-4.2-10-4.2c-0.2,1.4-0.3,3-0.2,4.6c0,0,4.9,5.5,10.6,3Z"/> </g> <g style="fill: #659900">  <path d="M-61,11.4c-0.4,0.2,0-2.7-0.2-3.2c-1-2.7-10.2-4.3-10.2-4.3c-0.2,1.4-0.3,3-0.2,4.6c0,0,4.3,5.1,10.6,2.9Z"/> </g> <g style="fill: #000000">  <path d="M-65.4,11.5c-0.6,0-1.1-1.1-1.1-2.5c0-1.4,0.5-2.5,1.1-2.5c0.6,0,1.1,1.1,1.1,2.5c0,1.4-0.5,2.5-1.1,2.5Z"/> </g> <g style="fill: #000000">  <path d="M-65.4,9Z"/> </g> <g style="fill: #000000">  <path d="M-111,109.6c0,0-5.6,10,19.2,4c0,0,14-1.2,16.4-3.6c1.2,0.8,9.6,3.7,12.4,4.4c6.8,1.6,15.2-8.4,15.2-8.4c0,0,4.6-10.5,7.4-10.5c2.8,0-0.4,1.6-0.4,1.6c0,0-6.6,10.1-6.2,11.7c0,0-5.2,20-21.2,20.8c0,0-16.1,0.9-14.8,6.8c0,0,8.8-2.4,11.2,0c0,0,10.8-0.4,2.8,6l-6.8,11.6c0,0,0.1,3.9-10,0.4c-9.8-3.4-20.1-16.3-20.1-16.3c0,0-15.9-14.5-5.1-28.5Z"/> </g> <g style="fill: #e59999">  <path d="M-112.2,113.6c0,0-2,9.6,34.8-0.8c0,0,4.4,0,6.8,0.8c2.4,0.8,14.4,3.6,16.4,2.4c0,0-7.2,13.6-18.8,12c0,0-13.2,1.6-12.8,6.4c0,0,4,7.2,8.8,9.6c0,0,2.8,2.4,2.4,5.6c-0.4,3.2-3.2,4.8-5.2,5.6c-2,0.8-5.2-2.4-6.8-2.4c-1.6,0-10-6.4-14.4-11.2c-4.4-4.8-12.8-16.8-12.4-19.6c0.4-2.8,1.2-8.4,1.2-8.4Z"/> </g> <g style="fill: #b26565">  <path d="M-109,131.1c2.6,4,5.8,8.2,8,10.6c4.4,4.8,12.8,11.2,14.4,11.2c1.6,0,4.8,3.2,6.8,2.4c2-0.8,4.8-2.4,5.2-5.6c0.4-3.2-2.4-5.6-2.4-5.6c-3.1-1.5-5.8-5-7.4-7.3c0,0,0.2,2.5-5,1.7c-5.2-0.8-10.4-3.6-12-6.8c-1.6-3.2-4-5.6-2.4-2c1.6,3.6,4,7.2,5.6,7.6c1.6,0.4,1.2,1.6-1.2,1.2c-2.4-0.4-5.2-0.8-9.6-6Z"/> </g> <g style="fill: #992600">  <path d="M-111.6,110c0,0,1.8-13.6,3-17.6c0,0-0.8-6.8,1.6-11c2.4-4.2,4.4-10.4,7.4-15.8c3-5.4,3.2-9.4,7.2-11c4-1.6,10-10.2,12.8-11.2c2.8-1,2.6-0.2,2.6-0.2c0,0,6.8-14.8,20.4-10.8c0,0-16.2-2.8-0.4-12.2c0,0-4.8,1.1-1.5-5.9c2.2-4.7,1.7,2.1-9.3,13.9c0,0-5,8.6-10.2,11.6c-5.2,3-17.2,10-18.4,13.8c-1.2,3.8-4.4,9.6-6.4,11.2c-2,1.6-4.8,5.8-5.2,9.2c0,0-1.2,4-2.6,5.2c-1.4,1.2-1.6,4.4-1.6,6.4c0,2-2,4.8-1.8,7.2c0,0,0.8,19,0.4,21l2-3.8Z"/> </g> <g style="fill: #ffffff">  <path d="M-120.2,114.6c0,0-2-1.4-6.4,4.6c0,0,7.3,33,7.3,34.4c0,0,1.1-2.1-0.2-9.3c-1.3-7.2-2.2-19.9-2.2-19.9l1.5-9.8Z"/> </g> <g style="fill: #992600">  <path d="M-98.6,54c0,0-17.6,3.2-17.2,32.4l-0.8,24.8c0,0-1.2-25.6-2.4-27.2c-1.2-1.6,2.8-12.8-0.4-6.8c0,0-14,14-6,35.2c0,0,1.5,3.3-1.5-1.3c0,0-4.6-12.6-3.5-19c0,0,0.2-2.2,2.1-5c0,0,8.6-11.7,11.3-14c0,0,1.8-14.4,17.2-19.6c0,0,5.7-2.3,1.2,0.5Z"/> </g> <g style="fill: #000000">  <path d="M40.8,-12.2c0.7-0.4,0.7-1.3,1.2-1.5c1.1-0.3,1.3-1.4,1.8-2.2c0.9-1.3,1.1-2.9,1.6-4.3c0.3-0.7,0.3-1.7,0-2.3c-1.2-2.5-1.9-4.9-3.3-7.4c-0.3-0.5-0.5-1.2-0.7-1.8c-0.5-1.4-1.7-2.4-2.6-3.7c-0.3-0.4,0.2-1.4-0.5-1.5c-0.9-0.1-2.3-0.7-2.6,0.3c-0.6,2.6,0.4,5.1,1.4,7.6c-0.8,0.7-0.4,1.6-0.3,2.4c0.7,3.6-0.5,7-1.2,10.4c0,0.1,0.3,0.3,0.3,0.4c-1.2,2.7-2.7,5.1-4.5,7.5c-0.8,1-1.6,1.9-2.1,3c-0.4,0.8-0.8,1.8-0.5,2.7c-3.4,2.8-5.7,6.6-8.3,10.5c-0.5,0.7-0.2,1.9,0.4,2.2c0.8,0.4,1.8-0.6,2.2-1.5c0.4-0.7,0.7-1.3,1.2-2c0.1-0.2,0-0.6,0.1-0.7c2.6-2.3,4.3-5.3,6.8-7.7c1.9-0.3,3.5-1.3,5.2-2.3c0.3-0.2,0.8,0.1,1.1-0.1c1.8-1.2,1.8-3.2,1.9-5.1c0-0.9,0.2-2.2,1.4-2.8Z"/> </g> <g style="fill: #000000">  <path d="M32,-16.7c0.1-0.1,0-0.5,0.1-0.7c0.2-0.3,0.6-0.5,0.7-0.8c0.1-0.2-0.1-0.6,0.1-0.7c2.3-2.4,2.6-5.5,1.6-8.4c1-0.6,1.1-1.9,0.7-2.7c-0.9-1.7-1-3.6-2-5.2c-0.8-1.3-2.4-2.5-3.8-1.2c-0.4,0.4-0.7,1.2-0.5,1.9c0.1,0.2,0.3,0.3,0.3,0.4c-0.1,0.3-0.7,0.5-0.7,0.8c0,1.5-1,3-0.4,4.3c0.8,1.6,1.6,3.5,2.3,5.3c-1.2,2.1-0.2,4.6-2,6.4c-0.1,0.1-0.1,0.5,0,0.7c0.3,0.5,0.7,0.9,1.2,1.2c0.2,0.1,0.6,0.1,0.8,0c0.6-0.4,1-0.8,1.6-1.2Z"/> </g> <g style="fill: #000000">  <path d="M94.8,-27c1.4,1.8,1.7,4.6-0.4,6c0.5,3.3,3.9,1.3,6,0.8c-0.1-0.4,0.1-0.7,0.4-0.7c1.1,0,1.7-1,2.8-0.9c0.4-1.6,2.1-2.3,2.7-3.6c1.7-3.7,1.1-8-1.4-11.2c-0.2-0.3,0-0.8-0.1-1.1c-0.8-2.2-2.8-2.5-4.8-3.2c-1.2-3.9-1.8-7.9-3.6-11.6c-1.6-0.3-2.3-2-3.6-2.7c-1.3-0.7-1.9,0.9-1.9,1.9c0,0.2,0.5,0.4,0.3,0.8c-0.1,0.2-0.3,0.3-0.3,0.4c0,0.1,0.2,0.3,0.4,0.4c-0.9,0.8-2.3,1.3-2.6,2.4c-1,3.7,1.6,6.8,3.3,10c0.6,1.1-0.1,2.4-0.9,3.6c-0.4,0.7-0.3,1.8-0.1,2.7c0.8,2.3,2.3,4.1,3.9,6.1Z"/> </g> <g style="fill: #000000">  <path d="M57.6,-8.6c-1.5,1.9-4.9,4.4-2,6.3c0.2,0.1,0.6,0.1,0.7,0c2-1.6,4-2.5,6.5-3c0.1,0,0.4,0.4,0.8,0.3c1.6-0.7,3.6-0.6,4.8-2c3.8,0.2,7.3-0.9,10.7-2.2c1.2-0.4,2.4-1,3.6-1.5c1.4-0.6,2.6-1.5,3.7-2.6c0.1-0.1,0.5,0,0.8,0c0-0.9,0.9-1,1.2-1.6c0.1-0.2-0.1-0.6,0.1-0.7c2.1-1.6,3.1-3.6,1.9-6c-0.3-0.6-0.5-1.2-1.1-1.7c-1.1-0.9-2.2-0.1-3.2-0.4c-0.2,0.6-0.9,0.5-1.3,0.7c-0.9,0.4-2.2-0.1-3.1,0.3c-1.4,0.7-2.6,0.9-4,1.2c-0.3,0.1-1.1,0-1.3,0.6c-0.1-0.1-0.3-0.4-0.4-0.3c-1.9,0.4-3.2,0.6-4.5,2.3c-0.1,0.1-0.5,0-0.7,0.1c-1,0.8-1.4,2-2.5,2.7c-0.2,0.1-0.6,0-0.7,0.1c-0.6,0.4-1,1.1-1.7,1.5c-0.3,0.2-0.7-0.1-0.7-0.4c0.2-1.9,0.9-3.7,0.3-5.6c2.1-2.5,4.6-4.5,6.4-7.2c0-2.2,0.7-4.3,0.6-6.4c0-0.2-0.3-0.9-0.4-1.3c-0.3-0.9,0.6-1.9-0.3-2.6c-1.4-1.2-2.7-0.3-3.5,1.1c-1.8,0.4-3.9,1.1-5.5-0.2c-1-0.8-1.6-1.7-2.4-2.7c-1-1.3-0.6-2.7-0.6-4.3c0-0.1-0.3-0.3-0.3-0.4c0-0.1,0.2-0.3,0.4-0.4c-0.7-0.6-1-1.7-2-2c0.3-1.1-0.4-2-1.2-2.3c-2-0.7-3.7,1.2-5.6,1.3c-0.5,0-1-1-1.6-1.3c-0.4-0.2-1.1-0.2-1.5,0c-0.7,0.5-1.3,0.6-2,0.8c-1.6,0.4-2.9,1.5-4.4,2.4c-1.5,0.9-2.4,2.3-3.5,3.6c-0.9,1.2-1.1,3.6,0.3,4.1c1.8,0.6,3.1-2.1,5.1-1.7c0.3,0.1,0.5,0.4,0.4,0.8c0.4,0.1,0.6-0.1,0.8-0.4c0.9,1,2,1.4,3,2.2c1,0.9,2.7,0.5,3.7,1.5c1.5,1.5,1,4.2,2.9,5.5c-0.6,1.3-1.2,2.6-1.5,4c-0.3,1.2,0.7,2.4,1.9,2.3c1.3-0.1,1.5-0.9,2-1.9c0.3,0.3,0.7,0.6,0.7,0.8c-0.5,2.4-1.5,4.4-1.9,6.8c-0.1,0.3-0.4,0.5-0.8,0.4c-0.5,4.1-4.5,6.5-7.1,9.7c-0.4,0.5-0.4,1.8,0,2.2c1.4,1.4,3.4-0.2,5.1-0.7c0.2-1.2,1.1-2.1,2.4-2.1c0.3,0,0.5-0.5,0.8-0.7c0.3-0.1,0.9,0.1,1.1-0.1c1.7-1.2,3.1-2.3,4.9-3.5c0.2-0.1,0.5,0,0.8-0.1c0.3-0.2,0.5-0.5,0.8-0.7c0.3-0.2,0.6,0.1,0.8,0.4c-0.6,0.3-0.7,1.3-1.2,1.5c-0.8,0.3-1.3,0.8-2,1.2c-0.3,0.2-1-0.1-1.1,0.1c-0.6,1-1.8,1.5-2.5,2.3Z"/> </g> <g style="fill: #000000">  <path d="M2.2,-58c0,0-9.2-2.9-20.4,22.8c0,0-2.4,5.2-4.8,7.2c-2.4,2-13.6,5.6-15.6,9.6l-10.4,16c0,0,14.8-16,18-18.4c0,0,8-8.4,4.8-1.6c0,0-14,10.8-12.8,20c0,0-5.6,14.4-6.4,16.4c0,0,16-32,18.4-33.2c2.4-1.2,3.6-1.2,2.4,2.4c-1.2,3.6-1.6,20-4.4,22c0,0,8-20.4,7.2-23.6c0,0,3.2-3.6,5.6,1.6l-1.2,16l4.4,12c0,0-2.4-11.2-0.8-26.8c0,0-2-10.4,2-4.8c4,5.6,13.6,11.6,13.6,16.4c0,0-5.2-17.6-14.4-22.4l-4,6l-1.2-2c0,0-3.6-0.8,0.8-7.6c4.4-6.8,4-7.6,4-7.6c0,0,6.4,7.2,8,7.2c0,0,13.2-7.6,14.4,16.8c0,0,6.8-14.4-2.4-21.2c0,0-14.8-2-13.6-7.2l7.2-12.4c3.6-5.2,2-2.4,2-2.4Z"/> </g> <g style="fill: #000000">  <path d="M-17.8,-41.6c0,0-12.8,0-16,5.2l-7.2,9.6c0,0,17.2-10,21.2-11.2c4-1.2,2-3.6,2-3.6Z"/> </g> <g style="fill: #000000">  <path d="M-57.8,-35.2c0,0-2,1.2-2.4,4c-0.4,2.8-2.8,3.2-2,6c0.8,2.8,2.8,5.2,2.8,1.2c0-4,1.6-6,2.4-7.2c0.8-1.2,2.4-5.6-0.8-4Z"/> </g> <g style="fill: #000000">  <path d="M-66.6,26c0,0-8.4-4-11.6-7.6c-3.2-3.6-2.7,1.6-7.6,1.2c-5.8-0.4-4.8-16.4-4.8-16.4l-4,7.6c0,0-1.2,14.4,6.8,12c3.9-1.2,5.2,0.4,3.6,1.2c-1.6,0.8,5.6,1.2,2.8,2.8c-2.8,1.6,11.6-3.6,9.2,6.8l5.6-7.6Z"/> </g> <g style="fill: #000000">  <path d="M-79.2,40.4c0,0-15.4,4.4-19-5.2c0,0-4.8,2.4-2.6,5.4c2.2,3,3.4,3.4,3.4,3.4c0,0,5.4,1.2,4.8,2c-0.6,0.8-3,4.2-3,4.2c0,0,10.2-6,16.4-9.8Z"/> </g> <g style="fill: #ffffff">  <path d="M149.2,118.6c-0.4,2.1-2.1,2.9-4,3.6c-1.9-1-4.5-4.1-6.4-2c-0.5-0.5-1.3-0.5-1.6-1.2c-0.5-0.9-0.2-1.9-0.5-2.7c-0.5-1.3-1.3-2.6-1.1-4.1c1.8-0.7,2.4-2.6,1.9-4.4c-0.1-0.3-0.5-0.5-0.3-0.8c0.2-0.3,0.5-0.5,0.8-0.8c-0.1,0.1-0.3,0.4-0.4,0.3c-0.6-0.1-0.5-0.7-0.4-1.1c0.6-1.7,2.6-2,3.9-0.8c0.3-0.6,0.8-0.4,1.2-0.4c-0.1-0.6,0.4-1.1,0.6-1.5c0.5-1.1,2.1,0,2.9-0.6c1.1-0.8,2.1-1.5,3.2-0.9c1.8,1,3.5,2.2,4.7,4c0.6,0.8,0.8,2.1,0.8,3.1c0,0.6-1.4,0.3-1.8,1.2c-0.6,1.7,1.2,2.3,1.9,3.6c0.2,0.3-0.1,0.7-0.4,0.8c-0.4,0.1-1.2-0.1-1.1,0.4c1,3.2-1.8,3.9-4.1,4.4Z"/> </g> <g style="fill: #ffffff">  <path d="M139.6,138.2c0-1.7-1.6-3.5-0.4-5.2c0.1,0.1,0.3,0.4,0.4,0.4c0.1,0,0.3-0.2,0.4-0.4c1.5,2.2,5.1,3.1,5,6c0,0.4-1.1,1.4-0.2,2c-1.8,1.3-1.9,3.7-2.8,5.6c-1.2-0.3-2.5-0.6-3.6-1.2c0.4-1.5,0.2-3.2,1.1-4.5c0.4-0.7,0.1-1.8,0.1-2.7Z"/> </g> <g style="fill: #cccccc">  <path d="M-26.6,129.2c0,0-16.9,10.1-2.8-5.2c8.8-9.6,18.8-15.2,18.8-15.2c0,0,10.4-4.4,14-5.6c3.6-1.2,18.8-6.4,22-6.8c3.2-0.4,12.8-4.4,19.6-0.4c6.8,4,14.8,8.4,14.8,8.4c0,0-16.4-8.4-20-6c-3.6,2.4-10.8,2-16.8,5.2c0,0-14.8,4.4-18,6.4c-3.2,2-13.6,13.6-15.2,12.8c-1.6-0.8,0.4-1.2,1.6-4c1.2-2.8-0.8-4.4-8.8,2c-8,6.4-9.2,8.4-9.2,8.4Z"/> </g> <g style="fill: #000000">  <path d="M-19.2,123.2c0,0,1.4-13,9.9-11.4c0,0,8.2-4.2,10.9-6.1c0,0,8.1-1.7,9.4-2.3c18.5-8.7,33.2-4.2,33.7-5.3c0.5-1.1,20.2,6,23.8,10.1c0.4,0.4-10.2-5.6-19.9-7.5c-8.3-1.6-29.9,0.2-40.8,5.8c-3,1.5-11.9,7.3-14.4,7.2c-2.5-0.1-12.7,9.6-12.7,9.6Z"/> </g> <g style="fill: #cccccc">  <path d="M-23,148.8c0,0-15.2-2.4,1.6-4c0,0,18-2,22-7.2c0,0,13.6-9.2,16.4-9.6c2.8-0.4,32.8-7.6,33.2-10c0.4-2.4,6-2.4,7.6-1.6c1.6,0.8,0.8,2-2,2.8c-2.8,0.8-34,17.2-40.4,18.4c-6.4,1.2-18,8.8-22.8,10c-4.8,1.2-15.6,1.2-15.6,1.2Z"/> </g> <g style="fill: #000000">  <path d="M-3.5,141.4c0,0-8.6-0.8,0-1.6c0,0,8.8-3.4,10.9-6.1c0,0,7-4.7,8.4-4.9c1.4-0.2,15.4-3.9,15.6-5.1c0.2-1.2,34.3-13.8,38.7-10.6c2.9,2.1-7,0.4-16.6,4.8c-1.4,0.6-35.2,15.2-38.5,15.8c-3.3,0.6-9.2,4.5-11.7,5.1c-2.5,0.6-6.8,2.6-6.8,2.6Z"/> </g> <g style="fill: #000000">  <path d="M-11.4,143.6c0,0,5.2-0.4,4,1.2c-1.2,1.6-3.6,0.8-3.6,0.8l-0.4-2Z"/> </g> <g style="fill: #000000">  <path d="M-18.6,145.2c0,0,5.2-0.4,4,1.2c-1.2,1.6-3.6,0.8-3.6,0.8l-0.4-2Z"/> </g> <g style="fill: #000000">  <path d="M-29,146.8c0,0,5.2-0.4,4,1.2c-1.2,1.6-3.6,0.8-3.6,0.8l-0.4-2Z"/> </g> <g style="fill: #000000">  <path d="M-36.6,147.6c0,0,5.2-0.4,4,1.2c-1.2,1.6-3.6,0.8-3.6,0.8l-0.4-2Z"/> </g> <g style="fill: #000000">  <path d="M1.8,108c0,0,4.4,0,3.2,1.6c-1.2,1.6-4.4,1.2-4.4,1.2l1.2-2.8Z"/> </g> <g style="fill: #000000">  <path d="M-8.2,113.6c0,0,6.5-2.1,4,1.2c-1.2,1.6-3.6,0.8-3.6,0.8l-0.4-2Z"/> </g> <g style="fill: #000000">  <path d="M-19.4,118.4c0,0,5.2-0.4,4,1.2c-1.2,1.6-3.6,0.8-3.6,0.8l-0.4-2Z"/> </g> <g style="fill: #000000">  <path d="M-27,124.4c0,0,5.2-0.4,4,1.2c-1.2,1.6-3.6,0.8-3.6,0.8l-0.4-2Z"/> </g> <g style="fill: #000000">  <path d="M-33.8,129.2c0,0,5.2-0.4,4,1.2c-1.2,1.6-3.6,0.8-3.6,0.8l-0.4-2Z"/> </g> <g style="fill: #000000">  <path d="M5.3,135.6c0,0,6.9-0.5,5.3,1.6c-1.6,2.1-4.8,1.1-4.8,1.1l-0.5-2.7Z"/> </g> <g style="fill: #000000">  <path d="M15.7,130.8c0,0,6.9-0.5,5.3,1.6c-1.6,2.1-4.8,1.1-4.8,1.1l-0.5-2.7Z"/> </g> <g style="fill: #000000">  <path d="M26.5,126.4c0,0,6.9-0.5,5.3,1.6c-1.6,2.1-4.8,1.1-4.8,1.1l-0.5-2.7Z"/> </g> <g style="fill: #000000">  <path d="M36.9,121.6c0,0,6.9-0.5,5.3,1.6c-1.6,2.1-4.8,1.1-4.8,1.1l-0.5-2.7Z"/> </g> <g style="fill: #000000">  <path d="M9.3,103.6c0,0,6.9-0.5,5.3,1.6c-1.6,2.1-5.6,1.9-5.6,1.9l0.3-3.5Z"/> </g> <g style="fill: #000000">  <path d="M19.3,100.4c0,0,6.9-0.5,5.3,1.6c-1.6,2.1-6,1.9-6,1.9l0.7-3.5Z"/> </g> <g style="fill: #000000">  <path d="M-3.4,140.4c0,0,5.2-0.4,4,1.2c-1.2,1.6-3.6,0.8-3.6,0.8l-0.4-2Z"/> </g> <g style="fill: #992600">  <path d="M-76.6,41.2c0,0-4.4,8.8-4.8,12c0,0,0.8-8.8,2-10.8c1.2-2,2.8-1.2,2.8-1.2Z"/> </g> <g style="fill: #992600">  <path d="M-95,55.2c0,0-3.2,14.4-2.8,17.2c0,0-1.2-11.6-0.8-12.8c0.4-1.2,3.6-4.4,3.6-4.4Z"/> </g> <g style="fill: #cccccc">  <path d="M-74.2,-19.4l-0.2,3.2l-2.2,0.2c0,0,14.2,12.6,14.8,20.2c0,0,0.8-8.2-12.4-23.6Z"/> </g> <g style="fill: #000000">  <path d="M-70.2,-18.1c-0.4-0.4-0.2-1.2-0.6-1.4c-0.8-0.5,1.3-0.6,1.1-1.3c-0.4-1.2-0.2-1.2-0.3-2.5c-0.1-0.6,0.5-2.1,0.9-2.6c1.4-1.7,0.1-4.6,1.8-6.1c0.3-0.3,0.7-0.8,1-1.3c0.7-1,1.8-1.5,2.8-2.3c0.3-0.3,0.1-1.1,0.7-1c0.7,0.1,2,0,1.9,0.8c-0.1,2.1-1.4,3.8-2.7,5.5c0.5,0.7,0,1.3-0.3,1.9c-1.3,2.6-1.1,5.5-1.3,8.3c0,0.1-0.3,0.2-0.3,0.2c0.4,2.3,0.9,4.5,1.8,6.8c0.4,0.9,0.8,1.8,1,2.8c0.1,0.7,0.2,1.5-0.2,2.2c2,2.9,0.7,5.5,1.9,9.1c0.2,0.6,1.9,2.5,1.4,2.4c-2.5-0.9-2.6-1.3-2.8-2c-0.1-0.6-0.5-2-0.7-2.6c-0.1-0.2-0.2-2-0.3-2.2c-1.5-2.4-0.2-2.2-1.5-4.6c-1.4-0.7-2.4-1.8-3.5-2.9c-0.2-0.2,0.9-0.9,0.8-1.1c-1.1-1.3-2.2-2.1-1.9-3.5c0.2-0.7,0.3-1.7-0.5-2.5Z"/> </g> <g style="fill: #000000">  <path d="M-73.8,-16.4c0,0,0.4,6.8,2.8,8.4c2.4,1.6,1.2,0.8-2-0.4c-3.2-1.2-2-2-2-2c0,0-2.8,0.4-0.4,2.4c2.4,2,6,4.4,4.4,4.4c-1.6,0-9.2-4-9.2-6.8c0-2.8-1-6.9-1-6.9c0,0,1.1-0.8,5.9-0.7c0,0,1.4,0.7,1.5,1.6Z"/> </g> <g style="fill: #ffffff; stroke:#000000; stroke-width:0.1">  <path d="M-74.6,2.2c0,0-8.5-2.8-27,0.6c0,0,9-2.1,27.8,0.2c10.3,1.3-0.8-0.8-0.8-0.8Z"/> </g> <g style="fill: #ffffff; stroke:#000000; stroke-width:0.1">  <path d="M-72.5,2.1c0,0-8.2-3.5-27-1.7c0,0,9.2-1.3,27.7,2.6c10.2,2.1-0.7-0.9-0.7-0.9Z"/> </g> <g style="fill: #ffffff; stroke:#000000; stroke-width:0.1">  <path d="M-70.7,2.2c0,0-8-4.1-26.7-3.7c0,0,9.2-0.6,27.4,4.7c10,2.9-0.7-0.9-0.7-0.9Z"/> </g> <g style="fill: #ffffff; stroke:#000000; stroke-width:0.1">  <path d="M-69.4,2.4c0,0-6.8-4.3-23.7-5.4c0,0,8.3,0.2,24.2,6.3c8.7,3.4-0.5-0.9-0.5-0.9Z"/> </g> <g style="fill: #ffffff; stroke:#000000; stroke-width:0.1">  <path d="M45.8,13c0,0-0.9,0.6-0.7-0.5c0.2-1.2,28.4-14.4,32-14.1c0,0-30.2,13.2-31.3,14.6Z"/> </g> <g style="fill: #ffffff; stroke:#000000; stroke-width:0.1">  <path d="M42.4,13.6c0,0-0.9,0.7-0.8-0.5c0.1-1.2,27.2-16.5,30.8-16.6c0,0-29.1,15.5-30.1,17.1Z"/> </g> <g style="fill: #ffffff; stroke:#000000; stroke-width:0.1">  <path d="M39.2,15c0,0-0.8,0.8-0.8-0.4c0-1.2,19.9-16.7,29.7-18.6c0,0-18,8.1-28.9,19Z"/> </g> <g style="fill: #ffffff; stroke:#000000; stroke-width:0.1">  <path d="M36.3,16.8c0,0-0.7,0.7-0.7-0.4c0-1.1,17.9-15,26.7-16.7c0,0-16.2,7.3-26,17.1Z"/> </g> <g style="fill: #cccccc">  <path d="M4.6,164.8c0,0-15.2-2.4,1.6-4c0,0,18-2,22-7.2c0,0,13.6-9.2,16.4-9.6c2.8-0.4,19.2-4,19.6-6.4c0.4-2.4,6.4-4.8,8-4c1.6,0.8,1.6,10-1.2,10.8c-2.8,0.8-21.6,8-28,9.2c-6.4,1.2-18,8.8-22.8,10c-4.8,1.2-15.6,1.2-15.6,1.2Z"/> </g> <g style="fill: #000000">  <path d="M77.6,127.4c0,0-3,1.6-4.2,4.2c0,0-6.4,10.6-20.6,13.8c0,0-23,9-30.8,11c0,0-13.4,5-20.8,4.2c0,0-7,0.2-0.8,1.8c0,0,20.2-2,23.6-3.8c0,0,15.6-5.2,18.6-7.8c3-2.6,21.2-7.6,23.4-9.6c2.2-2,12-10.4,11.6-13.8Z"/> </g> <g style="fill: #000000">  <path d="M18.9,158.9c0,0,5.2-0.2,4.1,1.3c-1.2,1.5-3.6,0.7-3.6,0.7l-0.5-2Z"/> </g> <g style="fill: #000000">  <path d="M11.7,160.3c0,0,5.2-0.2,4.1,1.3c-1.2,1.5-3.6,0.7-3.6,0.7l-0.5-2Z"/> </g> <g style="fill: #000000">  <path d="M1.3,161.5c0,0,5.2-0.2,4.1,1.3c-1.2,1.5-3.6,0.7-3.6,0.7l-0.5-2Z"/> </g> <g style="fill: #000000">  <path d="M-6.4,162.1c0,0,5.2-0.2,4.1,1.3c-1.2,1.6-3.6,0.7-3.6,0.7l-0.5-2Z"/> </g> <g style="fill: #000000">  <path d="M35.4,151.5c0,0,7-0.3,5.4,1.8c-1.5,2.1-4.8,0.9-4.8,0.9l-0.6-2.7Z"/> </g> <g style="fill: #000000">  <path d="M45.7,147.1c0,0,6-3.3,5.4,1.8c-0.3,2.6-4.8,0.9-4.8,0.9l-0.6-2.7Z"/> </g> <g style="fill: #000000">  <path d="M54.9,144.3c0,0,7.2-3.7,5.4,1.8c-0.8,2.5-4.8,0.9-4.8,0.9l-0.6-2.7Z"/> </g> <g style="fill: #000000">  <path d="M64.4,139.4c0,0,4.4-4.9,5.4,1.8c0.4,2.5-4.8,0.9-4.8,0.9l-0.6-2.7Z"/> </g> <g style="fill: #000000">  <path d="M26.8,156c0,0,5.2-0.2,4.1,1.3c-1.2,1.5-3.6,0.7-3.6,0.7l-0.5-2Z"/> </g> <g style="fill: #ffffff; stroke:#000000; stroke-width:0.1">  <path d="M62.4,34.6c0,0-0.7,0.7-0.7-0.4c0-1.1,17.5-14.3,26.3-15.7c0,0-16.1,6.7-25.6,16.1Z"/> </g> <g style="fill: #000000">  <path d="M65.4,98.4c0,0,22,22.4,31.2,26c0,0,9.2,11.2,5.2,37.2c0,0-3.2,7.6-6.4-13.2c0,0,3.2-25.2-8-9.2c0,0-8.4-9.9-2-9.6c0,0,3.2,2,3.6,0.4c0.4-1.6-7.6-15.2-24.8-29.6c-17.2-14.4,1.2-2,1.2-2Z"/> </g> <g style="fill: #ffffff; stroke:#000000; stroke-width:0.1">  <path d="M7,137.2c0,0-0.2-1.8,1.6-1c1.8,0.8,96,7,127.6,31c0,0-45.2-23.2-129.2-30Z"/> </g> <g style="fill: #ffffff; stroke:#000000; stroke-width:0.1">  <path d="M17.4,132.8c0,0-0.2-1.8,1.6-1c1.8,0.8,138.4-0.2,162,32.2c0,0-22-25.2-163.6-31.2Z"/> </g> <g style="fill: #ffffff; stroke:#000000; stroke-width:0.1">  <path d="M29,128.8c0,0-0.2-1.8,1.6-1c1.8,0.8,175.2-12.2,198.8,20.2c0,0-9.6-25.6-200.4-19.2Z"/> </g> <g style="fill: #ffffff; stroke:#000000; stroke-width:0.1">  <path d="M39,124c0,0-0.2-1.8,1.6-1c1.8,0.8,124-37.8,147.6-5.4c0,0-13.4-24.6-149.2,6.4Z"/> </g> <g style="fill: #ffffff; stroke:#000000; stroke-width:0.1">  <path d="M-19,146.8c0,0-0.2-1.8,1.6-1c1.8,0.8,19.6,3,21.6,41.8c0,0-7.2-42-23.2-40.8Z"/> </g> <g style="fill: #ffffff; stroke:#000000; stroke-width:0.1">  <path d="M-27.8,148.4c0,0-0.2-1.8,1.6-1c1.8,0.8,16-3.8,13.2,35c0,0,1.2-35.2-14.8-34Z"/> </g> <g style="fill: #ffffff; stroke:#000000; stroke-width:0.1">  <path d="M-35.8,148.8c0,0-0.2-1.8,1.6-1c1.8,0.8,17.2,1.4,4.8,23.8c0,0,9.6-24-6.4-22.8Z"/> </g> <g style="fill: #ffffff; stroke:#000000; stroke-width:0.1">  <path d="M11.5,104.5c0,0-0.4,2,1.1,0.8c16.1-12.6,48.5-71.5,104.2-77.2c0,0-38.3-12.1-105.3,76.4Z"/> </g> <g style="fill: #ffffff; stroke:#000000; stroke-width:0.1">  <path d="M22.7,102.7c0,0-1.4-1.2,0.5-1.8c1.9-0.6,114.3-73.1,153.6-65.2c0,0-27.1-7.5-154.1,67Z"/> </g> <g style="fill: #ffffff; stroke:#000000; stroke-width:0.1">  <path d="M1.9,108.8c0,0-0.5,1.6,1.2,0.6c9-5.1,12.6-62.3,56.2-63.6c0,0-32.4-14.7-57.4,63Z"/> </g> <g style="fill: #ffffff; stroke:#000000; stroke-width:0.1">  <path d="M-18,119.8c0,0-1.1,1.3,0.9,1c10.2-1.3,31.7-42.6,76.1-37.5c0,0-32-14.3-77,36.5Z"/> </g> <g style="fill: #ffffff; stroke:#000000; stroke-width:0.1">  <path d="M-6.8,113.7c0,0-0.8,1.5,1.1,0.8c9.8-3.3,22.9-47.9,67.5-51.4c0,0-34.1-7.9-68.5,50.6Z"/> </g> <g style="fill: #ffffff; stroke:#000000; stroke-width:0.1">  <path d="M-25.1,124.9c0,0-0.9,1,0.7,0.8c8.3-1.1,25.6-34.5,61.6-30.4c0,0-25.9-11.6-62.3,29.6Z"/> </g> <g style="fill: #ffffff; stroke:#000000; stroke-width:0.1">  <path d="M-32.7,130.8c0,0-1,1,0.6,0.9c4.2-0.3,34.8-33.4,53.3-17.9c0,0-12-18.7-53.9,17Z"/> </g> <g style="fill: #ffffff; stroke:#000000; stroke-width:0.1">  <path d="M36.9,98.9c0,0-1.2-1.4,0.7-1.7c1.9-0.4,122.6-58.1,160.6-45.2c0,0-25.9-10.9-161.3,47Z"/> </g> <g style="fill: #ffffff; stroke:#000000; stroke-width:0.1">  <path d="M3.4,163.2c0,0-0.2-1.8,1.6-1c1.8,0.8,17.2,1.4,4.8,23.8c0,0,9.6-24-6.4-22.8Z"/> </g> <g style="fill: #ffffff; stroke:#000000; stroke-width:0.1">  <path d="M13.8,161.6c0,0-0.2-1.8,1.6-1c1.8,0.8,19.6,3,21.6,41.8c0,0-7.2-42-23.2-40.8Z"/> </g> <g style="fill: #ffffff; stroke:#000000; stroke-width:0.1">  <path d="M20.6,160c0,0-0.2-1.8,1.6-1c1.8,0.8,26.4,4.2,50,36.6c0,0-35.6-36.8-51.6-35.6Z"/> </g> <g style="fill: #ffffff; stroke:#000000; stroke-width:0.1">  <path d="M28.2,158c0,0-0.4-1.8,1.5-1.2c1.9,0.6,22.3-1.3,60.4,32.8c0,0-46.2-34.9-61.9-31.6Z"/> </g> <g style="fill: #ffffff; stroke:#000000; stroke-width:0.1">  <path d="M38.6,153.6c0,0-0.4-1.8,1.5-1.2c1.9,0.6,36.7,5.1,88.4,40c0,0-74.2-42.1-89.9-38.8Z"/> </g> <g style="fill: #ffffff; stroke:#000000; stroke-width:0.1">  <path d="M-1.8,142c0,0-0.2-1.8,1.6-1c1.8,0.8,55.2,3.4,85.6,30.2c0,0-34.9-24.8-87.2-29.2Z"/> </g> <g style="fill: #ffffff; stroke:#000000; stroke-width:0.1">  <path d="M-11.8,146c0,0-0.2-1.8,1.6-1c1.8,0.8,26.4,4.2,50,36.6c0,0-35.6-36.8-51.6-35.6Z"/> </g> <g style="fill: #ffffff; stroke:#000000; stroke-width:0.1">  <path d="M49.5,149c0,0-0.6-1.7,1.4-1.3c1.9,0.4,37,2.3,91.1,33.4c0,0-77.7-34.4-92.5-32.1Z"/> </g> <g style="fill: #ffffff; stroke:#000000; stroke-width:0.1">  <path d="M57.9,146.6c0,0-0.6-1.7,1.4-1.3c1.9,0.4,37,2.3,91.1,33.4c0,0-77.1-34.8-92.5-32.1Z"/> </g> <g style="fill: #ffffff; stroke:#000000; stroke-width:0.1">  <path d="M67.5,141.6c0,0-0.6-1.7,1.4-1.3c1.9,0.4,45,4.7,134.7,39c0,0-120.7-40.4-136.1-37.7Z"/> </g> <g style="fill: #000000">  <path d="M-43.8,148.4c0,0,5.2-0.4,4,1.2c-1.2,1.6-3.6,0.8-3.6,0.8l-0.4-2Z"/> </g> <g style="fill: #000000">  <path d="M-13,162.4c0,0,5.2-0.4,4,1.2c-1.2,1.6-3.6,0.8-3.6,0.8l-0.4-2Z"/> </g> <g style="fill: #000000">  <path d="M-21.8,162c0,0,5.2-0.4,4,1.2c-1.2,1.6-3.6,0.8-3.6,0.8l-0.4-2Z"/> </g> <g style="fill: #000000">  <path d="M-117.2,150.2c0,0,5,1.3,3.4,2.4c-1.7,1.1-3.7-0.4-3.7-0.4l0.3-2Z"/> </g> <g style="fill: #000000">  <path d="M-115.2,140.6c0,0,5,1.3,3.4,2.4c-1.7,1.1-3.7-0.4-3.7-0.4l0.3-2Z"/> </g> <g style="fill: #000000">  <path d="M-122.4,136.2c0,0,5,1.3,3.4,2.4c-1.7,1.1-3.7-0.4-3.7-0.4l0.3-2Z"/> </g> <g style="fill: #cccccc">  <path d="M-42.6,211.2c0,0-1.6,0-5.6,2c-2,0-13.2,3.6-18.8,13.6c0,0,12.4-9.6,24.4-15.6Z"/> </g> <g style="fill: #cccccc">  <path d="M45.1,303.8c0.1,0.3,0.2,0.7,0.5,0.7c0.7,0,1.9,0.3,1.8-0.3c-0.8-4.3-1.7-9.2-5.9-11.1c-0.6-0.3-2.1,0.1-2.2,1c-0.1,1.5-0.2,2.9,0.1,4.3c0.3,1.4,2.5,1.4,3.4,0c0.9,1.7,1.4,3.5,2.3,5.2Z"/> </g> <g style="fill: #cccccc">  <path d="M34,308.6c0.7,1.4,0.6,3.3,2,3.8c0.7,0.3,2.6-0.7,2.2-1.8c-0.8-2.1-1.2-4.3-2.6-6.1c-0.2-0.3,0-0.8-0.1-1.1c-0.6-1.2-1.7-2-3.1-1.6c-1.1,2.2,0,4.3,1.6,6c0.1,0.2,0,0.5,0.1,0.7Z"/> </g> <g style="fill: #cccccc">  <path d="M-5.6,303.4c-0.1-0.4-0.1-0.8,0-1.2c0.5-1,1.3-2.2,1-3.2c-0.3-1.1-1.5-0.9-2.1-0.3c-1.1,1-1.2,2.8-1.9,4.2c-0.2,0.4-0.1,1-0.6,1.3c-0.5,0.4-0.9,1.9-0.8,2.5c0.1,0.3-0.1,10.2,0.1,10c0.6-0.7,3.7-10.5,3.7-11.4c0.1-0.7,0.8-1.2,0.6-2Z"/> </g> <g style="fill: #cccccc">  <path d="M-31.2,296.6c2.6-2.5,5.4-5.5,5-9.2c-0.1-1-1.9-0.4-2.1,0.4c-0.8,3.6-2.8,6.3-5.4,8.7c-2.2,2-4.1,8.4-4.3,8.9c3.7-5.3,6-8,6.8-8.8Z"/> </g> <g style="fill: #cccccc">  <path d="M-44.8,290.6c0.5-0.4,0.2-0.9,0.4-1.2c1-1.5,2.3-2.7,2.3-4.4c0-0.3-0.4-0.6-0.7-0.4c-0.3,0.2-0.6,0.3-0.7,0.4c-2,2.4-3.4,5.1-4.9,7.9c-0.2,0.4-1.3,4.8-1,5c0.2,0.1,2-4.1,2.2-4.2c1.3-0.7,1.3-2.3,2.4-3.1Z"/> </g> <g style="fill: #cccccc">  <path d="M-28,310.2c0.4-0.9,2-2.1,1.9-3c-0.1-0.9,0.3-2.4-0.6-1.7c-1.3,0.9-4.7,2.3-5,8.1c0,0.6,2.9-2.1,3.6-3.5Z"/> </g> <g style="fill: #cccccc">  <path d="M-13.6,293c0.4-0.7,1.1-0.2,1.6-0.5c0.6-0.4,1.3-0.9,1.6-1.6c1-2.1,2.7-4,2.9-6.4c-1.5-1.4-2.2,0.6-2.8,1.6c-1.3-1.6-2.3,0.2-3.6,0.7c-0.1,0-0.3-0.3-0.4-0.3c-1.2,0.4-1.9,1.5-2.9,2.3c-0.2,0.1-0.6,0-0.7,0.1c-0.7,0.6-1.6,0.9-1.9,1.6c-1.1,2.7-4.3,4.8-6.1,12.3c0.4,0.9,4.5-6.6,5-7.3c0.8-1.2,1,1.7,2.2,1c0.1,0,0.2,0.2,0.4,0.3c0.2-0.3,0.4-0.5,0.8-0.4c0-0.4-0.1-1,0.1-1.1c1.2-1,1.2-2,1.9-3.3c0.5,0.8,1.5,0.1,2,0.8Z"/> </g> <g style="fill: #cccccc">  <path d="M46.2,347.4c0,0,7.4-20.4,3-31.6c0,0,11.4,21.6,6.8,32.8c0,0-0.4-10.4-4.4-15.4c0,0-4,12.8-5.4,14.2Z"/> </g> <g style="fill: #cccccc">  <path d="M31.4,344.8c0,0,5.4-8.8-2.6-27.2c0,0-0.8,20.4-7.6,31.4c0,0,14.2-20.2,10.2-4.2Z"/> </g> <g style="fill: #cccccc">  <path d="M21.4,342.8c0,0-0.2-20,0.2-23c0,0-3.8,16.6-14,26.2c0,0,14.4-12,13.8-3.2Z"/> </g> <g style="fill: #cccccc">  <path d="M11.8,310.8c0,0,6,13.6-4,32c0,0,6.4-12.2,1.6-19.2c0,0,2.6-3.4,2.4-12.8Z"/> </g> <g style="fill: #cccccc">  <path d="M-7.4,342.4c0,0-1-15.6,0.8-17.8c0,0,0.2-6.4-0.2-7.4c0,0,4-6.2,4.2,1.2c0,0,1.4,7.8,4.2,12.4c0,0,3.6,5.4,3.4,11.8c0,0-10-30.2-12.4-0.2Z"/> </g> <g style="fill: #cccccc">  <path d="M-11,314.8c0,0-6.6,10.8-8.4,29.8c0,0-1.4-6.2,2.4-20.6c0,0,4.2-15.4,6-9.2Z"/> </g> <g style="fill: #cccccc">  <path d="M-32.8,334.6c0,0,5-5.4,6.4-10.4c0,0,3.6-15.8-2.8-7.2c0,0,0.2,8-8,15.4c0,0,4.8-2.4,4.4,2.2Z"/> </g> <g style="fill: #cccccc">  <path d="M-38.6,329.6c0,0,3.4-17.4,4.2-18.2c0,0,1.8-3.4-1-0.2c0,0-8.8,19.2-12.8,25.8c0,0,8-9.2,9.6-7.4Z"/> </g> <g style="fill: #cccccc">  <path d="M-44.4,313c0,0,11.6-22.4-10.2,3.4c0,0,11-9.8,10.2-3.4Z"/> </g> <g style="fill: #cccccc">  <path d="M-59.8,298.4c0,0,4.8-18.8,7.4-18.6c0,0,8.2-9,1.6,1.6c0,0-6,9.6-5.4,19.4c0,0-0.6-9.6-3.6-2.4Z"/> </g> <g style="fill: #cccccc">  <path d="M270.5,287c0,0-12-10-14.5-13.5c0,0,13.5,18.5,13.5,25.5c0,0,2.5-7.5,1-12Z"/> </g> <g style="fill: #cccccc">  <path d="M276,265c0,0-21-15-24.5-22.5c0,0,26.5,29.5,26.5,34c0,0,0.5-9-2-11.5Z"/> </g> <g style="fill: #cccccc">  <path d="M293,111c0,0-12-8-13.5-6c0,0,10.5,6.5,13,15c0,0-1.5-9,0.5-9Z"/> </g> <g style="fill: #cccccc">  <path d="M301.5,191.5l-17.5-12c0,0,19,17,19.5,21l-2-9Z"/> </g> <g style="stroke:#000000">  <path d="M-89.3,169l22,4.8"/> </g> <g style="stroke:#000000">  <path d="M-39,331c0,0-0.5-3.5-9.5,7"/> </g> <g style="stroke:#000000">  <path d="M-33.5,336c0,0,2-6.5-4.5-2"/> </g> <g style="stroke:#000000">  <path d="M20.5,344.5c0,0,1.5-11-10,2"/> </g></g></svg>