<svg xmlns="http://www.w3.org/2000/svg" xmlns:xlink="http://www.w3.org/1999/xlink" width="100%" height="100%" viewBox="0 0 110 30" preserveAspectRatio="xMidYMid meet" version="1.1" >
<script type="text/ecmascript"><![CDATA[
 var micon = {
	tip : null,r : null,t : null,c : null,
	check : function(o,m) {
		try {return typeof(o[m])!='undefined';} catch(ex) {return false;}
	},
	selectR : function(r) {
		if (micon.c!=null) micon.c.setAttribute('class','icon');
		micon.c=r;micon.c.setAttribute('class','iconS');
	},
	select : function(id) {
		var e = document.getElementById("u"+id);
		if (e!=null) micon.selectR(e.nextSibling);
	},
	oniconDown : function(evt) {
		let m="onStartShapeTaskTool",g =evt.target.previousSibling;
		micon.selectR(evt.target);
		if (micon.check(window.parent,m)) window.parent[m](g);
		else if (micon.check(window,m)) window[m](g);		
	},
	oniconOver : function(evt,code,dx,dy) {
		var tr = evt.target.parentNode.getAttribute("transform");
		if (micon.tip==null) {micon.tip = document.getElementById("icon-tip");micon.r = micon.tip.firstChild;micon.t = micon.tip.lastChild;}
		micon.tip.setAttribute("transform",tr+ " translate("+dx+" "+dy+")");micon.tip.setAttribute("visibility","visible");micon.t.firstChild.data=code;
		var b = micon.t.getBBox();
		micon.r.x.baseVal.value=b.x-1;micon.r.y.baseVal.value=b.y-1;micon.r.width.baseVal.value=b.width+2;micon.r.height.baseVal.value=b.height+2;
	},
	oniconOut : function(evt) {if (micon.tip!=null) micon.tip.setAttribute("visibility","hidden");}	
 };
 window['micon_select']=micon.select;
 window['micon_oniconDown']=micon.oniconDown;
 window['micon_oniconOver']=micon.oniconOver;
 window['micon_oniconOut']=micon.oniconOut;
 ]]></script>

<style type="text/css"><![CDATA[
text.unselect {
	pointer-events:none;
	-moz-user-select: none;
	-webkit-user-select: none;
	-ms-user-select: none;
}
g.icon {
	fill:white;stroke:none;
}
rect.icon {
	fill:white;fill-opacity:0.1;stroke-width:0.2;stroke-dasharray: 1px, 1px;
}
rect.icon:hover{
	stroke:gray;fill-opacity:0.001;
}
rect.iconS {
	stroke:black;fill:#303e45;fill-opacity:0.1;stroke-width:0.2;
}
text.icon {
	font-size:2;
}
rect.icontip {
	fill: #FFEFD5;
      }
text.icontip {
	fill:navy;font-weight:bold;text-anchor:middle;
      }
]]></style>

<defs id="defSymbols">
<symbol id="custom-apereo" viewBox="0 0 512 512" preserveAspectRatio="xMidYMid meet"><rect width="512" height="512" rx="15%" fill="#fff"/><path d="m231,96c-97,0-171,97-150,203 30,104 162,142 258,80-15-32 0-66-21-99-36,68-112,93-165,19-32-57 6-112 36-125 82-42 120,13 205-10 10-4 23-30 32-46-72,13-116-15-179-22z" fill="#344"/><path d="m313 191c27 4 57 4 80-4 10 95-21 122 40 226-19-10-42-15-48-15-6 4-17 11-23 17-65-74-36-175-51-224z" fill="#6bc"/></symbol><symbol id="custom-backbone" viewBox="0 0 512 512" preserveAspectRatio="xMidYMid meet"><rect width="512" height="512" rx="15%" fill="#fff"/><g stroke="#848484" stroke-width="2"><path d="M380 102v167l-124 70v-48l83-47v-74l-83 47v-44l124-71"/><path fill="#002a41" d="M132 102v167l124 70v-48l-83-47v-74l83 47v-44l-124-71M380 410V243l-124-70v48l83 47v71l-83-48v48l124 71"/><path d="M132 410V243l124-70v48l-83 47v71l83-48v48l-124 71"/></g></symbol><symbol id="custom-bitcoin" viewBox="0 0 512 512" preserveAspectRatio="xMidYMid meet"><rect width="512" height="512" rx="15%" fill="#f7931a"/><path fill="#fff" d="m391 216c6-43-25-64-68-79l14-55-34-9-13 54-28-7 14-54-35-9-13 56-22-5-47-12-8 36 24 6c14 4 17 14 15 21l-15 63 3 1-3-1-22 89c-2 5-6 11-16 8l-24-6-17 39 68 17-13 57 33 8 14-55 26 6-13 55 34 9 14-56c58 11 102 6 120-46 14-42-1-66-32-82 22-5 39-20 44-49zm-77 108c-11 41-82 20-105 14l19-75c23 6 97 17 86 61zm9-110c-9 39-67 20-87 15l17-68c20 5 81 14 70 53z"/></symbol><symbol id="custom-drone" viewBox="0 0 512 512" preserveAspectRatio="xMidYMid meet"><rect width="512" height="512" rx="15%" fill="#fff"/><path fill="#1E375A" d="M150 112l61 64c-9 14-14 31-14 50 0 54 39 89 89 89 18 0 35-5 50-14l62 63c-32 43-84 70-142 70-98 0-178-77-178-178 0-60 28-112 72-144zm29-17c24-11 50-17 77-17 98 0 178 77 178 178 0 28-6 54-17 77l-56-57c9-14 14-30 14-50 0-53-40-89-89-89-19 0-36 5-50 14zm107 185c-30 0-54-22-54-54s24-53 54-53 53 21 53 53-23 54-53 54z"/></symbol><symbol id="custom-firefox" viewBox="0 0 512 512" preserveAspectRatio="xMidYMid meet"><rect width="512" height="512" rx="15%" fill="#fff"/><linearGradient id="a" x1=".7" x2=".3" y2=".8"><stop offset=".3" stop-color="#fd5"/><stop offset=".6" stop-color="#f85"/><stop offset="1" stop-color="#d06"/></linearGradient><radialGradient id="b" cx=".4" cy=".7"><stop offset=".4" stop-color="#74d"/><stop offset="1" stop-color="#a2d"/></radialGradient><linearGradient id="c" x1=".8" y1=".2" x2=".4" y2=".8"><stop offset=".2" stop-color="#fd5"/><stop offset="1" stop-color="#f33"/></linearGradient><g transform="scale(4)"><path d="M48 49s-3-9-1-16c-9 2-33 35-33 35a51 48 0 1087-32s5 9 5 15c-3-9-20-25-26-37-24 13-16 39-16 39" fill="url(#a)"/><circle cx="64" cy="67" r="26" fill="url(#b)"/><path d="M21 45l43 12c-6 11-16 3-23 14a22 22 0 1034-20s33 3 17 42H28m36 25h1" fill="url(#a)"/><path d="M35 43c16 0 12 7 29 14-18 6-23-9-38 0 5 9 12 8 12 8 1 43 72 29 67-17a50 46.6 47 01-88 33c-9-18-1-40 16-51" fill="url(#c)"/></g></symbol><symbol id="custom-gandi" viewBox="0 0 512 512" preserveAspectRatio="xMidYMid meet"><rect width="512" height="512" rx="15%" fill="url(#a)"/><defs><linearGradient id="a" x1="72" y1="512" x2="433" y2="12" gradientUnits="userSpaceOnUse"><stop offset="0" stop-color="#3daca3"/><stop offset="1" stop-color="#13526b"/></linearGradient></defs><path fill="#fff" d="M255 66a54 54 0 1054 54 54 54 0 00-54-54zm0 71a17 17 0 1117-17 17 17 0 01-17 17z"/><path fill="#fff" d="M145 155c13-13 27-5 34 1s26 43 76 43 64-28 80-44c10-11 24-8 33 1s6 25 0 33c-36 49-97 69-116 82-29 20-49 40-49 69 0 24 17 60 53 60s52-25 52-37c0-15-10-19-13-19-15 0-15 18-34 18-15 0-22-12-22-24 0-18 27-42 55-42 38 0 62 27 62 64 0 42-39 88-99 88-65 0-102-61-102-106s21-78 56-101c-26-10-51-27-71-58-2-2-9-16 5-28z"/></symbol><symbol id="custom-ghost" viewBox="0 0 512 512" preserveAspectRatio="xMidYMid meet"><rect width="512" height="512" rx="15%" fill="#e8e9eb"/><path stroke="#3d515b" stroke-width="61" d="M101 134h187zm246 0h61zM101 257h310zm0 121h123zm187 0h123z"/></symbol><symbol id="custom-html5" viewBox="0 0 512 512" preserveAspectRatio="xMidYMid meet"><path fill="#e34f26" d="M71 460L30 0h451l-41 460-185 52"/><path fill="#ef652a" d="M256 472l149-41 35-394H256"/><path fill="#ebebeb" d="M256 208h-75l-5-58h80V94H114l15 171h127zm-1 147l-63-17-4-45h-56l7 89 116 32z"/><path fill="#fff" d="M255 208v57h70l-7 73-63 17v59l116-32 16-174zm0-114v56h137l5-56z"/></symbol><symbol id="custom-java" viewBox="0 0 512 512" preserveAspectRatio="xMidYMid meet"><rect width="512" height="512" rx="15%" fill="#fff"/><path d="M274 235c18 21-5 40-5 40s47-24 25-54-35-42 48-90C342 130 211 163 274 235M294 53s40 40-38 100c-62 49-14 77 0 109-36-33-63-61-45-88C238 134 310 115 294 53" fill="#f8981d"/><path d="M206 347s-15 8 10 11 46 3 79-3a137 137 0 0 0 21 10C242 397 147 364 206 347m-9-42s-16 12 9 15 58 4 102-5a45 45 0 0 0 16 10C233 351 132 327 197 305m175 73s11 9-12 16c-43 13-179 17-217 1-14-6 15-17 33-17-17-10-98 21-42 30C287 432 412 396 372 378M213 262s-69 16-25 22c19 3 57 2 92-1s57-8 57-8a122 122 0 0 0-17 9c-70 18-206 10-167-9S213 262 213 262m124 69c73-37 39-80 7-66 36-30 101 36-9 68v-2M220 432c69 4 174-2 176-35 0 0-5 12-57 22s-131 10-174 3C166 422 175 429 220 432" fill="#5382a1"/></symbol><symbol id="custom-json" viewBox="0 0 512 512" preserveAspectRatio="xMidYMid meet"><rect width="512" height="512" rx="15%" fill="#fff"/><linearGradient id="a" x1=".175" y1=".15" x2="1" y2=".85"><stop offset="0"/><stop offset="1" stop-color="#fff"/></linearGradient><path id="b" fill="url(#a)" d="M256 64c-99 0-192 81-192 192 0 123 102 192 192 192-21 0-125-23-125-166 0-89 73-139 125-119 0 0 56 21 56 93s-56 93-56 93c51 20 125-27 125-119 0-129-87-166-125-166z"/><use transform="rotate(180 256 256)" href="#b"/></symbol><symbol id="custom-mail" viewBox="0 0 512 512" preserveAspectRatio="xMidYMid meet"><rect width="512" height="512" rx="15%" fill="#328cff"/><path d="m250 186c-46 0-69 35-69 74 0 44 29 72 68 72 43 0 73-32 73-75 0-44-34-71-72-71zm-1-37c30 0 57 13 77 33 0-22 35-22 35 1v150c-1 10 10 16 16 9 25-25 54-128-14-187-64-56-149-47-195-15-48 33-79 107-49 175 33 76 126 99 182 76 28-12 41 26 12 39-45 19-168 17-225-82-38-68-36-185 67-248 78-46 182-33 244 32 66 69 62 197-2 246-28 23-71 1-71-32v-11c-20 20-47 32-77 32-57 0-108-51-108-108 0-58 51-110 108-110" fill="#fff"/></symbol><symbol id="custom-print" viewBox="0 0 512 512" preserveAspectRatio="xMidYMid meet"><rect width="512" height="512" rx="15%" fill="#fff"/><path d="M416.155 164.483H95.845c-38.895 0-68.638 29.743-68.638 68.638v137.275h91.517v91.518h274.552v-91.518h91.517V233.121c0-38.895-29.743-68.638-68.638-68.638zm-68.638 251.672H164.483V301.759h183.034v114.396zM416.155 256c-13.728 0-22.879-9.152-22.879-22.879 0-13.728 9.151-22.88 22.879-22.88 13.728 0 22.879 9.152 22.879 22.88 0 13.727-9.151 22.879-22.879 22.879zM393.276 50.086H118.724v91.518h274.552V50.086z"/></symbol><symbol id="custom-svg" viewBox="0 0 512 512" preserveAspectRatio="xMidYMid meet"><rect width="512" height="512" rx="15%" fill="#f90"/><path d="M122 157h268v99H122"/><g id="a" fill="#fff" stroke="#000" stroke-width="24"><circle cx="256" cy="120" r="44"/><circle cx="120" cy="256" r="44"/><circle cx="160" cy="160" r="44"/></g><use href="#a" transform="matrix(-1 0 0 1 512 0)"/><path stroke="#fff" stroke-width="44" d="M396 256H256l96-96-96 96V120v136l-96-96 96 96H116"/><path d="M64.1 256h384v170a22 22 0 01-22 22h-340a22 22 0 01-22-22V256"/><path fill="none" stroke="#fff" stroke-width="30" d="M191 318a35 35 0 10-35 35 35 35 0 11-35 35m171-125l-36 172-36-172m-29 55a35 35 0 10-35 35 35 35 0 11-35 35m270-70a35 35 0 00-35-35 35 35 0 00-35 35v70a35 35 0 0035 35 35 35 0 0035-35v-35h-35"/><path d="M64 256h384v12H64"/></symbol><symbol id="custom-tumblr" viewBox="0 0 512 512" preserveAspectRatio="xMidYMid meet"><rect width="512" height="512" rx="15%" fill="#35465c"/><path fill="#fff" d="M361 415c-12 13-40 21-65 21h-3c-85 0-103-61-103-98V236h-35c-3 0-6-3-6-8v-47c0-6 3-10 7-11 44-17 57-54 60-83 0-8 5-11 12-11h50c4 0 6 3 6 6v82h58c5 0 8 3 8 8v56c0 4-3 7-8 7h-58v94c0 24 16 30 25 30 10 0 18-2 23-4 8-4 13 1 14 4l15 45c2 4 3 8 0 11z"/></symbol><symbol id="custom-wifi" viewBox="0 0 512 512" preserveAspectRatio="xMidYMid meet"><rect width="512" height="512" rx="15%" fill="#fff"/><path d="M392 220a11 11 0 110-1zm-152 0a11 11 0 110-1zm-111-48a63 63 0 00-63 63v41a63 63 0 0063 63h254a63 63 0 0063-63v-41a63 63 0 00-63-63zm243 66v60h18v-60zm-79-27v87h19v-34h44v-18h-44v-18h47v-17zm-176 0l13 56l17-56h15l17 58l14-58h17l-23 87h-16l-17-60l-18 60h-15l-23-87zm121 27v60h-18v-60zm202 39a56 56 0 01-56 56H209a56 56 0 0056-56v-43a56 56 0 0156-56h63a56 56 0 0156 56zm-290 74a142 142 0 00212 0zm212-191a142 142 0 00-212 0z"/></symbol></defs>
<defs>
	<clipPath id="icontip-clip"><rect height="4" width="10" x="-5" y="3"/></clipPath>
	<!-- pas d'espace !! -->
	
</defs>
	<g id="icon-mnu" style="fill:rosybrown;stroke:none;">
	<g transform="translate(5 5)"><use id="ucustom-apereo" xlink:href="#custom-apereo" x="1" y="1" width="8" height="8"/><rect class="icon" height="10" stroke-width="0.1" onmousedown="window.micon_oniconDown(evt)" ontouchstart="window.micon_oniconDown(evt)" onmouseover="window.micon_oniconOver(evt,'apereo',5,0);" onmouseout="window.micon_oniconOut(evt);" width="10" x="0" y="0" id="r0"/></g><g transform="translate(15 5)"><use id="ucustom-backbone" xlink:href="#custom-backbone" x="1" y="1" width="8" height="8"/><rect class="icon" height="10" stroke-width="0.1" onmousedown="window.micon_oniconDown(evt)" ontouchstart="window.micon_oniconDown(evt)" onmouseover="window.micon_oniconOver(evt,'backbone',0,0);" onmouseout="window.micon_oniconOut(evt);" width="10" x="0" y="0" id="r1"/></g><g transform="translate(25 5)"><use id="ucustom-bitcoin" xlink:href="#custom-bitcoin" x="1" y="1" width="8" height="8"/><rect class="icon" height="10" stroke-width="0.1" onmousedown="window.micon_oniconDown(evt)" ontouchstart="window.micon_oniconDown(evt)" onmouseover="window.micon_oniconOver(evt,'bitcoin',0,0);" onmouseout="window.micon_oniconOut(evt);" width="10" x="0" y="0" id="r2"/></g><g transform="translate(35 5)"><use id="ucustom-drone" xlink:href="#custom-drone" x="1" y="1" width="8" height="8"/><rect class="icon" height="10" stroke-width="0.1" onmousedown="window.micon_oniconDown(evt)" ontouchstart="window.micon_oniconDown(evt)" onmouseover="window.micon_oniconOver(evt,'drone',0,0);" onmouseout="window.micon_oniconOut(evt);" width="10" x="0" y="0" id="r3"/></g><g transform="translate(45 5)"><use id="ucustom-firefox" xlink:href="#custom-firefox" x="1" y="1" width="8" height="8"/><rect class="icon" height="10" stroke-width="0.1" onmousedown="window.micon_oniconDown(evt)" ontouchstart="window.micon_oniconDown(evt)" onmouseover="window.micon_oniconOver(evt,'firefox',0,0);" onmouseout="window.micon_oniconOut(evt);" width="10" x="0" y="0" id="r4"/></g><g transform="translate(55 5)"><use id="ucustom-gandi" xlink:href="#custom-gandi" x="1" y="1" width="8" height="8"/><rect class="icon" height="10" stroke-width="0.1" onmousedown="window.micon_oniconDown(evt)" ontouchstart="window.micon_oniconDown(evt)" onmouseover="window.micon_oniconOver(evt,'gandi',0,0);" onmouseout="window.micon_oniconOut(evt);" width="10" x="0" y="0" id="r5"/></g><g transform="translate(65 5)"><use id="ucustom-ghost" xlink:href="#custom-ghost" x="1" y="1" width="8" height="8"/><rect class="icon" height="10" stroke-width="0.1" onmousedown="window.micon_oniconDown(evt)" ontouchstart="window.micon_oniconDown(evt)" onmouseover="window.micon_oniconOver(evt,'ghost',0,0);" onmouseout="window.micon_oniconOut(evt);" width="10" x="0" y="0" id="r6"/></g><g transform="translate(75 5)"><use id="ucustom-html5" xlink:href="#custom-html5" x="1" y="1" width="8" height="8"/><rect class="icon" height="10" stroke-width="0.1" onmousedown="window.micon_oniconDown(evt)" ontouchstart="window.micon_oniconDown(evt)" onmouseover="window.micon_oniconOver(evt,'html5',0,0);" onmouseout="window.micon_oniconOut(evt);" width="10" x="0" y="0" id="r7"/></g><g transform="translate(85 5)"><use id="ucustom-java" xlink:href="#custom-java" x="1" y="1" width="8" height="8"/><rect class="icon" height="10" stroke-width="0.1" onmousedown="window.micon_oniconDown(evt)" ontouchstart="window.micon_oniconDown(evt)" onmouseover="window.micon_oniconOver(evt,'java',0,0);" onmouseout="window.micon_oniconOut(evt);" width="10" x="0" y="0" id="r8"/></g><g transform="translate(95 5)"><use id="ucustom-json" xlink:href="#custom-json" x="1" y="1" width="8" height="8"/><rect class="icon" height="10" stroke-width="0.1" onmousedown="window.micon_oniconDown(evt)" ontouchstart="window.micon_oniconDown(evt)" onmouseover="window.micon_oniconOver(evt,'json',-5,0);" onmouseout="window.micon_oniconOut(evt);" width="10" x="0" y="0" id="r9"/></g><g transform="translate(5 15)"><use id="ucustom-mail" xlink:href="#custom-mail" x="1" y="1" width="8" height="8"/><rect class="icon" height="10" stroke-width="0.1" onmousedown="window.micon_oniconDown(evt)" ontouchstart="window.micon_oniconDown(evt)" onmouseover="window.micon_oniconOver(evt,'mail',5,0);" onmouseout="window.micon_oniconOut(evt);" width="10" x="0" y="0" id="r10"/></g><g transform="translate(15 15)"><use id="ucustom-print" xlink:href="#custom-print" x="1" y="1" width="8" height="8"/><rect class="icon" height="10" stroke-width="0.1" onmousedown="window.micon_oniconDown(evt)" ontouchstart="window.micon_oniconDown(evt)" onmouseover="window.micon_oniconOver(evt,'print',0,0);" onmouseout="window.micon_oniconOut(evt);" width="10" x="0" y="0" id="r11"/></g><g transform="translate(25 15)"><use id="ucustom-svg" xlink:href="#custom-svg" x="1" y="1" width="8" height="8"/><rect class="icon" height="10" stroke-width="0.1" onmousedown="window.micon_oniconDown(evt)" ontouchstart="window.micon_oniconDown(evt)" onmouseover="window.micon_oniconOver(evt,'svg',0,0);" onmouseout="window.micon_oniconOut(evt);" width="10" x="0" y="0" id="r12"/></g><g transform="translate(35 15)"><use id="ucustom-tumblr" xlink:href="#custom-tumblr" x="1" y="1" width="8" height="8"/><rect class="icon" height="10" stroke-width="0.1" onmousedown="window.micon_oniconDown(evt)" ontouchstart="window.micon_oniconDown(evt)" onmouseover="window.micon_oniconOver(evt,'tumblr',0,0);" onmouseout="window.micon_oniconOut(evt);" width="10" x="0" y="0" id="r13"/></g><g transform="translate(45 15)"><use id="ucustom-wifi" xlink:href="#custom-wifi" x="1" y="1" width="8" height="8"/><rect class="icon" height="10" stroke-width="0.1" onmousedown="window.micon_oniconDown(evt)" ontouchstart="window.micon_oniconDown(evt)" onmouseover="window.micon_oniconOver(evt,'wifi',0,0);" onmouseout="window.micon_oniconOut(evt);" width="10" x="0" y="0" id="r14"/></g></g>
	<g id="icon-tip" visibility="hidden"><rect rx="0.5" class="icontip"/><text font-size="2.5" class="icontip unselect" x="5" y="12">aa</text></g> 
</svg>