<svg xmlns="http://www.w3.org/2000/svg" xmlns:xlink="http://www.w3.org/1999/xlink" width="100%" height="100%" viewBox="0 0 110 20" preserveAspectRatio="xMidYMid meet" version="1.1">
<script type="text/ecmascript"><![CDATA[
 var micon = {
	tip : null,r : null,t : null,c : null,
	check : function(o,m) {
		try {return typeof(o[m])!='undefined';} catch(ex) {return false;}
	},
	selectR : function(r) {
		if (micon.c!=null) micon.c.setAttribute('class','icon');
		micon.c=r;micon.c.setAttribute('class','iconS');
	},
	select : function(id) {
		var e = document.getElementById("u"+id);
		if (e!=null) micon.selectR(e.nextSibling);
	},
	oniconDown : function(evt) {
		let m="onStartShapeTaskTool",g =evt.target.previousSibling;
		micon.selectR(evt.target);
		if (micon.check(window.parent,m)) window.parent[m](g);
		else if (micon.check(window,m)) window[m](g);		
	},
	oniconOver : function(evt,code,dx,dy) {
		var tr = evt.target.parentNode.getAttribute("transform");
		if (micon.tip==null) {micon.tip = document.getElementById("icon-tip");micon.r = micon.tip.firstChild;micon.t = micon.tip.lastChild;}
		micon.tip.setAttribute("transform",tr+ " translate("+dx+" "+dy+")");micon.tip.setAttribute("visibility","visible");micon.t.firstChild.data=code;
		var b = micon.t.getBBox();
		micon.r.x.baseVal.value=b.x-1;micon.r.y.baseVal.value=b.y-1;micon.r.width.baseVal.value=b.width+2;micon.r.height.baseVal.value=b.height+2;
	},
	oniconOut : function(evt) {if (micon.tip!=null) micon.tip.setAttribute("visibility","hidden");}	
 };
 window['micon_select']=micon.select;
 window['micon_oniconDown']=micon.oniconDown;
 window['micon_oniconOver']=micon.oniconOver;
 window['micon_oniconOut']=micon.oniconOut;
 ]]></script>

<style type="text/css"><![CDATA[
text.unselect {
	pointer-events:none;
	-moz-user-select: none;
	-webkit-user-select: none;
	-ms-user-select: none;
}
g.icon {
	fill:white;stroke:none;
}
rect.icon {
	fill:white;fill-opacity:0.1;stroke-width:0.2;stroke-dasharray: 1px, 1px;
}
rect.icon:hover{
	stroke:gray;fill-opacity:0.001;
}
rect.iconS {
	stroke:black;fill:#303e45;fill-opacity:0.1;stroke-width:0.2;
}
text.icon {
	font-size:2;
}
rect.icontip {
	fill: #FFEFD5;
      }
text.icontip {
	fill:navy;font-weight:bold;text-anchor:middle;
      }
]]></style>

<defs id="defSymbols">
</defs>
<defs>
	<clipPath id="icontip-clip"><rect height="4" width="10" x="-5" y="3"/></clipPath>
	<!-- pas d'espace !! -->
	
</defs>
	<g id="icon-mnu" style="fill:rosybrown;stroke:none;">
	<g transform="translate(5 5)"><g transform="translate(1 1) scale(0.008)"><defs><style type="text/css"/></defs><path d="M780,65.3M244,65.3c-98.7,0-178.7,80.1-178.7,178.7l0,536c0,98.7,80,178.7,178.7,178.7l536,0c98.7,0,178.7-80,178.7-178.7L958.7,244C958.7,145.4,878.7,65.3,780,65.3ZM869.3,735.4c0,58.3-37.4,107.3-89.3,125.8l0,8.2l-44.7,0c15.7,0,30.6-3.2,44.7-8.2l0-349.1l-89.3,0l0,357.4L556.6,869.4L556.6,288.6l-89.2,0l0,580.8L333.3,869.4L333.3,422.7l-89.3,0l0,438.4c14,5,28.9,8.2,44.6,8.2l-44.6,0l0-8.2c-51.9-18.5-89.3-67.5-89.3-125.8L154.7,288.6c0-74,59.9-133.9,133.9-133.9l446.7,0c74,0,134,59.9,134,133.9L869.3,735.4Z" p-id="1899"/></g><rect class="icon" height="10" stroke-width="0.1" onmousedown="window.micon_oniconDown(evt)" ontouchstart="window.micon_oniconDown(evt)" onmouseover="window.micon_oniconOver(evt,'statistic',5,0);" onmouseout="window.micon_oniconOut(evt);" width="10" x="0" y="0" id="r0"/></g><g transform="translate(15 5)"><g transform="translate(1 1) scale(0.008)"><path d="M857.6,876.4M166.4,876.4c-14.8,0-28.2-8.4-34.6-21.8c-6.4-13.4-4.5-29.2,4.7-40.7l239.4-297.8L136.4,215.9C127.2,204.4,125.4,188.6,131.8,175.4S151.7,153.6,166.4,153.6l691.2,0C878.7,153.6,896,170.8,896,192s-17.3,38.4-38.4,38.4L246.1,230.4L455,492.4c11.2,14,11.1,34-0.1,48l-208.4,259.3L857.6,799.7c21.1,0,38.4,17.2,38.4,38.4S878.7,876.4,857.6,876.4ZM857.6,873.2l-704,0c-14.8,0-28.2-8.4-34.6-21.8c-6.4-13.4-4.5-29.2,4.7-40.7l239.4-297.8L123.6,212.6C114.4,201.1,112.6,185.3,119,172s19.8-21.8,34.6-21.8l704,0c21.2,0,38.4,17.2,38.4,38.4s-17.2,38.4-38.4,38.4L233.4,227.1l208.9,262c11.2,14,11.1,34-0.1,48l-208.4,259.3L857.6,796.4c21.2,0,38.4,17.2,38.4,38.4S878.8,873.2,857.6,873.2Z"/></g><rect class="icon" height="10" stroke-width="0.1" onmousedown="window.micon_oniconDown(evt)" ontouchstart="window.micon_oniconDown(evt)" onmouseover="window.micon_oniconOver(evt,'sum',0,0);" onmouseout="window.micon_oniconOut(evt);" width="10" x="0" y="0" id="r1"/></g><g transform="translate(25 5)"><g transform="translate(1 1) scale(0.008)"><defs><style type="text/css"/></defs><path d="M64,453.9l358.1,148L570.1,960L960,64L64,453.9ZM466.5,583.6c-4.9-11.8-14.2-21.2-26-26l-253.5-104.8l680.4-296.1l-296.1,680.4L466.5,583.6Z" p-id="3718"/></g><rect class="icon" height="10" stroke-width="0.1" onmousedown="window.micon_oniconDown(evt)" ontouchstart="window.micon_oniconDown(evt)" onmouseover="window.micon_oniconOver(evt,'svg',0,0);" onmouseout="window.micon_oniconOut(evt);" width="10" x="0" y="0" id="r2"/></g><g transform="translate(35 5)"><g transform="translate(1 1) scale(0.008)"><defs><style type="text/css"/></defs><path d="M791.6,96.9M136.2,96.9c-17.6,0-32,14.3-32,32v863.2c0,17.6,14.3,32,32,32h495.5l191.8-191.8v-703.3c0-17.7-14.3-32-32-32v0ZM775.6,768.2M599.8,768.2c-17.6,0-32,14.3-32,32v175.8h-383.6c-17.6,0-32-14.3-32-32v-767.2c0-17.7,14.3-32,32-32h559.5c17.7,0,32,14.3,32,32v591.4v0Z" p-id="1988"/><path d="M887.5,1M220.2,1c-26.5,0-48,21.5-48,48h667.4c17.7,0,32,14.3,32,32v667c26.4,0,47.7-21.3,47.9-47.6v0v-667.3c0-17.7-14.3-32-32-32v0Z" p-id="1989"/><path d="M651.8,337M630.1,430.9M613.3,430.9c-0.2-5.7-0.9-12.9-2.3-21.7c-1.4-8.8-3.4-16.7-6-23.7c-2.8-7.5-6.4-13.9-10.9-19.3c-4.5-5.4-9.8-8.5-16-9.5c-4.9-0.7-11.1-1.1-18.7-1.5c-7.6-0.3-14.6-0.5-21.1-0.5h-15.4l-64.4,279.3c-0.3,1.3-0.6,2.7-0.7,4.3c-0.2,1.5-0.2,3-0.2,4.5c0,3.9,0.7,7.1,2.2,9.6c1.5,2.5,4.2,4.8,8.3,6.7c3.3,1.3,9.1,2.9,17.7,4.8c8.5,1.9,15.5,2.9,20.9,3l-3.9,16.1h-163.4l3.9-16.1c4.9-0.3,12-1,21.2-2c9.3-1,16-2.2,20.2-3.7c6.5-2.4,11.4-5.8,14.6-10c3.3-4.2,5.5-9.3,6.8-15.1l64.9-281.5h-12.9c-4.9,0-11,0.1-18.3,0.4c-7.3,0.2-14.8,0.8-22.4,1.6c-5.4,0.7-11.6,3.9-18.8,9.6c-7.2,5.8-14.3,12.6-21.5,20.4c-6.8,7.6-13,15.4-18.5,23.3c-5.5,7.9-9.8,14.8-12.9,20.9h-17.1l21.7-93.9h301.5Z" p-id="1990"/></g><rect class="icon" height="10" stroke-width="0.1" onmousedown="window.micon_oniconDown(evt)" ontouchstart="window.micon_oniconDown(evt)" onmouseover="window.micon_oniconOver(evt,'text',0,0);" onmouseout="window.micon_oniconOut(evt);" width="10" x="0" y="0" id="r3"/></g><g transform="translate(45 5)"><g transform="translate(1 1) scale(0.008)"><defs><style type="text/css"/></defs><path d="M514,514c141.4,0,256-114.6,256-256S655.4,2,514,2S258,116.6,258,258s114.6,256,256,256Zm0-59.5c-108.5,0-196.5-88-196.5-196.5s88-196.5,196.5-196.5s196.5,88,196.5,196.5s-88,196.5-196.5,196.5Z" p-id="3053"/><path d="M1020,992.2c0-281.6-227.4-510-508-510S4,710.6,4,992.2a29.8,29.8,0,1,0,59.5,0c0-248.8,200.8-450.5,448.5-450.5s448.5,201.7,448.5,450.5a29.8,29.8,0,1,0,59.5,0Z" p-id="3054"/></g><rect class="icon" height="10" stroke-width="0.1" onmousedown="window.micon_oniconDown(evt)" ontouchstart="window.micon_oniconDown(evt)" onmouseover="window.micon_oniconOver(evt,'user',0,0);" onmouseout="window.micon_oniconOut(evt);" width="10" x="0" y="0" id="r4"/></g><g transform="translate(55 5)"><g transform="translate(1 1) scale(0.008)"><defs><style type="text/css"/></defs><path d="M511.9,1024C358,1024,71.5,794.5,71.5,577.4V163.2c0-10,8.4-18.2,18.8-18.4l25-0.4c1,0,98.8-2,199.6-41.9c103.5-40.8,170.2-87.9,170.9-88.4l14.7-10.4a19.9,19.9,0,0,1,11.4-3.6a19.5,19.5,0,0,1,11.3,3.5l15,10.5c0.7,0.5,67.4,47.5,170.8,88.4c100.9,39.9,198.7,41.9,199.7,41.9l24.8,0.4c10.4,0.2,18.8,8.3,18.8,18.4l0.2,414.3c0,217-286.5,446.5-440.6,446.5Zm372.6-812.6c-37.9-2.8-117.5-12.6-200.3-45.4c-84.6-33.4-146.7-71-172.4-87.6c-25.6,16.5-87.8,54.1-172.3,87.6c-82.6,32.7-162,42.5-200.4,45.4v366c0,170.2,249.6,378.3,372.7,378.3c47.7,0,140.7-38.7,232.1-123.8c88.1-81.9,140.7-177.1,140.7-254.5Zm-407.9,435.7a33.3,33.3,0,0,1,-23.9,10a33.7,33.7,0,0,1,-24-10l-101.7-102.3a34.3,34.3,0,0,1,0-48.3a33.7,33.7,0,0,1,47.9,0l77.7,78.2l196.3-197.7a33.6,33.6,0,0,1,47.9,0a34.2,34.2,0,0,1,0,48.3Zm0,0" p-id="2295"/></g><rect class="icon" height="10" stroke-width="0.1" onmousedown="window.micon_oniconDown(evt)" ontouchstart="window.micon_oniconDown(evt)" onmouseover="window.micon_oniconOver(evt,'verification',0,0);" onmouseout="window.micon_oniconOut(evt);" width="10" x="0" y="0" id="r5"/></g><g transform="translate(65 5)"><g transform="translate(1 1) scale(0.008)"><defs><style type="text/css"/></defs><path d="M909.8 229.4c2-20.6-14.1-36.7-35.1-34.7-96.9-1.6-194.1 0-291.4-0.4v-72.6h-53.7c-139.2 24.6-278.5 48.4-417.7 72.6v635.3c138.4 24.2 276.9 47.2 415.3 72.7h56.9v-72.7c90.8 0 181.6 0 272.4 0.4 15.3-0.8 32.7 0.4 46-8.9 10.5-16.1 7.7-36.7 8.9-54.9-1.6-179.2 0.4-358-1.6-536.8zM415 635.4c-15.3 7.7-37.9-0.4-55.7 0.8-12.1-60.1-26.2-119.9-36.7-180-10.5 58.5-24.6 116.6-36.7 175.2-17.4-0.8-35.1-2-52.5-3.2-15.3-79.9-32.7-159-46.8-239.3 15.3-0.8 31.1-1.2 46.8-2 9.3 57.7 19.8 115.4 28.3 173.1l38.7-178c17.4-0.8 34.3-1.6 51.7-2.8 12.1 61.4 24.6 122.3 37.5 183.6 10.5-63 21.8-125.9 32.7-188.9 18.2-0.8 36.3-1.6 54.5-2.8-21.4 87.9-39.6 176.7-61.8 264.3z m468.2 167.1H583.7v-72.7h236.1v-36.3H583.7v-45.6h236.1v-36.3H583.7V566h236.1v-36.3H583.7v-45.6h236.1v-36.3H583.7V403h236.1v-36.3H583.7v-45.2h236.1v-36.3H583.7v-63.8h299.5v581.1z m0 0" p-id="1257"/></g><rect class="icon" height="10" stroke-width="0.1" onmousedown="window.micon_oniconDown(evt)" ontouchstart="window.micon_oniconDown(evt)" onmouseover="window.micon_oniconOver(evt,'word',0,0);" onmouseout="window.micon_oniconOut(evt);" width="10" x="0" y="0" id="r6"/></g><g transform="translate(75 5)"><g transform="translate(1 1) scale(0.008)"><defs><style type="text/css"/></defs><path d="M619.4,933.4c1.4,0.1,2.7,0.2,4.1,0.2H932.7a65.7,65.7,0,0,0,65.6-65.6V151a65.7,65.7,0,0,0,-65.6-65.6H623.4c-1.4,0-2.7,0.1-4.1,0.2V0L15.7,80.6v858.4l603.7,82.7v-88.2Zm0-810.1c1.3-0.2,2.7-0.4,4.1-0.4H932.7c15.5,0,28.1,12.6,28.1,28.1v717a28.2,28.2,0,0,1,-28.1,28.1H623.4c-1.4,0-2.7-0.2-4.1-0.4V123.4ZM248.3,605.4l-143.9-3.7v-23.4l86.9-133.3v-1.2l-78.9,1.3v-36l134.6-3.5v26.1l-87.5,133.7v1.1l88.9,1.4v37.4Zm72.4,1.9l-44.8-1.1V405l44.8-1.1v203.5Zm171.1-93c-16.7,15.4-41.1,22.1-69.3,21.9a113.8,113.8,0,0,1,-16.1-1.1v74.4l-46.1-1.2V405.5c14.2-2.8,34.4-5.2,63.2-5.9c29.5-0.8,50.8,4.3,65.2,15.3c13.9,10.4,23.3,28,23.3,48.8s-7.1,38.6-20.1,50.6Zm-65.9-79.2a80.1,80.1,0,0,0,-19.5,2.2v61.4c4,0.9,9,1.2,15.8,1.2c25.4,0,41.2-12.9,41.2-34.5c0-19.4-13.6-30.7-37.5-30.3ZM732.2,138.9h73.5v30.3H732.2v-30.3Zm-73.6,45.4h73.5v30.4h-73.5v-30.4Zm73.6,49.7h73.5v30.4H732.2v-30.4Zm0,95.9h73.5v30.3H732.2v-30.3Zm-73.6-48.7h73.5v30.3h-73.5v-30.3Zm72.8,376.1a72.8,72.8,0,0,0,72.8-72.8L790.8,462.5c0-40.2-19.2-72.8-59.4-72.8s-59.3,32.6-59.3,72.8l-13.5,122a72.8,72.8,0,0,0,72.8,72.8Zm-24.1-133.9h48.2v101.8h-48.2v-101.8Z" fill="" p-id="2820"/></g><rect class="icon" height="10" stroke-width="0.1" onmousedown="window.micon_oniconDown(evt)" ontouchstart="window.micon_oniconDown(evt)" onmouseover="window.micon_oniconOver(evt,'zip',0,0);" onmouseout="window.micon_oniconOut(evt);" width="10" x="0" y="0" id="r7"/></g></g>
	<g id="icon-tip" visibility="hidden"><rect rx="0.5" class="icontip"/><text font-size="2.5" class="icontip unselect" x="5" y="12">aa</text></g> 
</svg>