<svg xmlns="http://www.w3.org/2000/svg" xmlns:xlink="http://www.w3.org/1999/xlink" width="458px" height="460px" viewBox="100 100 100 100" preserveAspectRatio="xMidYMid meet" ><rect id="svgEditorBackground" x="100" y="100" width="100" height="100" style="fill:none; stroke: none;"/><defs id="svgEditorDefs"><symbol id="1f5bc" viewBox="0 0 64 64" preserveAspectRatio="xMidYMid meet"><rect x="0" y="0" width="64" height="64" style="stroke:none;fill:none;"/><g xmlns="http://www.w3.org/2000/svg"><path d="m0 0v64l32-32z" fill="#333"/><path d="m64 0h-64l32 32z" fill="#697277"/><path d="m0 64h64l-32-32z" fill="#333"/><g fill="#52595e"><path d="m32 32l32 32v-64z"/><path d="m4 4v56l28-28z"/></g><path d="m60 4h-56l28 28z" fill="#333"/><path d="m4 60h56l-28-28z" fill="#697277"/><path d="m32 32l28 28v-56z" fill="#333"/><path d="M56,54.293C56,55.235,55.236,56,54.295,56H9.707C8.766,56,8,55.235,8,54.293V9.707    C8,8.764,8.766,8,9.707,8h44.588C55.236,8,56,8.764,56,9.707V54.293z" fill="#d0d0d0"/><path d="M56,54.293C56,55.235,55.236,56,54.295,56H9.707C8.766,56,8,55.235,8,54.293V9.707    C8,8.764,8.766,8,9.707,8h44.588C55.236,8,56,8.764,56,9.707V54.293z" fill="#42ade2"/><path d="M 8.193,35.669 H56 V56 H8.193 z" fill="#fed0ac"/><circle cx="46.765" cy="18.517" fill="#ffce31" r="5.03"/><path d="m17.848 39.925l14.252 4.066v-16.644z" fill="#89664c"/><path d="m46.35 39.925l-14.25 4.066v-16.644z" fill="#d3976e"/><path d="m6 6v52h52v-52h-52m48.5 48.5h-45v-45h45v45" fill="#fff"/></g></symbol></defs><use xlink:href="#1f5bc" x="100" y="100" width="102" height="102" id="e1_emoji"/></svg>