<svg xmlns="http://www.w3.org/2000/svg" xmlns:xlink="http://www.w3.org/1999/xlink" width="452px" height="450px" viewBox="90 89 221 220" preserveAspectRatio="xMidYMid meet" ><rect id="svgEditorBackground" x="90" y="89" width="221" height="220" style="fill:none; stroke: none;"/><defs id="svgEditorDefs"><polygon id="svgEditorShapeDefs" style="fill:rosybrown;stroke:none;vector-effect:non-scaling-stroke;stroke-width:1px;"/><linearGradient gradientUnits="objectBoundingBox" id="lgrd2-fire" spreadMethod="pad" x1="0%" x2="100%" y1="0%" y2="0%"><stop offset="0%" style="stop-color:rgb(255,255,0);stop-opacity:1"/><stop offset="100%" style="stop-color:rgb(255,0,0);stop-opacity:1"/></linearGradient><radialGradient cx="50%" cy="50%" fx="50%" fy="50%" id="rgrd2-white-blue" r="50%"><stop offset="0%" style="stop-color:white;stop-opacity:0"/><stop offset="100%" style="stop-color:blue;stop-opacity:1"/></radialGradient><linearGradient id="lgrd3-fr-v" x1="0" x2="0" y1="0" y2="100%"><stop offset="0%" stop-color="blue"/><stop offset="50%" stop-color="black" stop-opacity="0"/><stop offset="100%" stop-color="red"/></linearGradient><linearGradient gradientUnits="objectBoundingBox" id="lgrd6-arc" spreadMethod="pad" x1="0.52" x2="0.55" y1="1" y2="0"><stop offset="0.11" style="stop-color:red;stop-opacity:1;"/><stop offset="0.265" style="stop-color:rgb(255, 140, 0);stop-opacity:0.735;"/><stop offset="0.54" stop-color="yellow"/><stop offset="0.7" stop-color="rgb(50, 205, 50)"/><stop offset="0.79" stop-color="#0071FF" stop-opacity="0.605"/><stop offset="1" stop-color="rgb(148, 0, 211)"/></linearGradient><radialGradient cy="60%" fx="45%" fy="45%" gradientUnits="objectBoundingBox" id="rgrd11-b" r="2"><stop offset="0%" stop-color="#48afc1"/><stop offset="10%" stop-color="#b4c63b"/><stop offset="20%" stop-color="#ef5b2b"/><stop offset="30%" stop-color="#503969"/><stop offset="40%" stop-color="#ab6294"/><stop offset="50%" stop-color="#1cb98f"/><stop offset="60%" stop-color="#48afc1"/><stop offset="70%" stop-color="#b4c63b"/><stop offset="80%" stop-color="#ef5b2b"/><stop offset="90%" stop-color="#503969"/><stop offset="100%" stop-color="#ab6294"/></radialGradient><linearGradient gradientUnits="objectBoundingBox" id="lgrd4-green-red-blue" spreadMethod="pad" x1="0%" x2="100%" y1="0%" y2="0%"><stop offset="10%" stop-color="#00cc00" stop-opacity="1"/><stop offset="30%" stop-color="#006600" stop-opacity="1"/><stop offset="70%" stop-color="#cc0000" stop-opacity="1"/><stop offset="90%" stop-color="#000099" stop-opacity="1"/></linearGradient><linearGradient id="lgrd3-fr-h"><stop offset="0%" stop-color="blue"/><stop offset="50%" stop-color="black" stop-opacity="0"/><stop offset="100%" stop-color="red"/></linearGradient><linearGradient gradientUnits="objectBoundingBox" id="lrgd2-e1" spreadMethod="pad" x1="0%" x2="100%" y1="0%" y2="0%"><stop offset="0%" stop-color="lightblue"/><stop offset="100%" stop-color="#ef5b2b"/></linearGradient><linearGradient gradientUnits="objectBoundingBox" id="lgrd2-black-white" spreadMethod="pad" x1="0%" x2="100%" y1="0%" y2="100%"><stop offset="0%" stop-color="black"/><stop offset="100%" stop-color="white"/></linearGradient><radialGradient gradientUnits="objectBoundingBox" id="rgrd-wave" r="5%" spreadMethod="reflect"><stop offset="0%" stop-color="navy" stop-opacity="1.00"/><stop offset="20%" stop-color="navy" stop-opacity="0.90"/><stop offset="40%" stop-color="navy" stop-opacity="0.65"/><stop offset="60%" stop-color="navy" stop-opacity="0.35"/><stop offset="80%" stop-color="navy" stop-opacity="0.10"/><stop offset="100%" stop-color="navy" stop-opacity="0.00"/></radialGradient></defs><path d="M112,60c-2.9170000000000016,0,-5.6440000000000055,0.7939999999999969,-8,2.1580000000000013v-38.158h-38.158c1.3649999999999949,-2.3550000000000004,2.1580000000000013,-5.082999999999998,2.1580000000000013,-8c0,-8.836,-7.162999999999997,-16,-16,-16s-16,7.163,-16,16c0,2.9170000000000016,0.7939999999999969,5.645,2.1580000000000013,8h-38.158v38.158c2.356,-1.3639999999999972,5.083,-2.1580000000000013,8,-2.1580000000000013c8.837,0,16,7.162999999999997,16,16s-7.163,16,-16,16c-2.917,0,-5.644,-0.7939999999999969,-8,-2.1580000000000013v38.158h38.158c-1.3639999999999972,-2.3559999999999945,-2.1580000000000013,-5.082999999999998,-2.1580000000000013,-8c0,-8.837000000000003,7.162999999999997,-16,16,-16s16,7.162999999999997,16,16c0,2.9170000000000016,-0.7939999999999969,5.6440000000000055,-2.1580000000000013,8h38.158v-38.158c2.3559999999999945,1.3649999999999949,5.082999999999998,2.1580000000000013,8,2.1580000000000013c8.837000000000003,0,16,-7.162999999999997,16,-16s-7.162999999999997,-16,-16,-16Z" style="fill:url(#lgrd2-fire); stroke:none; vector-effect:non-scaling-stroke;stroke-width:1px;" id="e1_shape" transform="matrix(0.78125 0 0 0.78125 100 99)"/><path d="M44.28222021139954,38.141c-3.357999999999997,-5.8160000000000025,-1.3389999999999986,-13.268999999999998,4.509999999999998,-16.655l-6.2890000000000015,-10.893c-1.796999999999997,1.0530000000000008,-3.886000000000003,1.657,-6.115000000000002,1.657c-6.720999999999993,0,-12.169000000000004,-5.484,-12.169000000000004,-12.249h-12.579c0.01699999999999946,2.088,-0.504999999999999,4.205,-1.6219999999999999,6.141c-3.3579999999999988,5.815999999999999,-10.822,7.7940000000000005,-16.679,4.422000000000001l-6.289,10.893c1.8109999999999982,1.029,3.378,2.536999999999999,4.493,4.466999999999999c3.3520000000000003,5.806999999999999,1.3450000000000006,13.245000000000001,-4.481999999999999,16.639l6.288999999999999,10.893c1.7909999999999995,-1.043999999999997,3.87,-1.6409999999999982,6.088,-1.6409999999999982c6.699999999999999,0,12.134,5.450000000000003,12.169,12.185000000000002h12.578c-0.005000000000002558,-2.067,0.517000000000003,-4.161000000000001,1.6229999999999976,-6.0760000000000005c3.3519999999999968,-5.807000000000002,10.798000000000002,-7.786999999999999,16.650999999999996,-4.438000000000002l6.2890000000000015,-10.893c-1.7989999999999995,-1.0290000000000035,-3.3560000000000016,-2.530999999999999,-4.465000000000003,-4.451999999999998ZM17.92022021139954,44.958c-7.157,0,-12.959,-5.801000000000002,-12.959,-12.957999999999998s5.802,-12.957999999999998,12.959,-12.957999999999998c7.1569999999999965,0,12.957999999999998,5.802,12.957999999999998,12.957999999999998s-5.801000000000002,12.957999999999998,-12.957999999999998,12.957999999999998Z" style="fill:url(#rgrd2-white-blue); stroke:none; vector-effect:non-scaling-stroke;stroke-width:1px;" id="e2_shape" transform="matrix(1.56252 0 0 1.56252 227.234 99.9984)"/><g style="fill:url(#rgrd-wave); stroke:black; vector-effect:non-scaling-stroke;stroke-width:1px;" id="e4_shape" transform="matrix(0.62499 0 0 0.62499 104.001 219.999)"><path d="M85.41,91.387l-26.650999999999996,7.141000000000005l-7.554000000000002,28.189999999999998c4.134999999999998,0.8389999999999986,8.412999999999997,1.2819999999999965,12.795000000000002,1.2819999999999965c16.152,0,30.894999999999996,-5.995999999999995,42.156000000000006,-15.867000000000004l-20.747,-20.745999999999995Z"/><path d="M124.693 43.699c-6.359-19.019-21.397-34.050-40.419-40.401l-7.647 28.541 19.511 19.511 28.555-7.651z"/><path d="M0 64c0 4.373 0.442 8.642 1.277 12.768l28.172-7.549 7.141-26.653-20.724-20.724c-9.871 11.261-15.867 26.005-15.867 42.157z"/><path d="M44.318 44.637l-7.141 26.652 19.51 19.51 26.653-7.141 7.141-26.651-19.51-19.511z"/><path d="M98.208 59.077l-7.141 26.651 20.769 20.769c10.050-11.303 16.165-26.183 16.165-42.498 0-4.304-0.432-8.507-1.242-12.572l-28.55 7.65z"/><path d="M3.371 84.489c6.368 18.85 21.268 33.755 40.114 40.132l7.547-28.163-19.511-19.511-28.149 7.543z"/><path d="M21.501 16.165l20.746 20.746 26.653-7.141 7.645-28.532c-4.058-0.807-8.251-1.237-12.545-1.237-16.315 0-31.195 6.115-42.499 16.165z"/></g><path d="M112.798,26.134l-24.798000000000002,21.866v-22.222c0,-5.399999999999999,-4.378,-9.778,-9.778000000000006,-9.778h-68.445c-5.4,0,-9.778,4.378000000000002,-9.778,9.778v76.445c0,5.400000000000006,4.378,9.778000000000006,9.778,9.778000000000006h68.445c5.400000000000006,0,9.778000000000006,-4.378,9.778000000000006,-9.778000000000006v-22.22200000000001l24.798000000000002,21.866c6.498000000000005,4.331999999999994,15.201999999999998,-0.3259999999999934,15.201999999999998,-8.135999999999996v-59.459c0,-7.810000000000002,-8.704000000000008,-12.468,-15.201999999999998,-8.136Z" style="fill:url(#lrgd2-e1); stroke:none; vector-effect:non-scaling-stroke;stroke-width:1px;" id="e5_shape" transform="matrix(0.703119 0 0 0.703119 209.001 208.75)"/></svg>