<svg xmlns="http://www.w3.org/2000/svg" xmlns:xlink="http://www.w3.org/1999/xlink" width="100%" height="100%" viewBox="-4 64 130 130" preserveAspectRatio="xMidYMid meet">
<polygon style="stroke:none;fill:rgb(61,65,81);stroke-width:1px;" points="88 188 88 187 87 186 78 186 76 185 67.6783 164.287 63.2035 167.967 72 186 66 187 65 188 65 189 68 189 76 189"/>
<polygon style="stroke:none;fill:rgb(61,65,81);stroke-width:1px;" points="109 91 99 86 94 84 92 84 88 87 85 88 85 91 87 93"/>
<polygon style="stroke:none;fill:rgb(40,32,32);stroke-width:1px;" points="110 91 101 94 90 95 85 105 83 124 82 126 77 129 70 130 62 128 58 123 57 113 58 103 58 88 67 79 79 76 83 77 85 79 86 84 84 87 78 89 69 88 67 89 68 92 71 93 73 92 76 95 77 99 80 100 85 97 88 92"/>
<polygon style="stroke:none;fill:rgb(187,211,52);stroke-width:1px;"  points="79 82 74 82 71 85 71 88 73 90 78 90 80 88 80 83"/>
<polygon style="stroke:none;fill:rgb(65,88,160);stroke-width:1px;" points="92 84 92 83 91 81 86 76 80 72 65 72 57 75 51 82 47 90 44 98 38 102 49 103 54 106 58 109 58 88 65 81 71 78 76 77 83 77 85 79 85 82 85 84 83 87 79.7975 88.0997 78 90 75 89 72 88 68 88 67 89 67 93 71 93 72 93 75 95 77 99 78 101 80 101 82 100 83 98 85 98 86 96 88 92 87 92 87 91 85 91 85 88 89 87"/>
<polygon style="stroke:none;fill:rgb(187,211,52);stroke-width:1px;" points="85 105 83 124 77 129 69 130 64 128 60 125 58 121 57 108 50 102 39 102 42 105 44 107 44 115 42 124 40 130 42 138 50 143 58 146 69 148 78 145 81 144 86 139 88 134 88 125 87 118"/>
<polygon style="stroke:none;fill:rgb(85,121,36);stroke-width:1px;" points="40 101 44 106 44 117 41 129 35 143 29 150 27 150 22 143 21 136 22 125 25 113 32 105 36 102"/>
<polygon style="stroke:none;fill:rgb(85,121,36);stroke-width:1px;" points="86 110 92 121 92 134 91 142 83 153 82 143 86 139 88 132 88 124 86 118"/><polygon style="stroke:none;fill:rgb(154,171,58);stroke-width:1px;" points="41 127 35 141 29 149 29 153 37 158 40 163 42 164 46 162 47 163 58 163 62 164 63 168 67 168 68 163 75 159 83.0678 152.882 83 150 84 148 82.3721 142.855 72 147 57 145 48 142 43 136 41 131"/>
<polygon style="stroke:none;fill:rgb(89,80,40);stroke-width:1px;" points="29 151 21 166 18 170 16 176 16 178 19 180 24 180 34 180 39 181 45 169 47 164 47 162 44 160 42 164 40 163 39 159 33 155"/>
<polygon style="stroke:none;fill:rgb(40,32,32);stroke-width:1px;" points="79 84 75 83 74 85 74 87 75 88 77 88 78 87 79 87"/>
<polygon style="stroke:none;fill:rgb(61,65,81);stroke-width:1px;" points="53 188 52 186 48 186 45 186 44 184 44 182 44 172 46.9469 164.244 47 161.779 43.8644 159.92 42 164 40 163 40 179 41 186 36 186 34 187 37 188 43 189 47 189"/>
</svg>